<svg width="87" height="22" viewBox="0 0 87 22" fill="none" xmlns="http://www.w3.org/2000/svg">
<path fill-rule="evenodd" clip-rule="evenodd" d="M74.082 14.3052C74.082 14.6449 73.7851 14.9207 73.4227 14.9207C73.06 14.9207 72.7663 14.6449 72.7663 14.3052C72.7663 13.9669 73.06 13.689 73.4227 13.689C73.7851 13.689 74.082 13.9669 74.082 14.3052ZM74.082 5.45027C74.082 5.79026 73.7851 6.06641 73.4227 6.06641C73.06 6.06641 72.7663 5.79026 72.7663 5.45019C72.7663 5.11124 73.06 4.83472 73.4227 4.83472C73.7851 4.83472 74.082 5.11124 74.082 5.45019M71.0542 13.6084C71.4673 13.6084 71.8006 13.9205 71.8006 14.3032C71.8006 14.6883 71.4673 15.0014 71.0542 15.0014C70.6447 15.0014 70.3101 14.688 70.3101 14.3032C70.3101 13.9205 70.6447 13.6084 71.0542 13.6084ZM71.0542 11.4767C71.418 11.4767 71.7131 11.7545 71.7131 12.0908C71.7131 12.4305 71.418 12.705 71.0542 12.705C70.6926 12.705 70.3975 12.4305 70.3975 12.0908C70.3975 11.7545 70.6926 11.4767 71.0542 11.4767ZM80.5289 11.4767C80.8923 11.4767 81.1856 11.7545 81.1856 12.0908C81.1856 12.4305 80.8923 12.705 80.5289 12.705C80.1669 12.705 79.8707 12.4305 79.8707 12.0908C79.8707 11.7545 80.1669 11.4767 80.5289 11.4767ZM71.0542 9.34605C71.3709 9.34605 71.625 9.58477 71.625 9.87837C71.625 10.1734 71.3709 10.4109 71.0542 10.4109C70.7405 10.4109 70.4864 10.1734 70.4864 9.87837C70.4864 9.58477 70.7405 9.34597 71.0542 9.34597M72.8549 12.0908C72.8549 12.3851 73.1096 12.6222 73.4227 12.6222C73.7379 12.6222 73.9938 12.3851 73.9938 12.0908C73.9938 11.7986 73.7379 11.5601 73.4227 11.5601C73.1096 11.5601 72.8549 11.7986 72.8549 12.0908ZM77.5911 12.0908C77.5911 12.3851 77.8477 12.6222 78.1597 12.6222C78.4742 12.6222 78.73 12.3851 78.73 12.0908C78.73 11.7986 78.4742 11.5601 78.1597 11.5601C77.8477 11.5601 77.5911 11.7986 77.5911 12.0908ZM72.8549 7.66436C72.8549 7.95863 73.1096 8.19676 73.4227 8.19676C73.7379 8.19676 73.9938 7.95856 73.9938 7.66436C73.9938 7.37001 73.7379 7.13188 73.4227 7.13188C73.1096 7.13159 72.8549 7.36971 72.8549 7.66436ZM77.5911 7.66436C77.5911 7.95863 77.8477 8.19676 78.1597 8.19676C78.4742 8.19676 78.73 7.95856 78.73 7.66436C78.73 7.37001 78.4742 7.13188 78.1597 7.13188C77.8477 7.13159 77.5911 7.36971 77.5911 7.66436ZM73.9071 9.87771C73.9071 9.62782 73.6908 9.42772 73.4227 9.42772C73.1575 9.42772 72.9412 9.62819 72.9412 9.87771C72.9412 10.1266 73.1575 10.3278 73.4227 10.3278C73.6908 10.3281 73.9071 10.1266 73.9071 9.87771ZM67.7674 16.5176C67.7674 16.9925 68.1791 17.3777 68.6854 17.3777C69.1942 17.3777 69.6066 16.9925 69.6066 16.5176C69.6066 16.0427 69.1942 15.6583 68.6854 15.6583C68.1791 15.6586 67.7674 16.0427 67.7674 16.5176ZM67.7674 12.0908C67.7674 12.567 68.1791 12.9521 68.6854 12.9521C69.1942 12.9521 69.6066 12.567 69.6066 12.0908C69.6066 11.6159 69.1942 11.2321 68.6854 11.2321C68.1791 11.2321 67.7674 11.6159 67.7674 12.0908ZM67.7674 7.66436C67.7674 8.13891 68.1791 8.52433 68.6854 8.52433C69.1942 8.52433 69.6066 8.13891 69.6066 7.66436C69.6066 7.18943 69.1942 6.80469 68.6854 6.80469C68.1791 6.80469 67.7674 7.18936 67.7674 7.66428M72.5048 16.5176C72.5048 16.9925 72.9154 17.3777 73.4227 17.3777C73.9323 17.3777 74.344 16.9925 74.344 16.5176C74.344 16.0427 73.9323 15.6583 73.4227 15.6583C72.9154 15.6586 72.5048 16.0427 72.5048 16.5176ZM77.2399 16.5176C77.2399 16.9925 77.6531 17.3777 78.1597 17.3777C78.6696 17.3777 79.0801 16.9925 79.0801 16.5176C79.0801 16.0427 78.6696 15.6583 78.1597 15.6583C77.6534 15.6586 77.2399 16.0427 77.2399 16.5176ZM76.3612 14.3052C76.3612 14.5989 76.1053 14.838 75.7909 14.838C75.4785 14.838 75.222 14.5988 75.222 14.3052C75.222 14.0109 75.4785 13.7719 75.7909 13.7719C76.1053 13.7719 76.3611 14.0109 76.3611 14.3052M76.2763 12.0908C76.2763 12.339 76.0586 12.5422 75.7909 12.5422C75.5267 12.5422 75.3105 12.339 75.3105 12.0908C75.3105 11.8412 75.5267 11.6401 75.7909 11.6401C76.0582 11.6401 76.2763 11.8412 76.2763 12.0908Z" fill="#C4122F"/>
<path d="M76.1852 9.87772C76.1852 9.67458 76.0089 9.50977 75.7908 9.50977C75.5742 9.50977 75.3986 9.67495 75.3986 9.87772C75.3986 10.0799 75.5742 10.2457 75.7908 10.2457C76.0089 10.2457 76.1852 10.0799 76.1852 9.87772" fill="#C4122F"/>
<path fill-rule="evenodd" clip-rule="evenodd" d="M74.168 3.23584C74.168 2.85176 73.8354 2.53966 73.4227 2.53966C73.0128 2.53966 72.68 2.85183 72.68 3.23584C72.68 3.62126 73.0132 3.9341 73.4227 3.9341C73.8354 3.9341 74.1679 3.62163 74.1679 3.23584M74.2561 1.02242C74.2561 0.593654 73.8826 0.244859 73.4227 0.244859C72.9643 0.244859 72.5922 0.593654 72.5922 1.02242C72.5922 1.45266 72.9639 1.80212 73.4227 1.80212C73.8826 1.80212 74.2561 1.45229 74.2561 1.02242M82.1525 12.0909C82.1525 12.4759 82.4864 12.787 82.897 12.787C83.3093 12.787 83.6411 12.4755 83.6411 12.0909C83.6411 11.7055 83.309 11.3953 82.897 11.3953C82.4864 11.3953 82.1525 11.7054 82.1525 12.0909ZM86.0981 12.0909C86.0981 11.6627 85.7264 11.3135 85.2654 11.3135C84.8062 11.3135 84.4328 11.6623 84.4328 12.0909C84.4328 12.5196 84.8063 12.8691 85.2654 12.8691C85.7261 12.8695 86.0981 12.5199 86.0981 12.0909ZM81.2741 5.4503C81.2741 5.83498 80.9417 6.14686 80.5288 6.14686C80.1172 6.14686 79.7832 5.83505 79.7832 5.4503C79.7832 5.06519 80.1176 4.75404 80.5288 4.75404C80.942 4.75375 81.2741 5.06519 81.2741 5.4503M83.8175 3.23584C83.8175 3.7121 83.4043 4.09825 82.897 4.09825C82.3896 4.09825 81.9765 3.7118 81.9765 3.23584C81.9765 2.76166 82.3892 2.37684 82.897 2.37684C83.404 2.37684 83.8175 2.76166 83.8175 3.23584ZM86.3623 1.02242C86.3623 1.58885 85.8707 2.04661 85.2651 2.04661C84.6609 2.04661 84.1705 1.58848 84.1705 1.02242C84.1705 0.457391 84.6609 0 85.2651 0C85.8707 0 86.3623 0.457391 86.3623 1.02242Z" fill="#C4122F"/>
<path d="M6.04897 20.9448H7.57217V15.6553C7.54197 15.6553 6.07918 15.8544 6.04897 15.8544V20.9448ZM26.6528 17.8297C26.6554 17.8075 26.6604 17.7752 26.6672 17.7305C26.7792 17.0329 27.1689 16.6546 27.809 16.6546C28.4308 16.6546 28.7831 17.0363 28.7947 17.7318L28.7957 17.747L26.6528 17.8297M27.8292 15.66C26.1944 15.66 25.0519 16.7622 25.0519 18.3396C25.0519 20.0273 26.1778 21.0716 27.9922 21.0716C29.1289 21.0716 29.6993 20.778 30.0779 20.5829L30.0829 20.5803C30.0695 20.5587 29.6107 19.7145 29.5957 19.6906C29.5758 19.6996 29.5563 19.709 29.537 19.7189C29.2578 19.8497 28.8363 20.0481 28.1311 20.0481C27.0181 20.0481 26.7194 19.3113 26.6676 18.6931L26.6658 18.6779H30.2499C30.2648 18.5192 30.2723 18.3601 30.2725 18.201C30.2725 17.381 30.0516 16.7282 29.6197 16.2934C29.1999 15.8726 28.5989 15.66 27.8292 15.66ZM32.7363 17.8297C32.7381 17.8075 32.7407 17.7752 32.7496 17.7305C32.8608 17.0329 33.2495 16.6546 33.8889 16.6546C34.5121 16.6546 34.8648 17.0363 34.8764 17.7318L34.8781 17.747L32.7363 17.8297M33.9123 15.66C32.275 15.66 31.1336 16.7622 31.1336 18.3396C31.1336 20.0273 32.2617 21.0716 34.0739 21.0716C35.2127 21.0716 35.7824 20.778 36.1592 20.5829C36.1592 20.5829 36.1617 20.5816 36.1628 20.5803C36.0017 20.2835 35.8401 19.987 35.6781 19.6906C35.658 19.6995 35.6384 19.7089 35.619 19.7189C35.3391 19.8497 34.9185 20.0481 34.2135 20.0481C33.0987 20.0481 32.8026 19.3113 32.7496 18.6931L32.7471 18.6779H36.3319C36.3471 18.5192 36.3549 18.3601 36.3553 18.201C36.3553 17.381 36.1314 16.7282 35.7011 16.2934C35.2818 15.8726 34.6806 15.66 33.9123 15.66V15.66ZM43.9328 20.9448H45.4416V13.6572C45.4126 13.6572 43.9605 13.8556 43.9328 13.8556V20.9448ZM3.20942 19.6065C2.99207 19.8215 2.67003 20.069 2.15113 20.069C1.82979 20.069 1.45124 19.8574 1.45124 19.4451C1.45124 18.8807 1.98629 18.5458 2.99788 18.5458H3.20977V19.6066M3.47607 20.9448H4.86725C4.76396 20.5106 4.70927 19.9994 4.70927 19.4266V17.5623C4.70927 16.2294 4.03456 15.66 2.45233 15.66C1.26957 15.66 0.531836 16.1154 0.190357 16.3946C0.207283 16.4157 0.827657 17.1446 0.845712 17.1691C0.851007 17.1641 0.85717 17.1597 0.85717 17.1597C1.07201 17.0165 1.57146 16.6848 2.2789 16.6848C2.93165 16.6848 3.20942 16.9707 3.20942 17.4883V17.7345H2.99753C1.54803 17.7345 0 18.2141 0 19.5629C0 20.4266 0.679052 21.0717 1.68804 21.0717C2.49044 21.0717 3.00396 20.6691 3.23711 20.4253H3.29257L3.47607 20.9448ZM6.81005 13.498C6.23212 13.498 5.88735 13.8068 5.88735 14.3264C5.88735 14.8448 6.23212 15.1569 6.81005 15.1569C7.38789 15.1569 7.73232 14.8447 7.73232 14.3264C7.73198 13.8068 7.38789 13.498 6.81005 13.498ZM17.2789 18.499C16.6301 18.499 16.2433 18.1358 16.2433 17.526C16.2433 16.9182 16.6301 16.5537 17.2789 16.5537C17.9284 16.5537 18.3145 16.9182 18.3145 17.526C18.3145 18.1357 17.9281 18.499 17.279 18.499M16.5938 19.3227C16.8629 19.3863 17.3488 19.3863 17.3488 19.3863C18.8418 19.3863 19.7673 18.6742 19.7673 17.526C19.7673 17.404 19.7395 17.1772 19.7043 17.0511C19.6687 16.929 19.6226 16.8099 19.5614 16.7023C19.5614 16.7023 19.5337 16.6542 19.5251 16.6418H20.1559L20.4178 15.7667C20.2743 15.697 20.0821 15.6597 19.8313 15.6597C19.4124 15.6597 19.1155 15.8561 18.922 16.0559C18.7011 15.9187 18.4359 15.8194 18.1347 15.7471C17.8795 15.6879 17.6078 15.6597 17.2681 15.6597C15.7741 15.6597 14.8029 16.373 14.7806 17.488C14.7806 17.4971 14.7794 17.526 14.7794 17.526C14.7794 18.305 15.249 18.7681 15.7183 19.0251C15.2876 19.4784 14.8431 19.9631 14.8431 20.4144C14.8431 20.482 14.8492 21.2348 16.1842 21.1553C16.664 21.1251 17.516 21.0686 17.9889 21.0686C18.9176 21.0686 18.7788 21.8075 18.7788 21.8075H20.0756C20.596 20.0596 19.3286 19.9708 18.705 19.9708C18.0807 19.9708 16.8464 20.1258 16.628 20.1457C16.4106 20.1669 16.1368 20.1871 16.1368 19.9815C16.1368 19.9022 16.2066 19.7878 16.2955 19.6806L16.5938 19.3227ZM22.446 15.6762C22.4225 15.6762 21.1623 15.9863 21.126 15.9863C21.2235 16.3909 21.2782 16.6801 21.2847 17.189V20.9445H22.7957V17.6165C22.9379 17.3793 23.343 16.8886 24.0371 16.8886C24.3661 16.8886 24.6287 16.9728 24.6287 16.9728L24.9828 15.7936C24.7993 15.7027 24.5553 15.6597 24.2358 15.6597C23.4622 15.6597 22.9907 16.1814 22.7957 16.4907H22.7306L22.4459 15.6762M10.1551 15.6762C10.1325 15.6762 8.87221 15.9863 8.83488 15.9863C8.93349 16.3909 8.98635 16.6801 8.9939 17.189V20.9445H10.5049V17.6165C10.6464 17.3793 11.0529 16.8886 11.7481 16.8886C12.0745 16.8886 12.338 16.9728 12.338 16.9728L12.6912 15.7936C12.5085 15.7027 12.2652 15.6597 11.9457 15.6597C11.1702 15.6597 10.6992 16.1814 10.5049 16.4907H10.4408L10.1551 15.6762M49.7803 19.6065C49.5633 19.8215 49.2412 20.069 48.7206 20.069C48.3989 20.069 48.0239 19.8574 48.0239 19.4451C48.0239 18.8807 48.5569 18.5458 49.5691 18.5458H49.7803V19.6066M50.0469 20.9448H51.4384C51.3341 20.5106 51.2794 19.9994 51.2794 19.4266V17.5623C51.2794 16.2294 50.6058 15.66 49.0239 15.66C47.8411 15.66 47.0998 16.1154 46.7609 16.3946C46.776 16.4157 47.397 17.1446 47.4154 17.1691C47.4191 17.1661 47.4227 17.1631 47.4262 17.1601C47.6417 17.0168 48.1412 16.6851 48.8494 16.6851C49.5032 16.6851 49.7799 16.9711 49.7799 17.4887V17.7349H49.5687C48.1185 17.7349 46.5687 18.2144 46.5687 19.5632C46.5687 20.4268 47.2477 21.072 48.2589 21.072C49.0614 21.072 49.5752 20.6694 49.8087 20.4255H49.8631L50.0469 20.9448ZM37.3844 15.9863C37.4906 16.4218 37.545 16.7339 37.545 17.3073V20.9445H39.0559V17.4026C39.41 16.9802 39.8267 16.8147 40.2294 16.8147C40.768 16.8147 40.9987 17.0538 40.9987 17.6155V20.9445H42.5076V17.3275C42.5076 16.5668 42.2182 15.6597 40.8335 15.6597C40.1512 15.6597 39.5532 15.9015 39.0563 16.3986H38.9929L38.7382 15.6762C38.7162 15.6762 37.4204 15.9863 37.3844 15.9863M52.473 15.9863C52.5784 16.4218 52.6321 16.7339 52.6321 17.3073V20.9445H54.1427V17.4026C54.496 16.9802 54.9145 16.8147 55.3165 16.8147C55.8548 16.8147 56.0847 17.0538 56.0847 17.6155V20.9445H57.5954V17.3275C57.5954 16.5668 57.3043 15.6597 55.9206 15.6597C55.2392 15.6597 54.6393 15.9015 54.143 16.3986H54.0808L53.8242 15.6762C53.8034 15.6762 52.5086 15.9863 52.473 15.9863M62.4331 17.0888V19.4451C62.3633 19.5346 61.983 19.9731 61.3662 19.9731C60.6058 19.9731 60.2039 19.4233 60.2039 18.3823C60.2039 17.338 60.654 16.74 61.4346 16.74C61.9419 16.74 62.237 16.9239 62.4331 17.084V17.0888M63.9466 19.4797V13.6904C63.9178 13.6904 62.4669 13.8889 62.4349 13.8889V16.0356L62.4123 16.0192C62.047 15.7788 61.6224 15.66 61.1107 15.66C59.6328 15.66 58.599 16.7786 58.599 18.3823C58.599 20.0737 59.4604 21.0834 60.9031 21.0834C61.5241 21.0834 62.0575 20.8698 62.4745 20.4252H62.5299L62.7134 20.9448H64.1063C64.0441 20.6892 63.9466 20.1695 63.9466 19.4797V19.4797Z" fill="#C4122F"/>
</svg>
