<svg width="11" height="11" viewBox="0 0 11 11" fill="none" xmlns="http://www.w3.org/2000/svg">
<path d="M8.125 0C8.33211 0 8.5 0.167893 8.5 0.375V0.693359C8.90224 0.807402 9.24201 0.9916 9.52441 1.29688C9.91337 1.71737 10.0861 2.24925 10.1689 2.91504C10.25 3.56733 10.25 4.40324 10.25 5.46973V5.78027C10.25 6.84676 10.25 7.68266 10.1689 8.33496C10.0861 9.00075 9.91337 9.53263 9.52441 9.95312C9.13162 10.3777 8.62825 10.5697 7.99902 10.6611C7.39015 10.7496 6.61233 10.75 5.63086 10.75H4.61914C3.63767 10.75 2.85985 10.7496 2.25098 10.6611C1.62175 10.5697 1.11838 10.3777 0.725586 9.95312C0.336631 9.53263 0.163855 9.00075 0.0810547 8.33496C-3.60575e-05 7.68266 -5.54102e-06 6.84676 0 5.78027V5.46973C-5.54102e-06 4.40324 -3.61621e-05 3.56733 0.0810547 2.91504C0.163855 2.24925 0.336631 1.71737 0.725586 1.29688C1.00799 0.9916 1.34776 0.807402 1.75 0.693359V0.375C1.75 0.167893 1.91789 1.93276e-07 2.125 0C2.33211 0 2.5 0.167893 2.5 0.375V0.557617C3.06792 0.499669 3.76677 0.499992 4.61914 0.5H5.63086C6.48323 0.499992 7.18208 0.49967 7.75 0.557617V0.375C7.75 0.167893 7.91789 1.93277e-07 8.125 0ZM9.47656 3.7334C9.44405 3.74259 9.41045 3.75 9.375 3.75H0.875C0.839216 3.75 0.80524 3.74276 0.772461 3.7334C0.752602 4.21522 0.75 4.79273 0.75 5.49707V5.75293C0.75 6.85208 0.750488 7.64244 0.825195 8.24316C0.898917 8.83557 1.03937 9.1871 1.27637 9.44336C1.5096 9.69551 1.82362 9.8412 2.3584 9.91895C2.90726 9.99872 3.63133 10 4.65039 10H5.59961C6.61867 10 7.34274 9.99872 7.8916 9.91895C8.42638 9.8412 8.7404 9.69551 8.97363 9.44336C9.21063 9.1871 9.35108 8.83557 9.4248 8.24316C9.49951 7.64244 9.5 6.85208 9.5 5.75293V5.49707C9.5 4.79271 9.49642 4.21523 9.47656 3.7334ZM3.12988 7.375C3.40584 7.37521 3.62988 7.59899 3.62988 7.875C3.62988 8.15101 3.40584 8.37479 3.12988 8.375H3.125C2.84886 8.375 2.625 8.15114 2.625 7.875C2.625 7.59886 2.84886 7.375 3.125 7.375H3.12988ZM5.12695 7.375C5.4031 7.375 5.62695 7.59886 5.62695 7.875C5.62695 8.15114 5.4031 8.375 5.12695 8.375H5.12305C4.8469 8.375 4.62305 8.15114 4.62305 7.875C4.62305 7.59886 4.8469 7.375 5.12305 7.375H5.12695ZM3.12988 5.375C3.40584 5.37521 3.62988 5.59899 3.62988 5.875C3.62988 6.15101 3.40584 6.37479 3.12988 6.375H3.125C2.84886 6.375 2.625 6.15114 2.625 5.875C2.625 5.59886 2.84886 5.375 3.125 5.375H3.12988ZM5.12695 5.375C5.4031 5.375 5.62695 5.59886 5.62695 5.875C5.62695 6.15114 5.4031 6.375 5.12695 6.375H5.12305C4.8469 6.375 4.62305 6.15114 4.62305 5.875C4.62305 5.59886 4.8469 5.375 5.12305 5.375H5.12695ZM7.125 5.375C7.40114 5.375 7.625 5.59886 7.625 5.875C7.625 6.15114 7.40114 6.375 7.125 6.375H7.12012C6.84416 6.37479 6.62012 6.15101 6.62012 5.875C6.62012 5.59899 6.84416 5.37521 7.12012 5.375H7.125ZM4.65039 1.25C3.7165 1.25 3.03052 1.25195 2.5 1.31348V1.375C2.5 1.58211 2.33211 1.75 2.125 1.75C1.95391 1.75 1.81065 1.63512 1.76562 1.47852C1.56151 1.55959 1.40624 1.66624 1.27637 1.80664C1.03963 2.06262 0.89898 2.41364 0.825195 3.00488C0.841557 3.0027 0.858042 3 0.875 3H9.375C9.39162 3 9.40778 3.00279 9.42383 3.00488C9.35004 2.41372 9.21036 2.0626 8.97363 1.80664C8.84359 1.66605 8.68793 1.55963 8.4834 1.47852C8.43829 1.63499 8.29599 1.75 8.125 1.75C7.91789 1.75 7.75 1.58211 7.75 1.375V1.31348C7.21948 1.25195 6.5335 1.25 5.59961 1.25H4.65039Z" fill="#3B457B"/>
</svg>
