<svg width="22" height="22" viewBox="0 0 22 22" fill="none" xmlns="http://www.w3.org/2000/svg">
<path fill-rule="evenodd" clip-rule="evenodd" d="M0 1C0 0.447715 0.447715 0 1 0L1.966 0C3.34908 0 4.58447 0.916372 4.93171 2.26571L5.37801 4L19.9853 4L19.9972 3.99991L20.0124 4L21 4C21.5523 4 22 4.44772 22 5C22 5.55228 21.5523 6 21 6H20.8951L20.3574 10.8393C20.2074 12.1897 19.9628 13.3613 19.1489 14.153C18.3351 14.9448 17.1572 15.157 15.8032 15.2699L7.65326 15.949C7.57487 16.0965 7.48358 16.2382 7.37979 16.3727L7.04559 16.8055C7.39513 17.1315 7.66671 17.54 7.82929 18H13.1707C13.5825 16.8348 14.6938 16 16 16C17.6569 16 19 17.3431 19 19C19 20.6569 17.6569 22 16 22C14.6938 22 13.5825 21.1652 13.1707 20H7.82929C7.41746 21.1652 6.30622 22 5 22C3.34315 22 2 20.6569 2 19C2 17.3431 3.34315 16 5 16C5.04639 16 5.09253 16.0011 5.1384 16.0031L5.79668 15.1505C5.98213 14.9102 6.04276 14.6082 5.97007 14.3257L2.99481 2.76415C2.88381 2.33282 2.47229 2 1.966 2L1 2C0.447715 2 0 1.55228 0 1ZM5 18C4.44772 18 4 18.4477 4 19C4 19.5523 4.44772 20 5 20C5.55228 20 6 19.5523 6 19C6 18.4477 5.55228 18 5 18ZM15 19C15 19.5523 15.4477 20 16 20C16.5523 20 17 19.5523 17 19C17 18.4477 16.5523 18 16 18C15.4477 18 15 18.4477 15 19Z" fill="#F4F5F8"/>
</svg>
