<svg width="15" height="15" viewBox="0 0 15 15" fill="none" xmlns="http://www.w3.org/2000/svg">
<path d="M1.14453 0C1.99344 9.01032e-05 2.74817 0.562751 2.95996 1.38574L3.29004 2.66699H3.5C3.77614 2.66699 4 2.89085 4 3.16699C4 3.42802 3.80005 3.63943 3.54492 3.66211L4.94336 9.09375C4.96017 9.15911 4.97214 9.22504 4.98145 9.29102L10.2725 8.85059C11.1869 8.77437 11.5724 8.64051 11.7861 8.43262C11.9998 8.22467 12.1448 7.84262 12.2461 6.93066L12.6084 3.66699H12.167C11.8909 3.66699 11.667 3.44313 11.667 3.16699C11.667 2.89085 11.8909 2.66699 12.167 2.66699H13.834C14.11 2.66717 14.334 2.89096 14.334 3.16699C14.334 3.44303 14.11 3.66682 13.834 3.66699H13.6143L13.2393 7.04102C13.139 7.94292 12.9789 8.66727 12.4834 9.14941C11.9878 9.63153 11.2598 9.77229 10.3555 9.84766L4.82715 10.3076C4.77134 10.4263 4.70386 10.5405 4.62207 10.6465L4.30078 11.0615C4.59978 11.2975 4.82309 11.6237 4.92969 12L8.7373 12C8.95513 11.2309 9.66119 10.6671 10.5 10.667C11.5124 10.667 12.3338 11.4876 12.334 12.5C12.334 13.5125 11.5125 14.334 10.5 14.334C9.66097 14.3338 8.95493 13.7694 8.7373 13L4.92969 13C4.712 13.7694 4.00613 14.334 3.16699 14.334C2.15447 14.334 1.33398 13.5125 1.33398 12.5C1.33416 11.4876 2.15458 10.667 3.16699 10.667C3.22365 10.667 3.27961 10.6708 3.33496 10.6758L3.83008 10.0361C3.98473 9.83581 4.03688 9.5813 3.97559 9.34277L1.99121 1.63477C1.89746 1.27088 1.55495 1.00009 1.14453 1L0.5 1C0.224007 0.999824 0 0.776034 0 0.5C0.000175674 0.224116 0.224116 0.000175674 0.5 0L1.14453 0ZM3.16699 11.667C2.70686 11.667 2.33416 12.0399 2.33398 12.5C2.33398 12.9602 2.70675 13.334 3.16699 13.334C3.62723 13.334 4 12.9602 4 12.5C3.99982 12.0399 3.62712 11.667 3.16699 11.667ZM10.5 11.667C10.04 11.6672 9.66717 12.04 9.66699 12.5C9.66699 12.9601 10.0399 13.3338 10.5 13.334C10.9602 13.334 11.334 12.9602 11.334 12.5C11.3338 12.0399 10.9601 11.667 10.5 11.667ZM7.83398 0.333984C8.10998 0.33416 8.33398 0.557951 8.33398 0.833984V2.66699L10.167 2.66699C10.4431 2.66699 10.667 2.89085 10.667 3.16699C10.667 3.44313 10.4431 3.66699 10.167 3.66699L8.33398 3.66699V5.5C8.33398 5.77603 8.10998 5.99982 7.83398 6C7.55784 6 7.33398 5.77614 7.33398 5.5V3.66699H5.5C5.22401 3.66682 5 3.44303 5 3.16699C5 2.89096 5.22401 2.66717 5.5 2.66699H7.33398V0.833984C7.33398 0.557842 7.55784 0.333984 7.83398 0.333984Z" fill="#F4F5F8"/>
</svg>
