<svg width="19" height="19" viewBox="0 0 19 19" fill="none" xmlns="http://www.w3.org/2000/svg">
<path fill-rule="evenodd" clip-rule="evenodd" d="M9.33333 18.6667C14.488 18.6667 18.6667 14.488 18.6667 9.33333C18.6667 4.17868 14.488 0 9.33333 0C4.17868 0 0 4.17868 0 9.33333C0 14.488 4.17868 18.6667 9.33333 18.6667Z" fill="#F4F5F8"/>
<path fill-rule="evenodd" clip-rule="evenodd" d="M9.33335 15.7503C12.8772 15.7503 15.75 12.8775 15.75 9.33366C15.75 5.78983 12.8772 2.91699 9.33335 2.91699C5.78953 2.91699 2.91669 5.78983 2.91669 9.33366C2.91669 12.8775 5.78953 15.7503 9.33335 15.7503Z" fill="white"/>
<path fill-rule="evenodd" clip-rule="evenodd" d="M9.33335 15.7503C12.8772 15.7503 15.75 12.8775 15.75 9.33366C15.75 5.78983 12.8772 2.91699 9.33335 2.91699C5.78953 2.91699 2.91669 5.78983 2.91669 9.33366C2.91669 12.8775 5.78953 15.7503 9.33335 15.7503ZM6.44598 8.8211C6.21817 9.0489 6.21817 9.41825 6.44598 9.64605L8.0959 11.296C8.3237 11.5238 8.69305 11.5238 8.92085 11.296L12.2207 7.99614C12.4485 7.76833 12.4485 7.39899 12.2207 7.17118C11.9929 6.94337 11.6235 6.94337 11.3957 7.17118L8.50838 10.0585L7.27094 8.8211C7.04313 8.59329 6.67379 8.59329 6.44598 8.8211Z" fill="#009CE7"/>
</svg>
