<svg width="11" height="9" viewBox="0 0 11 9" fill="none" xmlns="http://www.w3.org/2000/svg">
<path d="M2.83475 8.33334C2.83475 8.33334 2.83008 8.33334 2.82808 8.33334C2.65075 8.33067 2.4881 8.23533 2.40077 8.08133C1.2821 6.124 0.510083 6.01432 0.501416 6.01299C0.501416 6.01299 0.329526 6.05339 0.152393 5.86719C-0.0247404 5.68099 0.0013511 5.46875 0.0013511 5.46875C0.0013511 5.46875 0.0117678 5.27604 0.152393 5.13802C0.293018 5 0.501416 5 0.501416 5C0.69475 5 1.63541 5.1 2.84074 6.89266C3.93208 5.23 6.8834 1.062 9.66073 0.0313353C9.9194 -0.0646647 10.2074 0.0673301 10.3034 0.325997C10.3994 0.584663 10.2674 0.872672 10.0088 0.968672C6.91678 2.11601 3.29876 8.03266 3.2621 8.09266C3.17143 8.242 3.00942 8.33334 2.83475 8.33334Z" fill="#009CE7"/>
</svg>
