<svg width="11" height="11" viewBox="0 0 11 11" fill="none" xmlns="http://www.w3.org/2000/svg">
<path d="M5.375 0C8.34353 0 10.75 2.40647 10.75 5.375C10.75 8.34353 8.34353 10.75 5.375 10.75C2.40647 10.75 0 8.34353 0 5.375C0 2.40647 2.40647 0 5.375 0ZM5.375 0.75C2.82068 0.75 0.75 2.82068 0.75 5.375C0.75 7.92932 2.82068 10 5.375 10C7.92932 10 10 7.92932 10 5.375C10 2.82068 7.92932 0.75 5.375 0.75ZM5.375 3C5.58211 3 5.75 3.16789 5.75 3.375V5.21973L6.64062 6.10938C6.78707 6.25582 6.78707 6.49418 6.64062 6.64062C6.49418 6.78707 6.25582 6.78707 6.10938 6.64062L5.10938 5.64062C5.03905 5.5703 5 5.47446 5 5.375V3.375C5 3.16789 5.16789 3 5.375 3Z" fill="#3B457B"/>
</svg>
