<svg width="40" height="40" viewBox="0 0 40 40" fill="none" xmlns="http://www.w3.org/2000/svg">
<rect width="40" height="40" rx="12" fill="#EFE9E9"/>
<g clip-path="url(#clip0_4244_10494)">
<path d="M17.9232 26.8751C15.7755 26.8751 14.0273 25.127 14.0273 22.9792V13.5835H12.4232C11.0326 13.5835 9.90234 14.7136 9.90234 16.1042V28.4792C9.90234 29.8698 11.0326 31.0001 12.4232 31.0001H23.8815C25.2721 31.0001 26.4023 29.8698 26.4023 28.4792V26.8751H17.9232Z" fill="#7D7E93"/>
<path d="M30.069 11.5209C30.069 10.1284 28.9405 9 27.5482 9H17.9232C16.5308 9 15.4023 10.1284 15.4023 11.5209V22.9791C15.4023 24.3716 16.5308 25.5 17.9232 25.5H27.5482C28.9405 25.5 30.069 24.3716 30.069 22.9791V11.5209Z" fill="#9B9CA8"/>
</g>
<defs>
<clipPath id="clip0_4244_10494">
<rect width="22" height="22" fill="white" transform="translate(9 9)"/>
</clipPath>
</defs>
</svg>
