<svg width="39" height="32" viewBox="0 0 39 32" fill="none" xmlns="http://www.w3.org/2000/svg">
<path d="M34.821 25.3965C34.821 18.4632 38.8146 13.7013 38.8146 10.3589C38.8146 7.01654 36.6785 0 19.5934 0C2.50823 0 0 9.4406 0 13.1158C0 30.3258 34.821 37.6772 34.821 25.3965Z" fill="#EFEFEF"/>
<path d="M6.8716 32C5.9501 32 5.2002 31.3253 5.2002 30.4963C5.2002 29.6672 5.9501 28.9925 6.8716 28.9925C7.79311 28.9925 8.54301 29.6672 8.54301 30.4963C8.54301 31.3253 7.79311 32 6.8716 32ZM6.8716 29.995C6.72384 29.995 6.58213 30.0478 6.47765 30.1418C6.37317 30.2358 6.31447 30.3633 6.31447 30.4963C6.31447 30.6292 6.37317 30.7567 6.47765 30.8507C6.58213 30.9447 6.72384 30.9975 6.8716 30.9975C7.01937 30.9975 7.16108 30.9447 7.26556 30.8507C7.37004 30.7567 7.42874 30.6292 7.42874 30.4963C7.42874 30.3633 7.37004 30.2358 7.26556 30.1418C7.16108 30.0478 7.01937 29.995 6.8716 29.995Z" fill="#A4AFC1"/>
<path d="M29.9927 8.23059H31.107C31.4025 8.23059 31.686 8.33621 31.8949 8.52422C32.1039 8.71222 32.2213 8.96722 32.2213 9.2331V23.2682C32.2213 23.5341 32.1039 23.7891 31.8949 23.9771C31.686 24.1651 31.4025 24.2707 31.107 24.2707H7.70729C7.41177 24.2707 7.12835 24.1651 6.91938 23.9771C6.71041 23.7891 6.59302 23.5341 6.59302 23.2682V9.2331C6.59302 8.96722 6.71041 8.71222 6.91938 8.52422C7.12835 8.33621 7.41177 8.23059 7.70729 8.23059H8.82156H29.9927ZM21.6357 24.2707C21.6357 24.2707 21.6357 25.7745 23.3071 27.2782H15.5072C17.1786 25.7745 17.1563 24.2707 17.1563 24.2707H21.6357Z" fill="#F3F3F1"/>
<path d="M6.59351 21.2631V23.2681C6.59351 23.534 6.7109 23.789 6.91987 23.977C7.12884 24.165 7.41225 24.2706 7.70778 24.2706H31.1075C31.403 24.2706 31.6864 24.165 31.8954 23.977C32.1044 23.789 32.2218 23.534 32.2218 23.2681V21.2631H6.59351ZM14.3934 8.23053V11.1809C14.3934 11.5278 14.5895 11.8616 14.9216 12.0391C17.9123 13.6441 20.903 13.6441 23.8937 12.0391C24.0563 11.9489 24.1903 11.8226 24.2828 11.6723C24.3754 11.522 24.4232 11.3527 24.4219 11.1809V8.23053H14.3934Z" fill="#65B9FF"/>
<path d="M12.1648 7.22804L19.4076 4.22052L26.6503 7.22804L19.4076 10.2356L12.1648 7.22804Z" fill="#65B9FF"/>
<path d="M8.82156 23.2682V21.2632H6.59302V23.2682C6.59302 23.5341 6.71041 23.7891 6.91938 23.9771C7.12835 24.1651 7.41177 24.2707 7.70729 24.2707H9.93583C9.64031 24.2707 9.35689 24.1651 9.14793 23.9771C8.93896 23.7891 8.82156 23.5341 8.82156 23.2682ZM17.1496 12.0401C16.9869 11.9499 16.8527 11.8234 16.7602 11.6729C16.6677 11.5224 16.6199 11.353 16.6215 11.181V8.23059H14.3929V11.181C14.3929 11.5278 14.589 11.8617 14.9211 12.0391C16.7875 13.0416 18.6539 13.4176 20.5214 13.1689C19.3971 13.0186 18.2728 12.6426 17.1496 12.0391V12.0401Z" fill="#65B9FF"/>
<path d="M14.3929 7.22804L20.5213 4.68368L19.4071 4.22052L12.1643 7.22804L19.4071 10.2356L20.5213 9.7724L14.3929 7.22804Z" fill="#65B9FF"/>
<path d="M31.107 24.7719H7.7073C6.78579 24.7719 6.03589 24.0972 6.03589 23.2682V9.23307C6.03589 8.404 6.78579 7.72931 7.7073 7.72931H8.82157C8.96933 7.72931 9.11104 7.78212 9.21552 7.87612C9.32001 7.97013 9.37871 8.09762 9.37871 8.23056C9.37871 8.3635 9.32001 8.491 9.21552 8.585C9.11104 8.67901 8.96933 8.73182 8.82157 8.73182H7.7073C7.55954 8.73182 7.41783 8.78463 7.31334 8.87863C7.20886 8.97263 7.15016 9.10013 7.15016 9.23307V23.2682C7.15016 23.4011 7.20886 23.5286 7.31334 23.6226C7.41783 23.7166 7.55954 23.7694 7.7073 23.7694H31.107C31.2548 23.7694 31.3965 23.7166 31.501 23.6226C31.6055 23.5286 31.6642 23.4011 31.6642 23.2682V9.23307C31.6642 9.10013 31.6055 8.97263 31.501 8.87863C31.3965 8.78463 31.2548 8.73182 31.107 8.73182H29.9927C29.845 8.73182 29.7033 8.67901 29.5988 8.585C29.4943 8.491 29.4356 8.3635 29.4356 8.23056C29.4356 8.09762 29.4943 7.97013 29.5988 7.87612C29.7033 7.78212 29.845 7.72931 29.9927 7.72931H31.107C32.0285 7.72931 32.7784 8.404 32.7784 9.23307V23.2682C32.7784 24.0972 32.0285 24.7719 31.107 24.7719Z" fill="black"/>
<path d="M23.3071 27.7794H15.5072C15.3969 27.7796 15.289 27.7503 15.1972 27.6952C15.1053 27.6402 15.0338 27.5618 14.9915 27.4701C14.9493 27.3784 14.9382 27.2775 14.9598 27.1801C14.9814 27.0828 15.0346 26.9934 15.1128 26.9233C16.5791 25.605 16.5992 24.3268 16.5992 24.2737C16.5992 23.997 16.8488 23.7694 17.1563 23.7694H21.6357C21.7829 23.7694 21.9241 23.8218 22.0285 23.9152C22.1329 24.0085 22.192 24.1352 22.1928 24.2677C22.194 24.3318 22.2374 25.607 23.7016 26.9243C23.7793 26.9945 23.8322 27.0838 23.8535 27.1809C23.8749 27.2781 23.8638 27.3788 23.8216 27.4703C23.7794 27.5618 23.708 27.64 23.6164 27.695C23.5248 27.75 23.4172 27.7794 23.3071 27.7794ZM16.6995 26.7769H22.1126C21.4886 25.9749 21.2412 25.2361 21.1432 24.7719H17.6555C17.5608 25.2381 17.3201 25.9749 16.7006 26.7769H16.6995ZM32.2213 21.7644H6.59302C6.44526 21.7644 6.30355 21.7116 6.19907 21.6176C6.09459 21.5236 6.03589 21.3961 6.03589 21.2631C6.03589 21.1302 6.09459 21.0027 6.19907 20.9087C6.30355 20.8147 6.44526 20.7619 6.59302 20.7619H32.2213C32.369 20.7619 32.5108 20.8147 32.6152 20.9087C32.7197 21.0027 32.7784 21.1302 32.7784 21.2631C32.7784 21.3961 32.7197 21.5236 32.6152 21.6176C32.5108 21.7116 32.369 21.7644 32.2213 21.7644ZM19.4072 13.7443C17.8126 13.7443 16.2181 13.3193 14.6347 12.4702C14.3895 12.3353 14.1872 12.1457 14.0472 11.9199C13.9072 11.694 13.8344 11.4395 13.8358 11.1809V8.23056C13.8358 8.09762 13.8945 7.97013 13.999 7.87612C14.1035 7.78212 14.2452 7.72931 14.3929 7.72931C14.5407 7.72931 14.6824 7.78212 14.7869 7.87612C14.8914 7.97013 14.9501 8.09762 14.9501 8.23056V11.1809C14.9501 11.3574 15.0504 11.5258 15.2063 11.609C18.0333 13.1258 20.7811 13.1258 23.608 11.609C23.6874 11.5629 23.7526 11.4995 23.7974 11.4247C23.8422 11.3498 23.8652 11.266 23.8642 11.1809V8.23056C23.8642 8.09762 23.9229 7.97013 24.0274 7.87612C24.1319 7.78212 24.2736 7.72931 24.4214 7.72931C24.5691 7.72931 24.7109 7.78212 24.8153 7.87612C24.9198 7.97013 24.9785 8.09762 24.9785 8.23056V11.1809C24.9785 11.7113 24.6721 12.2045 24.1796 12.4702C22.5962 13.3193 21.0006 13.7443 19.4072 13.7443Z" fill="black"/>
<path d="M19.4072 10.7368C19.3264 10.7369 19.2465 10.7212 19.1732 10.6907L11.9304 7.68319C11.8338 7.64306 11.7519 7.57888 11.6945 7.49822C11.6372 7.41756 11.6067 7.32381 11.6067 7.22805C11.6067 7.13229 11.6372 7.03853 11.6945 6.95787C11.7519 6.87722 11.8338 6.81303 11.9304 6.77291L19.1732 3.76539C19.2465 3.73479 19.3263 3.71893 19.4072 3.71893C19.488 3.71893 19.5678 3.73479 19.6412 3.76539L26.8839 6.77291C26.9806 6.81303 27.0624 6.87722 27.1198 6.95787C27.1772 7.03853 27.2076 7.13229 27.2076 7.22805C27.2076 7.32381 27.1772 7.41756 27.1198 7.49822C27.0624 7.57888 26.9806 7.64306 26.8839 7.68319L19.6412 10.6907C19.5678 10.7212 19.488 10.7369 19.4072 10.7368ZM13.4937 7.22805L19.4072 9.68419L25.3206 7.22805L19.4072 4.77191L13.4937 7.22805Z" fill="black"/>
</svg>
