<svg width="24" height="24" viewBox="0 0 24 24" fill="none" xmlns="http://www.w3.org/2000/svg">
<path fill-rule="evenodd" clip-rule="evenodd" d="M2.88983 10.4998L12.8593 0.531748C13.5673 -0.178245 14.7212 -0.176253 15.4292 0.531748L23.4668 8.57189C23.9868 9.09385 24.1248 9.85388 23.8808 10.4999L2.88983 10.4998Z" fill="#FFB60E"/>
<path fill-rule="evenodd" clip-rule="evenodd" d="M7.13963 10.4991L16.2672 1.37305L18.3871 3.49306L11.3794 10.4992L7.13963 10.4991Z" fill="#4F4F4F"/>
<path fill-rule="evenodd" clip-rule="evenodd" d="M0 10.8136V22.1818C0 23.1837 0.813933 23.9998 1.8159 23.9998H22.185C23.1869 23.9998 24.0008 23.1838 24.0008 22.1818V10.8136C24.0008 9.81165 23.1869 8.99561 22.185 8.99561H1.81584C0.813933 8.99561 0 9.8116 0 10.8136Z" fill="#0C93C7"/>
<path fill-rule="evenodd" clip-rule="evenodd" d="M20.251 10.4959C21.4929 10.4959 22.5008 11.5039 22.5008 12.746C22.5008 13.988 21.4929 14.996 20.251 14.996C19.009 14.996 18.0011 13.988 18.0011 12.746C18.0011 11.504 19.009 10.4959 20.251 10.4959ZM2.92381 12.18C3.03579 12.18 3.14378 12.1599 3.24784 12.1219C3.35179 12.0799 3.45175 12.0159 3.54579 11.9259L3.66978 12.0779C3.57579 12.1699 3.46177 12.24 3.32583 12.2939C3.19182 12.346 3.0478 12.372 2.8978 12.372C2.74182 12.372 2.59985 12.3519 2.47586 12.3099C2.34988 12.27 2.24183 12.21 2.15383 12.1299C2.06588 12.0499 1.99586 11.95 1.94787 11.8339C1.89982 11.7159 1.87585 11.5799 1.87585 11.426C1.87585 11.2739 1.89988 11.1379 1.94787 11.0199C1.99586 10.9039 2.06183 10.8059 2.14785 10.7259C2.23881 10.6432 2.34661 10.5811 2.46385 10.5439C2.58783 10.5019 2.72383 10.4819 2.87184 10.4819C3.02383 10.4819 3.16581 10.5079 3.30181 10.5619C3.43581 10.6139 3.54978 10.6859 3.64575 10.7759L3.52177 10.9299C3.42579 10.838 3.32577 10.7739 3.22382 10.734C3.11971 10.6942 3.00922 10.6739 2.8978 10.6739C2.8078 10.6739 2.72377 10.6879 2.64584 10.7179C2.56899 10.7472 2.49988 10.7938 2.44381 10.854C2.38785 10.9159 2.34385 10.9939 2.31185 11.0879C2.27787 11.1839 2.26187 11.2959 2.26187 11.426C2.26187 11.5579 2.27787 11.6699 2.31185 11.7659C2.34385 11.86 2.38785 11.938 2.44779 11.9999C2.50785 12.0599 2.57582 12.1059 2.65785 12.1359C2.73784 12.1659 2.82584 12.18 2.92381 12.18ZM4.35574 11.696H5.12772L4.75371 10.7499H4.72969L4.35574 11.696ZM5.02969 10.5338L5.73968 12.3219H5.37968L5.21567 11.8879H4.26773L4.10373 12.3219H3.74572L4.45576 10.5338H5.02969ZM6.78166 10.5339C6.89158 10.5339 6.98762 10.5459 7.07563 10.5759C7.16159 10.6039 7.2336 10.6439 7.2936 10.6979C7.3536 10.7519 7.3996 10.8179 7.43159 10.896C7.46358 10.9719 7.47964 11.0619 7.47964 11.1599C7.47964 11.2959 7.44958 11.41 7.39157 11.5039C7.33356 11.5979 7.2496 11.6699 7.14161 11.7199L7.49962 12.3199H7.14161L6.82162 11.786H6.31566V12.3199H5.99966V10.534L6.78166 10.5339ZM6.31566 10.7259V11.592H6.7816C6.89762 11.592 6.98563 11.558 7.04762 11.4879C7.10961 11.4159 7.14161 11.3079 7.14161 11.1579C7.14161 11.0099 7.10961 10.9019 7.04762 10.8319C6.98563 10.7599 6.89762 10.7259 6.7816 10.7259H6.31566ZM8.75353 10.5339C8.90354 10.5339 9.03947 10.5519 9.15948 10.5919C9.28147 10.6299 9.38747 10.6859 9.47348 10.7599C9.56149 10.8339 9.62946 10.9279 9.67745 11.0399C9.7255 11.1519 9.74952 11.2799 9.74952 11.426C9.74952 11.5739 9.7255 11.7019 9.67745 11.8139C9.63202 11.9218 9.5622 12.0176 9.47348 12.094C9.38747 12.1699 9.28147 12.224 9.15948 12.2639C9.03953 12.3019 8.90354 12.3199 8.75353 12.3199H7.93157V10.534L8.75353 10.5339ZM8.29357 10.7259V12.1299H8.75353C8.83454 12.1301 8.915 12.1166 8.99149 12.09C9.06487 12.0644 9.13082 12.0211 9.1835 11.964C9.23952 11.908 9.28147 11.8359 9.31551 11.7459C9.3475 11.6579 9.3635 11.5519 9.3635 11.426C9.3635 11.3019 9.34751 11.1959 9.31545 11.1079C9.28147 11.02 9.23952 10.9459 9.1835 10.8879C9.12948 10.8319 9.06549 10.7899 8.99149 10.764C8.91748 10.738 8.8375 10.7259 8.75353 10.7259H8.29357Z" fill="white"/>
<path fill-rule="evenodd" clip-rule="evenodd" d="M17.2512 10.4956C18.4931 10.4956 19.5031 11.5036 19.5031 12.7476C19.5031 13.9896 18.4931 14.9977 17.2512 14.9977C16.0092 14.9977 15.0013 13.9896 15.0013 12.7476C15.0013 11.5036 16.0092 10.4956 17.2512 10.4956ZM1.49992 20.6977V20.1697C1.49992 20.0057 1.61793 19.8717 1.76395 19.8717H1.98391C2.12993 19.8717 2.24993 20.0057 2.24993 20.1697V20.6977C2.24993 20.8617 2.12993 20.9977 1.98391 20.9977H1.76395C1.61793 20.9977 1.49992 20.8617 1.49992 20.6977ZM1.99991 20.5857V20.2817C1.99991 20.2117 1.94794 20.1537 1.88389 20.1537H1.86397C1.79993 20.1537 1.74995 20.2117 1.74995 20.2817V20.5857C1.74995 20.6577 1.79993 20.7137 1.86391 20.7137H1.88395C1.94794 20.7137 1.99991 20.6577 1.99991 20.5857ZM2.62587 20.6977V20.1697C2.62587 20.0057 2.74388 19.8717 2.89189 19.8717H3.10986C3.25588 19.8717 3.37389 20.0057 3.37389 20.1697V20.6977C3.37389 20.8617 3.25588 20.9977 3.10986 20.9977H2.89189C2.74388 20.9977 2.62587 20.8617 2.62587 20.6977ZM3.12586 20.5857V20.2817C3.12586 20.2117 3.07388 20.1537 3.00785 20.1537H2.98986C2.92587 20.1537 2.87589 20.2117 2.87589 20.2817V20.5857C2.87589 20.6577 2.92587 20.7137 2.98986 20.7137H3.00785C3.07388 20.7137 3.12586 20.6577 3.12586 20.5857ZM3.74983 20.6977V20.1697C3.74983 20.0057 3.86784 19.8717 4.01784 19.8717H4.23381C4.37983 19.8717 4.49983 20.0057 4.49983 20.1697V20.6977C4.49983 20.8617 4.37983 20.9977 4.23381 20.9977H4.01784C3.86784 20.9977 3.74983 20.8617 3.74983 20.6977ZM4.24981 20.5857V20.2817C4.24981 20.2117 4.19784 20.1537 4.13379 20.1537H4.11581C4.05182 20.1537 3.99979 20.2117 3.99979 20.2817V20.5857C3.99979 20.6577 4.05182 20.7137 4.11581 20.7137H4.13379C4.19784 20.7137 4.24981 20.6577 4.24981 20.5857ZM4.87577 20.6977V20.1697C4.87577 20.0057 4.99378 19.8717 5.14179 19.8717H5.35777C5.50578 19.8717 5.62379 20.0057 5.62379 20.1697V20.6977C5.62379 20.8617 5.50578 20.9977 5.35777 20.9977H5.14179C4.99378 20.9977 4.87577 20.8617 4.87577 20.6977ZM5.37377 20.5857V20.2817C5.37377 20.2117 5.32379 20.1537 5.25775 20.1537H5.23976C5.17578 20.1537 5.12579 20.2117 5.12579 20.2817V20.5857C5.12579 20.6577 5.17578 20.7137 5.23976 20.7137H5.25775C5.32379 20.7137 5.37377 20.6577 5.37377 20.5857ZM7.12568 20.6977V20.1697C7.12568 20.0057 7.24368 19.8717 7.38964 19.8717H7.60761C7.75562 19.8717 7.87562 20.0057 7.87562 20.1697V20.6977C7.87562 20.8617 7.75562 20.9977 7.60767 20.9977H7.3897C7.24368 20.9977 7.12568 20.8617 7.12568 20.6977ZM7.62566 20.5857V20.2817C7.62566 20.2117 7.57363 20.1537 7.50765 20.1537H7.48966C7.42568 20.1537 7.37365 20.2117 7.37365 20.2817V20.5857C7.37365 20.6577 7.42568 20.7137 7.48966 20.7137H7.50765C7.57363 20.7137 7.62566 20.6577 7.62566 20.5857ZM8.24963 20.6977V20.1697C8.24963 20.0057 8.36963 19.8717 8.51758 19.8717H8.73356C8.87958 19.8717 8.99958 20.0057 8.99958 20.1697V20.6977C8.99958 20.8617 8.87958 20.9977 8.73356 20.9977H8.51758C8.36963 20.9977 8.24963 20.8617 8.24963 20.6977ZM8.75161 20.5857V20.2817C8.75161 20.2117 8.69758 20.1537 8.6336 20.1537H8.61561C8.55157 20.1537 8.50159 20.2117 8.50159 20.2817V20.5857C8.50159 20.6577 8.55157 20.7137 8.61561 20.7137H8.6336C8.69758 20.7137 8.75161 20.6577 8.75161 20.5857ZM9.37558 20.6977V20.1697C9.37558 20.0057 9.49353 19.8717 9.6416 19.8717H9.85752C10.0055 19.8717 10.1255 20.0057 10.1255 20.1697V20.6977C10.1255 20.8617 10.0055 20.9977 9.85752 20.9977H9.64154C9.49353 20.9977 9.37552 20.8617 9.37552 20.6977H9.37558ZM9.8755 20.5857V20.2817C9.8755 20.2117 9.82353 20.1537 9.75949 20.1537H9.73957C9.67552 20.1537 9.62554 20.2117 9.62554 20.2817V20.5857C9.62554 20.6577 9.67552 20.7137 9.73951 20.7137H9.75955C9.82353 20.7137 9.87556 20.6577 9.87556 20.5857H9.8755ZM10.5015 20.6977V20.1697C10.5015 20.0057 10.6195 19.8717 10.7675 19.8717H10.9835C11.1295 19.8717 11.2495 20.0057 11.2495 20.1697V20.6977C11.2495 20.8617 11.1295 20.9977 10.9835 20.9977H10.7675C10.6195 20.9977 10.5015 20.8617 10.5015 20.6977H10.5015ZM10.9995 20.5857V20.2817C10.9995 20.2117 10.9475 20.1537 10.8834 20.1537H10.8655C10.8015 20.1537 10.7515 20.2117 10.7515 20.2817V20.5857C10.7515 20.6577 10.8015 20.7137 10.8655 20.7137H10.8835C10.9475 20.7137 10.9995 20.6577 10.9995 20.5857H10.9995ZM12.7514 20.6977V20.1697C12.7514 20.0057 12.8694 19.8717 13.0154 19.8717H13.2334C13.3814 19.8717 13.4994 20.0057 13.4994 20.1697V20.6977C13.4994 20.8617 13.3814 20.9977 13.2334 20.9977H13.0154C12.8694 20.9977 12.7514 20.8617 12.7514 20.6977ZM13.2494 20.5857V20.2817C13.2494 20.2117 13.1974 20.1537 13.1333 20.1537H13.1154C13.0514 20.1537 12.9993 20.2117 12.9993 20.2817V20.5857C12.9993 20.6577 13.0514 20.7137 13.1154 20.7137H13.1333C13.1974 20.7137 13.2494 20.6577 13.2494 20.5857ZM13.8753 20.6977V20.1697C13.8753 20.0057 13.9933 19.8717 14.1413 19.8717H14.3593C14.5053 19.8717 14.6253 20.0057 14.6253 20.1697V20.6977C14.6253 20.8617 14.5053 20.9977 14.3593 20.9977H14.1413C13.9933 20.9977 13.8753 20.8617 13.8753 20.6977ZM14.3753 20.5857V20.2817C14.3753 20.2117 14.3213 20.1537 14.2573 20.1537H14.2393C14.1753 20.1537 14.1253 20.2117 14.1253 20.2817V20.5857C14.1253 20.6577 14.1753 20.7137 14.2393 20.7137H14.2573C14.3213 20.7137 14.3753 20.6577 14.3753 20.5857ZM15.0013 20.6977V20.1697C15.0013 20.0057 15.1193 19.8717 15.2652 19.8717H15.4832C15.6312 19.8717 15.7492 20.0057 15.7492 20.1697V20.6977C15.7492 20.8617 15.6312 20.9977 15.4832 20.9977H15.2652C15.1193 20.9977 15.0013 20.8617 15.0013 20.6977ZM15.4993 20.5857V20.2817C15.4993 20.2117 15.4492 20.1537 15.3832 20.1537H15.3653C15.3013 20.1537 15.2492 20.2117 15.2492 20.2817V20.5857C15.2492 20.6577 15.3013 20.7137 15.3653 20.7137H15.3832C15.4492 20.7137 15.4993 20.6577 15.4993 20.5857ZM16.1252 20.6977V20.1697C16.1252 20.0057 16.2432 19.8717 16.3932 19.8717H16.6092C16.7552 19.8717 16.8752 20.0057 16.8752 20.1697V20.6977C16.8752 20.8617 16.7552 20.9977 16.6092 20.9977H16.3932C16.2432 20.9977 16.1252 20.8617 16.1252 20.6977ZM16.6252 20.5857V20.2817C16.6252 20.2117 16.5732 20.1537 16.5072 20.1537H16.4912C16.4272 20.1537 16.3752 20.2117 16.3752 20.2817V20.5857C16.3752 20.6577 16.4272 20.7137 16.4912 20.7137H16.5072C16.5732 20.7137 16.6252 20.6577 16.6252 20.5857ZM18.3751 20.6977V20.1697C18.3751 20.0057 18.4951 19.8717 18.6411 19.8717H18.8591C19.0051 19.8717 19.1251 20.0057 19.1251 20.1697V20.6977C19.1251 20.8617 19.0051 20.9977 18.8591 20.9977H18.6411C18.4951 20.9977 18.3751 20.8617 18.3751 20.6977ZM18.8751 20.5857V20.2817C18.8751 20.2117 18.8231 20.1537 18.7571 20.1537H18.7411C18.6771 20.1537 18.6251 20.2117 18.6251 20.2817V20.5857C18.6251 20.6577 18.6771 20.7137 18.7411 20.7137H18.7571C18.8231 20.7137 18.8751 20.6577 18.8751 20.5857ZM19.499 20.6977V20.1697C19.499 20.0057 19.619 19.8717 19.767 19.8717H19.983C20.131 19.8717 20.251 20.0057 20.251 20.1697V20.6977C20.251 20.8617 20.131 20.9977 19.983 20.9977H19.767C19.619 20.9977 19.499 20.8617 19.499 20.6977ZM20.001 20.5857V20.2817C20.001 20.2117 19.947 20.1537 19.8831 20.1537H19.865C19.801 20.1537 19.749 20.2117 19.749 20.2817V20.5857C19.749 20.6577 19.801 20.7137 19.865 20.7137H19.8831C19.947 20.7137 20.001 20.6577 20.001 20.5857ZM20.625 20.6977V20.1697C20.625 20.0057 20.745 19.8717 20.891 19.8717H21.109C21.255 19.8717 21.375 20.0057 21.375 20.1697V20.6977C21.375 20.8617 21.255 20.9977 21.109 20.9977H20.891C20.745 20.9977 20.625 20.8617 20.625 20.6977ZM21.125 20.5857V20.2817C21.125 20.2117 21.073 20.1537 21.0089 20.1537H20.991C20.927 20.1537 20.8749 20.2117 20.8749 20.2817V20.5857C20.8749 20.6577 20.927 20.7137 20.991 20.7137H21.0089C21.073 20.7137 21.125 20.6577 21.125 20.5857ZM21.7509 20.6977V20.1697C21.7509 20.0057 21.8689 19.8717 22.0169 19.8717H22.2329C22.3789 19.8717 22.5009 20.0057 22.5009 20.1697V20.6977C22.5009 20.8617 22.3789 20.9977 22.2329 20.9977H22.0169C21.8689 20.9977 21.7509 20.8617 21.7509 20.6977ZM22.2509 20.5857V20.2817C22.2509 20.2117 22.1969 20.1537 22.1329 20.1537H22.1149C22.0509 20.1537 22.0009 20.2117 22.0009 20.2817V20.5857C22.0009 20.6577 22.0509 20.7137 22.1149 20.7137H22.1329C22.1969 20.7137 22.2509 20.6577 22.2509 20.5857Z" fill="white"/>
</svg>
