<svg width="79" height="78" viewBox="0 0 79 78" fill="none" xmlns="http://www.w3.org/2000/svg">
<path d="M31.8596 5.0047C38.6764 -1.66815 49.7285 -1.66829 56.5452 5.0047L73.7209 21.8192C80.5375 28.4924 80.5375 39.312 73.7209 45.9852L47.3606 71.7899H68.7502C70.2688 71.7901 71.5002 72.9956 71.5002 74.4822C71.5 75.9687 70.2687 77.1734 68.7502 77.1736H10.0833C8.56463 77.1736 7.33351 75.9688 7.33325 74.4822C7.33325 72.9954 8.56447 71.7899 10.0833 71.7899H21.9016L5.11255 55.3553C-1.70419 48.6821 -1.70412 37.8625 5.11255 31.1893L31.8596 5.0047ZM11.3596 53.8563L26.177 68.3621C30.8458 72.9324 38.4154 72.9323 43.0842 68.3621L69.8313 42.1776C74.5001 37.607 74.5 30.1974 69.8313 25.6268L55.0149 11.1219L11.3596 53.8563ZM46.8401 47.8406C47.9139 46.7896 49.6549 46.7897 50.7288 47.8406C51.8027 48.892 51.8027 50.5969 50.7288 51.6483L47.1409 55.1609C46.0669 56.2123 44.3252 56.2123 43.2512 55.1609C42.1776 54.1097 42.1776 52.4056 43.2512 51.3543L46.8401 47.8406ZM50.9846 7.45197C46.3262 4.30208 39.8944 4.75349 35.7483 8.81232L9.00122 34.9959C4.85527 39.0546 4.3943 45.3507 7.61157 49.9109L50.9846 7.45197ZM61.7874 33.2879C62.8613 32.2366 64.6031 32.2367 65.677 33.2879C66.7509 34.3392 66.7509 36.0442 65.677 37.0955L57.6116 44.9901C56.5376 46.0414 54.7968 46.0414 53.7229 44.9901C52.6492 43.9387 52.6491 42.2347 53.7229 41.1834L61.7874 33.2879Z" fill="#F4F5F8"/>
</svg>
