<svg width="15" height="16" viewBox="0 0 15 16" fill="none" xmlns="http://www.w3.org/2000/svg">
<path fill-rule="evenodd" clip-rule="evenodd" d="M5.35485 7.02733C5.50926 7.01186 5.6635 7.05833 5.78366 7.15654C5.90381 7.25474 5.98006 7.39664 5.99563 7.55104L6.38588 11.4535C6.39565 11.531 6.38981 11.6097 6.36871 11.6849C6.34761 11.7601 6.31167 11.8303 6.263 11.8914C6.21433 11.9525 6.15393 12.0033 6.08535 12.0407C6.01676 12.0781 5.94139 12.1013 5.86367 12.1092C5.78594 12.117 5.70744 12.1092 5.63279 12.0862C5.55813 12.0632 5.48884 12.0255 5.42898 11.9753C5.36912 11.9251 5.31992 11.8634 5.28427 11.7939C5.24862 11.7244 5.22724 11.6485 5.22139 11.5706L4.83114 7.66811C4.81567 7.5137 4.86214 7.35947 4.96035 7.23931C5.05855 7.11915 5.20045 7.04291 5.35485 7.02733ZM9.37436 7.02733C9.52861 7.04291 9.67039 7.11905 9.76857 7.23903C9.86675 7.35902 9.91333 7.51305 9.89807 7.66733L9.50783 11.5698C9.50222 11.6478 9.48102 11.7239 9.44549 11.7936C9.40996 11.8633 9.36081 11.9252 9.30096 11.9756C9.2411 12.026 9.17176 12.0639 9.09701 12.087C9.02227 12.1101 8.94365 12.118 8.8658 12.1103C8.78795 12.1025 8.71244 12.0792 8.64375 12.0417C8.57506 12.0043 8.51457 11.9534 8.46586 11.8922C8.41716 11.831 8.38122 11.7606 8.36017 11.6853C8.33913 11.6099 8.33341 11.5311 8.34334 11.4535L8.73358 7.55104C8.74916 7.39679 8.8253 7.25502 8.94528 7.15683C9.06527 7.05865 9.22008 7.01208 9.37436 7.02733Z" fill="#EF2A2A"/>
<path fill-rule="evenodd" clip-rule="evenodd" d="M5.90049 0H8.53932C8.70868 0 8.85542 -2.90754e-09 8.99434 0.0218537C9.26509 0.0650903 9.52194 0.17112 9.74435 0.331454C9.96676 0.491787 10.1485 0.70197 10.2751 0.945171C10.3399 1.07005 10.3867 1.20976 10.4398 1.36976L10.5272 1.63122L10.5499 1.69756C10.6205 1.89358 10.752 2.06185 10.9252 2.17771C11.0983 2.29358 11.3041 2.35096 11.5122 2.34146H13.8537C14.0089 2.34146 14.1578 2.40314 14.2676 2.51291C14.3774 2.62269 14.439 2.77158 14.439 2.92683C14.439 3.08208 14.3774 3.23097 14.2676 3.34075C14.1578 3.45052 14.0089 3.51219 13.8537 3.5122H0.585366C0.430117 3.51219 0.281227 3.45052 0.17145 3.34075C0.0616724 3.23097 0 3.08208 0 2.92683C0 2.77158 0.0616724 2.62269 0.17145 2.51291C0.281227 2.40314 0.430117 2.34146 0.585366 2.34146H2.99707C3.20554 2.33646 3.40693 2.2648 3.57169 2.13698C3.73645 2.00916 3.85593 1.8319 3.91259 1.63122L4 1.36976C4.05307 1.20976 4.0999 1.07005 4.16468 0.945171C4.2912 0.702065 4.47285 0.491942 4.69511 0.331615C4.91738 0.171287 5.17408 0.0652043 5.44468 0.0218537C5.58439 -2.90754e-09 5.73112 0 5.90049 0ZM4.88507 2.34146C4.93988 2.23413 4.98556 2.12239 5.02166 2.00741L5.09971 1.77327C5.16995 1.5602 5.18712 1.51727 5.20273 1.48605C5.24487 1.40488 5.30543 1.33472 5.37957 1.28118C5.45371 1.22765 5.53936 1.19222 5.62966 1.17776C5.66478 1.17229 5.71083 1.17073 5.93639 1.17073H8.5042C8.72898 1.17073 8.77502 1.17229 8.81015 1.17854C8.90037 1.19292 8.98597 1.22822 9.06011 1.28162C9.13424 1.33502 9.19485 1.40503 9.23707 1.48605C9.25268 1.51727 9.26907 1.5602 9.34088 1.77405L9.41893 2.00819L9.44859 2.09639C9.4798 2.18068 9.51493 2.26263 9.55551 2.34146H4.88507ZM1.99259 5.07473C2.1474 5.06445 2.29997 5.11606 2.41676 5.21821C2.53355 5.32036 2.605 5.4647 2.61541 5.61951L2.97444 11.0049C3.04468 12.0562 3.09463 12.7883 3.2039 13.3385C3.31083 13.8732 3.45912 14.1557 3.6722 14.3555C3.88605 14.5553 4.17795 14.6849 4.71805 14.7551C5.27454 14.8277 6.00898 14.8293 7.06263 14.8293H7.66673C8.72039 14.8293 9.45405 14.8277 10.0113 14.7551C10.5514 14.6849 10.8433 14.5553 11.0572 14.3555C11.2702 14.1557 11.4185 13.8732 11.5255 13.3385C11.6347 12.7883 11.6847 12.0562 11.7549 11.0049L12.114 5.61951C12.1191 5.54279 12.1393 5.46784 12.1734 5.39892C12.2074 5.33 12.2548 5.26848 12.3127 5.21785C12.3705 5.16723 12.4378 5.1285 12.5106 5.10388C12.5835 5.07925 12.6605 5.06922 12.7372 5.07434C12.8139 5.07947 12.8888 5.09965 12.9578 5.13374C13.0267 5.16784 13.0882 5.21517 13.1388 5.27304C13.1895 5.33091 13.2282 5.39819 13.2528 5.47103C13.2774 5.54387 13.2875 5.62084 13.2823 5.69756L12.9202 11.1235C12.8539 12.1241 12.8 12.9327 12.6736 13.568C12.5417 14.2275 12.3184 14.7785 11.8564 15.2101C11.3951 15.6425 10.83 15.8291 10.1627 15.9157C9.52117 16 8.71102 16 7.70732 16H7.02205C6.01834 16 5.2082 16 4.56663 15.9165C3.89932 15.8291 3.33424 15.6425 2.87298 15.2101C2.41093 14.7785 2.18771 14.2267 2.0558 13.568C1.92937 12.9327 1.87629 12.1241 1.80917 11.1235L1.44702 5.69756C1.44194 5.62084 1.45201 5.54387 1.47668 5.47104C1.50135 5.39822 1.54012 5.33097 1.59078 5.27313C1.64144 5.21529 1.703 5.168 1.77195 5.13396C1.84089 5.09992 1.91586 5.07979 1.99259 5.07473Z" fill="#EF2A2A"/>
</svg>
