<svg width="12" height="12" viewBox="0 0 12 12" fill="none" xmlns="http://www.w3.org/2000/svg">
<path d="M5.62499 4.04004V5.47004L5.11999 5.29504C4.86499 5.20504 4.70999 5.12004 4.70999 4.68504C4.70999 4.33004 4.97499 4.04004 5.29999 4.04004H5.62499V4.04004Z" fill="#13123A"/>
<path d="M7.29 7.31503C7.29 7.67003 7.025 7.96003 6.7 7.96003H6.375V6.53003L6.88 6.70503C7.135 6.79503 7.29 6.88003 7.29 7.31503Z" fill="#515989"/>
<path d="M8.095 1H3.905C2.085 1 1 2.085 1 3.905V8.095C1 9.915 2.085 11 3.905 11H8.095C9.915 11 11 9.915 11 8.095V3.905C11 2.085 9.915 1 8.095 1ZM7.13 6C7.52 6.135 8.04 6.42 8.04 7.315C8.04 8.085 7.44 8.71 6.7 8.71H6.375V9C6.375 9.205 6.205 9.375 6 9.375C5.795 9.375 5.625 9.205 5.625 9V8.71H5.445C4.625 8.71 3.96 8.015 3.96 7.165C3.96 6.96 4.125 6.79 4.335 6.79C4.54 6.79 4.71 6.96 4.71 7.165C4.71 7.605 5.04 7.96 5.445 7.96H5.625V6.265L4.87 6C4.48 5.865 3.96 5.58 3.96 4.685C3.96 3.915 4.56 3.29 5.3 3.29H5.625V3C5.625 2.795 5.795 2.625 6 2.625C6.205 2.625 6.375 2.795 6.375 3V3.29H6.555C7.375 3.29 8.04 3.985 8.04 4.835C8.04 5.04 7.875 5.21 7.665 5.21C7.46 5.21 7.29 5.04 7.29 4.835C7.29 4.395 6.96 4.04 6.555 4.04H6.375V5.735L7.13 6Z" fill="#515989"/>
</svg>
