<svg width="14" height="13" viewBox="0 0 14 13" fill="none" xmlns="http://www.w3.org/2000/svg">
<path d="M12.5625 9C12.8732 9 13.125 9.25184 13.125 9.5625C13.125 10.04 13.1012 10.462 13.0225 10.8203C12.9423 11.1849 12.7978 11.5186 12.5332 11.7832C12.2686 12.0478 11.9349 12.1923 11.5703 12.2725C11.212 12.3512 10.79 12.375 10.3125 12.375H2.8125C2.33495 12.375 1.913 12.3512 1.55469 12.2725C1.19006 12.1923 0.856363 12.0478 0.591797 11.7832C0.327231 11.5186 0.18266 11.1849 0.102539 10.8203C0.0238244 10.462 0 10.04 0 9.5625C0 9.25184 0.25184 9 0.5625 9C0.87316 9 1.125 9.25184 1.125 9.5625C1.125 10.0157 1.14985 10.341 1.20215 10.5791C1.25304 10.8105 1.32155 10.9231 1.38672 10.9883C1.45188 11.0534 1.56452 11.122 1.7959 11.1729C2.03398 11.2252 2.3593 11.25 2.8125 11.25H10.3125C10.7657 11.25 11.091 11.2252 11.3291 11.1729C11.5605 11.122 11.6731 11.0534 11.7383 10.9883C11.8034 10.9231 11.872 10.8105 11.9229 10.5791C11.9752 10.341 12 10.0157 12 9.5625C12 9.25184 12.2518 9 12.5625 9ZM6.5625 0C6.87316 0 7.125 0.25184 7.125 0.5625V6.90918C7.12651 6.9074 7.12837 6.90511 7.12988 6.90332C7.28776 6.71698 7.44235 6.52008 7.58691 6.33594C7.59811 6.32167 7.60904 6.30707 7.62012 6.29297C7.7642 6.10953 7.91641 5.9171 8.03418 5.7959C8.25064 5.5732 8.60632 5.56787 8.8291 5.78418C9.0518 6.00064 9.05713 6.35632 8.84082 6.5791C8.77429 6.64755 8.66478 6.78471 8.50488 6.98828C8.49339 7.00291 8.48157 7.01812 8.46973 7.0332C8.32728 7.21468 8.16042 7.4277 7.98828 7.63086C7.80363 7.84878 7.59625 8.07501 7.38965 8.25098C7.28614 8.33913 7.16945 8.426 7.04395 8.49316C6.92287 8.55795 6.7562 8.625 6.5625 8.625C6.3688 8.625 6.20213 8.55795 6.08105 8.49316C5.95555 8.426 5.83886 8.33913 5.73535 8.25098C5.52875 8.07501 5.32137 7.84878 5.13672 7.63086C4.96458 7.4277 4.79772 7.21468 4.65527 7.0332C4.64343 7.01812 4.6316 7.00291 4.62012 6.98828C4.46022 6.78471 4.35071 6.64755 4.28418 6.5791C4.06787 6.35632 4.0732 6.00064 4.2959 5.78418C4.51868 5.56787 4.87436 5.5732 5.09082 5.7959C5.20859 5.9171 5.3608 6.10953 5.50488 6.29297C5.51596 6.30707 5.52689 6.32167 5.53809 6.33594C5.68265 6.52008 5.83724 6.71699 5.99512 6.90332C5.99663 6.90511 5.99849 6.9074 6 6.90918V0.5625C6 0.25184 6.25184 1.04691e-07 6.5625 0Z" fill="#F4F5F8"/>
</svg>
