<svg width="20" height="20" viewBox="0 0 20 20" fill="none" xmlns="http://www.w3.org/2000/svg">
<path d="M15.2162 14.6664C17.7269 11.8604 17.5682 7.57107 14.8569 4.9584C12.1456 2.34573 7.85358 2.34573 5.14224 4.9584C2.43091 7.57107 2.27224 11.8604 4.78291 14.6664H15.2162Z" fill="#F0C419"/>
<path d="M1.66667 10.3333H0.333333C0.244928 10.3333 0.160143 10.2982 0.0976311 10.2357C0.035119 10.1732 0 10.0884 0 10C0 9.91159 0.035119 9.82681 0.0976311 9.7643C0.160143 9.70179 0.244928 9.66667 0.333333 9.66667H1.66667C1.75507 9.66667 1.83986 9.70179 1.90237 9.7643C1.96488 9.82681 2 9.91159 2 10C2 10.0884 1.96488 10.1732 1.90237 10.2357C1.83986 10.2982 1.75507 10.3333 1.66667 10.3333ZM2.78267 6.16667C2.72415 6.16666 2.66667 6.15126 2.616 6.122L1.46133 5.45533C1.3854 5.41082 1.33015 5.33807 1.30765 5.25297C1.28516 5.16787 1.29723 5.07733 1.34124 5.0011C1.38525 4.92487 1.45763 4.86915 1.54258 4.84608C1.62753 4.82302 1.71815 4.83449 1.79467 4.878L2.94933 5.54467C3.01288 5.58136 3.06254 5.63799 3.09062 5.70578C3.11869 5.77357 3.12362 5.84873 3.10463 5.91961C3.08564 5.99048 3.04379 6.05311 2.98558 6.09778C2.92737 6.14245 2.85604 6.16666 2.78267 6.16667ZM5.83333 3.11667C5.77477 3.11672 5.71722 3.10135 5.66648 3.07209C5.61575 3.04283 5.57362 3.00072 5.54433 2.95L4.87767 1.79533C4.85543 1.75741 4.84092 1.71546 4.83497 1.67191C4.82901 1.62835 4.83173 1.58405 4.84297 1.54155C4.8542 1.49905 4.87374 1.45919 4.90044 1.42427C4.92714 1.38935 4.96049 1.36006 4.99856 1.33808C5.03663 1.3161 5.07867 1.30187 5.12226 1.2962C5.16586 1.29053 5.21014 1.29355 5.25256 1.30506C5.29499 1.31658 5.33472 1.33638 5.36946 1.36331C5.4042 1.39024 5.43327 1.42378 5.455 1.462L6.12167 2.61667C6.15091 2.66731 6.16631 2.72476 6.16633 2.78325C6.16634 2.84173 6.15097 2.89919 6.12175 2.94985C6.09254 3.00051 6.05051 3.0426 5.99988 3.07188C5.94925 3.10116 5.89182 3.11661 5.83333 3.11667ZM10 2C9.91159 2 9.82681 1.96488 9.7643 1.90237C9.70179 1.83986 9.66667 1.75507 9.66667 1.66667V0.333333C9.66667 0.244928 9.70179 0.160143 9.7643 0.0976311C9.82681 0.0351189 9.91159 0 10 0C10.0884 0 10.1732 0.0351189 10.2357 0.0976311C10.2982 0.160143 10.3333 0.244928 10.3333 0.333333V1.66667C10.3333 1.75507 10.2982 1.83986 10.2357 1.90237C10.1732 1.96488 10.0884 2 10 2ZM14.1667 3.11667C14.1082 3.11661 14.0507 3.10116 14.0001 3.07188C13.9495 3.0426 13.9075 3.00051 13.8782 2.94985C13.849 2.89919 13.8337 2.84173 13.8337 2.78325C13.8337 2.72476 13.8491 2.66731 13.8783 2.61667L14.545 1.462C14.5667 1.42378 14.5958 1.39024 14.6305 1.36331C14.6653 1.33638 14.705 1.31658 14.7474 1.30506C14.7899 1.29355 14.8341 1.29053 14.8777 1.2962C14.9213 1.30187 14.9634 1.3161 15.0014 1.33808C15.0395 1.36006 15.0729 1.38935 15.0996 1.42427C15.1263 1.45919 15.1458 1.49905 15.157 1.54155C15.1683 1.58405 15.171 1.62835 15.165 1.67191C15.1591 1.71546 15.1446 1.75741 15.1223 1.79533L14.4557 2.95C14.4264 3.00072 14.3843 3.04283 14.3335 3.07209C14.2828 3.10135 14.2252 3.11672 14.1667 3.11667ZM17.2173 6.16667C17.144 6.16666 17.0726 6.14245 17.0144 6.09778C16.9562 6.05311 16.9144 5.99048 16.8954 5.91961C16.8764 5.84873 16.8813 5.77357 16.9094 5.70578C16.9375 5.63799 16.9871 5.58136 17.0507 5.54467L18.2053 4.878C18.2819 4.83449 18.3725 4.82302 18.4574 4.84608C18.5424 4.86915 18.6147 4.92487 18.6588 5.0011C18.7028 5.07733 18.7148 5.16787 18.6923 5.25297C18.6698 5.33807 18.6146 5.41082 18.5387 5.45533L17.384 6.122C17.3333 6.15126 17.2758 6.16666 17.2173 6.16667ZM19.6667 10.3333H18.3333C18.2449 10.3333 18.1601 10.2982 18.0976 10.2357C18.0351 10.1732 18 10.0884 18 10C18 9.91159 18.0351 9.82681 18.0976 9.7643C18.1601 9.70179 18.2449 9.66667 18.3333 9.66667H19.6667C19.7551 9.66667 19.8399 9.70179 19.9024 9.7643C19.9649 9.82681 20 9.91159 20 10C20 10.0884 19.9649 10.1732 19.9024 10.2357C19.8399 10.2982 19.7551 10.3333 19.6667 10.3333Z" fill="#F3D55B"/>
<path d="M11.001 14.9999C10.9126 14.9999 10.8278 14.9648 10.7653 14.9022C10.7028 14.8397 10.6676 14.755 10.6676 14.6665V12.3332C10.6676 12.2448 10.7028 12.16 10.7653 12.0975C10.8278 12.035 10.9126 11.9999 11.001 11.9999C11.0894 11.9999 11.1742 12.035 11.2367 12.0975C11.2992 12.16 11.3343 12.2448 11.3343 12.3332V14.6665C11.3343 14.755 11.2992 14.8397 11.2367 14.9022C11.1742 14.9648 11.0894 14.9999 11.001 14.9999ZM9.33431 14.9999C9.2459 14.9999 9.16112 14.9648 9.09861 14.9022C9.0361 14.8397 9.00098 14.755 9.00098 14.6665V12.6665C9.00098 12.5781 9.0361 12.4934 9.09861 12.4308C9.16112 12.3683 9.2459 12.3332 9.33431 12.3332C9.42272 12.3332 9.5075 12.3683 9.57001 12.4308C9.63252 12.4934 9.66764 12.5781 9.66764 12.6665V14.6665C9.66764 14.755 9.63252 14.8397 9.57001 14.9022C9.5075 14.9648 9.42272 14.9999 9.33431 14.9999Z" fill="#E57E25"/>
<path d="M13.127 6.43975C12.9253 6.03643 12.5935 5.71298 12.1851 5.52175C11.7768 5.33053 11.3159 5.28272 10.877 5.38608C10.4381 5.48944 10.0469 5.73792 9.76681 6.09127C9.48671 6.44463 9.33408 6.88218 9.33363 7.33308C8.8003 9.46641 6.1303 10.3197 5.08696 10.5764C4.95562 10.6087 4.84067 10.688 4.76385 10.7994C4.68704 10.9107 4.65369 11.0463 4.67011 11.1806C4.68653 11.3148 4.75159 11.4384 4.85297 11.5279C4.95436 11.6175 5.08504 11.6667 5.2203 11.6664H6.62696L7.85363 12.2497C8.25091 12.7916 8.8381 13.1635 9.49777 13.2911C10.1574 13.4187 10.841 13.2926 11.4117 12.938C11.9823 12.5833 12.3981 12.0263 12.5759 11.3784C12.7536 10.7304 12.6802 10.0392 12.3703 9.44308C12.3283 9.36275 12.3174 9.26978 12.3395 9.18189C12.3616 9.09399 12.4153 9.0173 12.4903 8.96641C12.7592 8.77571 12.9767 8.5215 13.1236 8.22641L13.127 6.43975Z" fill="#009CE7"/>
<path d="M14.0626 8.49359L12.9749 8.18292C12.7902 8.13017 12.6278 8.0187 12.5122 7.8654C12.3965 7.71209 12.334 7.52529 12.334 7.33326C12.334 7.14123 12.3965 6.95442 12.5122 6.80112C12.6278 6.64781 12.7902 6.53635 12.9749 6.48359L14.0626 6.17292C14.1052 6.16065 14.1506 6.1621 14.1924 6.17706C14.2342 6.19203 14.2702 6.21975 14.2954 6.25631C14.3206 6.29286 14.3336 6.33641 14.3327 6.38079C14.3318 6.42516 14.3169 6.46812 14.2902 6.50359L13.7629 7.20626C13.7355 7.24292 13.7206 7.28747 13.7206 7.33326C13.7206 7.37904 13.7355 7.4236 13.7629 7.46026L14.2902 8.16292C14.3169 8.19839 14.3318 8.24135 14.3327 8.28573C14.3336 8.3301 14.3206 8.37365 14.2954 8.41021C14.2702 8.44677 14.2342 8.47449 14.1924 8.48945C14.1506 8.50441 14.1052 8.50586 14.0626 8.49359Z" fill="#E57E25"/>
<path d="M11.3324 6.99992C11.5165 6.99992 11.6657 6.85068 11.6657 6.66659C11.6657 6.48249 11.5165 6.33325 11.3324 6.33325C11.1483 6.33325 10.999 6.48249 10.999 6.66659C10.999 6.85068 11.1483 6.99992 11.3324 6.99992Z" fill="#25306C"/>
<path d="M7.18648 12.3335H6.62648C6.56502 12.3332 6.50521 12.3136 6.45548 12.2775C6.40575 12.2414 6.36862 12.1906 6.34932 12.1323C6.33001 12.0739 6.32953 12.011 6.34792 11.9524C6.36631 11.8937 6.40265 11.8424 6.45181 11.8055C9.04081 9.84616 9.33448 7.3335 9.33448 7.3335C9.33448 7.3335 9.78548 7.7935 9.98181 9.33783C10.1838 10.9272 8.78081 12.3335 7.18648 12.3335Z" fill="#009CE7"/>
<path d="M19.6667 15H0.333333C0.244928 15 0.160143 14.9649 0.0976311 14.9024C0.035119 14.8399 0 14.7551 0 14.6667C0 14.5783 0.035119 14.4935 0.0976311 14.431C0.160143 14.3685 0.244928 14.3334 0.333333 14.3334H19.6667C19.7551 14.3334 19.8399 14.3685 19.9024 14.431C19.9649 14.4935 20 14.5783 20 14.6667C20 14.7551 19.9649 14.8399 19.9024 14.9024C19.8399 14.9649 19.7551 15 19.6667 15Z" fill="#F29C1F"/>
<path d="M18.0008 16.6669H2.00081C1.91241 16.6669 1.82762 16.6318 1.76511 16.5693C1.7026 16.5068 1.66748 16.422 1.66748 16.3336C1.66748 16.2452 1.7026 16.1604 1.76511 16.0979C1.82762 16.0354 1.91241 16.0002 2.00081 16.0002H18.0008C18.0892 16.0002 18.174 16.0354 18.2365 16.0979C18.299 16.1604 18.3341 16.2452 18.3341 16.3336C18.3341 16.422 18.299 16.5068 18.2365 16.5693C18.174 16.6318 18.0892 16.6669 18.0008 16.6669Z" fill="#E57E25"/>
<path d="M15.9989 18.3332H3.99886C3.91046 18.3332 3.82567 18.2981 3.76316 18.2355C3.70065 18.173 3.66553 18.0882 3.66553 17.9998C3.66553 17.9114 3.70065 17.8266 3.76316 17.7641C3.82567 17.7016 3.91046 17.6665 3.99886 17.6665H15.9989C16.0873 17.6665 16.1721 17.7016 16.2346 17.7641C16.2971 17.8266 16.3322 17.9114 16.3322 17.9998C16.3322 18.0882 16.2971 18.173 16.2346 18.2355C16.1721 18.2981 16.0873 18.3332 15.9989 18.3332Z" fill="#D25627"/>
<path d="M13.3345 20H6.66781C6.5794 20 6.49462 19.9649 6.4321 19.9024C6.36959 19.8399 6.33447 19.7551 6.33447 19.6667C6.33447 19.5783 6.36959 19.4935 6.4321 19.431C6.49462 19.3685 6.5794 19.3334 6.66781 19.3334H13.3345C13.4229 19.3334 13.5077 19.3685 13.5702 19.431C13.6327 19.4935 13.6678 19.5783 13.6678 19.6667C13.6678 19.7551 13.6327 19.8399 13.5702 19.9024C13.5077 19.9649 13.4229 20 13.3345 20Z" fill="#C03A2B"/>
</svg>
