<svg width="36" height="31" viewBox="0 0 36 31" fill="none" xmlns="http://www.w3.org/2000/svg">
<path d="M7.77429 3.82408C5.94668 9.90659 1.18883 13.2316 0.307935 16.1631C-0.572961 19.0946 -0.549673 25.7054 14.4377 29.3511C29.4251 32.9968 34.1131 25.2509 35.081 22.026C39.6182 6.92956 11.0113 -6.94898 7.77429 3.82408Z" fill="#EFEFEF"/>
<path d="M15.2529 20.1631H19.303V23.807H15.2529V20.1631Z" fill="#65B9FF"/>
<path d="M22.3403 24.7179C22.3403 25.219 21.8846 25.6289 21.3277 25.6289H13.2275C12.6707 25.6289 12.215 25.219 12.215 24.7179C12.215 24.2169 12.6707 23.807 13.2275 23.807H21.3277C21.8846 23.807 22.3403 24.2169 22.3403 24.7179ZM29.3469 21.1014C29.1242 21.6844 28.5167 22.0306 27.8788 22.0306C27.5548 22.0306 27.2308 21.9486 26.9472 21.7573L24.5374 20.1631H11.1012L6.56514 16.1731C6.18038 15.8269 6.03863 15.3168 6.21076 14.8522C6.42339 14.2874 7.01065 13.9686 7.60804 13.9686C7.97255 13.9686 8.33706 14.087 8.63069 14.3512L12.134 17.4302H25.5702L28.8103 19.571C29.3368 19.9263 29.5596 20.5366 29.3469 21.1014Z" fill="#F3F3F1"/>
<path d="M12.7214 7.8651L11.9184 7.14271C11.8245 7.05804 11.7129 6.99086 11.5901 6.94503C11.4672 6.8992 11.3356 6.87561 11.2026 6.87561C11.0696 6.87561 10.9379 6.8992 10.8151 6.94503C10.6923 6.99086 10.5807 7.05804 10.4867 7.14271L8.88086 8.58749C8.78675 8.67202 8.71209 8.77241 8.66114 8.88293C8.6102 8.99344 8.58398 9.11191 8.58398 9.23155C8.58398 9.35119 8.6102 9.46965 8.66114 9.58017C8.71209 9.69068 8.78675 9.79107 8.88086 9.8756L9.68379 10.598L12.7214 7.8651ZM22.8466 7.8651L23.6495 7.14271C23.7435 7.05804 23.8551 6.99086 23.9779 6.94503C24.1007 6.8992 24.2324 6.87561 24.3654 6.87561C24.4984 6.87561 24.63 6.8992 24.7529 6.94503C24.8757 6.99086 24.9873 7.05804 25.0812 7.14271L26.6871 8.58749C26.7812 8.67202 26.8559 8.77241 26.9068 8.88293C26.9578 8.99344 26.984 9.11191 26.984 9.23155C26.984 9.35119 26.9578 9.46965 26.9068 9.58017C26.8559 9.69068 26.7812 9.79107 26.6871 9.8756L25.8842 10.598L22.8466 7.8651Z" fill="#65B9FF"/>
<path d="M15.2529 20.1631H17.278V23.807H15.2529V20.1631Z" fill="#65B9FF"/>
<path d="M15.2526 25.6289H13.2275C12.6707 25.6289 12.215 25.219 12.215 24.7179C12.215 24.2169 12.6707 23.807 13.2275 23.807H15.2526C14.6957 23.807 14.2401 24.2169 14.2401 24.7179C14.2401 25.219 14.6957 25.6289 15.2526 25.6289ZM13.1263 20.1631H11.1012L6.56514 16.1731C6.18038 15.8269 6.03863 15.3168 6.21076 14.8522C6.42339 14.2874 7.01065 13.9686 7.60804 13.9686C7.96242 13.9686 8.31681 14.0779 8.60031 14.333C8.43831 14.4696 8.31681 14.6427 8.2358 14.8522C8.06367 15.3168 8.20543 15.8269 8.59019 16.1731L13.1263 20.1631ZM28.8812 21.7026C28.6078 21.9122 28.2433 22.0306 27.8788 22.0306C27.5548 22.0306 27.2308 21.9486 26.9472 21.7573L24.5374 20.1631H26.5625L28.8812 21.7026Z" fill="#D5DBE1"/>
<path d="M18.5437 20.1631H20.0625V23.807H18.5437V20.1631ZM14.4937 20.1631H16.0124V23.807H14.4937V20.1631Z" fill="black"/>
<path d="M21.3281 26.3121H13.2279C12.2508 26.3121 11.456 25.597 11.456 24.7179C11.456 23.8389 12.2508 23.1238 13.2279 23.1238H21.3281C22.3052 23.1238 23.1 23.8389 23.1 24.7179C23.1 25.597 22.3052 26.3121 21.3281 26.3121ZM13.2279 24.4902C13.1608 24.4902 13.0964 24.5142 13.0489 24.5569C13.0014 24.5996 12.9748 24.6575 12.9748 24.7179C12.9748 24.7783 13.0014 24.8363 13.0489 24.879C13.0964 24.9217 13.1608 24.9457 13.2279 24.9457H21.3281C21.3952 24.9457 21.4596 24.9217 21.5071 24.879C21.5546 24.8363 21.5812 24.7783 21.5812 24.7179C21.5812 24.6575 21.5546 24.5996 21.5071 24.5569C21.4596 24.5142 21.3952 24.4902 21.3281 24.4902H13.2279ZM27.8801 22.7147C27.3881 22.7147 26.901 22.5763 26.498 22.3094L24.2847 20.8463H11.0976C10.8991 20.8464 10.7086 20.7764 10.567 20.6514L6.03798 16.6596C5.74285 16.403 5.5352 16.076 5.43943 15.717C5.34366 15.3579 5.36373 14.9818 5.49729 14.6327C5.61754 14.3145 5.82597 14.0292 6.10288 13.8036C6.37979 13.5781 6.71604 13.4198 7.07986 13.3436C7.448 13.2634 7.83277 13.2687 8.19799 13.3591C8.56322 13.4494 8.89691 13.6219 9.16769 13.8602L12.4412 16.7461H25.5686C25.7306 16.7461 25.8875 16.7926 26.0181 16.8791L29.2582 19.0217C29.5974 19.2456 29.8607 19.55 30.0186 19.9008C30.1765 20.2517 30.2229 20.6351 30.1525 21.0083C30.0821 21.3814 29.8977 21.7296 29.62 22.0139C29.3423 22.2983 28.9821 22.5075 28.5798 22.6182C28.3534 22.6822 28.1175 22.7148 27.8801 22.7147ZM11.4074 19.4799H24.5338C24.6958 19.4799 24.8527 19.5264 24.9833 19.6129L27.3972 21.208C27.5004 21.2761 27.6201 21.3213 27.7464 21.3398C27.8728 21.3584 28.0022 21.3497 28.1242 21.3146C28.2408 21.2831 28.3475 21.2272 28.4353 21.1513C28.5232 21.0754 28.5897 20.9818 28.6294 20.8782C28.6803 20.743 28.6815 20.5967 28.6328 20.4609C28.5841 20.3251 28.4881 20.2069 28.3591 20.124L25.3185 18.1144H12.1313C11.9329 18.1144 11.7424 18.0444 11.6008 17.9194L8.10454 14.8376C8.0172 14.7611 7.90968 14.7058 7.79207 14.677C7.67446 14.6482 7.55063 14.6467 7.43222 14.6727C7.3183 14.6956 7.21275 14.7442 7.12557 14.8141C7.03839 14.8839 6.97247 14.9726 6.93406 15.0717C6.89431 15.1771 6.88873 15.2904 6.91796 15.3985C6.94718 15.5066 7.01002 15.605 7.0991 15.6821L11.4074 19.4799ZM5.06494 4.67674L6.13822 3.71112L10.7553 7.86511L9.68205 8.83074L5.06494 4.67674Z" fill="black"/>
<path d="M9.14742 11.0808L8.34449 10.3584C8.17993 10.2104 8.04939 10.0346 7.96034 9.84122C7.87128 9.64779 7.82544 9.44048 7.82544 9.23111C7.82544 9.02175 7.87128 8.81443 7.96034 8.62101C8.04939 8.42758 8.17993 8.25183 8.34449 8.1038L9.95035 6.65901C10.283 6.36067 10.7336 6.19315 11.2033 6.19315C11.6731 6.19315 12.1236 6.36067 12.4563 6.65901L13.2583 7.38231L12.185 8.34793L11.3821 7.62554C11.3585 7.60433 11.3306 7.58751 11.2999 7.57602C11.2691 7.56454 11.2361 7.55863 11.2028 7.55863C11.1695 7.55863 11.1366 7.56454 11.1058 7.57602C11.0751 7.58751 11.0471 7.60433 11.0236 7.62554L9.41776 9.07033C9.39419 9.09148 9.37549 9.11662 9.36272 9.14428C9.34996 9.17195 9.3434 9.20161 9.3434 9.23157C9.3434 9.26153 9.34996 9.29119 9.36272 9.31886C9.37549 9.34652 9.39419 9.37166 9.41776 9.39281L10.2207 10.1152L9.14742 11.0808ZM24.8071 7.86695L29.4242 3.71295L30.4975 4.67857L25.8804 8.83257L24.8071 7.86695Z" fill="black"/>
<path d="M26.4209 11.0809L25.3476 10.1152L26.1506 9.39284C26.1741 9.37168 26.1928 9.34655 26.2056 9.31888C26.2184 9.29121 26.2249 9.26155 26.2249 9.2316C26.2249 9.20164 26.2184 9.17198 26.2056 9.14431C26.1928 9.11664 26.1741 9.09151 26.1506 9.07036L24.5447 7.62557C24.5212 7.60436 24.4933 7.58753 24.4625 7.57605C24.4318 7.56457 24.3988 7.55866 24.3655 7.55866C24.3322 7.55866 24.2992 7.56457 24.2685 7.57605C24.2377 7.58753 24.2098 7.60436 24.1863 7.62557L23.3833 8.34796L22.3101 7.38234L23.113 6.65995C23.4457 6.36161 23.8963 6.19409 24.366 6.19409C24.8357 6.19409 25.2863 6.36161 25.619 6.65995L27.2249 8.10473C27.3894 8.25277 27.5199 8.42852 27.609 8.62195C27.6981 8.81537 27.7439 9.02269 27.7439 9.23205C27.7439 9.44142 27.6981 9.64873 27.609 9.84216C27.5199 10.0356 27.3894 10.2113 27.2249 10.3594L26.4209 11.0809ZM8.10132 11.0535L13.2247 6.44405L14.298 7.40967L9.17459 12.0191L8.10132 11.0535Z" fill="black"/>
<path d="M21.2632 7.41148L22.3365 6.44586L27.4598 11.0553L26.3866 12.021L21.2632 7.41148Z" fill="black"/>
<path d="M3.23485 10.598C2.39749 10.598 1.71606 9.98492 1.71606 9.23156C1.71606 8.47819 2.39749 7.86511 3.23485 7.86511C4.07221 7.86511 4.75364 8.47819 4.75364 9.23156C4.75364 9.98492 4.07221 10.598 3.23485 10.598ZM3.23485 8.77608C2.95641 8.77608 2.72859 8.98104 2.72859 9.23156C2.72859 9.48207 2.95641 9.68704 3.23485 9.68704C3.51329 9.68704 3.74111 9.48207 3.74111 9.23156C3.74111 8.98104 3.51329 8.77608 3.23485 8.77608Z" fill="#A4AFC1"/>
</svg>
