<svg width="175" height="175" viewBox="0 0 175 175" fill="none" xmlns="http://www.w3.org/2000/svg">
<g filter="url(#filter0_d_4167_44439)">
<path d="M80.0975 22.4337C83.8925 19.1888 90.1075 19.1888 93.9575 22.4337L102.647 29.9137C104.298 31.3437 107.378 32.4987 109.577 32.4987H118.927C124.757 32.4987 129.543 37.2837 129.543 43.1137V52.4637C129.543 54.6087 130.698 57.7437 132.128 59.3937L139.608 68.0837C142.853 71.8787 142.853 78.0938 139.608 81.9437L132.128 90.6338C130.698 92.2837 129.543 95.3637 129.543 97.5638V106.914C129.543 112.744 124.757 117.529 118.927 117.529H109.577C107.433 117.529 104.298 118.684 102.647 120.114L93.9575 127.594C90.1625 130.839 83.9475 130.839 80.0975 127.594L71.4075 120.114C69.7575 118.684 66.6775 117.529 64.4775 117.529H54.9625C49.1325 117.529 44.3475 112.744 44.3475 106.914V97.5087C44.3475 95.3637 43.1925 92.2837 41.8175 90.6338L34.3925 81.8887C31.2025 78.0937 31.2025 71.9338 34.3925 68.1387L41.8175 59.3937C43.1925 57.7437 44.3475 54.6637 44.3475 52.5187V43.0587C44.3475 37.2287 49.1325 32.4437 54.9625 32.4437H64.4775C66.6225 32.4437 69.7575 31.2887 71.4075 29.8587L80.0975 22.4337Z" fill="#C36769"/>
<path d="M75.5264 60.9585C76.8726 60.1813 78.5311 60.1813 79.8773 60.9585C80.3772 61.2471 80.8287 61.6993 81.3982 62.2696L81.5093 62.3808L84.4328 65.3044C85.1469 66.0184 85.5954 66.4632 85.9647 66.7449C86.305 67.0046 86.4275 67.0055 86.4725 67.0055C86.5174 67.0055 86.6399 67.0046 86.9803 66.7449C87.3496 66.4632 87.7981 66.0184 88.5122 65.3044L91.4357 62.3808L91.5468 62.2696C92.1162 61.6993 92.5678 61.2471 93.0677 60.9585C94.4139 60.1813 96.0724 60.1813 97.4186 60.9585C97.9185 61.2471 98.3701 61.6993 98.9395 62.2696L99.0506 62.3808L99.1618 62.4919C99.7321 63.0614 100.184 63.5129 100.473 64.0128C101.25 65.359 101.25 67.0175 100.473 68.3637C100.184 68.8636 99.7321 69.3152 99.1618 69.8846L99.0506 69.9957L96.127 72.9192C95.413 73.6333 94.9682 74.0818 94.6865 74.4511C94.4268 74.7915 94.4259 74.914 94.4259 74.9589C94.4259 75.0039 94.4268 75.1264 94.6865 75.4668C94.9682 75.836 95.413 76.2845 96.127 76.9986L99.0506 79.9221L99.1618 80.0332C99.7321 80.6027 100.184 81.0542 100.473 81.5541C101.25 82.9003 101.25 84.5588 100.473 85.905C100.184 86.4049 99.7321 86.8565 99.1618 87.4259L99.0506 87.537L98.9395 87.6482C98.3701 88.2185 97.9185 88.6707 97.4186 88.9593C96.0724 89.7365 94.4139 89.7365 93.0677 88.9593C92.5678 88.6707 92.1163 88.2185 91.5468 87.6482L91.5468 87.6482L91.4357 87.537L88.5122 84.6135C87.7981 83.8994 87.3496 83.4546 86.9803 83.1729C86.6399 82.9132 86.5174 82.9123 86.4725 82.9123C86.4275 82.9123 86.305 82.9132 85.9647 83.1729C85.5954 83.4546 85.1469 83.8994 84.4328 84.6135L81.5093 87.537L81.3982 87.6482C80.8287 88.2185 80.3772 88.6707 79.8773 88.9593C78.5311 89.7365 76.8726 89.7365 75.5264 88.9593C75.0265 88.6707 74.5749 88.2185 74.0055 87.6482L73.8944 87.537L73.7832 87.4259L73.7832 87.4259C73.2129 86.8565 72.7607 86.4049 72.4721 85.905C71.6949 84.5588 71.6949 82.9003 72.4721 81.5541C72.7607 81.0542 73.2129 80.6027 73.7832 80.0332L73.7832 80.0332L73.8944 79.9221L76.8179 76.9986C77.532 76.2845 77.9768 75.836 78.2585 75.4668C78.5182 75.1264 78.5191 75.0039 78.5191 74.9589C78.5191 74.914 78.5182 74.7915 78.2585 74.4511C77.9768 74.0818 77.532 73.6333 76.8179 72.9192L73.8944 69.9957L73.7832 69.8846C73.2129 69.3152 72.7607 68.8636 72.4721 68.3637C71.6949 67.0175 71.6949 65.359 72.4721 64.0128C72.7607 63.5129 73.2129 63.0613 73.7832 62.4919L73.8944 62.3808L74.0055 62.2696C74.5749 61.6993 75.0265 61.2471 75.5264 60.9585Z" fill="#F4E9FA"/>
</g>
<defs>
<filter id="filter0_d_4167_44439" x="0" y="0" width="174.041" height="174.027" filterUnits="userSpaceOnUse" color-interpolation-filters="sRGB">
<feFlood flood-opacity="0" result="BackgroundImageFix"/>
<feColorMatrix in="SourceAlpha" type="matrix" values="0 0 0 0 0 0 0 0 0 0 0 0 0 0 0 0 0 0 127 0" result="hardAlpha"/>
<feOffset dy="12"/>
<feGaussianBlur stdDeviation="16"/>
<feComposite in2="hardAlpha" operator="out"/>
<feColorMatrix type="matrix" values="0 0 0 0 0.251908 0 0 0 0 0.0276215 0 0 0 0 0.330712 0 0 0 0.15 0"/>
<feBlend mode="normal" in2="BackgroundImageFix" result="effect1_dropShadow_4167_44439"/>
<feBlend mode="normal" in="SourceGraphic" in2="effect1_dropShadow_4167_44439" result="shape"/>
</filter>
</defs>
</svg>
