<svg width="17" height="17" viewBox="0 0 17 17" fill="none" xmlns="http://www.w3.org/2000/svg">
<mask id="mask0_6101_1178" style="mask-type:luminance" maskUnits="userSpaceOnUse" x="1" y="1" width="13" height="13">
<path d="M7.4877 13.881C10.9041 13.881 13.6736 11.1115 13.6736 7.69516C13.6736 4.27879 10.9041 1.50928 7.4877 1.50928C4.07133 1.50928 1.30182 4.27879 1.30182 7.69516C1.30182 11.1115 4.07133 13.881 7.4877 13.881Z" fill="white"/>
</mask>
<g mask="url(#mask0_6101_1178)">
<path d="M-1.79117 1.50928H16.7665V13.881H-1.79117V1.50928Z" fill="#010101"/>
</g>
<mask id="mask1_6101_1178" style="mask-type:luminance" maskUnits="userSpaceOnUse" x="1" y="1" width="13" height="13">
<path d="M7.4877 13.881C10.9041 13.881 13.6736 11.1115 13.6736 7.69516C13.6736 4.27879 10.9041 1.50928 7.4877 1.50928C4.07133 1.50928 1.30182 4.27879 1.30182 7.69516C1.30182 11.1115 4.07133 13.881 7.4877 13.881Z" fill="white"/>
</mask>
<g mask="url(#mask1_6101_1178)">
<path d="M-1.79117 1.50928H16.7665V9.75712H-1.79117V1.50928Z" fill="white"/>
</g>
<mask id="mask2_6101_1178" style="mask-type:luminance" maskUnits="userSpaceOnUse" x="1" y="1" width="13" height="13">
<path d="M7.4877 13.881C10.9041 13.881 13.6736 11.1115 13.6736 7.69516C13.6736 4.27879 10.9041 1.50928 7.4877 1.50928C4.07133 1.50928 1.30182 4.27879 1.30182 7.69516C1.30182 11.1115 4.07133 13.881 7.4877 13.881Z" fill="white"/>
</mask>
<g mask="url(#mask2_6101_1178)">
<path d="M-1.79117 1.50928H16.7665V5.63319H-1.79117V1.50928Z" fill="#CE2028"/>
</g>
<mask id="mask3_6101_1178" style="mask-type:luminance" maskUnits="userSpaceOnUse" x="1" y="1" width="13" height="13">
<path d="M7.4877 13.881C10.9041 13.881 13.6736 11.1115 13.6736 7.69516C13.6736 4.27879 10.9041 1.50928 7.4877 1.50928C4.07133 1.50928 1.30182 4.27879 1.30182 7.69516C1.30182 11.1115 4.07133 13.881 7.4877 13.881Z" fill="white"/>
</mask>
<g mask="url(#mask3_6101_1178)">
<path d="M7.50435 7.74469L8.91653 9.05556L8.81604 6.67464C8.80125 6.3138 8.48762 6.39666 8.25988 6.52674C8.02912 6.67464 7.76583 6.67464 7.48775 6.57698C7.20966 6.67464 6.94639 6.67464 6.71573 6.52674C6.48788 6.39666 6.17436 6.3138 6.15957 6.67464L6.05896 9.05556L7.50435 7.74469Z" fill="white"/>
</g>
<mask id="mask4_6101_1178" style="mask-type:luminance" maskUnits="userSpaceOnUse" x="1" y="1" width="13" height="13">
<path d="M7.4877 13.881C10.9041 13.881 13.6736 11.1115 13.6736 7.69516C13.6736 4.27879 10.9041 1.50928 7.4877 1.50928C4.07133 1.50928 1.30182 4.27879 1.30182 7.69516C1.30182 11.1115 4.07133 13.881 7.4877 13.881Z" fill="white"/>
</mask>
<g mask="url(#mask4_6101_1178)">
<path d="M6.05897 9.06858C6.0572 9.06858 6.05545 9.06823 6.05383 9.06753C6.0522 9.06684 6.05073 9.06583 6.04951 9.06455C6.04828 9.06328 6.04733 9.06177 6.04671 9.06011C6.04608 9.05846 6.0458 9.0567 6.04588 9.05493L6.14649 6.67401C6.15569 6.4497 6.27873 6.4026 6.38034 6.4026C6.50606 6.4026 6.64852 6.47321 6.72223 6.51528C6.93487 6.65159 7.18969 6.66769 7.48342 6.56453C7.48622 6.56354 7.48929 6.56354 7.49209 6.56453C7.78591 6.66775 8.04115 6.6513 8.25282 6.51563C8.32707 6.47319 8.4695 6.40259 8.59527 6.40259C8.69688 6.40259 8.81994 6.44969 8.82914 6.67401L8.92963 9.05492C8.92986 9.06024 8.92685 9.06514 8.92203 9.06735C8.91717 9.06963 8.9115 9.06871 8.90763 9.06506L7.50426 7.76238L6.06775 9.06518C6.06536 9.06737 6.06222 9.06859 6.05897 9.06858ZM6.38033 6.42879C6.24922 6.42879 6.17935 6.51167 6.17265 6.67511L6.07337 9.02473L7.49555 7.73493C7.49798 7.73272 7.50115 7.73151 7.50444 7.73153C7.50772 7.73155 7.51088 7.73279 7.51328 7.73503L8.90211 9.02423L8.80296 6.67513C8.79626 6.51167 8.72637 6.42879 8.59525 6.42879C8.5065 6.42879 8.38971 6.46759 8.26638 6.53805C8.04994 6.67676 7.78764 6.69503 7.48776 6.59077C7.18793 6.69499 6.92604 6.67707 6.70866 6.53769C6.58583 6.46759 6.46903 6.42879 6.38033 6.42879Z" fill="#BE942D"/>
</g>
<mask id="mask5_6101_1178" style="mask-type:luminance" maskUnits="userSpaceOnUse" x="1" y="1" width="13" height="13">
<path d="M7.4877 13.881C10.9041 13.881 13.6736 11.1115 13.6736 7.69516C13.6736 4.27879 10.9041 1.50928 7.4877 1.50928C4.07133 1.50928 1.30182 4.27879 1.30182 7.69516C1.30182 11.1115 4.07133 13.881 7.4877 13.881Z" fill="white"/>
</mask>
<g mask="url(#mask5_6101_1178)">
<path d="M6.32206 6.5918L6.2244 8.90779L6.05878 9.05558L6.15937 6.67466C6.20669 6.64216 6.28957 6.5918 6.32206 6.5918ZM6.52043 6.75764L6.43756 8.69496L6.27194 8.8644L6.37251 6.62745C6.40504 6.65988 6.5027 6.73982 6.52044 6.75753V6.75764H6.52043ZM6.70085 6.90543L6.6358 8.52128L6.5027 8.65137L6.58557 6.80789C6.61798 6.8404 6.68302 6.88772 6.70085 6.90543ZM6.89606 6.9883L6.83101 8.36542L6.70085 8.47104L6.76587 6.93806C6.79851 6.95287 6.86353 6.9883 6.89606 6.9883ZM7.07648 6.9883L7.02916 8.13597L6.89606 8.26614L6.9463 7.00308C6.97883 7.00308 7.06169 7.00308 7.07648 6.9883ZM8.65326 6.5918L8.75092 8.90779L8.91655 9.05558L8.81597 6.67466C8.76864 6.64216 8.68578 6.5918 8.65326 6.5918ZM8.45491 6.75764L8.53778 8.69496L8.7034 8.8644L8.60282 6.62745C8.57029 6.65988 8.47264 6.73982 8.45491 6.75753V6.75764ZM8.2745 6.90543L8.33954 8.52128L8.47264 8.65137L8.38979 6.80789C8.35735 6.8404 8.29231 6.88772 8.2745 6.90543ZM8.07927 6.9883L8.14431 8.36542L8.27448 8.47104L8.20945 6.93806C8.17683 6.95287 8.11178 6.9883 8.07927 6.9883ZM7.89884 6.9883L7.94616 8.13597L8.07927 8.26614L8.02902 7.00308C7.99652 7.00308 7.91365 7.00308 7.89884 6.9883ZM7.55281 8.00569L7.75105 8.90789L7.6859 8.97293L7.61784 8.9227L7.50548 8.11815L7.55281 8.9227L7.48776 9.00545L7.42264 8.9227L7.46992 8.11815L7.35759 8.9227L7.28951 8.97293L7.22448 8.90789L7.42264 8.00569H7.55281Z" fill="#BE942D"/>
</g>
<mask id="mask6_6101_1178" style="mask-type:luminance" maskUnits="userSpaceOnUse" x="1" y="1" width="13" height="13">
<path d="M7.4877 13.881C10.9041 13.881 13.6736 11.1115 13.6736 7.69516C13.6736 4.27879 10.9041 1.50928 7.4877 1.50928C4.07133 1.50928 1.30182 4.27879 1.30182 7.69516C1.30182 11.1115 4.07133 13.881 7.4877 13.881Z" fill="white"/>
</mask>
<g mask="url(#mask6_6101_1178)">
<path d="M7.48775 9.0234L7.41132 8.92627L7.44263 8.39358L7.36788 8.92886L7.28839 8.98754L7.21234 8.91148L7.21365 8.90555L7.41372 7.99463H7.56169L7.76313 8.91146L7.68697 8.98752L7.60751 8.92885L7.53274 8.39364L7.56408 8.92626L7.48775 9.0234ZM7.43392 8.91918L7.48775 8.98757L7.54148 8.91918L7.49442 8.11884L7.51644 8.11665L7.62814 8.9166L7.68481 8.9584L7.73892 8.90439L7.54387 8.01681H7.43151L7.23658 8.90439L7.29058 8.9584L7.34724 8.9166L7.45895 8.11665L7.48096 8.11884L7.43392 8.91918Z" fill="#BE942D"/>
</g>
<mask id="mask7_6101_1178" style="mask-type:luminance" maskUnits="userSpaceOnUse" x="1" y="1" width="13" height="13">
<path d="M7.4877 13.881C10.9041 13.881 13.6736 11.1115 13.6736 7.69516C13.6736 4.27879 10.9041 1.50928 7.4877 1.50928C4.07133 1.50928 1.30182 4.27879 1.30182 7.69516C1.30182 11.1115 4.07133 13.881 7.4877 13.881Z" fill="white"/>
</mask>
<g mask="url(#mask7_6101_1178)">
<path d="M7.04394 7.60938L6.65048 9.00543L7.19182 9.08828L7.42252 8.03825L7.04394 7.60938Z" fill="white"/>
</g>
<mask id="mask8_6101_1178" style="mask-type:luminance" maskUnits="userSpaceOnUse" x="1" y="1" width="13" height="13">
<path d="M7.4877 13.881C10.9041 13.881 13.6736 11.1115 13.6736 7.69516C13.6736 4.27879 10.9041 1.50928 7.4877 1.50928C4.07133 1.50928 1.30182 4.27879 1.30182 7.69516C1.30182 11.1115 4.07133 13.881 7.4877 13.881Z" fill="white"/>
</mask>
<g mask="url(#mask8_6101_1178)">
<path d="M7.19184 9.10059C7.19122 9.10059 7.1906 9.10054 7.18999 9.10043L6.64865 9.01758C6.64693 9.01732 6.64529 9.0167 6.64383 9.01576C6.64238 9.01481 6.64113 9.01358 6.64019 9.01212C6.63925 9.01066 6.63863 9.00901 6.63838 9.00729C6.63812 9.00558 6.63823 9.00382 6.6387 9.00215L7.03215 7.6061C7.03275 7.60398 7.0339 7.60206 7.0355 7.60054C7.03709 7.59902 7.03907 7.59797 7.04121 7.59748C7.04336 7.59699 7.0456 7.59708 7.04769 7.59776C7.04979 7.59843 7.05166 7.59966 7.05312 7.60131L7.4317 8.03019C7.43428 8.03311 7.43532 8.03712 7.43448 8.04091L7.2038 9.09094C7.2032 9.09367 7.2017 9.09612 7.19952 9.09788C7.19735 9.09963 7.19464 9.10059 7.19184 9.10059ZM6.66606 8.99546L7.18233 9.07449L7.40922 8.04174L7.04964 7.63439L6.66606 8.99546Z" fill="#BE942D"/>
</g>
<mask id="mask9_6101_1178" style="mask-type:luminance" maskUnits="userSpaceOnUse" x="1" y="1" width="13" height="13">
<path d="M7.4877 13.881C10.9041 13.881 13.6736 11.1115 13.6736 7.69516C13.6736 4.27879 10.9041 1.50928 7.4877 1.50928C4.07133 1.50928 1.30182 4.27879 1.30182 7.69516C1.30182 11.1115 4.07133 13.881 7.4877 13.881Z" fill="white"/>
</mask>
<g mask="url(#mask9_6101_1178)">
<path d="M6.96117 8.21406C6.95857 8.21406 6.95604 8.21329 6.95388 8.21184C6.95172 8.2104 6.95004 8.20835 6.94904 8.20596L6.90161 8.09069L6.92584 8.08071L6.96598 8.17828L7.20784 7.94727L7.22594 7.96618L6.97021 8.21044C6.96778 8.21278 6.96454 8.21408 6.96117 8.21406Z" fill="#BE942D"/>
</g>
<mask id="mask10_6101_1178" style="mask-type:luminance" maskUnits="userSpaceOnUse" x="1" y="1" width="13" height="13">
<path d="M7.4877 13.881C10.9041 13.881 13.6736 11.1115 13.6736 7.69516C13.6736 4.27879 10.9041 1.50928 7.4877 1.50928C4.07133 1.50928 1.30182 4.27879 1.30182 7.69516C1.30182 11.1115 4.07133 13.881 7.4877 13.881Z" fill="white"/>
</mask>
<g mask="url(#mask10_6101_1178)">
<path d="M7.14442 8.31184C7.14119 8.31184 7.13807 8.31065 7.13567 8.30849C7.13326 8.30634 7.13174 8.30337 7.13139 8.30015L7.07791 7.79818L7.10397 7.79541L7.15397 8.26471L7.29672 8.07787L7.31754 8.09377L7.15485 8.30671C7.15362 8.30831 7.15204 8.3096 7.15023 8.31049C7.14843 8.31138 7.14644 8.31184 7.14442 8.31184Z" fill="#BE942D"/>
</g>
<mask id="mask11_6101_1178" style="mask-type:luminance" maskUnits="userSpaceOnUse" x="1" y="2" width="14" height="13">
<path d="M1.99437 10.0577C2.9435 13.3396 6.37341 15.2306 9.65528 14.2815C12.9372 13.3324 14.8282 9.90246 13.8791 6.62059C12.93 3.33871 9.50007 1.44764 6.21819 2.39677C2.93631 3.3459 1.04524 6.7758 1.99437 10.0577Z" fill="white"/>
</mask>
<g mask="url(#mask11_6101_1178)">
<path d="M7.24719 8.16284L7.33592 8.46966L7.31075 8.47694L7.22202 8.17012L7.24719 8.16284Z" fill="#BE942D"/>
</g>
<mask id="mask12_6101_1178" style="mask-type:luminance" maskUnits="userSpaceOnUse" x="1" y="1" width="13" height="13">
<path d="M7.4877 13.881C10.9041 13.881 13.6736 11.1115 13.6736 7.69516C13.6736 4.27879 10.9041 1.50928 7.4877 1.50928C4.07133 1.50928 1.30182 4.27879 1.30182 7.69516C1.30182 11.1115 4.07133 13.881 7.4877 13.881Z" fill="white"/>
</mask>
<g mask="url(#mask12_6101_1178)">
<path d="M7.22929 8.91072L7.17806 8.66826L7.0727 8.83221C7.07136 8.83429 7.06946 8.83594 7.06722 8.83698C7.06498 8.83803 7.06249 8.83842 7.06004 8.83811C7.05759 8.8378 7.05527 8.8368 7.05336 8.83524C7.05145 8.83367 7.05002 8.8316 7.04923 8.82926L6.99294 8.65799L6.8894 8.82833C6.88807 8.83051 6.88613 8.83226 6.88382 8.83336C6.8815 8.83445 6.87892 8.83484 6.87638 8.83448C6.87385 8.83413 6.87147 8.83303 6.86955 8.83134C6.86763 8.82965 6.86625 8.82743 6.86558 8.82496L6.77991 8.51044C6.77931 8.50823 6.77929 8.50591 6.77987 8.50371C6.78044 8.5015 6.78157 8.49947 6.78317 8.49784L6.9517 8.32497C6.95331 8.32333 6.95532 8.32215 6.95753 8.32153C6.95974 8.32091 6.96207 8.32088 6.9643 8.32145C6.96653 8.32202 6.96856 8.32315 6.97021 8.32475C6.97186 8.32635 6.97306 8.32836 6.97369 8.33056L7.01932 8.49286L7.12384 8.3513C7.12536 8.34925 7.12745 8.34769 7.12984 8.34681C7.13224 8.34593 7.13484 8.34577 7.13733 8.34635C7.13982 8.34693 7.14208 8.34822 7.14384 8.35006C7.14561 8.35191 7.14679 8.35423 7.14726 8.35674L7.19191 8.60272L7.35488 8.35521L7.37675 8.36961L7.19882 8.63981L7.25491 8.90528L7.22929 8.91072ZM6.99652 8.61381C6.99928 8.61381 7.00196 8.61468 7.0042 8.6163C7.00643 8.61791 7.0081 8.62019 7.00896 8.62281L7.06554 8.79492L7.17051 8.63154L7.12689 8.39126L7.02449 8.52998C7.02304 8.53196 7.02106 8.5335 7.01878 8.5344C7.0165 8.53531 7.01401 8.53556 7.01159 8.53512C7.00918 8.53468 7.00694 8.53356 7.00512 8.53191C7.00331 8.53025 7.002 8.52812 7.00134 8.52575L6.95462 8.35951L6.80717 8.51077L6.88286 8.78868L6.98535 8.62011C6.9865 8.61818 6.98814 8.61659 6.9901 8.61549C6.99206 8.61438 6.99427 8.61381 6.99652 8.61381Z" fill="#BE942D"/>
</g>
<mask id="mask13_6101_1178" style="mask-type:luminance" maskUnits="userSpaceOnUse" x="1" y="1" width="13" height="13">
<path d="M7.4877 13.881C10.9041 13.881 13.6736 11.1115 13.6736 7.69516C13.6736 4.27879 10.9041 1.50928 7.4877 1.50928C4.07133 1.50928 1.30182 4.27879 1.30182 7.69516C1.30182 11.1115 4.07133 13.881 7.4877 13.881Z" fill="white"/>
</mask>
<g mask="url(#mask13_6101_1178)">
<path d="M7.09657 9.09235L7.04045 8.92159L6.95749 9.06229C6.95619 9.06448 6.95428 9.06625 6.952 9.06739C6.94971 9.06852 6.94715 9.06896 6.94462 9.06866C6.94209 9.06835 6.93971 9.06731 6.93776 9.06568C6.93582 9.06404 6.93439 9.06187 6.93365 9.05943L6.87017 8.84884L6.77645 8.98051L6.7551 8.96531L6.86433 8.81187C6.86577 8.80991 6.86773 8.80837 6.86998 8.80743C6.87224 8.80649 6.8747 8.80618 6.87712 8.80654C6.88206 8.80736 6.8861 8.81092 6.88754 8.8157L6.9501 9.02325L7.03256 8.8834C7.03384 8.88123 7.03572 8.87948 7.03797 8.87836C7.04022 8.87723 7.04274 8.87677 7.04525 8.87704C7.04775 8.87731 7.05012 8.8783 7.05208 8.87988C7.05403 8.88146 7.0555 8.88357 7.05629 8.88596L7.12144 9.0842L7.09657 9.09235Z" fill="#BE942D"/>
</g>
<mask id="mask14_6101_1178" style="mask-type:luminance" maskUnits="userSpaceOnUse" x="1" y="1" width="13" height="13">
<path d="M7.4877 13.881C10.9041 13.881 13.6736 11.1115 13.6736 7.69516C13.6736 4.27879 10.9041 1.50928 7.4877 1.50928C4.07133 1.50928 1.30182 4.27879 1.30182 7.69516C1.30182 11.1115 4.07133 13.881 7.4877 13.881Z" fill="white"/>
</mask>
<g mask="url(#mask14_6101_1178)">
<path d="M7.93135 7.60938L8.32482 9.00543L7.78344 9.08828L7.5528 8.03825L7.93135 7.60938Z" fill="white"/>
</g>
<mask id="mask15_6101_1178" style="mask-type:luminance" maskUnits="userSpaceOnUse" x="1" y="1" width="13" height="13">
<path d="M7.4877 13.881C10.9041 13.881 13.6736 11.1115 13.6736 7.69516C13.6736 4.27879 10.9041 1.50928 7.4877 1.50928C4.07133 1.50928 1.30182 4.27879 1.30182 7.69516C1.30182 11.1115 4.07133 13.881 7.4877 13.881Z" fill="white"/>
</mask>
<g mask="url(#mask15_6101_1178)">
<path d="M7.78345 9.10061C7.78066 9.10061 7.77794 9.09966 7.77577 9.0979C7.77359 9.09615 7.77207 9.0937 7.77148 9.09097L7.54081 8.04094C7.5404 8.03906 7.54044 8.03711 7.54092 8.03525C7.54141 8.03338 7.54233 8.03166 7.5436 8.03022L7.92218 7.60134C7.92362 7.59967 7.92549 7.59842 7.92759 7.59775C7.92969 7.59707 7.93193 7.59698 7.93408 7.5975C7.93623 7.59799 7.9382 7.59905 7.9398 7.60057C7.9414 7.60209 7.94256 7.60401 7.94316 7.60612L8.33663 9.00218C8.3371 9.00385 8.33721 9.00561 8.33695 9.00733C8.33669 9.00904 8.33606 9.01069 8.33512 9.01215C8.33419 9.01361 8.33295 9.01485 8.33149 9.01579C8.33004 9.01673 8.3284 9.01735 8.32668 9.01761L7.78532 9.10046C7.7847 9.10056 7.78408 9.10061 7.78345 9.10061ZM7.56612 8.04176L7.79298 9.0745L8.30927 8.99547L7.92567 7.63441L7.56612 8.04176Z" fill="#BE942D"/>
</g>
<mask id="mask16_6101_1178" style="mask-type:luminance" maskUnits="userSpaceOnUse" x="1" y="1" width="13" height="13">
<path d="M7.4877 13.881C10.9041 13.881 13.6736 11.1115 13.6736 7.69516C13.6736 4.27879 10.9041 1.50928 7.4877 1.50928C4.07133 1.50928 1.30182 4.27879 1.30182 7.69516C1.30182 11.1115 4.07133 13.881 7.4877 13.881Z" fill="white"/>
</mask>
<g mask="url(#mask16_6101_1178)">
<path d="M8.01413 8.21406C8.01077 8.21406 8.00753 8.2128 8.0051 8.21044L7.74936 7.96618L7.76743 7.94727L8.00933 8.17828L8.04945 8.08071L8.07366 8.09069L8.02624 8.20596C8.02525 8.20836 8.02357 8.21041 8.02141 8.21185C8.01926 8.2133 8.01672 8.21406 8.01413 8.21406Z" fill="#BE942D"/>
</g>
<mask id="mask17_6101_1178" style="mask-type:luminance" maskUnits="userSpaceOnUse" x="1" y="1" width="13" height="13">
<path d="M7.4877 13.881C10.9041 13.881 13.6736 11.1115 13.6736 7.69516C13.6736 4.27879 10.9041 1.50928 7.4877 1.50928C4.07133 1.50928 1.30182 4.27879 1.30182 7.69516C1.30182 11.1115 4.07133 13.881 7.4877 13.881Z" fill="white"/>
</mask>
<g mask="url(#mask17_6101_1178)">
<path d="M7.83086 8.31184C7.82684 8.31184 7.82298 8.31001 7.82045 8.30671L7.65775 8.09377L7.67859 8.07787L7.82134 8.26471L7.87132 7.79541L7.89735 7.79818L7.84389 8.30015C7.84356 8.30337 7.84204 8.30635 7.83964 8.30852C7.83723 8.31068 7.8341 8.31186 7.83086 8.31184Z" fill="#BE942D"/>
</g>
<mask id="mask18_6101_1178" style="mask-type:luminance" maskUnits="userSpaceOnUse" x="1" y="1" width="13" height="13">
<path d="M5.94025 13.6063C9.22096 14.5595 12.6532 12.6726 13.6063 9.39187C14.5595 6.11116 12.6726 2.67894 9.39186 1.72581C6.11114 0.772669 2.67893 2.65955 1.72579 5.94026C0.772658 9.22097 2.65953 12.6532 5.94025 13.6063Z" fill="white"/>
</mask>
<g mask="url(#mask18_6101_1178)">
<path d="M7.71628 8.16699L7.74144 8.1743L7.65233 8.48101L7.62717 8.4737L7.71628 8.16699Z" fill="#BE942D"/>
</g>
<mask id="mask19_6101_1178" style="mask-type:luminance" maskUnits="userSpaceOnUse" x="1" y="1" width="13" height="13">
<path d="M7.4877 13.881C10.9041 13.881 13.6736 11.1115 13.6736 7.69516C13.6736 4.27879 10.9041 1.50928 7.4877 1.50928C4.07133 1.50928 1.30182 4.27879 1.30182 7.69516C1.30182 11.1115 4.07133 13.881 7.4877 13.881Z" fill="white"/>
</mask>
<g mask="url(#mask19_6101_1178)">
<path d="M7.74604 8.91077L7.72043 8.90534L7.7765 8.63987L7.59854 8.36967L7.62045 8.35526L7.78342 8.60277L7.82807 8.3568C7.82853 8.35428 7.82972 8.35196 7.83148 8.3501C7.83325 8.34825 7.83552 8.34696 7.83801 8.34638C7.8405 8.3458 7.84311 8.34596 7.84551 8.34685C7.84791 8.34773 7.85 8.3493 7.85152 8.35136L7.95602 8.49291L8.00164 8.33062C8.00225 8.3284 8.00345 8.32638 8.00509 8.32477C8.00674 8.32316 8.00878 8.32202 8.01102 8.32145C8.01325 8.32088 8.01559 8.32091 8.01781 8.32154C8.02002 8.32217 8.02203 8.32337 8.02364 8.32503L8.19218 8.4979C8.1954 8.50123 8.19665 8.506 8.19543 8.51049L8.10975 8.82502C8.10908 8.82749 8.1077 8.82971 8.10578 8.8314C8.10386 8.83309 8.10149 8.83419 8.09895 8.83455C8.09641 8.83494 8.09381 8.83457 8.09149 8.83347C8.08916 8.83237 8.08722 8.8306 8.08591 8.82839L7.98239 8.65805L7.92611 8.82928C7.92534 8.83163 7.92392 8.83372 7.92201 8.8353C7.9201 8.83688 7.91779 8.83789 7.91533 8.8382C7.91287 8.83852 7.91037 8.83813 7.90813 8.83708C7.90588 8.83603 7.90399 8.83436 7.90265 8.83227L7.79728 8.6683L7.74604 8.91077ZM7.80482 8.63159L7.9098 8.79497L7.96635 8.62288C7.96794 8.61802 7.97222 8.61453 7.9773 8.61395C7.98244 8.61351 7.98735 8.61578 7.98998 8.62016L8.09245 8.78872L8.16816 8.51081L8.02069 8.35956L7.97397 8.5258C7.97331 8.52816 7.97199 8.53028 7.97018 8.53193C7.96836 8.53358 7.96612 8.53469 7.96371 8.53513C7.9613 8.53557 7.95881 8.53532 7.95653 8.53442C7.95425 8.53352 7.95227 8.532 7.95081 8.53003L7.84843 8.3913L7.80482 8.63159Z" fill="#BE942D"/>
</g>
<mask id="mask20_6101_1178" style="mask-type:luminance" maskUnits="userSpaceOnUse" x="1" y="1" width="13" height="13">
<path d="M7.4877 13.881C10.9041 13.881 13.6736 11.1115 13.6736 7.69516C13.6736 4.27879 10.9041 1.50928 7.4877 1.50928C4.07133 1.50928 1.30182 4.27879 1.30182 7.69516C1.30182 11.1115 4.07133 13.881 7.4877 13.881Z" fill="white"/>
</mask>
<g mask="url(#mask20_6101_1178)">
<path d="M7.87876 9.09235L7.85388 9.0842L7.91903 8.88595C7.92061 8.88106 7.92496 8.87758 7.93007 8.87702C7.93257 8.87672 7.93511 8.87717 7.93737 8.8783C7.93962 8.87943 7.94149 8.88121 7.94275 8.88339L8.02523 9.02324L8.08778 8.81569C8.08922 8.81091 8.09326 8.80736 8.0982 8.80654C8.10314 8.80582 8.10807 8.80783 8.11099 8.81187L8.22022 8.96531L8.19888 8.98051L8.10514 8.84884L8.04166 9.05943C8.04018 9.0644 8.03587 9.06803 8.03069 9.06866C8.02816 9.06893 8.02561 9.06847 8.02334 9.06734C8.02106 9.06621 8.01916 9.06446 8.01784 9.06229L7.93489 8.92159L7.87876 9.09235Z" fill="#BE942D"/>
</g>
<mask id="mask21_6101_1178" style="mask-type:luminance" maskUnits="userSpaceOnUse" x="1" y="1" width="13" height="13">
<path d="M7.4877 13.881C10.9041 13.881 13.6736 11.1115 13.6736 7.69516C13.6736 4.27879 10.9041 1.50928 7.4877 1.50928C4.07133 1.50928 1.30182 4.27879 1.30182 7.69516C1.30182 11.1115 4.07133 13.881 7.4877 13.881Z" fill="white"/>
</mask>
<g mask="url(#mask21_6101_1178)">
<path d="M7.48766 9.62938C7.89884 9.62938 8.29231 9.59686 8.52307 9.53182C8.62063 9.51409 8.62063 9.46376 8.62063 9.39871C8.71829 9.3662 8.66795 9.25082 8.73601 9.25082C8.66795 9.26864 8.65325 9.13554 8.57039 9.15326C8.57039 9.03788 8.45501 9.02308 8.35733 9.05558C8.16212 9.12073 7.81597 9.13553 7.48765 9.13553C7.15934 9.12073 6.81608 9.12073 6.61796 9.05558C6.5203 9.02307 6.40502 9.03787 6.40502 9.15326C6.32217 9.13553 6.30736 9.26864 6.23929 9.25082C6.30736 9.25082 6.25702 9.3662 6.35468 9.39871C6.35468 9.46376 6.35468 9.51409 6.45525 9.53182C6.68301 9.59686 7.07647 9.62938 7.48766 9.62938Z" fill="white"/>
</g>
<mask id="mask22_6101_1178" style="mask-type:luminance" maskUnits="userSpaceOnUse" x="1" y="1" width="13" height="13">
<path d="M7.4877 13.881C10.9041 13.881 13.6736 11.1115 13.6736 7.69516C13.6736 4.27879 10.9041 1.50928 7.4877 1.50928C4.07133 1.50928 1.30182 4.27879 1.30182 7.69516C1.30182 11.1115 4.07133 13.881 7.4877 13.881Z" fill="white"/>
</mask>
<g mask="url(#mask22_6101_1178)">
<path d="M7.48766 9.65401C7.04648 9.65401 6.66773 9.61812 6.44852 9.5555C6.3399 9.53649 6.33098 9.47671 6.33023 9.41533C6.2795 9.39074 6.26816 9.34377 6.26042 9.31167C6.25585 9.29277 6.25251 9.28049 6.24696 9.27693C6.24227 9.27661 6.23763 9.27584 6.23309 9.27463C6.22734 9.27311 6.22234 9.26955 6.21902 9.26461C6.2157 9.25968 6.21429 9.2537 6.21504 9.2478C6.2158 9.2419 6.21868 9.23648 6.22314 9.23254C6.2276 9.22861 6.23334 9.22643 6.23929 9.22641C6.24447 9.22641 6.24943 9.22688 6.25408 9.22786C6.26705 9.22583 6.2804 9.20873 6.29448 9.19065C6.31525 9.16403 6.3408 9.13128 6.38232 9.12755C6.39264 9.05725 6.44637 9.01611 6.53042 9.01611C6.56069 9.01611 6.59365 9.02175 6.62571 9.03242C6.78502 9.0848 7.04094 9.09419 7.31187 9.10416C7.37071 9.1063 7.42997 9.10849 7.48875 9.11113C7.90897 9.1111 8.1909 9.08538 8.34959 9.03242C8.38166 9.02175 8.4146 9.01611 8.4449 9.01611C8.529 9.01611 8.58277 9.05725 8.59309 9.12755C8.63458 9.13128 8.66012 9.16404 8.68085 9.19068C8.69493 9.20873 8.70827 9.22585 8.72121 9.22786C8.72608 9.22686 8.73104 9.22638 8.73601 9.22641C8.74196 9.22642 8.7477 9.2286 8.75217 9.23253C8.75663 9.23647 8.75951 9.24189 8.76028 9.24779C8.76104 9.25369 8.75963 9.25967 8.75631 9.26461C8.75299 9.26955 8.74798 9.27311 8.74223 9.27463C8.73769 9.27583 8.73305 9.2766 8.72836 9.27693C8.72279 9.28047 8.71944 9.29276 8.71489 9.31167C8.70717 9.34377 8.69581 9.39074 8.64506 9.41535C8.64428 9.4745 8.63507 9.53652 8.52743 9.55605C8.30766 9.61812 7.92784 9.65401 7.48766 9.65401ZM6.2956 9.26136C6.30169 9.27374 6.30506 9.28766 6.30808 9.30018C6.31615 9.33362 6.32313 9.3625 6.36244 9.37559C6.36732 9.37721 6.37157 9.38033 6.37458 9.3845C6.3776 9.38868 6.37922 9.3937 6.37921 9.39885C6.37921 9.46395 6.37921 9.49366 6.45952 9.50782C6.67385 9.56888 7.05727 9.605 7.48766 9.605C7.92353 9.605 8.29853 9.56977 8.51642 9.50836C8.59611 9.49376 8.59611 9.46401 8.59611 9.39883C8.5961 9.39369 8.59772 9.38867 8.60073 9.3845C8.60373 9.38032 8.60798 9.3772 8.61286 9.37557C8.65219 9.36249 8.65915 9.33361 8.66723 9.30017C8.67025 9.28765 8.6736 9.27373 8.67973 9.26135C8.66517 9.25032 8.65327 9.23504 8.64219 9.22083C8.6174 9.18905 8.60195 9.17177 8.57552 9.17733C8.57195 9.1781 8.56825 9.17806 8.5647 9.17721C8.56114 9.17636 8.55782 9.17473 8.55498 9.17243C8.55214 9.17014 8.54984 9.16723 8.54827 9.16394C8.5467 9.16064 8.54588 9.15703 8.54588 9.15338C8.54588 9.08047 8.49097 9.06518 8.44491 9.06518C8.41982 9.06518 8.39221 9.06993 8.3651 9.07896C8.20137 9.13361 7.91435 9.16016 7.48766 9.16016C7.4279 9.15749 7.36878 9.15532 7.31008 9.15317C7.03558 9.14311 6.7763 9.13356 6.61032 9.07899C6.5831 9.06993 6.55551 9.06518 6.53042 9.06518C6.4844 9.06518 6.42954 9.08047 6.42954 9.15338C6.42953 9.15703 6.42871 9.16063 6.42714 9.16393C6.42556 9.16722 6.42327 9.17012 6.42043 9.17242C6.41759 9.17471 6.41427 9.17634 6.41072 9.17719C6.40717 9.17804 6.40347 9.17809 6.3999 9.17733C6.3736 9.17185 6.35796 9.18901 6.33314 9.22083C6.32206 9.23508 6.31015 9.25034 6.2956 9.26136Z" fill="#BE942D"/>
</g>
<mask id="mask23_6101_1178" style="mask-type:luminance" maskUnits="userSpaceOnUse" x="1" y="1" width="13" height="13">
<path d="M7.4877 13.881C10.9041 13.881 13.6736 11.1115 13.6736 7.69516C13.6736 4.27879 10.9041 1.50928 7.4877 1.50928C4.07133 1.50928 1.30182 4.27879 1.30182 7.69516C1.30182 11.1115 4.07133 13.881 7.4877 13.881Z" fill="white"/>
</mask>
<g mask="url(#mask23_6101_1178)">
<path d="M6.92867 9.00542C7.06179 9.02314 7.20968 9.03793 7.32505 9.02314C7.3901 9.02314 7.43742 9.13561 7.30724 9.15331C7.19195 9.16811 7.01153 9.15331 6.91387 9.1356C6.831 9.1208 6.65059 9.08827 6.53522 9.05565C6.41983 9.00541 6.50271 8.90786 6.56776 8.92265C6.66832 8.95518 6.7985 8.9877 6.92867 9.00542Z" fill="white"/>
</g>
<mask id="mask24_6101_1178" style="mask-type:luminance" maskUnits="userSpaceOnUse" x="1" y="1" width="13" height="13">
<path d="M7.4877 13.881C10.9041 13.881 13.6736 11.1115 13.6736 7.69516C13.6736 4.27879 10.9041 1.50928 7.4877 1.50928C4.07133 1.50928 1.30182 4.27879 1.30182 7.69516C1.30182 11.1115 4.07133 13.881 7.4877 13.881Z" fill="white"/>
</mask>
<g mask="url(#mask24_6101_1178)">
<path d="M7.19531 9.17237C7.09062 9.17237 6.97734 9.16031 6.91152 9.14838C6.84015 9.13565 6.65047 9.10176 6.53165 9.06817C6.46124 9.03764 6.46226 8.99392 6.46588 8.9765C6.47375 8.93869 6.5133 8.90796 6.55404 8.90796C6.55971 8.90796 6.56529 8.90857 6.57066 8.90979C6.63844 8.93165 6.77367 8.97098 6.93043 8.99233C7.01317 9.00336 7.12074 9.01599 7.21873 9.01599C7.25738 9.01599 7.29259 9.014 7.32338 9.01005H7.32358C7.36455 9.01005 7.40001 9.04374 7.40271 9.0836C7.4038 9.09983 7.40031 9.15377 7.30899 9.16621C7.27706 9.1703 7.23883 9.17237 7.19531 9.17237ZM6.55404 8.93413C6.52602 8.93413 6.49682 8.95643 6.49153 8.98182C6.48654 9.00573 6.50392 9.02763 6.54043 9.04353C6.65634 9.07618 6.8451 9.10988 6.91616 9.1226C6.98086 9.13433 7.09224 9.14615 7.1953 9.14615C7.23769 9.14615 7.2748 9.14416 7.30555 9.14021C7.35258 9.13382 7.37848 9.11381 7.37655 9.08535C7.37481 9.05959 7.35025 9.03612 7.32503 9.03612C7.2948 9.04011 7.25848 9.04218 7.2187 9.04218C7.11918 9.04218 7.01047 9.02942 6.92692 9.01829C6.76811 8.99666 6.63118 8.95681 6.56369 8.935C6.56051 8.93441 6.55728 8.93412 6.55404 8.93413Z" fill="#BE942D"/>
</g>
<mask id="mask25_6101_1178" style="mask-type:luminance" maskUnits="userSpaceOnUse" x="1" y="1" width="13" height="13">
<path d="M7.4877 13.881C10.9041 13.881 13.6736 11.1115 13.6736 7.69516C13.6736 4.27879 10.9041 1.50928 7.4877 1.50928C4.07133 1.50928 1.30182 4.27879 1.30182 7.69516C1.30182 11.1115 4.07133 13.881 7.4877 13.881Z" fill="white"/>
</mask>
<g mask="url(#mask25_6101_1178)">
<path d="M8.04683 9.00542C7.91373 9.02314 7.76583 9.03793 7.65337 9.02314C7.5853 9.02314 7.53799 9.13561 7.66817 9.15331C7.78355 9.16811 7.96406 9.15331 8.06153 9.1356C8.14438 9.1208 8.32491 9.08827 8.44019 9.05565C8.55567 9.00541 8.47281 8.90786 8.40766 8.92265C8.30709 8.95518 8.17702 8.9877 8.04683 9.00542Z" fill="white"/>
</g>
<mask id="mask26_6101_1178" style="mask-type:luminance" maskUnits="userSpaceOnUse" x="1" y="1" width="13" height="13">
<path d="M7.4877 13.881C10.9041 13.881 13.6736 11.1115 13.6736 7.69516C13.6736 4.27879 10.9041 1.50928 7.4877 1.50928C4.07133 1.50928 1.30182 4.27879 1.30182 7.69516C1.30182 11.1115 4.07133 13.881 7.4877 13.881Z" fill="white"/>
</mask>
<g mask="url(#mask26_6101_1178)">
<path d="M7.78019 9.17238C7.73664 9.17238 7.69842 9.17031 7.66652 9.16621C7.57544 9.15382 7.57191 9.10031 7.57301 9.08423C7.57573 9.04396 7.61251 9.00995 7.65338 9.00995C7.68507 9.014 7.71964 9.01599 7.75782 9.01599C7.85491 9.01599 7.96234 9.00336 8.0451 8.99233C8.20166 8.97103 8.33695 8.93168 8.40365 8.9101C8.40946 8.90868 8.41541 8.90796 8.42139 8.90796C8.46217 8.90796 8.50173 8.93869 8.50959 8.9765C8.51322 8.99392 8.51423 9.03764 8.44543 9.06757C8.32521 9.10173 8.13533 9.13562 8.06385 9.14838C7.99822 9.16033 7.88503 9.17238 7.78019 9.17238ZM7.65167 9.03603C7.6234 9.03614 7.60075 9.06242 7.59914 9.086C7.59726 9.1141 7.62305 9.13387 7.66996 9.14024C7.70065 9.14418 7.73778 9.14618 7.78019 9.14618C7.88339 9.14618 7.9947 9.13435 8.05921 9.12262C8.1304 9.10991 8.31935 9.07615 8.43665 9.04296C8.47155 9.02767 8.48895 9.00573 8.48396 8.98186C8.47798 8.95309 8.4402 8.92864 8.41059 8.93534C8.34419 8.95688 8.20721 8.99673 8.04861 9.01833C7.96501 9.02945 7.85646 9.04222 7.75783 9.04222C7.71849 9.0422 7.68277 9.04014 7.65167 9.03603Z" fill="#BE942D"/>
</g>
<mask id="mask27_6101_1178" style="mask-type:luminance" maskUnits="userSpaceOnUse" x="1" y="1" width="13" height="13">
<path d="M7.4877 13.881C10.9041 13.881 13.6736 11.1115 13.6736 7.69516C13.6736 4.27879 10.9041 1.50928 7.4877 1.50928C4.07133 1.50928 1.30182 4.27879 1.30182 7.69516C1.30182 11.1115 4.07133 13.881 7.4877 13.881Z" fill="white"/>
</mask>
<g mask="url(#mask27_6101_1178)">
<path d="M6.52041 8.94032C6.4198 8.92251 6.37248 9.03789 6.40502 9.10292C6.4198 9.0704 6.48788 9.0704 6.50268 9.03789C6.52041 8.98764 6.48787 8.98764 6.52041 8.94032Z" fill="white"/>
</g>
<mask id="mask28_6101_1178" style="mask-type:luminance" maskUnits="userSpaceOnUse" x="1" y="1" width="13" height="13">
<path d="M7.4877 13.881C10.9041 13.881 13.6736 11.1115 13.6736 7.69516C13.6736 4.27879 10.9041 1.50928 7.4877 1.50928C4.07133 1.50928 1.30182 4.27879 1.30182 7.69516C1.30182 11.1115 4.07133 13.881 7.4877 13.881Z" fill="white"/>
</mask>
<g mask="url(#mask28_6101_1178)">
<path d="M6.40504 9.11609C6.40261 9.11609 6.40022 9.11541 6.39815 9.11414C6.39608 9.11286 6.39441 9.11104 6.39332 9.10886C6.37486 9.07195 6.37882 9.02064 6.40317 8.98121C6.42914 8.93919 6.47377 8.91881 6.52272 8.92752C6.52488 8.9279 6.52691 8.92881 6.52862 8.93018C6.53033 8.93155 6.53167 8.93333 6.53252 8.93535C6.53337 8.93738 6.53369 8.93958 6.53346 8.94176C6.53323 8.94394 6.53246 8.94603 6.53122 8.94783C6.51617 8.96972 6.51752 8.97774 6.51957 8.98995C6.52158 9.00187 6.52406 9.01674 6.51503 9.04232C6.50501 9.06446 6.48144 9.07373 6.45863 9.08267C6.44069 9.08971 6.42213 9.09699 6.41694 9.10842C6.41592 9.11067 6.41428 9.11259 6.41221 9.11395C6.41014 9.11531 6.40773 9.11605 6.40526 9.11609H6.40504ZM6.49865 8.95166C6.45794 8.95226 6.43535 8.97899 6.42546 8.99499C6.41011 9.01985 6.40463 9.05126 6.41006 9.07745C6.42116 9.06925 6.43527 9.06372 6.44908 9.0583C6.46702 9.05126 6.48556 9.04399 6.49077 9.03253C6.49712 9.01441 6.49547 9.00461 6.49374 8.99426C6.49148 8.98069 6.49055 8.96887 6.49865 8.95166Z" fill="#BE942D"/>
</g>
<mask id="mask29_6101_1178" style="mask-type:luminance" maskUnits="userSpaceOnUse" x="1" y="1" width="13" height="13">
<path d="M7.4877 13.881C10.9041 13.881 13.6736 11.1115 13.6736 7.69516C13.6736 4.27879 10.9041 1.50928 7.4877 1.50928C4.07133 1.50928 1.30182 4.27879 1.30182 7.69516C1.30182 11.1115 4.07133 13.881 7.4877 13.881Z" fill="white"/>
</mask>
<g mask="url(#mask29_6101_1178)">
<path d="M6.91375 9.24272C6.91375 9.17778 6.9788 9.18573 6.9788 9.12069C6.9788 9.08817 6.96118 9.03784 6.92857 9.03784C6.89604 9.03784 6.86352 9.07035 6.86352 9.10288C6.84872 9.16802 6.91375 9.17778 6.91375 9.24272Z" fill="white"/>
</g>
<mask id="mask30_6101_1178" style="mask-type:luminance" maskUnits="userSpaceOnUse" x="1" y="1" width="13" height="13">
<path d="M7.4877 13.881C10.9041 13.881 13.6736 11.1115 13.6736 7.69516C13.6736 4.27879 10.9041 1.50928 7.4877 1.50928C4.07133 1.50928 1.30182 4.27879 1.30182 7.69516C1.30182 11.1115 4.07133 13.881 7.4877 13.881Z" fill="white"/>
</mask>
<g mask="url(#mask30_6101_1178)">
<path d="M6.91374 9.25597C6.91027 9.25597 6.90694 9.25459 6.90448 9.25214C6.90202 9.24968 6.90064 9.24635 6.90064 9.24288C6.90064 9.217 6.88845 9.20132 6.87556 9.18471C6.85976 9.16439 6.84191 9.14139 6.85045 9.10152C6.85141 9.0626 6.88963 9.0249 6.92857 9.0249C6.9699 9.0249 6.99191 9.08064 6.99191 9.12086C6.99191 9.15931 6.97138 9.17731 6.95489 9.19176C6.93923 9.20549 6.92685 9.21634 6.92685 9.24288C6.92685 9.24635 6.92546 9.24968 6.92301 9.25214C6.92055 9.25459 6.91721 9.25597 6.91374 9.25597ZM6.92857 9.05109C6.90332 9.05109 6.87663 9.07779 6.87663 9.10304C6.87663 9.10402 6.87651 9.10497 6.8763 9.10594C6.8698 9.13457 6.88148 9.1496 6.89626 9.16862C6.90262 9.17683 6.90936 9.18549 6.91488 9.19567C6.92175 9.18601 6.9301 9.17867 6.93762 9.17209C6.95332 9.15832 6.9657 9.14747 6.9657 9.12086C6.9657 9.0931 6.95089 9.05109 6.92857 9.05109Z" fill="#BE942D"/>
</g>
<mask id="mask31_6101_1178" style="mask-type:luminance" maskUnits="userSpaceOnUse" x="1" y="1" width="13" height="13">
<path d="M7.4877 13.881C10.9041 13.881 13.6736 11.1115 13.6736 7.69516C13.6736 4.27879 10.9041 1.50928 7.4877 1.50928C4.07133 1.50928 1.30182 4.27879 1.30182 7.69516C1.30182 11.1115 4.07133 13.881 7.4877 13.881Z" fill="white"/>
</mask>
<g mask="url(#mask31_6101_1178)">
<path d="M7.38201 9.05566C7.4796 9.05566 7.4699 9.18584 7.42262 9.25089C7.42262 9.20357 7.33975 9.18584 7.33975 9.15333C7.33975 9.10299 7.41455 9.10299 7.38201 9.05566Z" fill="white"/>
</g>
<mask id="mask32_6101_1178" style="mask-type:luminance" maskUnits="userSpaceOnUse" x="1" y="1" width="13" height="13">
<path d="M7.4877 13.881C10.9041 13.881 13.6736 11.1115 13.6736 7.69516C13.6736 4.27879 10.9041 1.50928 7.4877 1.50928C4.07133 1.50928 1.30182 4.27879 1.30182 7.69516C1.30182 11.1115 4.07133 13.881 7.4877 13.881Z" fill="white"/>
</mask>
<g mask="url(#mask32_6101_1178)">
<path d="M7.42263 9.26389C7.41916 9.26388 7.41583 9.2625 7.41338 9.26004C7.41092 9.25759 7.40954 9.25427 7.40953 9.2508C7.40953 9.23182 7.38841 9.21729 7.36798 9.20326C7.34674 9.18864 7.32666 9.17485 7.32666 9.15323C7.32666 9.12423 7.34624 9.10827 7.36052 9.09662C7.37842 9.08205 7.38183 9.07842 7.37122 9.06299C7.36987 9.06102 7.36909 9.05873 7.36895 9.05635C7.36881 9.05396 7.36932 9.05159 7.37043 9.04948C7.37155 9.04737 7.37321 9.0456 7.37526 9.04437C7.3773 9.04313 7.37964 9.04248 7.38202 9.04248C7.42667 9.04248 7.4482 9.06632 7.45839 9.08635C7.48384 9.1363 7.46514 9.2146 7.43323 9.25849C7.43201 9.26016 7.43042 9.26152 7.42858 9.26246C7.42673 9.2634 7.4247 9.26389 7.42263 9.26389ZM7.40292 9.07141C7.40625 9.09318 7.3893 9.107 7.3771 9.11695C7.36202 9.12922 7.35288 9.13782 7.35288 9.15324C7.35288 9.1611 7.36879 9.17203 7.38283 9.18169C7.39783 9.19201 7.41521 9.20394 7.42582 9.21969C7.44412 9.18159 7.45161 9.13077 7.43506 9.09825C7.4281 9.08456 7.41732 9.07561 7.40292 9.07141Z" fill="#BE942D"/>
</g>
<mask id="mask33_6101_1178" style="mask-type:luminance" maskUnits="userSpaceOnUse" x="1" y="1" width="13" height="13">
<path d="M7.4877 13.881C10.9041 13.881 13.6736 11.1115 13.6736 7.69516C13.6736 4.27879 10.9041 1.50928 7.4877 1.50928C4.07133 1.50928 1.30182 4.27879 1.30182 7.69516C1.30182 11.1115 4.07133 13.881 7.4877 13.881Z" fill="white"/>
</mask>
<g mask="url(#mask33_6101_1178)">
<path d="M8.4549 8.94032C8.55548 8.92251 8.6028 9.03789 8.57027 9.10292C8.55548 9.0704 8.48742 9.0704 8.47271 9.03789C8.4549 8.98764 8.48751 8.98764 8.4549 8.94032Z" fill="white"/>
</g>
<mask id="mask34_6101_1178" style="mask-type:luminance" maskUnits="userSpaceOnUse" x="1" y="1" width="13" height="13">
<path d="M7.4877 13.881C10.9041 13.881 13.6736 11.1115 13.6736 7.69516C13.6736 4.27879 10.9041 1.50928 7.4877 1.50928C4.07133 1.50928 1.30182 4.27879 1.30182 7.69516C1.30182 11.1115 4.07133 13.881 7.4877 13.881Z" fill="white"/>
</mask>
<g mask="url(#mask34_6101_1178)">
<path d="M8.57027 9.11609H8.57003C8.56756 9.11605 8.56515 9.11531 8.56308 9.11396C8.56101 9.11261 8.55937 9.11069 8.55835 9.10845C8.55316 9.09702 8.53461 9.08972 8.51669 9.0827C8.49392 9.07373 8.47032 9.06447 8.46078 9.04336C8.45128 9.01675 8.45379 9.00186 8.4558 8.98993C8.45784 8.97774 8.45916 8.96971 8.44413 8.94784C8.44288 8.94603 8.44211 8.94395 8.44188 8.94176C8.44164 8.93958 8.44197 8.93738 8.44281 8.93536C8.44366 8.93333 8.445 8.93155 8.44671 8.93018C8.44843 8.92882 8.45046 8.9279 8.45262 8.92752C8.50139 8.91881 8.54612 8.93914 8.57212 8.98122C8.59649 9.02063 8.60046 9.07195 8.58199 9.10887C8.5809 9.11104 8.57922 9.11286 8.57716 9.11414C8.57509 9.11542 8.5727 9.11609 8.57027 9.11609ZM8.47668 8.95166C8.48479 8.96888 8.48388 8.98068 8.48162 8.99424C8.47987 9.00461 8.47825 9.01438 8.48503 9.03358C8.4898 9.04399 8.50834 9.05126 8.52627 9.0583C8.54005 9.06372 8.55415 9.06925 8.56523 9.07746C8.57066 9.05124 8.56518 9.01985 8.54982 8.99497C8.53995 8.97899 8.51736 8.95225 8.47668 8.95166Z" fill="#BE942D"/>
</g>
<mask id="mask35_6101_1178" style="mask-type:luminance" maskUnits="userSpaceOnUse" x="1" y="1" width="13" height="13">
<path d="M7.4877 13.881C10.9041 13.881 13.6736 11.1115 13.6736 7.69516C13.6736 4.27879 10.9041 1.50928 7.4877 1.50928C4.07133 1.50928 1.30182 4.27879 1.30182 7.69516C1.30182 11.1115 4.07133 13.881 7.4877 13.881Z" fill="white"/>
</mask>
<g mask="url(#mask35_6101_1178)">
<path d="M8.06153 9.24272C8.06153 9.17778 7.99649 9.18573 7.99649 9.12069C7.99649 9.08817 8.01421 9.03784 8.04673 9.03784C8.07926 9.03784 8.11188 9.07035 8.11188 9.10288C8.12667 9.16802 8.06153 9.17778 8.06153 9.24272Z" fill="white"/>
</g>
<mask id="mask36_6101_1178" style="mask-type:luminance" maskUnits="userSpaceOnUse" x="1" y="1" width="13" height="13">
<path d="M7.4877 13.881C10.9041 13.881 13.6736 11.1115 13.6736 7.69516C13.6736 4.27879 10.9041 1.50928 7.4877 1.50928C4.07133 1.50928 1.30182 4.27879 1.30182 7.69516C1.30182 11.1115 4.07133 13.881 7.4877 13.881Z" fill="white"/>
</mask>
<g mask="url(#mask36_6101_1178)">
<path d="M8.06154 9.25597C8.05807 9.25597 8.05474 9.25459 8.05228 9.25214C8.04983 9.24968 8.04845 9.24635 8.04845 9.24288C8.04845 9.21634 8.03607 9.20551 8.0204 9.19176C8.00391 9.17731 7.9834 9.15931 7.9834 9.12086C7.9834 9.08064 8.0054 9.0249 8.04673 9.0249C8.08571 9.0249 8.12398 9.06261 8.12496 9.10152C8.13348 9.14139 8.11557 9.16439 8.09977 9.18471C8.08685 9.20132 8.07462 9.217 8.07462 9.24288C8.07462 9.25012 8.06876 9.25597 8.06154 9.25597ZM8.04673 9.05109C8.02519 9.05109 8.00958 9.09277 8.00958 9.12087C8.00958 9.14747 8.02199 9.15832 8.03767 9.1721C8.0452 9.17868 8.05356 9.18602 8.06043 9.19571C8.06597 9.18551 8.07271 9.17683 8.07911 9.16864C8.0939 9.14961 8.10562 9.13458 8.09911 9.10595C8.09889 9.105 8.09879 9.10403 8.09879 9.10305C8.09878 9.07779 8.07203 9.05109 8.04673 9.05109Z" fill="#BE942D"/>
</g>
<mask id="mask37_6101_1178" style="mask-type:luminance" maskUnits="userSpaceOnUse" x="1" y="1" width="13" height="13">
<path d="M7.4877 13.881C10.9041 13.881 13.6736 11.1115 13.6736 7.69516C13.6736 4.27879 10.9041 1.50928 7.4877 1.50928C4.07133 1.50928 1.30182 4.27879 1.30182 7.69516C1.30182 11.1115 4.07133 13.881 7.4877 13.881Z" fill="white"/>
</mask>
<g mask="url(#mask37_6101_1178)">
<path d="M7.59328 9.05566C7.49562 9.05566 7.5054 9.18584 7.5527 9.25089C7.5527 9.20357 7.63546 9.18584 7.63546 9.15333C7.63546 9.10299 7.56066 9.10299 7.59328 9.05566Z" fill="white"/>
</g>
<mask id="mask38_6101_1178" style="mask-type:luminance" maskUnits="userSpaceOnUse" x="1" y="1" width="13" height="13">
<path d="M7.4877 13.881C10.9041 13.881 13.6736 11.1115 13.6736 7.69516C13.6736 4.27879 10.9041 1.50928 7.4877 1.50928C4.07133 1.50928 1.30182 4.27879 1.30182 7.69516C1.30182 11.1115 4.07133 13.881 7.4877 13.881Z" fill="white"/>
</mask>
<g mask="url(#mask38_6101_1178)">
<path d="M7.55269 9.26389C7.54859 9.26389 7.54462 9.26195 7.5421 9.25849C7.51015 9.2146 7.49144 9.1363 7.51688 9.08635C7.52704 9.06635 7.54859 9.04248 7.59328 9.04248C7.59567 9.04248 7.59801 9.04313 7.60005 9.04436C7.6021 9.04559 7.60376 9.04736 7.60487 9.04948C7.60598 9.05159 7.6065 9.05397 7.60635 9.05635C7.60621 9.05873 7.60541 9.06103 7.60406 9.06299C7.59344 9.07844 7.59683 9.08207 7.61471 9.09664C7.629 9.1083 7.64856 9.12426 7.64856 9.15323C7.64856 9.17485 7.62851 9.18864 7.6073 9.20324C7.58688 9.21729 7.5658 9.23182 7.5658 9.2508C7.56579 9.25427 7.5644 9.25759 7.56195 9.26005C7.55949 9.2625 7.55616 9.26388 7.55269 9.26389ZM7.57235 9.07141C7.55793 9.07561 7.54716 9.08456 7.5402 9.09824C7.52364 9.13075 7.53119 9.18158 7.5495 9.21971C7.56009 9.20393 7.57743 9.19199 7.59244 9.18167C7.60646 9.17204 7.62237 9.16109 7.62237 9.15323C7.62237 9.1378 7.61321 9.12924 7.59815 9.11693C7.58593 9.107 7.56899 9.09318 7.57235 9.07141Z" fill="#BE942D"/>
</g>
<mask id="mask39_6101_1178" style="mask-type:luminance" maskUnits="userSpaceOnUse" x="1" y="1" width="13" height="13">
<path d="M7.4877 13.881C10.9041 13.881 13.6736 11.1115 13.6736 7.69516C13.6736 4.27879 10.9041 1.50928 7.4877 1.50928C4.07133 1.50928 1.30182 4.27879 1.30182 7.69516C1.30182 11.1115 4.07133 13.881 7.4877 13.881Z" fill="white"/>
</mask>
<g mask="url(#mask39_6101_1178)">
<path d="M6.55293 8.9729C6.58556 8.9729 6.63579 8.9877 6.65059 9.00543L6.55283 8.9729H6.55293Z" fill="white"/>
</g>
<mask id="mask40_6101_1178" style="mask-type:luminance" maskUnits="userSpaceOnUse" x="1" y="1" width="13" height="13">
<path d="M7.4877 13.881C10.9041 13.881 13.6736 11.1115 13.6736 7.69516C13.6736 4.27879 10.9041 1.50928 7.4877 1.50928C4.07133 1.50928 1.30182 4.27879 1.30182 7.69516C1.30182 11.1115 4.07133 13.881 7.4877 13.881Z" fill="white"/>
</mask>
<g mask="url(#mask40_6101_1178)">
<path d="M6.65056 9.01451C6.64957 9.01451 6.64859 9.01435 6.64765 9.01404L6.54989 8.98151C6.54782 8.98082 6.54607 8.97942 6.54494 8.97756C6.54381 8.97569 6.54338 8.97349 6.54373 8.97134C6.54408 8.96918 6.54518 8.96723 6.54684 8.96581C6.5485 8.9644 6.5506 8.96362 6.55278 8.96362C6.5864 8.96362 6.63744 8.9783 6.65592 8.99755C6.65723 8.99838 6.65831 8.99953 6.65905 9.00089C6.6598 9.00225 6.6602 9.00378 6.6602 9.00533C6.6602 9.01049 6.65608 9.01427 6.65078 9.01451H6.65056Z" fill="#BE942D"/>
</g>
<mask id="mask41_6101_1178" style="mask-type:luminance" maskUnits="userSpaceOnUse" x="1" y="1" width="13" height="13">
<path d="M7.4877 13.881C10.9041 13.881 13.6736 11.1115 13.6736 7.69516C13.6736 4.27879 10.9041 1.50928 7.4877 1.50928C4.07133 1.50928 1.30182 4.27879 1.30182 7.69516C1.30182 11.1115 4.07133 13.881 7.4877 13.881Z" fill="white"/>
</mask>
<g mask="url(#mask41_6101_1178)">
<path d="M6.71543 9.02329C6.73323 9.02329 6.79828 9.03809 6.83082 9.05582L6.71533 9.02319L6.71543 9.02329Z" fill="white"/>
</g>
<mask id="mask42_6101_1178" style="mask-type:luminance" maskUnits="userSpaceOnUse" x="1" y="1" width="13" height="13">
<path d="M7.4877 13.881C10.9041 13.881 13.6736 11.1115 13.6736 7.69516C13.6736 4.27879 10.9041 1.50928 7.4877 1.50928C4.07133 1.50928 1.30182 4.27879 1.30182 7.69516C1.30182 11.1115 4.07133 13.881 7.4877 13.881Z" fill="white"/>
</mask>
<g mask="url(#mask42_6101_1178)">
<path d="M6.83083 9.06487C6.82998 9.06488 6.82913 9.06476 6.82832 9.06453L6.71403 9.03226C6.71254 9.03203 6.71114 9.03143 6.70993 9.03053C6.70873 9.02963 6.70776 9.02845 6.70711 9.0271C6.70646 9.02574 6.70616 9.02424 6.70621 9.02274C6.70627 9.02124 6.7067 9.01977 6.70745 9.01847C6.70838 9.01687 6.70978 9.0156 6.71145 9.0148C6.71312 9.01401 6.715 9.01374 6.71682 9.01403C6.73751 9.01468 6.80057 9.02934 6.83375 9.04684C6.83568 9.04738 6.83738 9.04854 6.8386 9.05014C6.83981 9.05175 6.84047 9.0537 6.84047 9.05571C6.84047 9.06087 6.83541 9.06491 6.83108 9.06489L6.83083 9.06487Z" fill="#BE942D"/>
</g>
<mask id="mask43_6101_1178" style="mask-type:luminance" maskUnits="userSpaceOnUse" x="1" y="1" width="13" height="13">
<path d="M7.4877 13.881C10.9041 13.881 13.6736 11.1115 13.6736 7.69516C13.6736 4.27879 10.9041 1.50928 7.4877 1.50928C4.07133 1.50928 1.30182 4.27879 1.30182 7.69516C1.30182 11.1115 4.07133 13.881 7.4877 13.881Z" fill="white"/>
</mask>
<g mask="url(#mask43_6101_1178)">
<path d="M7.30725 9.08823C7.27472 9.08823 7.20959 9.08823 7.19196 9.10303L7.30715 9.08813L7.30725 9.08823Z" fill="white"/>
</g>
<mask id="mask44_6101_1178" style="mask-type:luminance" maskUnits="userSpaceOnUse" x="1" y="1" width="13" height="13">
<path d="M7.4877 13.881C10.9041 13.881 13.6736 11.1115 13.6736 7.69516C13.6736 4.27879 10.9041 1.50928 7.4877 1.50928C4.07133 1.50928 1.30182 4.27879 1.30182 7.69516C1.30182 11.1115 4.07133 13.881 7.4877 13.881Z" fill="white"/>
</mask>
<g mask="url(#mask44_6101_1178)">
<path d="M7.19194 9.11212C7.19015 9.11212 7.18841 9.11161 7.18691 9.11063C7.18541 9.10966 7.18423 9.10827 7.18351 9.10664C7.18271 9.10482 7.18253 9.10279 7.18298 9.10085C7.18343 9.09892 7.1845 9.09718 7.18602 9.0959C7.20458 9.08034 7.25747 9.07897 7.30576 9.07897L7.30594 9.07894C7.30734 9.07875 7.30875 9.07889 7.31009 9.07933C7.31142 9.07978 7.31263 9.08053 7.31363 9.08153C7.31492 9.08282 7.3158 9.08447 7.31617 9.08627C7.31653 9.08806 7.31636 9.08992 7.31568 9.09162C7.31499 9.09335 7.31378 9.09483 7.31222 9.09585C7.31066 9.09687 7.30883 9.09738 7.30697 9.09733L7.19312 9.11205C7.19273 9.1121 7.19233 9.11212 7.19194 9.11212Z" fill="#BE942D"/>
</g>
<mask id="mask45_6101_1178" style="mask-type:luminance" maskUnits="userSpaceOnUse" x="1" y="1" width="13" height="13">
<path d="M7.4877 13.881C10.9041 13.881 13.6736 11.1115 13.6736 7.69516C13.6736 4.27879 10.9041 1.50928 7.4877 1.50928C4.07133 1.50928 1.30182 4.27879 1.30182 7.69516C1.30182 11.1115 4.07133 13.881 7.4877 13.881Z" fill="white"/>
</mask>
<g mask="url(#mask45_6101_1178)">
<path d="M7.1268 9.08825C7.10906 9.07052 7.04394 9.07052 7.01141 9.08825H7.1268Z" fill="white"/>
</g>
<mask id="mask46_6101_1178" style="mask-type:luminance" maskUnits="userSpaceOnUse" x="1" y="1" width="13" height="13">
<path d="M7.4877 13.881C10.9041 13.881 13.6736 11.1115 13.6736 7.69516C13.6736 4.27879 10.9041 1.50928 7.4877 1.50928C4.07133 1.50928 1.30182 4.27879 1.30182 7.69516C1.30182 11.1115 4.07133 13.881 7.4877 13.881Z" fill="white"/>
</mask>
<g mask="url(#mask46_6101_1178)">
<path d="M7.12681 9.09733H7.01142C7.00938 9.09734 7.00739 9.09666 7.00578 9.09541C7.00416 9.09415 7.00301 9.0924 7.00251 9.09042C7.00201 9.08843 7.00218 9.08634 7.003 9.08447C7.00381 9.08259 7.00523 9.08104 7.00703 9.08006C7.02358 9.07104 7.04887 9.06567 7.07466 9.06567C7.08749 9.06567 7.11887 9.06723 7.1333 9.08165C7.13459 9.08294 7.13547 9.08458 7.13582 9.08636C7.13618 9.08815 7.136 9.09 7.13531 9.09168C7.13461 9.09335 7.13343 9.09478 7.13191 9.09579C7.1304 9.0968 7.12863 9.09733 7.12681 9.09733Z" fill="#BE942D"/>
</g>
<mask id="mask47_6101_1178" style="mask-type:luminance" maskUnits="userSpaceOnUse" x="1" y="1" width="13" height="13">
<path d="M7.4877 13.881C10.9041 13.881 13.6736 11.1115 13.6736 7.69516C13.6736 4.27879 10.9041 1.50928 7.4877 1.50928C4.07133 1.50928 1.30182 4.27879 1.30182 7.69516C1.30182 11.1115 4.07133 13.881 7.4877 13.881Z" fill="white"/>
</mask>
<g mask="url(#mask47_6101_1178)">
<path d="M8.42258 8.9729C8.39007 8.9729 8.34265 8.9877 8.32492 9.00543L8.42258 8.9729Z" fill="white"/>
</g>
<mask id="mask48_6101_1178" style="mask-type:luminance" maskUnits="userSpaceOnUse" x="1" y="1" width="13" height="13">
<path d="M7.4877 13.881C10.9041 13.881 13.6736 11.1115 13.6736 7.69516C13.6736 4.27879 10.9041 1.50928 7.4877 1.50928C4.07133 1.50928 1.30182 4.27879 1.30182 7.69516C1.30182 11.1115 4.07133 13.881 7.4877 13.881Z" fill="white"/>
</mask>
<g mask="url(#mask48_6101_1178)">
<path d="M8.32493 9.01452C8.32311 9.01452 8.32134 9.01398 8.31982 9.01297C8.31831 9.01196 8.31713 9.01053 8.31644 9.00885C8.31574 9.00717 8.31556 9.00532 8.31591 9.00354C8.31626 9.00176 8.31714 9.00012 8.31842 8.99883C8.33917 8.97807 8.38996 8.96362 8.42258 8.96362C8.42476 8.96362 8.42688 8.9644 8.42854 8.96582C8.4302 8.96723 8.4313 8.9692 8.43164 8.97136C8.43199 8.97351 8.43156 8.97571 8.43043 8.97757C8.4293 8.97944 8.42754 8.98083 8.42548 8.98151L8.32781 9.01404C8.32689 9.01437 8.32591 9.01453 8.32493 9.01452Z" fill="#BE942D"/>
</g>
<mask id="mask49_6101_1178" style="mask-type:luminance" maskUnits="userSpaceOnUse" x="1" y="1" width="13" height="13">
<path d="M7.4877 13.881C10.9041 13.881 13.6736 11.1115 13.6736 7.69516C13.6736 4.27879 10.9041 1.50928 7.4877 1.50928C4.07133 1.50928 1.30182 4.27879 1.30182 7.69516C1.30182 11.1115 4.07133 13.881 7.4877 13.881Z" fill="white"/>
</mask>
<g mask="url(#mask49_6101_1178)">
<path d="M8.25988 9.02329C8.24215 9.02329 8.17701 9.03809 8.1445 9.05582L8.25998 9.02319L8.25988 9.02329Z" fill="white"/>
</g>
<mask id="mask50_6101_1178" style="mask-type:luminance" maskUnits="userSpaceOnUse" x="1" y="1" width="13" height="13">
<path d="M7.4877 13.881C10.9041 13.881 13.6736 11.1115 13.6736 7.69516C13.6736 4.27879 10.9041 1.50928 7.4877 1.50928C4.07133 1.50928 1.30182 4.27879 1.30182 7.69516C1.30182 11.1115 4.07133 13.881 7.4877 13.881Z" fill="white"/>
</mask>
<g mask="url(#mask50_6101_1178)">
<path d="M8.14452 9.06493C8.14248 9.06492 8.1405 9.06424 8.13889 9.06299C8.13728 9.06173 8.13614 9.05998 8.13563 9.058C8.13513 9.05602 8.13529 9.05393 8.13611 9.05206C8.13692 9.05019 8.13833 9.04864 8.14012 9.04766C8.17285 9.02982 8.23749 9.01471 8.25849 9.01406C8.26032 9.01373 8.26221 9.01398 8.2639 9.01476C8.26559 9.01555 8.267 9.01684 8.26793 9.01845C8.26896 9.0202 8.26938 9.02225 8.26912 9.02427C8.26886 9.02629 8.26794 9.02816 8.26649 9.0296C8.2651 9.03099 8.26331 9.03193 8.26137 9.03227L8.14702 9.06456C8.14621 9.06481 8.14537 9.06494 8.14452 9.06493Z" fill="#BE942D"/>
</g>
<mask id="mask51_6101_1178" style="mask-type:luminance" maskUnits="userSpaceOnUse" x="1" y="1" width="13" height="13">
<path d="M7.4877 13.881C10.9041 13.881 13.6736 11.1115 13.6736 7.69516C13.6736 4.27879 10.9041 1.50928 7.4877 1.50928C4.07133 1.50928 1.30182 4.27879 1.30182 7.69516C1.30182 11.1115 4.07133 13.881 7.4877 13.881Z" fill="white"/>
</mask>
<g mask="url(#mask51_6101_1178)">
<path d="M7.66807 9.08823C7.70059 9.08823 7.76574 9.08823 7.78345 9.10303L7.66797 9.08813L7.66807 9.08823Z" fill="white"/>
</g>
<mask id="mask52_6101_1178" style="mask-type:luminance" maskUnits="userSpaceOnUse" x="1" y="1" width="13" height="13">
<path d="M7.4877 13.881C10.9041 13.881 13.6736 11.1115 13.6736 7.69516C13.6736 4.27879 10.9041 1.50928 7.4877 1.50928C4.07133 1.50928 1.30182 4.27879 1.30182 7.69516C1.30182 11.1115 4.07133 13.881 7.4877 13.881Z" fill="white"/>
</mask>
<g mask="url(#mask52_6101_1178)">
<path d="M7.78345 9.11213C7.78306 9.11213 7.78266 9.11211 7.78227 9.11206L7.66812 9.09734C7.66569 9.09725 7.66337 9.0963 7.66158 9.09465C7.66021 9.09329 7.6593 9.09154 7.65898 9.08964C7.65865 9.08774 7.65893 9.08578 7.65977 9.08405C7.6606 9.08227 7.66198 9.08081 7.66371 9.0799C7.66544 9.07898 7.66742 9.07866 7.66935 9.07898C7.71624 9.07898 7.76746 9.08026 7.78755 9.0945C7.7892 9.09521 7.79061 9.09639 7.7916 9.0979C7.79259 9.0994 7.79311 9.10116 7.7931 9.10296C7.79311 9.10421 7.79286 9.10544 7.79237 9.10659C7.79188 9.10774 7.79116 9.10877 7.79025 9.10963C7.78935 9.11049 7.78828 9.11115 7.78711 9.11158C7.78594 9.11201 7.7847 9.1122 7.78345 9.11213Z" fill="#BE942D"/>
</g>
<mask id="mask53_6101_1178" style="mask-type:luminance" maskUnits="userSpaceOnUse" x="1" y="1" width="13" height="13">
<path d="M7.4877 13.881C10.9041 13.881 13.6736 11.1115 13.6736 7.69516C13.6736 4.27879 10.9041 1.50928 7.4877 1.50928C4.07133 1.50928 1.30182 4.27879 1.30182 7.69516C1.30182 11.1115 4.07133 13.881 7.4877 13.881Z" fill="white"/>
</mask>
<g mask="url(#mask53_6101_1178)">
<path d="M7.8485 9.08825C7.86622 9.07052 7.93135 9.07052 7.96388 9.08825H7.84839H7.8485Z" fill="white"/>
</g>
<mask id="mask54_6101_1178" style="mask-type:luminance" maskUnits="userSpaceOnUse" x="1" y="1" width="13" height="13">
<path d="M7.4877 13.881C10.9041 13.881 13.6736 11.1115 13.6736 7.69516C13.6736 4.27879 10.9041 1.50928 7.4877 1.50928C4.07133 1.50928 1.30182 4.27879 1.30182 7.69516C1.30182 11.1115 4.07133 13.881 7.4877 13.881Z" fill="white"/>
</mask>
<g mask="url(#mask54_6101_1178)">
<path d="M7.96387 9.09733H7.84838C7.84644 9.09734 7.84455 9.09674 7.84298 9.09561C7.84141 9.09448 7.84023 9.09288 7.83962 9.09105C7.83902 9.08921 7.839 9.08723 7.83959 9.08538C7.84018 9.08354 7.84134 9.08193 7.8429 9.08078C7.85769 9.06715 7.88808 9.06567 7.90061 9.06567C7.92642 9.06567 7.95171 9.07106 7.96827 9.08006C7.97006 9.08105 7.97148 9.0826 7.97229 9.08447C7.97311 9.08634 7.97328 9.08844 7.97278 9.09042C7.97227 9.0924 7.97112 9.09415 7.96951 9.0954C7.9679 9.09666 7.96591 9.09734 7.96387 9.09733ZM6.52553 9.23293C6.51455 9.23081 6.50873 9.22216 6.51153 9.21178C6.51486 9.1992 6.52491 9.19205 6.5345 9.19538C6.54052 9.19759 6.55161 9.20867 6.55161 9.21269C6.55171 9.21733 6.54585 9.2282 6.54333 9.2283C6.54223 9.2283 6.54052 9.2292 6.53952 9.23029C6.53753 9.23283 6.53108 9.23394 6.52553 9.23293ZM7.6582 9.31378C7.65407 9.31227 7.64752 9.30311 7.64752 9.29888C7.64763 9.29083 7.65941 9.27784 7.66666 9.27774C7.67029 9.27774 7.68026 9.28287 7.68388 9.2867C7.69062 9.29375 7.68912 9.30512 7.68075 9.31167C7.67662 9.31489 7.66424 9.31599 7.6582 9.31378ZM7.66555 9.36492C7.65689 9.36201 7.65377 9.35767 7.65306 9.34812C7.65235 9.33815 7.65326 9.33653 7.66383 9.3308L7.67137 9.32668L7.67853 9.3299C7.6884 9.33433 7.69281 9.33907 7.69322 9.34571C7.69352 9.35285 7.68829 9.36021 7.68004 9.36393C7.6728 9.36714 7.67229 9.36714 7.66555 9.36492Z" fill="#BE942D"/>
</g>
<mask id="mask55_6101_1178" style="mask-type:luminance" maskUnits="userSpaceOnUse" x="1" y="1" width="13" height="13">
<path d="M7.4877 13.881C10.9041 13.881 13.6736 11.1115 13.6736 7.69516C13.6736 4.27879 10.9041 1.50928 7.4877 1.50928C4.07133 1.50928 1.30182 4.27879 1.30182 7.69516C1.30182 11.1115 4.07133 13.881 7.4877 13.881Z" fill="white"/>
</mask>
<g mask="url(#mask55_6101_1178)">
<path d="M6.54235 9.2899C6.54389 9.28963 6.54548 9.28988 6.54687 9.29061C6.55201 9.29272 6.55221 9.29695 6.54687 9.30148C6.54455 9.3035 6.54195 9.3054 6.54102 9.3054C6.53146 9.3046 6.52855 9.30308 6.52813 9.29956C6.52786 9.29643 6.52885 9.29553 6.53529 9.29251C6.53852 9.291 6.54064 9.29021 6.54235 9.2899ZM6.61645 9.14039C6.6093 9.14015 6.59954 9.14673 6.5939 9.15005C6.58051 9.15327 6.56501 9.16142 6.55202 9.15266C6.53934 9.14874 6.52241 9.15187 6.52052 9.16746C6.52374 9.18095 6.54256 9.1886 6.55393 9.17974C6.56249 9.16866 6.58556 9.16212 6.58818 9.18104C6.57869 9.19523 6.57981 9.21417 6.57207 9.22936C6.57076 9.23873 6.56682 9.24769 6.5617 9.25575C6.55223 9.25676 6.54205 9.25554 6.53401 9.26159C6.52112 9.2623 6.50793 9.26863 6.50048 9.27962C6.49223 9.2915 6.48426 9.30367 6.48187 9.31828C6.48406 9.33318 6.5012 9.33751 6.51409 9.33821C6.52777 9.34203 6.54157 9.34697 6.55526 9.35109C6.5776 9.35613 6.59865 9.36419 6.62101 9.36912C6.65364 9.37899 6.68797 9.38352 6.72088 9.39238C6.7243 9.39349 6.72753 9.39449 6.73114 9.39489C6.74485 9.39781 6.752 9.38291 6.7531 9.37174C6.75985 9.34787 6.76507 9.32351 6.77184 9.29955C6.77647 9.28999 6.782 9.26834 6.76335 9.27316C6.75279 9.27951 6.74375 9.28907 6.73054 9.28989C6.71252 9.29099 6.72279 9.30941 6.72995 9.31696C6.73145 9.32904 6.72762 9.34353 6.71957 9.35301C6.70889 9.35985 6.69542 9.3519 6.68413 9.34917C6.67224 9.34938 6.64857 9.34333 6.65965 9.32723C6.66356 9.31535 6.66389 9.30236 6.66872 9.29058C6.67475 9.2779 6.67556 9.26401 6.67839 9.25062C6.67091 9.23461 6.65812 9.25585 6.64807 9.25766C6.64112 9.2625 6.61496 9.26461 6.62875 9.27698C6.64064 9.28604 6.63147 9.30165 6.62936 9.31313C6.62865 9.32893 6.61213 9.33277 6.59903 9.32924C6.58614 9.32854 6.56813 9.31897 6.57911 9.30468C6.58165 9.29291 6.58576 9.28123 6.58818 9.26924C6.59301 9.25495 6.59713 9.24114 6.60225 9.22675C6.60462 9.21413 6.60897 9.20197 6.61514 9.1907C6.61555 9.17651 6.62501 9.16433 6.6248 9.15004C6.62389 9.14311 6.62078 9.14058 6.61645 9.14039ZM6.521 9.3934C6.51075 9.38385 6.51246 9.37679 6.52755 9.36552C6.53399 9.36068 6.5379 9.36129 6.54535 9.36803C6.55673 9.37841 6.55713 9.38494 6.54718 9.39391C6.54212 9.39824 6.54001 9.39914 6.53418 9.39925C6.52814 9.39934 6.52644 9.39854 6.521 9.3934ZM6.58394 9.41243C6.58158 9.41187 6.57936 9.41084 6.57741 9.40939C6.57547 9.40794 6.57384 9.4061 6.57263 9.404C6.57143 9.4019 6.57066 9.39957 6.57039 9.39716C6.57012 9.39475 6.57034 9.39231 6.57105 9.38999C6.57365 9.38102 6.57528 9.38011 6.58833 9.38002C6.60315 9.37981 6.60596 9.38234 6.60607 9.39532C6.60617 9.40257 6.60566 9.40428 6.60205 9.4077C6.59773 9.41163 6.58957 9.41384 6.58394 9.41243ZM8.42127 9.41408C8.41664 9.41013 8.41563 9.40841 8.41563 9.40348C8.41553 9.39502 8.42046 9.38879 8.43103 9.38395C8.44504 9.3776 8.45078 9.37852 8.4561 9.38779C8.46315 9.40027 8.46274 9.4053 8.45439 9.41365C8.44965 9.41829 8.44885 9.41849 8.43817 9.41859C8.4277 9.41868 8.4265 9.41837 8.42127 9.41408ZM6.6674 9.4378C6.65995 9.4358 6.656 9.43013 6.65591 9.42109C6.65583 9.41424 6.65631 9.41313 6.66116 9.40941C6.66428 9.4069 6.66921 9.40488 6.67304 9.40428C6.67856 9.40357 6.68059 9.40408 6.68499 9.4072C6.69639 9.41515 6.69881 9.423 6.69217 9.43065C6.68521 9.43882 6.67856 9.44072 6.6674 9.4378ZM7.11935 9.45793C7.11773 9.45589 7.11402 9.4547 7.1136 9.45209C7.11433 9.44061 7.11482 9.42903 7.11856 9.41806C7.12047 9.40728 7.11876 9.39601 7.12247 9.38553C7.12638 9.36641 7.12638 9.34667 7.13082 9.32774C7.13103 9.31787 7.13193 9.30811 7.13475 9.29875C7.13798 9.28385 7.13503 9.26824 7.13937 9.25354C7.13899 9.24801 7.14532 9.2333 7.15088 9.24206C7.15902 9.25395 7.16969 9.26361 7.18015 9.27327C7.18922 9.27851 7.18098 9.28615 7.17472 9.28877C7.16615 9.2921 7.16404 9.30155 7.16466 9.30982C7.16344 9.31837 7.16003 9.32643 7.15972 9.33519C7.15791 9.34797 7.15822 9.36106 7.15662 9.37385C7.15279 9.38644 7.15429 9.39984 7.153 9.41281C7.15318 9.42097 7.14927 9.42853 7.14979 9.43668C7.14886 9.44514 7.14846 9.4552 7.1414 9.46084C7.13467 9.46438 7.12478 9.46377 7.11935 9.45793ZM7.71891 9.42601L7.72536 9.42662L7.72596 9.43438L7.72667 9.44213L7.71821 9.44474C7.71547 9.44556 7.71268 9.4462 7.70986 9.44666C7.70986 9.44666 7.70805 9.44555 7.70602 9.44404C7.70149 9.44081 7.70261 9.43608 7.70853 9.42985C7.71197 9.42632 7.71348 9.42572 7.71891 9.42601ZM7.73179 9.25586C7.72182 9.26341 7.71297 9.2723 7.70412 9.28103C7.69183 9.2903 7.71409 9.29564 7.71699 9.30358C7.72022 9.31567 7.72001 9.32856 7.72083 9.34095C7.72455 9.35232 7.72617 9.3644 7.72536 9.37638C7.72424 9.38927 7.70754 9.38655 7.70019 9.3938C7.69002 9.39803 7.686 9.40799 7.67833 9.41504C7.6732 9.42501 7.67189 9.4373 7.67119 9.44857C7.6719 9.45783 7.66495 9.4681 7.67119 9.47626C7.67199 9.47747 7.673 9.47898 7.6738 9.48018C7.67592 9.48309 7.68086 9.48078 7.68407 9.48139C7.69445 9.48088 7.70533 9.48239 7.71499 9.47816C7.73996 9.47383 7.76513 9.47353 7.7904 9.47242C7.80591 9.47293 7.82071 9.4675 7.83621 9.46789C7.8483 9.47061 7.85373 9.45741 7.85352 9.44796C7.84668 9.43446 7.85261 9.41845 7.84707 9.40477C7.84223 9.39088 7.84415 9.37527 7.84194 9.36098C7.84164 9.34962 7.82734 9.34547 7.82009 9.35382C7.81304 9.36098 7.80167 9.36239 7.79622 9.37124C7.79007 9.38363 7.8091 9.38363 7.81233 9.39319C7.81596 9.40274 7.81474 9.41332 7.81556 9.42339C7.81787 9.43566 7.80457 9.43638 7.79624 9.43758C7.78515 9.4417 7.76966 9.44453 7.76331 9.43114C7.75939 9.42128 7.75999 9.41071 7.75889 9.40023C7.75859 9.38183 7.75415 9.36378 7.75305 9.34546C7.75193 9.32281 7.74811 9.30035 7.7466 9.2778C7.7464 9.26846 7.74519 9.25316 7.73179 9.25586ZM6.96118 9.32041C6.96428 9.32071 6.96603 9.32453 6.9663 9.33128C6.96672 9.33883 6.97063 9.34497 6.97537 9.34618C6.97911 9.34708 6.9788 9.35102 6.97478 9.35382C6.97235 9.35554 6.96812 9.35645 6.96057 9.35645C6.9486 9.35635 6.94125 9.35333 6.9348 9.34678L6.93087 9.34295L6.93672 9.33903C6.93963 9.33681 6.94497 9.33219 6.9483 9.32876C6.95425 9.32272 6.95806 9.32 6.96118 9.32041ZM7.10103 9.23464C7.09316 9.23746 7.08323 9.24892 7.07526 9.24883C7.05713 9.25012 7.05967 9.26774 7.07264 9.27399C7.07436 9.27933 7.07274 9.28608 7.07335 9.29202C7.07585 9.30832 7.0656 9.32141 7.06751 9.33772C7.06661 9.35574 7.06117 9.37315 7.06046 9.39127C7.05534 9.40991 7.05534 9.42903 7.05212 9.44796C7.04991 9.46487 7.03761 9.45894 7.02693 9.45441C7.02684 9.44706 7.02634 9.43983 7.02634 9.43247C7.03075 9.41566 7.01717 9.41072 7.00379 9.40861C6.98958 9.41 6.98263 9.39783 6.98564 9.38545C6.99181 9.3782 7.00708 9.38021 7.01667 9.379C7.03691 9.38323 7.03599 9.35606 7.02562 9.34678C7.01857 9.3337 7.00095 9.32805 6.99602 9.31457C6.99792 9.29675 6.98615 9.27883 6.97156 9.27007C6.94908 9.26856 6.93207 9.28788 6.92383 9.30682C6.91448 9.30955 6.90518 9.31235 6.89614 9.31588C6.88153 9.31951 6.86071 9.34488 6.88064 9.35454C6.89192 9.35766 6.92604 9.36542 6.91094 9.38092C6.90248 9.39552 6.88617 9.39572 6.87168 9.39189C6.85669 9.39189 6.84006 9.38464 6.84065 9.36742C6.83765 9.35192 6.83814 9.3353 6.83099 9.32102C6.82798 9.30369 6.80836 9.3077 6.80726 9.32363C6.79206 9.33461 6.79406 9.35243 6.80463 9.36552C6.81117 9.38052 6.80473 9.39804 6.79818 9.41182C6.79427 9.42995 6.77432 9.43055 6.76011 9.43639C6.75317 9.439 6.72661 9.43477 6.73637 9.44988C6.75186 9.45531 6.77039 9.46026 6.7866 9.45632C6.80351 9.45421 6.81831 9.44263 6.82659 9.42793C6.83794 9.41645 6.85748 9.4225 6.87228 9.42219C6.88819 9.42208 6.90449 9.43339 6.92001 9.42601C6.92441 9.41443 6.94517 9.39521 6.9515 9.41504C6.9504 9.43286 6.96612 9.44243 6.98241 9.4402C7.00024 9.4392 6.99369 9.4528 6.99339 9.46336C6.99461 9.48269 7.007 9.49276 7.02311 9.50081C7.02854 9.50222 7.03427 9.50172 7.03981 9.50081C7.05523 9.49589 7.07183 9.48904 7.07656 9.47181C7.08279 9.45771 7.0829 9.44191 7.08754 9.42731C7.09116 9.40405 7.09588 9.38068 7.09649 9.35703C7.10223 9.33568 7.10061 9.31302 7.10483 9.29138C7.10756 9.27526 7.10968 9.25907 7.11127 9.24306C7.10949 9.23442 7.10577 9.23301 7.10103 9.23464ZM8.20993 9.41635C8.21367 9.41635 8.21679 9.41756 8.21899 9.41958C8.22283 9.42291 8.22273 9.42783 8.21838 9.43116C8.21556 9.43328 8.20037 9.43318 8.19513 9.43116C8.19281 9.43026 8.19191 9.42916 8.19191 9.42663C8.19191 9.4237 8.1927 9.42201 8.19775 9.41959C8.20198 9.41756 8.20631 9.41635 8.20993 9.41635ZM8.01925 9.39189C8.02146 9.39236 8.02349 9.39345 8.0251 9.39504C8.0267 9.39663 8.02782 9.39865 8.0283 9.40086C8.0296 9.40741 8.0284 9.41043 8.02307 9.41315C8.01854 9.41546 8.00797 9.41627 8.00505 9.41445C8.00351 9.41342 8.0022 9.41209 8.00121 9.41052C7.99981 9.40811 8 9.4069 8.00182 9.40539C8.00313 9.40436 8.00444 9.40298 8.00444 9.40216C8.00444 9.40146 8.00585 9.39883 8.00767 9.39642C8.01069 9.3924 8.01512 9.39089 8.01925 9.39189ZM8.13261 9.36219C8.13494 9.36189 8.13695 9.36309 8.13976 9.36542C8.14349 9.36863 8.1446 9.37116 8.1455 9.37769C8.14621 9.38222 8.14611 9.38807 8.1455 9.39058C8.1445 9.39521 8.14439 9.39501 8.13392 9.39511C8.12073 9.39521 8.11952 9.39381 8.11973 9.38151C8.11993 9.37376 8.12003 9.37164 8.12426 9.36741C8.12759 9.36401 8.1304 9.36258 8.13261 9.36219ZM8.31696 9.36028C8.32461 9.35978 8.32914 9.36219 8.33237 9.36803C8.33619 9.37478 8.33358 9.38002 8.324 9.38415C8.31987 9.38595 8.31564 9.38748 8.31503 9.38736C8.31433 9.38727 8.31091 9.38525 8.30729 9.38284C8.30165 9.37921 8.30084 9.37741 8.30084 9.37317C8.30076 9.36672 8.30801 9.36089 8.31696 9.36028ZM8.18226 9.35323C8.18487 9.35313 8.18779 9.35444 8.19263 9.35707C8.2016 9.3621 8.20803 9.37035 8.20803 9.3771C8.20803 9.38144 8.20692 9.38174 8.20027 9.38475C8.19625 9.38666 8.19162 9.38868 8.19 9.38868C8.18628 9.38856 8.17712 9.38132 8.17712 9.3783C8.17712 9.37708 8.17591 9.37246 8.1745 9.36863C8.17209 9.3621 8.17249 9.36219 8.1758 9.35776C8.17792 9.35484 8.17964 9.35323 8.18226 9.35323ZM8.3227 9.158C8.31102 9.15851 8.29925 9.16042 8.28857 9.16314C8.26713 9.16173 8.25635 9.18428 8.27698 9.19535C8.28936 9.22696 8.30869 9.18881 8.32853 9.19143C8.35814 9.19727 8.36065 9.22929 8.36529 9.25335C8.3669 9.27722 8.37384 9.30037 8.38069 9.32292C8.40052 9.34497 8.36589 9.35876 8.35108 9.34165C8.33849 9.32786 8.31152 9.31114 8.2963 9.32997C8.27768 9.33794 8.27688 9.36279 8.26148 9.36994C8.23661 9.37749 8.23348 9.34688 8.2203 9.33389C8.20821 9.31688 8.18506 9.31537 8.16613 9.30942C8.15727 9.29151 8.16189 9.261 8.14358 9.24883C8.12818 9.25506 8.09999 9.28396 8.12365 9.29715C8.1467 9.31698 8.11358 9.32604 8.10301 9.33963C8.0879 9.35645 8.08549 9.37961 8.08307 9.40085C8.05709 9.41525 8.05196 9.38463 8.04884 9.36542C8.04683 9.34255 8.02749 9.3493 8.0141 9.35776C7.99447 9.3657 7.9846 9.38433 7.97091 9.39894C7.9693 9.41233 7.97172 9.42695 7.97152 9.44082C7.97605 9.45755 7.99639 9.44969 8.00897 9.44858C8.02911 9.44012 8.03736 9.46147 8.02114 9.47374C8.01017 9.48764 7.97544 9.48039 7.97866 9.50274C7.98983 9.50405 8.00151 9.50355 8.01279 9.50274C8.03523 9.49651 8.05941 9.4807 8.06172 9.45562C8.06474 9.43387 8.09615 9.4378 8.11326 9.43308C8.13481 9.42695 8.16058 9.42532 8.16552 9.4524C8.18013 9.46781 8.21184 9.48513 8.22805 9.46407C8.24435 9.45401 8.25221 9.43649 8.25121 9.41766C8.24788 9.40144 8.27739 9.40085 8.28473 9.40991C8.29551 9.42763 8.32904 9.42239 8.34524 9.41253C8.36256 9.39974 8.36629 9.37728 8.39106 9.37708C8.42781 9.36601 8.46597 9.35968 8.50191 9.34608C8.53091 9.33973 8.49758 9.32141 8.49023 9.31063C8.46808 9.29976 8.44885 9.34457 8.42389 9.32223C8.40465 9.30753 8.40597 9.27943 8.39883 9.25778C8.39389 9.2299 8.39509 9.19758 8.37496 9.17533C8.36107 9.16063 8.34223 9.1571 8.3227 9.15792V9.158ZM7.85594 9.51572C7.85394 9.51442 7.85102 9.51331 7.85394 9.51109C7.85756 9.50485 7.8646 9.50273 7.87095 9.50043C7.88222 9.49549 7.89199 9.48724 7.89924 9.47737C7.90034 9.47053 7.908 9.4668 7.908 9.45955C7.9081 9.44979 7.90861 9.43985 7.90628 9.43013C7.90356 9.4214 7.89692 9.41466 7.88916 9.41013C7.88393 9.406 7.87527 9.40478 7.87336 9.39745C7.87225 9.3904 7.87859 9.38495 7.88082 9.37872C7.88535 9.37006 7.88928 9.3609 7.89421 9.35244C7.89955 9.3465 7.9078 9.35214 7.91051 9.35787C7.91444 9.3635 7.91797 9.36975 7.91988 9.37629C7.92613 9.38313 7.93166 9.39119 7.93387 9.40026C7.93689 9.4067 7.94173 9.41274 7.94142 9.42019C7.94153 9.42874 7.94635 9.43641 7.94606 9.44505C7.94626 9.45665 7.94626 9.46872 7.94202 9.4796C7.9392 9.48563 7.93338 9.48926 7.92954 9.4947C7.923 9.50084 7.91575 9.50668 7.90728 9.50991C7.90136 9.51181 7.89782 9.51867 7.89037 9.51695C7.87981 9.51718 7.86903 9.51867 7.85847 9.51695C7.85916 9.51805 7.85524 9.51503 7.85594 9.51572ZM7.71469 9.52499C7.70966 9.51985 7.70854 9.51764 7.70854 9.5126C7.70845 9.50744 7.70945 9.50545 7.7144 9.50052C7.72335 9.49139 7.72778 9.49115 7.7434 9.49911C7.75829 9.50665 7.76333 9.50726 7.76474 9.50194C7.76595 9.4968 7.77461 9.49207 7.78276 9.49207C7.7879 9.49197 7.79082 9.49307 7.79494 9.4963C7.80007 9.50032 7.80037 9.50092 7.80048 9.51029C7.80058 9.51977 7.80048 9.52016 7.79454 9.5254C7.7888 9.53043 7.7879 9.53074 7.78075 9.53006C7.77179 9.52913 7.76636 9.525 7.76495 9.51795C7.76383 9.51281 7.76203 9.5115 7.76072 9.51503C7.76021 9.51614 7.75799 9.51754 7.75579 9.51815C7.75156 9.51916 7.74441 9.52369 7.73937 9.52841C7.73747 9.53022 7.73414 9.53114 7.72871 9.53114C7.72134 9.53124 7.72032 9.53073 7.71469 9.52499ZM7.57987 9.4227C7.5831 9.4226 7.58421 9.42369 7.58561 9.42975C7.58662 9.43357 7.58772 9.4383 7.58823 9.44002C7.58893 9.44253 7.58772 9.44324 7.58431 9.44455C7.57414 9.44837 7.56407 9.44806 7.56054 9.44324C7.55893 9.44112 7.56075 9.43428 7.56377 9.43166C7.56971 9.42632 7.57635 9.4227 7.57987 9.4227ZM7.34719 9.41746C7.35434 9.41768 7.36098 9.41858 7.36784 9.41948C7.37667 9.42088 7.38614 9.41635 7.3949 9.41948C7.41506 9.4229 7.43518 9.42209 7.45552 9.4239C7.46086 9.4239 7.46467 9.42773 7.46841 9.43105V9.47355C7.46772 9.47888 7.46991 9.48593 7.46518 9.48965C7.46356 9.49077 7.46185 9.49187 7.45995 9.49228C7.4544 9.49077 7.44845 9.48714 7.44584 9.4819C7.44494 9.47455 7.44616 9.4674 7.44644 9.46005C7.44626 9.45814 7.44727 9.45512 7.44644 9.4536C7.44201 9.45047 7.43708 9.44847 7.43165 9.44847C7.41412 9.44786 7.3969 9.44655 7.37939 9.44585C7.36488 9.44494 7.3499 9.44706 7.33561 9.44322C7.33007 9.44122 7.32289 9.44192 7.3195 9.43618C7.31465 9.43054 7.32162 9.4239 7.32664 9.42139C7.3332 9.41837 7.34014 9.41737 7.34719 9.41746ZM7.30602 9.34144C7.29233 9.34165 7.27754 9.35312 7.27569 9.36662C7.27881 9.38212 7.2917 9.39731 7.28346 9.41363C7.2892 9.43457 7.26775 9.44243 7.25314 9.43036C7.24431 9.41043 7.23988 9.38847 7.22678 9.37044C7.21015 9.36581 7.20291 9.3923 7.19123 9.40136C7.19708 9.41696 7.21388 9.43096 7.2158 9.45039C7.21982 9.4692 7.20835 9.49016 7.19192 9.50002C7.17775 9.51352 7.15842 9.50868 7.14099 9.51161C7.11993 9.52389 7.15648 9.52842 7.16614 9.52902C7.18769 9.53114 7.21015 9.52832 7.22607 9.51222C7.24197 9.50467 7.24066 9.47728 7.25957 9.47426C7.29231 9.47275 7.32483 9.4793 7.35755 9.48C7.37506 9.48424 7.40216 9.47799 7.41422 9.49098C7.41422 9.51384 7.43367 9.52793 7.45229 9.53669C7.46254 9.5396 7.47332 9.52679 7.48381 9.52451C7.50373 9.51816 7.49769 9.4935 7.50958 9.48394C7.5436 9.48203 7.57794 9.48243 7.61207 9.48192C7.61852 9.48213 7.62043 9.47287 7.62496 9.46904C7.62416 9.45592 7.62375 9.44286 7.62173 9.42977C7.61519 9.41316 7.62273 9.39172 7.61076 9.37762C7.59364 9.37288 7.57905 9.38859 7.56183 9.38979C7.54269 9.39835 7.52658 9.41597 7.52568 9.43751C7.51441 9.4559 7.49628 9.43418 7.50252 9.41878C7.50181 9.41213 7.50393 9.40428 7.50181 9.39814C7.49135 9.38566 7.47313 9.38978 7.45872 9.38787C7.43766 9.38868 7.41715 9.38415 7.39619 9.38464C7.37775 9.38325 7.35863 9.38626 7.34072 9.38143C7.31949 9.38082 7.3224 9.35999 7.31887 9.34538C7.3151 9.34255 7.31055 9.34144 7.30602 9.34144Z" fill="#BE942D"/>
</g>
<mask id="mask56_6101_1178" style="mask-type:luminance" maskUnits="userSpaceOnUse" x="1" y="1" width="13" height="13">
<path d="M7.4877 13.881C10.9041 13.881 13.6736 11.1115 13.6736 7.69516C13.6736 4.27879 10.9041 1.50928 7.4877 1.50928C4.07133 1.50928 1.30182 4.27879 1.30182 7.69516C1.30182 11.1115 4.07133 13.881 7.4877 13.881Z" fill="white"/>
</mask>
<g mask="url(#mask56_6101_1178)">
<path d="M7.48724 8.25677C8.16031 7.73907 8.10262 6.98073 8.10262 6.98073C8.08481 6.98427 8.06798 6.98606 8.05017 6.98606C7.90902 6.98606 7.57233 6.90533 7.4937 6.80273C7.40953 6.89557 7.0655 6.98606 6.92514 6.98606C6.90741 6.98606 6.8896 6.98425 6.87281 6.98073C6.87281 6.98073 6.81421 7.73907 7.48724 8.25677Z" fill="white"/>
</g>
<mask id="mask57_6101_1178" style="mask-type:luminance" maskUnits="userSpaceOnUse" x="1" y="1" width="13" height="13">
<path d="M7.4877 13.881C10.9041 13.881 13.6736 11.1115 13.6736 7.69516C13.6736 4.27879 10.9041 1.50928 7.4877 1.50928C4.07133 1.50928 1.30182 4.27879 1.30182 7.69516C1.30182 11.1115 4.07133 13.881 7.4877 13.881Z" fill="white"/>
</mask>
<g mask="url(#mask57_6101_1178)">
<path d="M7.48722 8.27166L7.48001 8.26611C6.80961 7.75046 6.86039 6.9874 6.86098 6.97974L6.862 6.96628L6.87523 6.96906C6.89125 6.97243 6.90804 6.97415 6.92512 6.97415C7.06746 6.97415 7.40421 6.8837 7.4849 6.79471L7.49444 6.78418L7.5031 6.79546C7.57803 6.89325 7.91157 6.97415 8.05015 6.97415C8.06679 6.97415 8.08273 6.97253 8.10029 6.96904L8.11342 6.96643L8.11445 6.97978C8.11503 6.98741 8.16486 7.75046 7.49447 8.26611L7.48722 8.27166ZM6.884 6.99475C6.8806 7.09715 6.88276 7.77145 7.48722 8.24171C8.09221 7.77107 8.0947 7.09684 8.09137 6.99469C8.07773 6.9968 8.06394 6.99786 8.05014 6.99785C7.914 6.99785 7.58803 6.92177 7.49302 6.82017C7.38918 6.91661 7.05509 6.99785 6.92512 6.99785C6.91136 6.99787 6.89761 6.99683 6.884 6.99475Z" fill="#BE942D"/>
</g>
<mask id="mask58_6101_1178" style="mask-type:luminance" maskUnits="userSpaceOnUse" x="1" y="1" width="13" height="13">
<path d="M7.4877 13.881C10.9041 13.881 13.6736 11.1115 13.6736 7.69516C13.6736 4.27879 10.9041 1.50928 7.4877 1.50928C4.07133 1.50928 1.30182 4.27879 1.30182 7.69516C1.30182 11.1115 4.07133 13.881 7.4877 13.881Z" fill="white"/>
</mask>
<g mask="url(#mask58_6101_1178)">
<path d="M8.04893 7.03618C8.04309 7.03645 8.03727 7.03667 8.03142 7.03667C7.90345 7.03667 7.60625 6.97103 7.49167 6.87256C7.37177 6.96347 7.06961 7.03667 6.94375 7.03667C6.93783 7.03667 6.93197 7.03596 6.92625 7.03486C6.92595 7.06355 6.92747 7.09325 6.92917 7.12034C6.93581 7.22142 6.95351 7.32283 6.98051 7.42037C7.06517 7.72755 7.23856 7.9885 7.48712 8.18645C7.73592 7.98831 7.9095 7.72714 7.99437 7.41975C8.02136 7.3222 8.03917 7.22082 8.04582 7.11973C8.04763 7.09323 8.04914 7.06423 8.04893 7.03618Z" fill="white"/>
</g>
<mask id="mask59_6101_1178" style="mask-type:luminance" maskUnits="userSpaceOnUse" x="1" y="1" width="13" height="13">
<path d="M7.4877 13.881C10.9041 13.881 13.6736 11.1115 13.6736 7.69516C13.6736 4.27879 10.9041 1.50928 7.4877 1.50928C4.07133 1.50928 1.30182 4.27879 1.30182 7.69516C1.30182 11.1115 4.07133 13.881 7.4877 13.881Z" fill="white"/>
</mask>
<g mask="url(#mask59_6101_1178)">
<path d="M7.48715 8.19846L7.48127 8.19377C7.23203 7.99532 7.05573 7.72871 6.97143 7.42281C6.94374 7.32276 6.92635 7.22117 6.91975 7.12089C6.91813 7.0949 6.9165 7.06436 6.91682 7.03469L6.91693 7.02337L6.92804 7.02553C6.93376 7.02662 6.93889 7.02716 6.94376 7.02716C7.07039 7.02716 7.36995 6.95293 7.48598 6.86497L7.49206 6.86035L7.49782 6.86533C7.61279 6.96413 7.91288 7.02716 8.03143 7.02716C8.03712 7.02716 8.04281 7.02694 8.0485 7.02668L8.05831 7.02621L8.0584 7.03603C8.05862 7.06712 8.0567 7.099 8.05524 7.12029C8.04867 7.22016 8.03127 7.32173 8.00347 7.42219C7.91894 7.72833 7.74245 7.99514 7.49301 8.19375L7.48715 8.19846ZM6.93567 7.04569C6.93579 7.07131 6.9372 7.09723 6.93861 7.11969C6.94511 7.21866 6.96229 7.31896 6.98963 7.4178C7.0734 7.72172 7.24076 7.97623 7.48715 8.17432C7.73374 7.97605 7.90133 7.72135 7.98529 7.41718C8.01275 7.31796 8.02993 7.21767 8.03644 7.11906C8.03773 7.10029 8.03935 7.07321 8.03953 7.04594C8.03683 7.04601 8.03414 7.04605 8.03145 7.04605C7.90921 7.04605 7.61509 6.98485 7.49135 6.8845C7.36674 6.9741 7.07377 7.04605 6.94379 7.04605C6.94113 7.04605 6.93843 7.04593 6.93567 7.04569Z" fill="#BE942D"/>
</g>
<mask id="mask60_6101_1178" style="mask-type:luminance" maskUnits="userSpaceOnUse" x="1" y="1" width="13" height="13">
<path d="M7.4877 13.881C10.9041 13.881 13.6736 11.1115 13.6736 7.69516C13.6736 4.27879 10.9041 1.50928 7.4877 1.50928C4.07133 1.50928 1.30182 4.27879 1.30182 7.69516C1.30182 11.1115 4.07133 13.881 7.4877 13.881Z" fill="white"/>
</mask>
<g mask="url(#mask60_6101_1178)">
<path d="M7.26866 6.97396C7.14755 7.01203 7.01657 7.0365 6.94385 7.0365C6.93803 7.0365 6.93229 7.0356 6.92654 7.0346C6.92626 7.06327 6.92797 7.09318 6.92976 7.12027C6.93655 7.22161 6.95359 7.322 6.98062 7.4199C7.03771 7.62661 7.13547 7.81236 7.26867 7.97214V6.97396H7.26866ZM7.69384 6.97217V7.98765C7.83388 7.82435 7.93578 7.63284 7.99477 7.41931C8.02185 7.32142 8.03888 7.22102 8.04561 7.11968C8.04741 7.09319 8.04903 7.06411 8.04884 7.03591C8.0431 7.0363 8.03736 7.03661 8.03153 7.03661C7.9546 7.0366 7.81667 7.01245 7.69384 6.97217Z" fill="#BE942D"/>
</g>
<mask id="mask61_6101_1178" style="mask-type:luminance" maskUnits="userSpaceOnUse" x="1" y="1" width="13" height="13">
<path d="M7.4877 13.881C10.9041 13.881 13.6736 11.1115 13.6736 7.69516C13.6736 4.27879 10.9041 1.50928 7.4877 1.50928C4.07133 1.50928 1.30182 4.27879 1.30182 7.69516C1.30182 11.1115 4.07133 13.881 7.4877 13.881Z" fill="white"/>
</mask>
<g mask="url(#mask61_6101_1178)">
<path d="M7.74146 6.72793C7.75526 6.72873 7.72284 6.65432 7.72284 6.65432C7.75928 6.69149 7.89671 6.70043 7.89671 6.70043C7.81426 6.66399 7.7318 6.38912 7.74146 6.17004C7.75043 5.95016 7.70995 5.86366 7.67764 5.83137C7.63635 5.79007 7.50375 5.75373 7.41646 5.74888C7.36714 5.7465 7.37531 5.78606 7.37531 5.78606C7.28388 5.7626 7.19256 5.75373 7.15128 5.78121C7.11251 5.80708 7.10446 5.93648 7.13273 5.91382C7.20142 5.85884 7.26121 5.90897 7.30249 5.96879C7.33886 6.02135 7.33643 6.17004 7.28388 6.3438C7.22891 6.52655 7.07858 6.70929 7.07858 6.70929C7.16024 6.70929 7.27501 6.63649 7.27501 6.63649L7.24753 6.75048C7.33401 6.70928 7.40277 6.64544 7.40277 6.64544L7.48523 6.73194C7.51272 6.6955 7.56769 6.64544 7.56769 6.64544C7.56769 6.64544 7.63635 6.71816 7.74146 6.72793Z" fill="white"/>
</g>
<mask id="mask62_6101_1178" style="mask-type:luminance" maskUnits="userSpaceOnUse" x="1" y="1" width="13" height="13">
<path d="M7.4877 13.881C10.9041 13.881 13.6736 11.1115 13.6736 7.69516C13.6736 4.27879 10.9041 1.50928 7.4877 1.50928C4.07133 1.50928 1.30182 4.27879 1.30182 7.69516C1.30182 11.1115 4.07133 13.881 7.4877 13.881Z" fill="white"/>
</mask>
<g mask="url(#mask62_6101_1178)">
<path d="M7.22915 6.77325L7.25588 6.66238C7.21646 6.68426 7.13972 6.72195 7.07858 6.72195H7.052L7.06888 6.70141C7.07037 6.69961 7.21827 6.51843 7.27185 6.34029C7.32623 6.16046 7.32323 6.02093 7.29216 5.97604C7.2691 5.94261 7.2331 5.9028 7.1925 5.9028C7.17539 5.9028 7.15793 5.90984 7.14057 5.92374C7.13611 5.92732 7.13142 5.92913 7.12665 5.92913C7.12225 5.92913 7.11146 5.92735 7.10645 5.91082C7.09717 5.88021 7.10914 5.79434 7.1443 5.77087C7.18233 5.74556 7.26136 5.74589 7.36318 5.77023C7.36434 5.7645 7.36674 5.75821 7.37142 5.75247C7.38015 5.74176 7.39388 5.73633 7.41226 5.73633L7.41704 5.73644C7.50873 5.74154 7.64337 5.77946 7.6865 5.8226C7.7223 5.85836 7.76307 5.9478 7.75399 6.17066C7.74409 6.39537 7.83022 6.65743 7.90178 6.68904L7.89592 6.71307C7.88441 6.71231 7.80166 6.70626 7.74831 6.68431C7.76181 6.72249 7.75683 6.73007 7.75445 6.73371L7.75072 6.73939L7.74167 6.74061C7.65291 6.73239 7.59004 6.68315 7.56757 6.66282C7.55118 6.67826 7.51534 6.713 7.49525 6.73962L7.48635 6.75142L7.40205 6.663C7.38025 6.68184 7.32262 6.72873 7.25293 6.76193L7.22915 6.77325ZM7.29448 6.6094L7.26613 6.72701C7.33836 6.6878 7.39362 6.63691 7.39423 6.63634L7.40331 6.6279L7.48437 6.71294C7.51344 6.67804 7.55719 6.63812 7.55923 6.63625L7.56831 6.62797L7.5768 6.63691C7.57743 6.63757 7.63865 6.70102 7.73112 6.71417C7.72801 6.70129 7.71959 6.67839 7.71134 6.65943L7.73179 6.64562C7.75161 6.66582 7.81111 6.67782 7.85617 6.68377C7.78181 6.59849 7.72036 6.36361 7.72894 6.16957C7.73809 5.94457 7.69516 5.86671 7.66876 5.84034C7.63015 5.8017 7.50104 5.76623 7.41577 5.7615L7.41227 5.76142C7.40508 5.76142 7.39554 5.76262 7.39089 5.76832C7.38604 5.77427 7.38759 5.78353 7.3876 5.78361L7.39166 5.80332L7.37218 5.79831C7.27239 5.77271 7.19071 5.77018 7.15824 5.79175C7.14733 5.79904 7.13722 5.82124 7.13187 5.8497C7.12742 5.87343 7.128 5.89243 7.12987 5.90132C7.14921 5.88566 7.17077 5.87769 7.19251 5.87769C7.23387 5.87769 7.27433 5.90597 7.31282 5.96175C7.35369 6.02079 7.34673 6.17945 7.2959 6.34754C7.25167 6.49454 7.14856 6.63912 7.10647 6.69424C7.17994 6.68154 7.26731 6.62661 7.2683 6.62598L7.29448 6.6094Z" fill="#BE942D"/>
</g>
<mask id="mask63_6101_1178" style="mask-type:luminance" maskUnits="userSpaceOnUse" x="1" y="1" width="13" height="13">
<path d="M7.4877 13.881C10.9041 13.881 13.6736 11.1115 13.6736 7.69516C13.6736 4.27879 10.9041 1.50928 7.4877 1.50928C4.07133 1.50928 1.30182 4.27879 1.30182 7.69516C1.30182 11.1115 4.07133 13.881 7.4877 13.881Z" fill="white"/>
</mask>
<g mask="url(#mask63_6101_1178)">
<path d="M7.28484 6.6454L7.26536 6.62788C7.34817 6.53579 7.39419 6.20328 7.39463 6.19993L7.42059 6.20346C7.41869 6.21745 7.37301 6.54737 7.28484 6.6454ZM7.41426 6.65185L7.39127 6.63931C7.44908 6.53324 7.46714 6.19555 7.46731 6.19215L7.49348 6.1935C7.49275 6.20763 7.47491 6.54059 7.41426 6.65185ZM7.55525 6.64995C7.53209 6.58475 7.53183 6.22201 7.53183 6.20661H7.55801C7.55801 6.31032 7.56196 6.59059 7.57992 6.64119L7.55525 6.64995ZM7.71202 6.6619C7.63326 6.54618 7.61428 6.23903 7.61352 6.22601L7.63964 6.22448C7.63985 6.22758 7.65895 6.53741 7.73365 6.64718L7.71202 6.6619ZM7.32433 6.03759C7.3203 6.00766 7.31306 5.98422 7.30247 5.9689C7.2613 5.90901 7.20142 5.85897 7.13272 5.91396C7.13272 5.91396 7.1562 5.84114 7.20633 5.83875C7.24509 5.83633 7.33319 5.86785 7.41084 6.00044C7.41084 6.00044 7.35343 5.98745 7.33975 5.99963C7.31387 6.02227 7.32433 6.03759 7.32433 6.03759Z" fill="#BE942D"/>
</g>
<mask id="mask64_6101_1178" style="mask-type:luminance" maskUnits="userSpaceOnUse" x="1" y="1" width="13" height="13">
<path d="M7.4877 13.881C10.9041 13.881 13.6736 11.1115 13.6736 7.69516C13.6736 4.27879 10.9041 1.50928 7.4877 1.50928C4.07133 1.50928 1.30182 4.27879 1.30182 7.69516C1.30182 11.1115 4.07133 13.881 7.4877 13.881Z" fill="white"/>
</mask>
<g mask="url(#mask64_6101_1178)">
<path d="M7.32131 6.03964C7.32093 6.03908 7.31771 6.03407 7.3188 6.02576C7.31458 6.00184 7.30808 5.98341 7.29947 5.97096C7.24545 5.89235 7.18936 5.87323 7.13501 5.9168L7.12552 5.9244L7.12926 5.91283C7.13026 5.90976 7.15411 5.83757 7.20616 5.83508C7.20752 5.835 7.209 5.83496 7.21053 5.83496C7.26019 5.83496 7.34326 5.87782 7.41398 5.99858L7.41823 6.00585L7.41003 6.004C7.40977 6.00393 7.38357 5.99807 7.36293 5.99807C7.34976 5.99807 7.34439 6.0004 7.34219 6.00236C7.33304 6.01036 7.32755 6.01841 7.32621 6.02571C7.32686 6.0294 7.32744 6.03319 7.32797 6.03712L7.32131 6.03964ZM7.19255 5.88658C7.2309 5.88658 7.26889 5.91357 7.30548 5.96682C7.31317 5.97793 7.31926 5.99331 7.32363 6.01262C7.32676 6.00739 7.33135 6.0021 7.33735 5.99686C7.34197 5.99274 7.35034 5.99075 7.36293 5.99075C7.37733 5.99075 7.39385 5.99337 7.40349 5.99519C7.31371 5.84661 7.22097 5.84226 7.21053 5.84226C7.20915 5.84226 7.20783 5.8423 7.20657 5.84238C7.17138 5.84405 7.14959 5.8835 7.14075 5.90356C7.1578 5.89228 7.17518 5.88658 7.19255 5.88658Z" fill="#BE942D"/>
</g>
<mask id="mask65_6101_1178" style="mask-type:luminance" maskUnits="userSpaceOnUse" x="1" y="1" width="13" height="13">
<path d="M7.4877 13.881C10.9041 13.881 13.6736 11.1115 13.6736 7.69516C13.6736 4.27879 10.9041 1.50928 7.4877 1.50928C4.07133 1.50928 1.30182 4.27879 1.30182 7.69516C1.30182 11.1115 4.07133 13.881 7.4877 13.881Z" fill="white"/>
</mask>
<g mask="url(#mask65_6101_1178)">
<path d="M7.1256 5.824C7.13124 5.80547 7.14011 5.78844 7.15146 5.7812C7.19266 5.75372 7.28408 5.76257 7.37539 5.78605C7.37539 5.78605 7.36723 5.74646 7.41655 5.74889C7.50395 5.75374 7.63645 5.79007 7.67772 5.83133C7.68738 5.84184 7.69877 5.85721 7.70843 5.88067H7.70682C7.68658 5.85239 7.6292 5.85398 7.61549 5.85562C7.59364 5.85804 7.57985 5.85721 7.55076 5.86449C7.53708 5.8677 7.51602 5.87173 7.50464 5.88067C7.49578 5.88794 7.48853 5.91462 7.47474 5.91462C7.45299 5.91462 7.4546 5.90898 7.44886 5.90243C7.44161 5.89356 7.4376 5.88067 7.43031 5.8815C7.40766 5.88552 7.37131 5.8677 7.32521 5.83133C7.27909 5.79488 7.26139 5.78605 7.20146 5.79007C7.14246 5.7949 7.12396 5.82812 7.12396 5.82812L7.1256 5.824Z" fill="#BE942D"/>
</g>
<mask id="mask66_6101_1178" style="mask-type:luminance" maskUnits="userSpaceOnUse" x="1" y="1" width="13" height="13">
<path d="M7.4877 13.881C10.9041 13.881 13.6736 11.1115 13.6736 7.69516C13.6736 4.27879 10.9041 1.50928 7.4877 1.50928C4.07133 1.50928 1.30182 4.27879 1.30182 7.69516C1.30182 11.1115 4.07133 13.881 7.4877 13.881Z" fill="white"/>
</mask>
<g mask="url(#mask66_6101_1178)">
<path d="M7.47477 5.91825C7.45671 5.91825 7.45286 5.91447 7.44865 5.90822C7.44794 5.90714 7.44717 5.90599 7.44614 5.90483C7.44368 5.90168 7.44144 5.89836 7.43944 5.89489C7.43665 5.8903 7.4335 5.8851 7.43101 5.8851C7.40718 5.88914 7.37099 5.87207 7.32298 5.83419C7.285 5.80416 7.2667 5.7928 7.22501 5.7928C7.21823 5.7928 7.21061 5.79309 7.20174 5.79369C7.14568 5.79826 7.12736 5.82956 7.12719 5.82988L7.12061 5.82678L7.1222 5.82266C7.12596 5.81023 7.13466 5.78757 7.14952 5.7781C7.167 5.76645 7.19395 5.76051 7.22954 5.76051C7.26842 5.76051 7.31734 5.76766 7.37127 5.78122C7.3711 5.77532 7.37202 5.76584 7.37845 5.75796C7.38603 5.74866 7.39857 5.74438 7.41675 5.74522C7.50673 5.75022 7.63856 5.78699 7.68034 5.82873C7.69338 5.8429 7.70365 5.85938 7.71183 5.87924L7.71392 5.88429H7.70495L7.70387 5.88277C7.68818 5.86085 7.64777 5.85848 7.63113 5.85848C7.62274 5.85848 7.61739 5.85905 7.61595 5.85921C7.60986 5.85989 7.60438 5.86032 7.59908 5.86074C7.5854 5.8618 7.57246 5.86281 7.55166 5.868L7.54683 5.86912C7.53398 5.87206 7.51639 5.87608 7.50693 5.88352C7.50423 5.88573 7.50133 5.89077 7.49829 5.89609C7.49234 5.90649 7.4856 5.91825 7.47477 5.91825ZM7.43103 5.87781C7.43761 5.87781 7.44153 5.88427 7.44569 5.89111C7.44755 5.8942 7.4495 5.89739 7.45172 5.90012C7.4529 5.90145 7.45384 5.90285 7.45472 5.90415C7.45748 5.90826 7.45928 5.91095 7.47477 5.91095C7.48137 5.91095 7.48701 5.90114 7.49196 5.89248C7.49536 5.88654 7.49857 5.88094 7.50236 5.87785C7.51317 5.86933 7.53168 5.8651 7.54519 5.86201L7.54996 5.86093C7.57128 5.8556 7.58452 5.85456 7.59851 5.85347C7.60377 5.85307 7.60913 5.85264 7.61513 5.85199C7.61921 5.85149 7.62519 5.85121 7.63114 5.85121C7.6491 5.85121 7.67871 5.85356 7.69827 5.86728C7.69208 5.85513 7.68427 5.84387 7.67506 5.83382C7.63518 5.79394 7.50323 5.75735 7.41639 5.75255C7.40101 5.75173 7.3902 5.75517 7.38416 5.76255C7.37644 5.77198 7.37898 5.78521 7.379 5.78533L7.38015 5.79102L7.37452 5.78959C7.31917 5.77536 7.26904 5.76782 7.22955 5.76782C7.19543 5.76782 7.16985 5.77334 7.15351 5.78423C7.14636 5.78879 7.13955 5.79839 7.13403 5.8114C7.14594 5.80125 7.16699 5.78922 7.20121 5.78642C7.20913 5.78585 7.21708 5.78555 7.22502 5.78552C7.26884 5.78552 7.28892 5.79795 7.32754 5.82846C7.37299 5.86431 7.40852 5.88172 7.42973 5.8779L7.43103 5.87781Z" fill="#BE942D"/>
</g>
<mask id="mask67_6101_1178" style="mask-type:luminance" maskUnits="userSpaceOnUse" x="1" y="1" width="16" height="16">
<path d="M9.00003 17C13.4183 17 17 13.4183 17 9C17 4.58172 13.4183 1 9.00003 1C4.58175 1 1.00003 4.58172 1.00003 9C1.00003 13.4183 4.58175 17 9.00003 17Z" fill="white"/>
</mask>
<g mask="url(#mask67_6101_1178)">
<path d="M8.99996 6.61779C8.99996 6.6219 8.99914 6.62597 8.99757 6.62977C8.99599 6.63357 8.99368 6.63702 8.99076 6.63992C8.98785 6.64283 8.98439 6.64513 8.98059 6.64669C8.97679 6.64826 8.97271 6.64906 8.9686 6.64905C8.96449 6.64905 8.96041 6.64824 8.95662 6.64667C8.95282 6.64509 8.94936 6.64279 8.94646 6.63988C8.94355 6.63697 8.94124 6.63352 8.93967 6.62972C8.9381 6.62592 8.93729 6.62185 8.93729 6.61774C8.93729 6.61363 8.9381 6.60955 8.93967 6.60576C8.94124 6.60196 8.94355 6.5985 8.94646 6.5956C8.94936 6.59269 8.95282 6.59038 8.95662 6.58881C8.96041 6.58724 8.96449 6.58643 8.9686 6.58643C8.98589 6.58643 8.99996 6.60049 8.99996 6.61779Z" fill="white"/>
</g>
</svg>
