<svg width="39" height="32" viewBox="0 0 39 32" fill="none" xmlns="http://www.w3.org/2000/svg">
<path d="M4.007 6.51089C4.007 13.4705 0 18.2498 0 21.6033C0 24.9569 2.14273 32 19.2902 32C36.4376 32 38.9539 22.525 38.9539 18.8364C38.955 1.56358 4.007 -5.81461 4.007 6.51089Z" fill="#EFEFEF"/>
<path d="M4.90604 1.42271L6.48737 0.00100609L7.27803 0.712363L5.69671 2.13508L4.90604 1.42271ZM0.358887 5.51377L1.94133 4.09106L2.732 4.80242L1.15067 6.22513L0.358887 5.51377ZM0.557951 0.711357L1.34861 0L2.92994 1.42271L2.13928 2.13407L0.557951 0.711357Z" fill="#A4AFC1"/>
<path d="M14.2769 12.9232L11.6533 14.8097C10.8667 15.3752 10.2317 16.0927 9.79538 16.9091C9.35901 17.7255 9.13248 18.6197 9.13257 19.5256V27.5125H18.6384V25.5032C19.3799 25.5032 20.0911 25.2382 20.6154 24.7665C21.1397 24.2947 21.4343 23.6549 21.4343 22.9878V12.9232H14.2769Z" fill="#F3F3F1"/>
<path d="M14.7241 16.3501V6.88617C14.7241 6.35246 14.9598 5.84062 15.3792 5.46324C15.7987 5.08585 16.3676 4.87384 16.9608 4.87384H18.9179L19.0364 5.08715C19.3371 5.628 19.7992 6.08284 20.371 6.4007C20.9428 6.71855 21.6017 6.88686 22.2738 6.88675C22.9459 6.88665 23.6048 6.71814 24.1764 6.40011C24.7481 6.08207 25.21 5.62709 25.5105 5.08614L25.6279 4.87384H27.585C28.1782 4.87384 28.7471 5.08585 29.1666 5.46324C29.586 5.84062 29.8217 6.35246 29.8217 6.88617V20.4694C29.8217 21.0031 29.586 21.5149 29.1666 21.8923C28.7471 22.2697 28.1782 22.4817 27.585 22.4817H25.6279L25.5094 22.2694C25.2084 21.7291 24.7463 21.2747 24.1747 20.9572C23.6031 20.6397 22.9446 20.4715 22.2729 20.4715C21.6011 20.4715 20.9426 20.6397 20.3711 20.9572C19.7995 21.2747 19.3374 21.7291 19.0364 22.2694L18.9179 22.4817H16.9608C16.3676 22.4817 15.7987 22.2697 15.3792 21.8923C14.9598 21.5149 14.7241 21.0031 14.7241 20.4694V16.3501Z" fill="#65B9FF"/>
<path d="M12.4873 18.4571L18.4894 13.4725C18.5956 13.3843 18.7356 13.3365 18.8801 13.3392C19.0246 13.3418 19.1623 13.3946 19.2644 13.4866C19.5126 13.7099 19.7095 13.975 19.8438 14.2668C19.9782 14.5585 20.0473 14.8712 20.0473 15.187C20.0473 15.5028 19.9782 15.8155 19.8438 16.1073C19.7095 16.3991 19.5126 16.6642 19.2644 16.8875L17.2402 18.7086C17.5725 19.3069 17.7039 19.9793 17.6183 20.6436C17.5327 21.308 17.2338 21.9355 16.7582 22.4495L15.8423 23.4879L12.4873 18.4571Z" fill="#F3F3F1"/>
<path d="M14.1696 14.8097L16.7932 12.9232H14.2769L11.6533 14.8097C10.8667 15.3752 10.2317 16.0927 9.79538 16.9091C9.35901 17.7255 9.13248 18.6197 9.13257 19.5256V27.5125H11.6488V19.5256C11.6488 17.6904 12.5759 15.9557 14.1696 14.8097Z" fill="#D5DBE1"/>
<path d="M17.2404 14.5099V6.88617C17.2404 5.93836 17.9707 5.14852 18.9514 4.93522L18.9179 4.87384H16.9608C16.3676 4.87384 15.7987 5.08585 15.3792 5.46324C14.9598 5.84062 14.7241 6.35246 14.7241 6.88617V16.5997L17.2404 14.5099Z" fill="#65B9FF"/>
<path d="M27.5851 23.2363H25.628C25.4722 23.2363 25.3194 23.1972 25.1869 23.1235C25.0543 23.0497 24.9472 22.9442 24.8776 22.8187L24.7602 22.6064C24.286 21.7532 23.3332 21.224 22.273 21.224C21.2128 21.224 20.26 21.7542 19.7858 22.6074L19.6684 22.8197C19.5984 22.9449 19.4912 23.0501 19.3588 23.1236C19.2263 23.1971 19.0737 23.2362 18.918 23.2363H16.9609C16.7385 23.2363 16.5251 23.1568 16.3678 23.0153C16.2105 22.8738 16.1222 22.6818 16.1222 22.4817C16.1222 22.2815 16.2105 22.0896 16.3678 21.9481C16.5251 21.8066 16.7385 21.7271 16.9609 21.7271H18.4081C19.2021 20.4804 20.6604 19.7147 22.273 19.7147C23.8857 19.7147 25.3451 20.4804 26.1391 21.7271H27.5851C28.3557 21.7271 28.983 21.1626 28.983 20.4694V6.88615C28.983 6.1929 28.3557 5.62845 27.5851 5.62845H26.138C25.3451 6.87508 23.8868 7.64077 22.273 7.64077C20.6593 7.64077 19.2009 6.87508 18.4069 5.62845H16.9609C16.1904 5.62845 15.563 6.1929 15.563 6.88615V16.3501C15.563 16.5503 15.4746 16.7422 15.3173 16.8837C15.16 17.0252 14.9467 17.1047 14.7243 17.1047C14.5018 17.1047 14.2885 17.0252 14.1312 16.8837C13.9739 16.7422 13.8855 16.5503 13.8855 16.3501V6.88615C13.8861 6.15247 14.2103 5.449 14.7869 4.93021C15.3635 4.41142 16.1455 4.11974 16.9609 4.1192H18.918C19.2356 4.1192 19.5253 4.28019 19.6673 4.53575L19.7858 4.74805C20.26 5.60229 21.2128 6.13153 22.273 6.13153C23.3332 6.13153 24.286 5.60128 24.7602 4.74805L24.8787 4.53575C24.9482 4.4105 25.0552 4.30515 25.1875 4.23157C25.3199 4.15798 25.4724 4.11907 25.628 4.1192H27.5851C28.4006 4.11974 29.1825 4.41142 29.7591 4.93021C30.3357 5.449 30.6599 6.15247 30.6605 6.88615V20.4694C30.6599 21.203 30.3357 21.9065 29.7591 22.4253C29.1825 22.9441 28.4006 23.2358 27.5851 23.2363Z" fill="black"/>
<path d="M14.1649 9.65314H18.0791V11.1624H14.1649V9.65314ZM19.7566 9.65314H24.7891V11.1624H19.7566V9.65314ZM26.4666 9.65314H30.3808V11.1624H26.4666V9.65314ZM15.9788 24.5484L14.6648 23.6106L16.1007 21.9806C16.8724 21.1465 17.0211 20.0005 16.491 19.0457C16.412 18.904 16.3847 18.7435 16.413 18.587C16.4413 18.4305 16.5238 18.2861 16.6487 18.1743L18.6729 16.3532C18.9836 16.0729 19.1722 15.7017 19.2044 15.3069C19.2366 14.9121 19.1103 14.5201 18.8485 14.202L12.4415 19.5226L11.3042 18.4138L17.9225 12.9171C18.1873 12.6956 18.5374 12.5754 18.8989 12.5819C19.2604 12.5885 19.6049 12.7214 19.8595 12.9523C20.5226 13.549 20.8872 14.3419 20.8872 15.186C20.8872 16.0302 20.5215 16.8231 19.8595 17.4197L18.2323 18.8837C18.4923 19.5654 18.5527 20.296 18.4075 21.0048C18.2624 21.7136 17.9166 22.3769 17.4036 22.9305L15.9788 24.5484Z" fill="black"/>
<path d="M18.6381 28.2671H9.13221C8.90976 28.2671 8.69642 28.1876 8.53912 28.0461C8.38183 27.9046 8.29346 27.7126 8.29346 27.5125V19.5256C8.29346 17.4499 9.3268 15.517 11.1296 14.2201L13.7532 12.3335C13.9273 12.2115 14.1478 12.1561 14.367 12.1793C14.5862 12.2026 14.7864 12.3027 14.9241 12.4578C15.0619 12.613 15.1261 12.8108 15.1028 13.0082C15.0796 13.2057 14.9708 13.387 14.7999 13.5128L12.1763 15.3993C11.4867 15.893 10.9302 16.5206 10.5483 17.2351C10.1663 17.9497 9.96899 18.7327 9.97096 19.5256V26.7579H17.7993V25.5022C17.7993 25.3021 17.8877 25.1101 18.045 24.9686C18.2023 24.8271 18.4156 24.7476 18.6381 24.7476C19.7173 24.7476 20.5952 23.9577 20.5952 22.9868V20.9724C20.5952 20.7723 20.6835 20.5804 20.8408 20.4388C20.9981 20.2973 21.2115 20.2178 21.4339 20.2178C21.6564 20.2178 21.8697 20.2973 22.027 20.4388C22.1843 20.5804 22.2727 20.7723 22.2727 20.9724V22.9868C22.2717 23.7227 21.9953 24.4368 21.4881 25.0142C20.9809 25.5915 20.2724 25.9984 19.4768 26.1693V27.5125C19.4768 27.7126 19.3885 27.9046 19.2312 28.0461C19.0739 28.1876 18.8605 28.2671 18.6381 28.2671Z" fill="black"/>
</svg>
