<svg width="22" height="22" viewBox="0 0 22 22" fill="none" xmlns="http://www.w3.org/2000/svg">
<path d="M10.9404 0.0524902C11.5037 -0.0312115 12.0807 -0.0145504 12.6445 0.100342C13.6917 0.313849 14.5738 0.954331 15.6064 1.90112C16.1362 2.387 16.0475 3.15436 15.6299 3.57202C15.0749 4.12728 15.0593 5.1137 15.7227 5.7771C16.3862 6.44061 17.3735 6.42511 17.9287 5.86987C18.3465 5.45236 19.1128 5.36443 19.5986 5.89429C20.5455 6.92703 21.186 7.80891 21.3994 8.8562C21.5142 9.41988 21.5309 9.9962 21.4473 10.5593C21.3246 11.3845 20.931 12.0885 20.3447 12.822C19.7745 13.5355 18.9692 14.3401 17.9561 15.3533L15.3535 17.9558C14.3404 18.969 13.5357 19.7742 12.8223 20.3445C12.0888 20.9307 11.3847 21.3244 10.5596 21.447C9.99645 21.5307 9.42013 21.514 8.85645 21.3992C7.80921 21.1858 6.9272 20.5451 5.89453 19.5984C5.36451 19.1123 5.45244 18.3453 5.87012 17.9275C6.42535 17.3723 6.44085 16.3859 5.77734 15.7224C5.11384 15.059 4.12748 15.0744 3.57227 15.6296C3.15444 16.0474 2.38745 16.1354 1.90137 15.6052C0.954761 14.5727 0.31407 13.6913 0.100586 12.6443C-0.0143071 12.0805 -0.0309664 11.5034 0.0527344 10.9402C0.175364 10.1151 0.570039 9.41194 1.15625 8.67847C1.7265 7.96497 2.53074 7.15943 3.54395 6.14624L6.14648 3.5437C7.15968 2.53049 7.96521 1.72626 8.67871 1.15601C9.41218 0.569795 10.1153 0.175119 10.9404 0.0524902ZM4.63672 7.17554C3.5843 8.22796 2.83901 8.97455 2.32715 9.61499C1.82544 10.2428 1.60434 10.7019 1.53613 11.1609C1.47866 11.5478 1.48962 11.9485 1.57031 12.3445C1.68569 12.9106 2.02138 13.4798 2.77539 14.3347C3.9783 13.3911 5.73039 13.5544 6.83789 14.6619C7.94539 15.7694 8.10873 17.5214 7.16504 18.7244C8.01987 19.4783 8.58926 19.814 9.15527 19.9294C9.5512 20.0101 9.95195 20.0211 10.3389 19.9636C10.798 19.8954 11.2577 19.6746 11.8857 19.1726C12.5262 18.6607 13.2727 17.9156 14.3252 16.863L16.8633 14.325C16.9314 14.2568 16.9979 14.1894 17.0635 14.1238L7.37598 4.43628L4.63672 7.17554ZM12.3447 1.57007C11.9487 1.48938 11.5481 1.47841 11.1611 1.53589C10.7021 1.6041 10.2431 1.82519 9.61523 2.3269C9.26669 2.60547 8.8869 2.95398 8.44336 3.38257L18.1162 13.0554C18.5447 12.6119 18.8943 12.234 19.1729 11.8855C19.6748 11.2574 19.8956 10.7977 19.9639 10.3386C20.0213 9.95171 20.0104 9.55096 19.9297 9.15503C19.8143 8.589 19.4786 8.01964 18.7246 7.16479C17.5217 8.10812 15.7695 7.94502 14.6621 6.83765C13.5548 5.73027 13.3917 3.97805 14.335 2.77515C13.4801 2.02114 12.9108 1.68545 12.3447 1.57007Z" fill="white"/>
</svg>
