<svg width="18" height="18" viewBox="0 0 18 18" fill="none" xmlns="http://www.w3.org/2000/svg">
<path d="M8.95833 5.41667C8.38304 5.41667 7.91667 5.88304 7.91667 6.45833C7.91667 6.80351 7.63684 7.08333 7.29167 7.08333C6.94649 7.08333 6.66667 6.80351 6.66667 6.45833C6.66667 5.19268 7.69268 4.16667 8.95833 4.16667C10.224 4.16667 11.25 5.19268 11.25 6.45833C11.25 6.91361 11.1166 7.33964 10.8865 7.69719C10.7424 7.92114 10.5739 8.13495 10.4186 8.32803L10.3348 8.43188C10.2059 8.59139 10.0875 8.7379 9.97823 8.88814C9.70858 9.25875 9.58333 9.53725 9.58333 9.79167V10.2083C9.58333 10.5535 9.30351 10.8333 8.95833 10.8333C8.61316 10.8333 8.33333 10.5535 8.33333 10.2083V9.79167C8.33333 9.12561 8.66034 8.57481 8.96747 8.15271C9.09723 7.97437 9.23943 7.79847 9.36873 7.63852L9.4447 7.54441C9.59903 7.35261 9.7304 7.18387 9.83534 7.02079C9.93951 6.8589 10 6.66664 10 6.45833C10 5.88304 9.53363 5.41667 8.95833 5.41667Z" fill="#175CD3"/>
<path d="M8.95182 12.2917C8.49159 12.2917 8.11849 12.6648 8.11849 13.125C8.11849 13.5852 8.49159 13.9583 8.95182 13.9583H8.95931C9.41955 13.9583 9.79264 13.5852 9.79264 13.125C9.79264 12.6648 9.41955 12.2917 8.95931 12.2917H8.95182Z" fill="#175CD3"/>
<path fill-rule="evenodd" clip-rule="evenodd" d="M0 8.95833C0 4.01078 4.01078 0 8.95833 0C13.9059 0 17.9167 4.01078 17.9167 8.95833C17.9167 13.9059 13.9059 17.9167 8.95833 17.9167C4.01078 17.9167 0 13.9059 0 8.95833ZM8.95833 1.25C4.70114 1.25 1.25 4.70114 1.25 8.95833C1.25 13.2155 4.70114 16.6667 8.95833 16.6667C13.2155 16.6667 16.6667 13.2155 16.6667 8.95833C16.6667 4.70114 13.2155 1.25 8.95833 1.25Z" fill="#175CD3"/>
</svg>
