<svg width="66" height="64" viewBox="0 0 66 64" fill="none" xmlns="http://www.w3.org/2000/svg">
<g filter="url(#filter0_d_4244_10460)">
<rect x="12" y="6" width="41.92" height="40" rx="12" fill="url(#paint0_radial_4244_10460)"/>
<rect x="12" y="6" width="41.92" height="40" rx="12" fill="url(#paint1_radial_4244_10460)"/>
<rect x="12" y="6" width="41.92" height="40" rx="12" fill="url(#paint2_radial_4244_10460)"/>
<path d="M32.96 36.8332C29.9044 36.8332 29.5008 36.8205 28.2785 36.768C27.3368 36.7489 26.4052 36.5786 25.5227 36.2644C24.7649 35.9926 24.0786 35.566 23.5119 35.0144C22.9341 34.4732 22.4873 33.8181 22.2027 33.0948C21.8734 32.2527 21.695 31.3638 21.675 30.4652C21.62 29.3006 21.6067 28.9147 21.6067 25.9998C21.6067 23.1045 21.62 22.7151 21.675 21.5328C21.694 20.6342 21.8721 19.7451 22.2019 18.9032C22.4877 18.1804 22.935 17.5256 23.5128 16.9845C24.0796 16.4331 24.7659 16.0067 25.5236 15.7353C26.406 15.4208 27.3377 15.2506 28.2794 15.2317C29.5008 15.1792 29.9053 15.1665 32.96 15.1665C36.0148 15.1665 36.4192 15.1792 37.6388 15.2317C38.5814 15.2507 39.5139 15.421 40.3973 15.7353C41.1544 16.007 41.84 16.4334 42.4064 16.9845C42.9841 17.5256 43.4315 18.1804 43.7173 18.9032C44.0447 19.7457 44.223 20.6344 44.2451 21.5328C44.3001 22.6991 44.3134 23.0884 44.3134 25.9998C44.3134 28.9113 44.3001 29.3006 44.2459 30.4669C44.2239 31.365 44.0455 32.2534 43.7182 33.0957C43.4261 33.8152 42.98 34.4686 42.4083 35.0144C41.8367 35.5601 41.1521 35.9862 40.3982 36.2653C39.5151 36.5794 38.5829 36.7497 37.6406 36.7688C36.4192 36.8213 36.0148 36.8332 32.96 36.8332ZM31.9427 17.1131C29.8325 17.1131 29.4325 17.1284 28.3735 17.1741C27.6533 17.1819 26.9401 17.3085 26.2651 17.5481C25.7719 17.7219 25.3257 17.999 24.9595 18.359C24.5822 18.7084 24.2919 19.1341 24.1097 19.6048C23.8593 20.2487 23.727 20.9289 23.7186 21.6157C23.6645 22.7524 23.653 23.0943 23.653 25.9922C23.653 28.8901 23.6645 29.2338 23.7186 30.3696C23.727 31.0563 23.8593 31.7366 24.1097 32.3805C24.2919 32.8509 24.5823 33.2763 24.9595 33.6255C25.3257 33.9854 25.7719 34.2625 26.2651 34.4363C26.9405 34.6745 27.6535 34.8007 28.3735 34.8095C29.5789 34.862 29.939 34.873 32.9609 34.873C35.9828 34.873 36.3421 34.862 37.5484 34.8095C38.2681 34.8015 38.981 34.6753 39.6558 34.4363C40.1452 34.256 40.5897 33.98 40.9607 33.6261C41.3317 33.2722 41.6211 32.8482 41.8103 32.3813C42.0607 31.7374 42.193 31.0572 42.2015 30.3704C42.2565 29.2202 42.268 28.8766 42.268 25.9948C42.268 23.1129 42.2565 22.7693 42.2015 21.6191C42.1931 20.9323 42.0608 20.2521 41.8103 19.6082C41.6279 19.1376 41.3376 18.712 40.9606 18.3623C40.5945 18.0023 40.1483 17.7255 39.6549 17.5524C38.9801 17.3134 38.2672 17.1871 37.5475 17.1791C36.3563 17.1275 35.9979 17.1165 32.96 17.1165H31.9427V17.1131ZM32.96 31.5621C31.8069 31.5621 30.6797 31.2358 29.7209 30.6245C28.7621 30.0132 28.0149 29.1443 27.5736 28.1277C27.1324 27.1111 27.017 25.9925 27.242 24.9134C27.467 23.8342 28.0224 22.843 28.8378 22.065C29.6533 21.287 30.6922 20.7573 31.8232 20.5427C32.9542 20.3281 34.1264 20.4384 35.1917 20.8596C36.257 21.2808 37.1675 21.994 37.808 22.9089C38.4485 23.8239 38.7903 24.8995 38.7901 25.9998C38.788 27.4746 38.1731 28.8883 37.0801 29.931C35.9872 30.9737 34.5055 31.5603 32.96 31.5621ZM32.96 22.3884C32.2118 22.3888 31.4804 22.6008 30.8584 22.9977C30.2364 23.3946 29.7517 23.9586 29.4655 24.6183C29.1794 25.278 29.1047 26.0039 29.2508 26.7041C29.3969 27.4043 29.7574 28.0475 30.2865 28.5523C30.8157 29.0571 31.4898 29.4009 32.2237 29.5402C32.9576 29.6795 33.7183 29.608 34.4096 29.3348C35.1009 29.0616 35.6918 28.5989 36.1076 28.0053C36.5234 27.4117 36.7455 26.7138 36.7457 25.9998C36.7445 25.0423 36.3452 24.1243 35.6355 23.4474C34.9257 22.7705 33.9635 22.39 32.96 22.3893V22.3884ZM39.0208 21.5142C38.7512 21.514 38.4877 21.4375 38.2637 21.2944C38.0397 21.1513 37.8652 20.948 37.7624 20.7103C37.6595 20.4725 37.6328 20.211 37.6858 19.9588C37.7387 19.7066 37.8689 19.475 38.0599 19.2934C38.2508 19.1118 38.4939 18.9884 38.7584 18.9387C39.0228 18.889 39.2968 18.9152 39.5457 19.0142C39.7945 19.1131 40.007 19.2803 40.1562 19.4945C40.3055 19.7087 40.3847 19.9603 40.384 20.2175C40.3829 20.5618 40.2387 20.8916 39.9832 21.1346C39.7276 21.3777 39.3815 21.5142 39.0208 21.5142Z" fill="white"/>
</g>
<defs>
<filter id="filter0_d_4244_10460" x="0" y="0" width="65.92" height="64" filterUnits="userSpaceOnUse" color-interpolation-filters="sRGB">
<feFlood flood-opacity="0" result="BackgroundImageFix"/>
<feColorMatrix in="SourceAlpha" type="matrix" values="0 0 0 0 0 0 0 0 0 0 0 0 0 0 0 0 0 0 127 0" result="hardAlpha"/>
<feOffset dy="6"/>
<feGaussianBlur stdDeviation="6"/>
<feColorMatrix type="matrix" values="0 0 0 0 0.882353 0 0 0 0 0.258824 0 0 0 0 0.364706 0 0 0 0.2 0"/>
<feBlend mode="normal" in2="BackgroundImageFix" result="effect1_dropShadow_4244_10460"/>
<feBlend mode="normal" in="SourceGraphic" in2="effect1_dropShadow_4244_10460" result="shape"/>
</filter>
<radialGradient id="paint0_radial_4244_10460" cx="0" cy="0" r="1" gradientTransform="matrix(21.7086 -30 31.44 20.7143 26.9714 36)" gradientUnits="userSpaceOnUse">
<stop stop-color="#B13589"/>
<stop offset="0.79309" stop-color="#C62F94"/>
<stop offset="1" stop-color="#8A3AC8"/>
</radialGradient>
<radialGradient id="paint1_radial_4244_10460" cx="0" cy="0" r="1" gradientTransform="matrix(14.2229 -29.2857 30.6914 13.5714 25.4743 47.4286)" gradientUnits="userSpaceOnUse">
<stop stop-color="#E0E8B7"/>
<stop offset="0.444662" stop-color="#FB8A2E"/>
<stop offset="0.71474" stop-color="#E2425C"/>
<stop offset="1" stop-color="#E2425C" stop-opacity="0"/>
</radialGradient>
<radialGradient id="paint2_radial_4244_10460" cx="0" cy="0" r="1" gradientTransform="matrix(57.64 -7.85714 1.76123 11.7639 9.75429 7.42857)" gradientUnits="userSpaceOnUse">
<stop offset="0.156701" stop-color="#406ADC"/>
<stop offset="0.467799" stop-color="#6A45BE"/>
<stop offset="1" stop-color="#6A45BE" stop-opacity="0"/>
</radialGradient>
</defs>
</svg>
