<svg width="22" height="17" viewBox="0 0 22 17" fill="none" xmlns="http://www.w3.org/2000/svg">
<path d="M7.50781 0C8.50221 0.000119948 9.45603 0.395478 10.1592 1.09863L13.0605 4L16.8018 4C17.7002 3.99997 18.4501 4.00011 19.0449 4.08008C19.6725 4.16451 20.239 4.35031 20.6943 4.80566C21.1497 5.26102 21.3355 5.82747 21.4199 6.45508C21.4999 7.04986 21.5 7.79976 21.5 8.69824V11.8018C21.5 12.7002 21.4999 13.4501 21.4199 14.0449C21.3355 14.6725 21.1497 15.239 20.6943 15.6943C20.239 16.1497 19.6725 16.3355 19.0449 16.4199C18.4501 16.4999 17.7002 16.5 16.8018 16.5H7.69824C6.79976 16.5 6.04986 16.4999 5.45508 16.4199C4.82747 16.3355 4.26102 16.1497 3.80566 15.6943C3.35031 15.239 3.16451 14.6725 3.08008 14.0449C3.00011 13.4501 2.99997 12.7002 3 11.8018L3 10.5H0.75C0.335786 10.5 0 10.1642 0 9.75C0 9.33579 0.335786 9 0.75 9H3L3 7.54785C2.68496 7.44167 2.38109 7.28606 2.10254 7.07715L1.7998 6.84961C1.46873 6.60101 1.40195 6.13106 1.65039 5.7998C1.89898 5.46869 2.36892 5.40194 2.7002 5.65039L3.00293 5.87695C3.67809 6.38333 4.62295 6.31648 5.21973 5.71973C5.51261 5.42684 5.98738 5.42686 6.28027 5.71973L7.78027 7.21973C8.03966 7.47911 8.46033 7.4791 8.71973 7.21973C8.97912 6.96034 8.97912 6.53967 8.71973 6.28027L6.71973 4.28027C6.42686 3.98739 6.42686 3.51261 6.71973 3.21973C7.01261 2.92684 7.48738 2.92686 7.78027 3.21973L8.56055 4L10.9395 4L9.09863 2.15918C8.67678 1.73733 8.10439 1.50012 7.50781 1.5L0.75 1.5C0.335786 1.5 0 1.16421 0 0.75C0 0.335786 0.335786 0 0.75 0L7.50781 0ZM10.0137 5.5C10.6141 6.34503 10.5378 7.52273 9.78027 8.28027C8.93509 9.12543 7.5649 9.12544 6.71973 8.28027L5.6875 7.24805C5.32019 7.47271 4.91532 7.6148 4.5 7.67773L4.5 11.75C4.5 12.714 4.50146 13.3617 4.56641 13.8447C4.62845 14.3061 4.7359 14.5035 4.86621 14.6338C4.99652 14.7641 5.19388 14.8715 5.65527 14.9336C6.13831 14.9985 6.78599 15 7.75 15L16.75 15C17.714 15 18.3617 14.9985 18.8447 14.9336C19.3061 14.8715 19.5035 14.7641 19.6338 14.6338C19.7641 14.5035 19.8715 14.3061 19.9336 13.8447C19.9985 13.3617 20 12.714 20 11.75V8.75C20 7.78599 19.9985 7.13831 19.9336 6.65527C19.8715 6.19388 19.7641 5.99652 19.6338 5.86621C19.5035 5.73591 19.3061 5.62845 18.8447 5.56641C18.3617 5.50146 17.714 5.5 16.75 5.5L10.0137 5.5ZM12.25 7.75C13.6307 7.75 14.75 8.86928 14.75 10.25C14.75 11.6307 13.6307 12.75 12.25 12.75C10.8693 12.75 9.75 11.6307 9.75 10.25C9.75 8.86928 10.8693 7.75 12.25 7.75ZM12.25 9.25C11.6977 9.25 11.25 9.69771 11.25 10.25C11.25 10.8023 11.6977 11.25 12.25 11.25C12.8023 11.25 13.25 10.8023 13.25 10.25C13.25 9.69771 12.8023 9.25 12.25 9.25Z" fill="white"/>
</svg>
