<svg width="164" height="154" viewBox="0 0 164 154" fill="none" xmlns="http://www.w3.org/2000/svg">
<path d="M130.5 37.4646C135.233 37.9246 145.131 36.3998 146.866 26.6196C148.602 16.8394 153.242 14.1315 155.345 14" stroke="#F3603F" stroke-width="3" stroke-linecap="round"/>
<g filter="url(#filter0_d_4198_9686)">
<path d="M83.6115 26.4133C86.544 23.9058 91.3465 23.9058 94.3215 26.4133L101.037 32.1933C102.312 33.2983 104.692 34.1908 106.392 34.1908H113.616C118.121 34.1908 121.819 37.8883 121.819 42.3933V49.6183C121.819 51.2758 122.711 53.6983 123.816 54.9733L129.596 61.6883C132.104 64.6208 132.104 69.4233 129.596 72.3983L123.816 79.1133C122.711 80.3883 121.819 82.7683 121.819 84.4683V91.6933C121.819 96.1983 118.121 99.8958 113.616 99.8958H106.392C104.734 99.8958 102.312 100.788 101.037 101.893L94.3215 107.673C91.389 110.181 86.5865 110.181 83.6115 107.673L76.8965 101.893C75.6215 100.788 73.2415 99.8958 71.5415 99.8958H64.189C59.684 99.8958 55.9866 96.1983 55.9866 91.6933V84.4258C55.9866 82.7683 55.0941 80.3883 54.0316 79.1133L48.2941 72.3558C45.8291 69.4233 45.8291 64.6633 48.2941 61.7308L54.0316 54.9733C55.0941 53.6983 55.9866 51.3183 55.9866 49.6608V42.3508C55.9866 37.8458 59.684 34.1483 64.189 34.1483H71.5415C73.199 34.1483 75.6215 33.2558 76.8965 32.1508L83.6115 26.4133Z" fill="#25306C"/>
<path d="M83.7795 80.4734C82.9295 80.4734 82.122 80.1334 81.527 79.5384L71.242 69.2534C70.0095 68.0209 70.0095 65.9809 71.242 64.7484C72.4745 63.5159 74.5145 63.5159 75.747 64.7484L83.7795 72.7809L102.054 54.5059C103.287 53.2734 105.327 53.2734 106.559 54.5059C107.792 55.7384 107.792 57.7784 106.559 59.0109L86.032 79.5384C85.437 80.1334 84.6295 80.4734 83.7795 80.4734Z" fill="white"/>
</g>
<path d="M124.5 112C128.917 113.276 137.457 118.125 136.279 127.312" stroke="#F7B23B" stroke-width="3" stroke-linecap="round" stroke-linejoin="round"/>
<path d="M1.50037 118.156C8.27852 120.709 22.8912 122.54 27.1166 109.442M27.1166 109.442C27.7328 105.832 27.1167 98.6933 19.7223 99.0102C18.3138 102.487 17.8208 109.442 27.1166 109.442ZM27.1166 109.442C30.1976 110.014 37.3631 109.468 41.3772 102.707" stroke="#6E89FA" stroke-width="3" stroke-linecap="round" stroke-linejoin="round"/>
<circle cx="113.064" cy="142.25" r="4.53519" fill="#637BFE"/>
<circle cx="147.036" cy="68.5352" r="4.03519" stroke="#C05EFD"/>
<circle cx="73.4668" cy="4.96641" r="4.96641" fill="#53B175"/>
<circle cx="89.1232" cy="13.6228" r="2.62281" fill="#F3603F"/>
<circle cx="46.0968" cy="36.5964" r="4.09644" stroke="#F7B23B"/>
<circle cx="45.5545" cy="130.054" r="4.55414" stroke="#53B175"/>
<circle cx="2.41456" cy="2.41456" r="2.41456" transform="matrix(-1 0 0 1 101.377 134.635)" fill="#53B175"/>
<defs>
<filter id="filter0_d_4198_9686" x="14.4453" y="4.53271" width="149.032" height="149.021" filterUnits="userSpaceOnUse" color-interpolation-filters="sRGB">
<feFlood flood-opacity="0" result="BackgroundImageFix"/>
<feColorMatrix in="SourceAlpha" type="matrix" values="0 0 0 0 0 0 0 0 0 0 0 0 0 0 0 0 0 0 127 0" result="hardAlpha"/>
<feOffset dy="12"/>
<feGaussianBlur stdDeviation="16"/>
<feComposite in2="hardAlpha" operator="out"/>
<feColorMatrix type="matrix" values="0 0 0 0 0.251908 0 0 0 0 0.0276215 0 0 0 0 0.330712 0 0 0 0.15 0"/>
<feBlend mode="normal" in2="BackgroundImageFix" result="effect1_dropShadow_4198_9686"/>
<feBlend mode="normal" in="SourceGraphic" in2="effect1_dropShadow_4198_9686" result="shape"/>
</filter>
</defs>
</svg>
