<svg width="20" height="20" viewBox="0 0 20 20" fill="none" xmlns="http://www.w3.org/2000/svg">
<path d="M19.9998 10C19.9998 15.5228 15.5226 20 9.99975 20C4.47713 20 0 15.5228 0 10C0 4.47713 4.47713 0 9.99977 0C15.5226 0 19.9998 4.47713 19.9998 10Z" fill="#C36769"/>
<path d="M15.6272 10.7806C15.6272 11.6535 15.4285 12.48 15.074 13.2173L12.2989 15.9189C11.5972 16.2335 10.8194 16.4083 10.0009 16.4083C9.73395 16.4084 9.46736 16.3896 9.2031 16.352C6.47347 15.9646 4.37451 13.6178 4.37451 10.7806C4.37451 7.94322 6.47368 5.59627 9.20371 5.20902C9.46777 5.1716 9.73414 5.15286 10.0008 5.15295C13.1083 5.15295 15.6272 7.67244 15.6272 10.7806Z" fill="#DEDEDE"/>
<path d="M14.0327 10.7806C14.0327 11.6535 13.834 12.4799 13.4795 13.2172L10.7044 15.9188C10.2268 16.133 9.72138 16.2788 9.2031 16.352C6.47347 15.9645 4.37451 13.6178 4.37451 10.7806C4.37451 7.94318 6.47368 5.59623 9.20371 5.20898C11.9335 5.59623 14.0327 7.94318 14.0327 10.7806Z" fill="#EFF3F9"/>
<path d="M10.0007 16.5654C8.45584 16.5654 7.00346 15.9637 5.91115 14.8711C4.81886 13.7785 4.21729 12.3258 4.21729 10.7806C4.21729 9.23543 4.81886 7.78272 5.91115 6.69016C7.00346 5.59757 8.45584 4.99585 10.0007 4.99585C11.5456 4.99585 12.9979 5.59757 14.0903 6.69016C15.1825 7.78272 15.7841 9.23541 15.7841 10.7806C15.7841 11.6578 15.5928 12.5005 15.2154 13.2854C15.1973 13.3229 15.1651 13.3517 15.1258 13.3655C15.0865 13.3793 15.0433 13.3769 15.0058 13.3588C14.9872 13.3499 14.9705 13.3374 14.9568 13.322C14.943 13.3067 14.9324 13.2887 14.9256 13.2693C14.9188 13.2498 14.9158 13.2292 14.917 13.2086C14.9181 13.188 14.9233 13.1678 14.9323 13.1492C15.289 12.4072 15.47 11.6103 15.47 10.7806C15.47 7.76412 13.0165 5.31004 10.0007 5.31004C6.98495 5.31004 4.53146 7.76414 4.53146 10.7806C4.53146 13.7971 6.98495 16.2512 10.0007 16.2512C10.7789 16.2512 11.5304 16.0912 12.2345 15.7755C12.2723 15.7593 12.3151 15.7586 12.3535 15.7736C12.3919 15.7886 12.4228 15.8181 12.4397 15.8557C12.4565 15.8933 12.458 15.936 12.4436 15.9746C12.4293 16.0132 12.4003 16.0447 12.363 16.0622C11.6183 16.3961 10.8235 16.5654 10.0007 16.5654Z" fill="#25306C"/>
<path d="M10.0007 6.3097C9.98007 6.3097 9.95965 6.30564 9.94059 6.29775C9.92153 6.28985 9.90421 6.27828 9.88962 6.26369C9.87503 6.24911 9.86346 6.23179 9.85557 6.21273C9.84768 6.19367 9.84362 6.17324 9.84362 6.15261V5.15281C9.84362 5.06604 9.91393 4.99573 10.0007 4.99573C10.0875 4.99573 10.1578 5.06604 10.1578 5.15281V6.15261C10.1578 6.23939 10.0875 6.3097 10.0007 6.3097ZM10.0007 16.5652C9.98007 16.5652 9.95965 16.5612 9.94059 16.5533C9.92153 16.5454 9.90421 16.5338 9.88962 16.5192C9.87503 16.5047 9.86346 16.4873 9.85557 16.4683C9.84768 16.4492 9.84362 16.4288 9.84362 16.4082V15.4084C9.84362 15.3216 9.91393 15.2513 10.0007 15.2513C10.0875 15.2513 10.1578 15.3216 10.1578 15.4084V16.4082C10.1578 16.4288 10.1537 16.4492 10.1458 16.4683C10.1379 16.4873 10.1264 16.5047 10.1118 16.5192C10.0972 16.5338 10.0799 16.5454 10.0608 16.5533C10.0418 16.5612 10.0213 16.5652 10.0007 16.5652ZM15.627 10.9376H14.6275C14.5407 10.9376 14.4704 10.8672 14.4704 10.7805C14.4704 10.6937 14.5407 10.6234 14.6275 10.6234H15.627C15.6687 10.6234 15.7087 10.6399 15.7381 10.6694C15.7676 10.6988 15.7841 10.7388 15.7841 10.7805C15.7841 10.8221 15.7676 10.8621 15.7381 10.8915C15.7087 10.921 15.6687 10.9376 15.627 10.9376ZM5.37394 10.9376H4.37437C4.2876 10.9376 4.21729 10.8672 4.21729 10.7805C4.21729 10.6937 4.2876 10.6234 4.37437 10.6234H5.37394C5.46071 10.6234 5.53102 10.6937 5.53102 10.7805C5.53102 10.8672 5.46069 10.9376 5.37394 10.9376ZM12.1427 10.9376H10.0007C9.98007 10.9376 9.95965 10.9335 9.94059 10.9256C9.92153 10.9177 9.90421 10.9061 9.88962 10.8915C9.87503 10.877 9.86346 10.8596 9.85557 10.8406C9.84768 10.8215 9.84362 10.8011 9.84362 10.7805V7.40898C9.84362 7.32221 9.91393 7.2519 10.0007 7.2519C10.0875 7.2519 10.1578 7.32221 10.1578 7.40898V10.6234H12.1427C12.1635 10.6232 12.1841 10.627 12.2034 10.6348C12.2227 10.6426 12.2402 10.6542 12.255 10.6688C12.2698 10.6834 12.2815 10.7008 12.2895 10.72C12.2975 10.7391 12.3016 10.7597 12.3016 10.7805C12.3016 10.8013 12.2975 10.8218 12.2895 10.841C12.2815 10.8602 12.2698 10.8776 12.255 10.8922C12.2402 10.9068 12.2227 10.9183 12.2034 10.9261C12.1841 10.9339 12.1635 10.9378 12.1427 10.9376Z" fill="#25306C"/>
<path d="M10.0008 5.30987C9.98021 5.30987 9.95978 5.30581 9.94072 5.29792C9.92166 5.29003 9.90434 5.27846 9.88975 5.26387C9.87517 5.24928 9.86359 5.23196 9.8557 5.2129C9.84781 5.19384 9.84375 5.17341 9.84375 5.15279V3.31492C9.84375 3.22815 9.91406 3.15784 10.0008 3.15784C10.0876 3.15784 10.1579 3.22815 10.1579 3.31492V5.15279C10.1579 5.23956 10.0876 5.30987 10.0008 5.30987Z" fill="#25306C"/>
<path d="M11.2248 3.47201H8.77671C8.68994 3.47201 8.61963 3.4017 8.61963 3.31492C8.61963 3.22815 8.68994 3.15784 8.77671 3.15784H11.2248C11.3116 3.15784 11.3819 3.22815 11.3819 3.31492C11.3819 3.4017 11.3116 3.47201 11.2248 3.47201ZM13.7805 6.69874C13.7512 6.69871 13.7225 6.6905 13.6976 6.67501C13.6727 6.65953 13.6527 6.63741 13.6397 6.61113C13.6267 6.58486 13.6214 6.55548 13.6242 6.52632C13.6271 6.49717 13.6381 6.46939 13.6559 6.44613L14.6318 5.1718C14.6574 5.13937 14.6947 5.11831 14.7356 5.11316C14.7766 5.10802 14.8179 5.11921 14.8507 5.14432C14.8835 5.16943 14.9051 5.20643 14.9108 5.24732C14.9165 5.28822 14.9059 5.32972 14.8812 5.36284L13.9053 6.63716C13.8906 6.65634 13.8717 6.67188 13.8501 6.68256C13.8284 6.69324 13.8046 6.69878 13.7805 6.69874Z" fill="#25306C"/>
<path d="M15.4139 5.92813C15.3794 5.92816 15.3459 5.91676 15.3185 5.89573L14.0039 4.88847C13.9709 4.86313 13.9492 4.8257 13.9437 4.78439C13.9383 4.74309 13.9494 4.70131 13.9748 4.66824C14.0001 4.63517 14.0376 4.61352 14.0789 4.60805C14.1202 4.60258 14.1619 4.61374 14.195 4.63908L15.5096 5.64634C15.5357 5.66631 15.5548 5.69395 15.5644 5.72538C15.5739 5.75681 15.5734 5.79044 15.5628 5.82154C15.5523 5.85264 15.5322 5.87965 15.5055 5.89877C15.4788 5.91789 15.4468 5.92816 15.4139 5.92813Z" fill="#25306C"/>
<path d="M15.8324 14.7637C15.8324 15.8439 14.9567 16.7195 13.8768 16.7195C12.7968 16.7195 11.9214 15.8439 11.9214 14.7637C11.9214 13.6835 12.7968 12.8079 13.8768 12.8079C14.9567 12.8079 15.8324 13.6835 15.8324 14.7637Z" fill="#A92629"/>
<path d="M13.8768 14.9854C13.8562 14.9854 13.8358 14.9814 13.8167 14.9735C13.7976 14.9656 13.7803 14.954 13.7657 14.9394C13.7511 14.9248 13.7396 14.9075 13.7317 14.8885C13.7238 14.8694 13.7197 14.849 13.7197 14.8284V13.9614C13.7197 13.8746 13.79 13.8043 13.8768 13.8043C13.9636 13.8043 14.0339 13.8746 14.0339 13.9614V14.8284C14.0339 14.9151 13.9636 14.9854 13.8768 14.9854ZM13.8768 15.7232C13.8562 15.7232 13.8358 15.7191 13.8167 15.7112C13.7976 15.7033 13.7803 15.6917 13.7657 15.6772C13.7511 15.6626 13.7396 15.6452 13.7317 15.6262C13.7238 15.6071 13.7197 15.5867 13.7197 15.5661V15.5559C13.7197 15.4691 13.79 15.3988 13.8768 15.3988C13.9636 15.3988 14.0339 15.4691 14.0339 15.5559V15.5661C14.0339 15.6077 14.0173 15.6477 13.9879 15.6771C13.9584 15.7066 13.9185 15.7232 13.8768 15.7232Z" fill="#F4F5F8"/>
</svg>
