<svg width="12" height="13" viewBox="0 0 12 13" fill="none" xmlns="http://www.w3.org/2000/svg">
<path d="M5.6875 0C8.76476 1.06727e-07 11.3748 2.54257 11.375 5.64355C11.375 7.22641 10.704 8.55773 9.7627 9.65625C8.82519 10.7503 7.60425 11.6329 6.45703 12.335L6.44336 12.3428C6.21281 12.4729 5.95231 12.541 5.6875 12.541C5.42269 12.541 5.16219 12.4729 4.93164 12.3428L4.92383 12.3389L4.91602 12.334C3.77287 11.6263 2.5522 10.7461 1.61426 9.65527C0.672161 8.55955 0 7.23166 0 5.64355C0.000177882 2.54257 2.61024 0 5.6875 0ZM5.6875 0.875C3.08266 0.875 0.875179 3.03657 0.875 5.64355C0.875 6.96505 1.42906 8.09835 2.27734 9.08496C3.12749 10.0737 4.25723 10.8966 5.36816 11.585C5.46552 11.6384 5.57569 11.666 5.6875 11.666C5.79955 11.666 5.90933 11.6377 6.00684 11.584C7.11818 10.9033 8.24884 10.0786 9.09863 9.08691C9.94667 8.09723 10.5 6.96028 10.5 5.64355C10.4998 3.03657 8.29234 0.875 5.6875 0.875ZM5.6875 3.20801C7.05671 3.20801 8.16699 4.31829 8.16699 5.6875C8.16682 7.05656 7.0566 8.16602 5.6875 8.16602C4.3184 8.16602 3.20818 7.05656 3.20801 5.6875C3.20801 4.31829 4.31829 3.20801 5.6875 3.20801ZM5.6875 4.08301C4.80154 4.08301 4.08301 4.80154 4.08301 5.6875C4.08318 6.57331 4.80165 7.29102 5.6875 7.29102C6.57335 7.29102 7.29182 6.57331 7.29199 5.6875C7.29199 4.80154 6.57346 4.08301 5.6875 4.08301Z" fill="#F4F5F8"/>
</svg>
