<svg width="10" height="11" viewBox="0 0 10 11" fill="none" xmlns="http://www.w3.org/2000/svg">
<path d="M4.875 0C7.51274 0 9.75 2.17978 9.75 4.83789C9.75 6.19462 9.17499 7.33576 8.36816 8.27734C7.56451 9.21512 6.51757 9.97149 5.53418 10.5732L5.52832 10.5762L5.52246 10.5801C5.32493 10.6915 5.10184 10.75 4.875 10.75C4.64816 10.75 4.42507 10.6915 4.22754 10.5801L4.21387 10.5723C3.23405 9.96571 2.18775 9.21135 1.38379 8.27637C0.576279 7.33718 2.15198e-06 6.19912 0 4.83789C0 2.17978 2.23726 0 4.875 0ZM4.875 0.75C2.64219 0.75 0.75 2.60321 0.75 4.83789C0.750002 5.97056 1.22509 6.94147 1.95215 7.78711C2.68083 8.63461 3.64935 9.33969 4.60156 9.92969C4.68501 9.97551 4.77916 10 4.875 10C4.97112 10 5.06578 9.97577 5.14941 9.92969C6.10193 9.34631 7.07048 8.63904 7.79883 7.78906C8.52571 6.94076 9 5.96651 9 4.83789C9 2.60321 7.10781 0.75 4.875 0.75ZM4.875 2.75C6.04861 2.75 7 3.70139 7 4.875C7 6.04861 6.04861 7 4.875 7C3.70139 7 2.75 6.04861 2.75 4.875C2.75 3.70139 3.70139 2.75 4.875 2.75ZM4.875 3.5C4.11561 3.5 3.5 4.11561 3.5 4.875C3.5 5.63439 4.11561 6.25 4.875 6.25C5.63439 6.25 6.25 5.63439 6.25 4.875C6.25 4.11561 5.63439 3.5 4.875 3.5Z" fill="#7A7A90"/>
</svg>
