<svg width="102" height="102" viewBox="0 0 102 102" fill="none" xmlns="http://www.w3.org/2000/svg">
<path d="M51 102C79.1665 102 102 79.1665 102 51C102 22.8335 79.1665 0 51 0C22.8335 0 0 22.8335 0 51C0 79.1665 22.8335 102 51 102Z" fill="#BA5154"/>
<path d="M51 61.2C49.1531 61.1999 47.3779 60.4852 46.0462 59.2055C44.7145 57.9257 43.9296 56.1804 43.856 54.3349L42.9137 30.5402C42.8759 29.5784 43.0327 28.6189 43.3747 27.7191C43.7166 26.8194 44.2368 25.9979 44.9039 25.304C45.571 24.6101 46.3713 24.0581 47.2569 23.681C48.1425 23.3039 49.0952 23.1094 50.0577 23.1094H51.9423C52.9049 23.1094 53.8575 23.3039 54.7431 23.681C55.6287 24.0581 56.4291 24.6101 57.0962 25.304C57.7633 25.9979 58.2834 26.8194 58.6254 27.7191C58.9673 28.6189 59.1241 29.5784 59.0863 30.5402L58.144 54.3349C58.0704 56.1804 57.2856 57.9257 55.9539 59.2055C54.6222 60.4852 52.8469 61.1999 51 61.2Z" fill="white"/>
<path d="M58.1381 71.7526C58.1381 67.8104 54.9423 64.6146 51.0001 64.6146C47.0579 64.6146 43.8621 67.8104 43.8621 71.7526C43.8621 75.6948 47.0579 78.8906 51.0001 78.8906C54.9423 78.8906 58.1381 75.6948 58.1381 71.7526Z" fill="white"/>
</svg>
