<svg width="64" height="64" viewBox="0 0 64 64" fill="none" xmlns="http://www.w3.org/2000/svg">
<g filter="url(#filter0_d_4244_10454)">
<rect x="12" y="6" width="40" height="40" rx="12" fill="url(#paint0_linear_4244_10454)"/>
</g>
<path d="M32.4854 14.3335C39.3697 14.3336 44.9492 19.3029 44.9492 25.4312C44.9491 31.5594 39.3687 36.5287 32.4844 36.5288C31.2362 36.5299 29.9935 36.3636 28.7939 36.0347L24.6113 38.3032V34.0347C23.1997 33.0382 22.0497 31.7416 21.2529 30.2485C20.4563 28.7556 20.0337 27.1064 20.0195 25.4312C20.0195 19.302 25.6009 14.3335 32.4854 14.3335ZM34.3789 25.5376L31.1562 22.3911L24.4316 29.1821L30.5488 25.979L33.7451 29.1821L40.4297 22.3911L34.3789 25.5376Z" fill="white"/>
<defs>
<filter id="filter0_d_4244_10454" x="0" y="0" width="64" height="64" filterUnits="userSpaceOnUse" color-interpolation-filters="sRGB">
<feFlood flood-opacity="0" result="BackgroundImageFix"/>
<feColorMatrix in="SourceAlpha" type="matrix" values="0 0 0 0 0 0 0 0 0 0 0 0 0 0 0 0 0 0 127 0" result="hardAlpha"/>
<feOffset dy="6"/>
<feGaussianBlur stdDeviation="6"/>
<feColorMatrix type="matrix" values="0 0 0 0 0.482353 0 0 0 0 0.282353 0 0 0 0 1 0 0 0 0.2 0"/>
<feBlend mode="normal" in2="BackgroundImageFix" result="effect1_dropShadow_4244_10454"/>
<feBlend mode="normal" in="SourceGraphic" in2="effect1_dropShadow_4244_10454" result="shape"/>
</filter>
<linearGradient id="paint0_linear_4244_10454" x1="44.8757" y1="8.20118" x2="22.6262" y2="45.6354" gradientUnits="userSpaceOnUse">
<stop stop-color="#FD607A"/>
<stop offset="0.463542" stop-color="#913BFF"/>
<stop offset="1" stop-color="#1A7BFF"/>
</linearGradient>
</defs>
</svg>
