<svg width="87" height="28" viewBox="0 0 87 28" fill="none" xmlns="http://www.w3.org/2000/svg">
<path fill-rule="evenodd" clip-rule="evenodd" d="M5.08521 3.85986L10.3943 3.86281C10.8718 3.86281 11.054 3.96648 11.3194 4.27011L12.5042 5.63442C12.5046 5.63479 10.4146 4.22584 5.08521 3.85986" fill="#00334C"/>
<path fill-rule="evenodd" clip-rule="evenodd" d="M31.4115 14.548H24.2639C21.2804 14.548 19.7731 14.0492 18.3189 12.4252L13.2216 6.58688H16.5657C19.7674 6.58688 21.5618 7.92758 21.5618 7.92758L18.9432 4.75293C17.6194 3.21523 16.1796 2.54562 13.6081 2.54562H4.75106C2.83115 2.54562 2.0251 2.33312 0.971423 1.11897L0 0H13.2553C17.9462 0 19.8921 1.24662 22.4297 4.17666" fill="#00A5DB"/>
<path fill-rule="evenodd" clip-rule="evenodd" d="M16.6211 24.8869C16.6211 24.8869 16.6189 20.8013 16.6289 20.1778C16.6388 19.565 16.6921 18.704 16.6921 18.704C16.6921 18.704 16.3812 19.1681 15.9795 19.6835C15.583 20.1944 12.9064 23.5048 12.9064 23.5048C12.9064 23.5048 9.97868 19.9428 9.71288 19.6185C9.44751 19.2946 9.00552 18.6331 9.00552 18.6331C9.00552 18.6331 9.04535 19.3433 9.07089 19.8517C9.10076 20.4324 9.10076 24.8865 9.10076 24.8865H7.03064V16.5638H9.34232L12.9224 20.8792L16.4505 16.5638H18.6907V24.8872M41.3876 23.2307V16.5601H43.4737V25.6196M45.0226 20.6951C45.0032 17.9465 46.907 16.3594 50.433 16.3594C52.7767 16.3594 54.2451 17.0109 54.2585 17.0154L54.3235 17.0463L53.5927 18.6752L53.5035 18.6335C53.4875 18.6261 52.2096 17.9429 50.4927 17.9429C48.2356 17.9429 47.1369 18.8394 47.1369 20.6866C47.1369 22.6618 48.272 23.4617 50.704 23.4303C52.6633 23.4015 54.2403 22.7231 54.2403 22.7231V24.3906C54.2403 24.3906 52.8659 25.1167 50.6057 25.1167C46.6161 25.116 45.0387 23.5392 45.0226 20.6951ZM73.8783 24.8883L69.3519 19.9805L68.1238 18.5586C68.1238 18.5586 68.2052 19.1751 68.2134 20.2431C68.2212 21.3108 68.268 24.8902 68.268 24.8902H66.2004V16.5597H68.5121L72.6519 21.0242L73.9519 22.5298C73.9519 22.5298 73.9368 21.6277 73.9047 21.0743C73.8515 20.1494 73.8355 16.5634 73.8355 16.5634H75.9034V24.888M58.9143 25.0909C56.3014 25.0909 55.3702 23.6878 55.3702 22.3748C55.3702 20.943 56.3087 20.0465 56.3468 20.0148L62.1983 20.0111V19.7742C62.1706 18.1435 61.4741 17.8816 59.5265 17.9392C59.1537 17.9491 57.8126 18.0757 56.7035 18.4309C56.6217 18.2432 56.0118 16.8774 56.0118 16.8774L56.0711 16.8626C57.3234 16.5298 58.6347 16.3557 59.8671 16.3557C61.5091 16.3557 62.8109 16.6763 63.3433 17.2183C63.9736 17.7687 64.2727 18.6401 64.2727 19.9502L64.2702 24.8905H62.2096V23.5226C61.8676 24.2047 60.7468 25.0909 58.9143 25.0909ZM57.6126 21.4075C57.5511 21.4827 57.375 21.8207 57.375 22.2852C57.375 22.9146 57.7014 23.6627 59.2446 23.6627C60.9836 23.6627 62.1979 22.7902 62.1979 21.4075H57.6126ZM81.0069 25.0909C78.3939 25.0909 77.4645 23.6878 77.4645 22.3748C77.4645 20.943 78.3995 20.0465 78.4367 20.0148L84.293 20.0111V19.7742C84.2592 18.1435 83.5636 17.8816 81.6159 17.9392C81.2458 17.9491 79.9047 18.0757 78.7947 18.4309C78.7134 18.2432 78.1012 16.8774 78.1012 16.8774L78.1614 16.8626C79.4129 16.5298 80.7242 16.3557 81.9566 16.3557C83.5986 16.3557 84.8986 16.6763 85.4315 17.2183C86.0657 17.7687 86.3622 18.6401 86.3622 19.9502L86.3605 24.8905H84.3016V23.5226C83.9618 24.2047 82.8367 25.0909 81.0069 25.0909M79.703 21.4075C79.6437 21.4827 79.4649 21.8207 79.4649 22.2852C79.4649 22.9146 79.7921 23.6627 81.3372 23.6627C83.0731 23.6627 84.2887 22.7902 84.2887 21.4075H79.703Z" fill="#00334C"/>
<path fill-rule="evenodd" clip-rule="evenodd" d="M41.6374 27.5538C40.7855 27.5538 39.9024 27.2535 39.2089 26.4699L35.0622 21.7288L34.2661 22.4482C32.447 24.2039 29.9232 25.0916 26.7678 25.0916C22.3142 25.0916 20.3986 23.7007 20.3311 20.5593C20.2679 17.7716 22.0744 16.3586 25.5194 16.3586C28.1284 16.3586 29.5626 17.4577 29.5626 19.4562C29.5626 20.4741 29.3726 21.4027 29.3726 21.4027L22.5263 21.4063C22.5358 21.6779 22.6982 22.1711 23.0198 22.5253C23.6674 23.2477 24.8739 23.5827 26.7319 23.5827C29.2401 23.5827 31.4886 22.7282 33.0691 21.175L33.9288 20.3748L30.4622 16.5627H33.1345L35.2189 18.9906L37.392 16.5627L40.1375 16.559L36.3795 20.3475L42.7526 27.5531M22.5107 20.004H27.4453C27.4635 19.9362 27.5029 19.5599 27.5029 19.3518C27.5029 18.0384 26.3635 17.7617 25.409 17.7617C24.0774 17.7617 23.212 18.1262 22.7899 18.8688C22.6436 19.1256 22.509 19.6458 22.5107 20.004" fill="#00334C"/>
</svg>
