<svg width="87" height="20" viewBox="0 0 87 20" fill="none" xmlns="http://www.w3.org/2000/svg">
<path fill-rule="evenodd" clip-rule="evenodd" d="M71.3296 7.13292C71.1214 7.12555 69.9668 7.07507 68.8112 7.07585C68.6322 7.39156 68.2051 8.18893 67.5242 9.60085C66.5467 11.5987 66.2343 12.3291 66.0899 12.7855C65.9468 12.7716 65.4655 12.7258 64.7765 12.7258C64.1513 12.7258 63.5081 12.7757 63.4027 12.7855C63.6895 12.3635 64.1767 11.4376 65.0688 9.60085C65.7218 8.2614 66.1284 7.32656 66.2296 7.07585C64.8931 7.062 63.7774 7.10679 63.4737 7.13292C63.5988 6.98305 63.7831 6.61284 63.8215 6.41428C64.1003 6.42232 66.1456 6.4728 67.8165 6.4728C69.0617 6.4728 71.4846 6.41428 71.6824 6.41428C71.5575 6.56404 71.3828 6.90566 71.3296 7.13292V7.13292ZM47.864 6.41439C47.4725 6.71536 46.7055 7.58777 44.9137 9.61056C44.0157 10.6246 42.5627 12.2696 42.2782 12.7839C42.1712 12.7717 41.669 12.7251 41.1466 12.7251C40.7114 12.7251 40.2913 12.7717 40.2099 12.7856C40.2509 12.4143 40.2195 11.7771 40.1528 10.4276C40.1038 9.50592 40.0724 8.66612 40.0428 8.25325C39.6961 8.64155 38.7767 9.69555 37.8667 10.7138C36.9232 11.7771 36.3267 12.551 36.1794 12.7857C36.0985 12.775 35.5954 12.7252 35.2315 12.7252C34.8411 12.7252 34.4658 12.7718 34.3578 12.7857C34.3607 12.4594 34.3425 11.383 34.2251 9.60453C34.1191 7.54232 34.0712 6.86367 33.9892 6.41272C34.1658 6.43729 34.5964 6.47302 35.2429 6.47302C35.8998 6.47302 36.2609 6.43394 36.4193 6.41272C36.3592 6.73167 36.355 7.69699 36.4058 8.67081C36.4686 9.73776 36.5014 10.484 36.5215 10.9526C36.8013 10.6378 37.4237 9.93107 38.1857 9.07787C39.1148 8.04341 40.1432 6.88779 40.419 6.41439C40.5011 6.42646 41.0579 6.47291 41.4312 6.47291C41.8859 6.47291 42.2237 6.42567 42.323 6.41261C42.2544 6.65841 42.239 7.47632 42.2953 8.64233C42.3423 9.62039 42.4108 10.8177 42.4215 11.1357C42.7211 10.7947 43.6906 9.69935 44.4277 8.86758C45.944 7.15726 46.3423 6.63953 46.4459 6.41439C46.5353 6.43774 46.7991 6.47291 47.1183 6.47291C47.5165 6.4728 47.7741 6.43059 47.864 6.41439V6.41439ZM54.8448 7.13515C54.5012 7.11326 52.8043 7.0572 51.7184 7.07809C51.6032 7.27933 51.2241 8.00031 50.7187 9.04113C51.5884 9.06547 53.6047 8.9921 54.0353 8.96686C53.901 9.12086 53.7449 9.44707 53.6831 9.6855C53.1259 9.65467 50.8254 9.60744 50.4468 9.59928C49.7251 11.0833 49.4343 11.7501 49.2989 12.0813C49.5331 12.0911 50.2103 12.1255 50.8874 12.1255C51.8918 12.1255 52.5881 12.0821 52.7521 12.0699C52.5846 12.2564 52.4463 12.5981 52.4023 12.7855C51.9593 12.7733 49.7792 12.7274 48.4495 12.729C47.5574 12.729 46.5007 12.7798 46.3235 12.7855C46.5472 12.4297 47.1327 11.3557 47.9897 9.60085C48.8277 7.88383 49.2609 6.87975 49.4222 6.41328C49.6574 6.43539 50.5222 6.4728 51.2443 6.4728C52.6666 6.4785 54.4793 6.43215 55.199 6.41328C55.0551 6.55421 54.8774 6.97892 54.8448 7.13515ZM19.4993 6.4728C20.2642 6.4728 20.6843 6.42958 20.8494 6.41428C20.6595 6.71034 20.0359 7.89276 19.2043 9.60085C18.3907 11.2731 17.8971 12.4141 17.7692 12.7863C17.6571 12.7772 17.1408 12.7257 16.4572 12.7257C15.7314 12.7257 15.2501 12.7674 15.0821 12.7863C15.3045 12.4297 15.8564 11.435 16.7492 9.60219C17.6497 7.74937 18.0862 6.69883 18.1758 6.41428C18.2721 6.42567 18.6771 6.4728 19.4993 6.4728V6.4728ZM27.2058 7.01733C26.6636 7.01733 26.2701 7.06435 26.1535 7.07418C26.0037 7.32958 25.5042 8.31032 24.8703 9.60185C24.0893 11.1955 23.8229 11.8171 23.6978 12.1279C23.8535 12.1426 24.395 12.1867 24.9335 12.1867C28.0061 12.1867 29.9321 10.4919 29.9321 8.99065C29.932 7.89276 28.98 7.01733 27.2058 7.01733V7.01733ZM32.5186 9.06637C32.5186 11.1807 29.7564 12.7855 26.0983 12.7855C25.3725 12.7846 23.3929 12.7258 22.5568 12.7258C21.8873 12.7258 21.0166 12.756 20.7494 12.7855C21.0482 12.2906 21.5734 11.3418 22.4156 9.60085C23.2291 7.92224 23.7468 6.72675 23.8478 6.41428C23.9862 6.42556 24.7778 6.4728 25.3841 6.4728C25.9324 6.4728 27.0858 6.41428 28.0539 6.41428C31.2745 6.41439 32.5186 7.87344 32.5186 9.06637V9.06637ZM13.5688 6.4728C14.3871 6.4728 15.0373 6.42724 15.2139 6.41428C15.0307 6.76416 14.3994 7.84552 13.5459 9.60732C12.6685 11.4187 12.2474 12.4631 12.1147 12.7854C11.9475 12.7642 11.4815 12.7257 10.8017 12.7257C10.1475 12.7257 9.58709 12.7714 9.42578 12.7854C9.65851 12.3511 10.3032 11.2108 11.0946 9.60732C11.406 8.97669 11.6399 8.43149 11.8672 7.89265C11.3753 8.31021 9.4647 9.94101 8.03428 11.1471C7.17125 11.8735 6.50754 12.4697 6.25175 12.7837C6.0185 12.711 5.50103 12.7143 5.28337 12.7845C5.26437 12.5842 5.0513 11.9348 4.59214 10.6203C4.25694 9.66249 3.73645 8.2288 3.60974 7.87635C3.43677 8.21584 3.06435 8.84558 2.70347 9.60643C1.78475 11.4824 1.38653 12.433 1.28445 12.7845C1.20805 12.7666 0.950165 12.7273 0.623616 12.7273C0.244519 12.7273 0.0976242 12.7641 0 12.7837C0.231022 12.4991 0.661748 11.6762 1.66931 9.60074C2.54675 7.79248 3.00984 6.72162 3.10628 6.41417C3.23994 6.43438 3.71169 6.47269 4.39139 6.47269C4.99194 6.47269 5.33199 6.43204 5.45438 6.41417C5.47141 6.71681 5.71776 7.40865 6.11874 8.52016C6.43586 9.39983 6.82911 10.5156 6.97246 10.9123C7.27503 10.6538 8.65016 9.48928 9.7788 8.5282C11.2206 7.30021 11.8077 6.70207 12.0827 6.41082C12.1957 6.42232 12.8565 6.4728 13.5688 6.4728V6.4728ZM62.6213 6.78616C62.4408 7.00516 62.2402 7.36632 62.1514 7.6626C62.0122 7.5545 61.1388 6.82525 59.7554 6.82525C58.8475 6.82525 58.2755 7.18161 58.2755 7.58856C58.2755 8.06463 58.68 8.2623 59.4099 8.68131C60.2085 9.13795 61.3995 9.76121 61.3995 10.8011C61.3995 12.1695 59.6882 12.9 57.7726 12.9C55.9288 12.9 54.8226 12.4141 54.5828 12.3028C54.7872 12.0133 54.994 11.5791 55.0656 11.3279C55.2124 11.4539 56.1487 12.3724 57.6464 12.3724C58.7255 12.3724 59.2909 11.8948 59.2909 11.3877C59.2909 10.8332 58.5764 10.4847 57.9146 10.1052C57.1391 9.66272 56.1026 9.19569 56.1026 8.15487C56.1026 7.14509 57.4678 6.29468 59.6538 6.29468C61.4202 6.29457 62.4436 6.7186 62.6213 6.78616V6.78616Z" fill="black"/>
<path fill-rule="evenodd" clip-rule="evenodd" d="M78.1204 14.871C78.3955 14.7303 86.3672 11.1453 86.3624 7.07792C86.3604 4.79704 83.819 2.12296 75.9821 0L77.4578 3.30148L78.1204 14.871Z" fill="#2E3F79"/>
<path fill-rule="evenodd" clip-rule="evenodd" d="M77.4087 3.19532C75.8131 2.51365 73.8989 1.95672 71.6847 1.68579L78.1203 14.8715L82.233 6.41114C81.3053 5.39087 79.6795 4.16623 77.4087 3.19532V3.19532Z" fill="white"/>
<path fill-rule="evenodd" clip-rule="evenodd" d="M75.7065 9.92478L75.9459 10.4168C76.9171 10.8502 78.4115 11.6723 79.3089 12.4272L79.3382 12.365C78.7369 11.7649 77.4689 10.7717 75.7065 9.92478ZM74.8652 8.20385L75.1248 8.73532C76.8777 9.38047 78.8524 10.4855 79.8342 11.3452L79.8654 11.2814C78.9745 10.3686 77.1846 9.10195 74.8652 8.20385ZM77.7239 14.0591L77.8559 14.33C77.9932 14.4151 78.1357 14.5042 78.2546 14.5974L78.2806 14.5418C78.1011 14.3759 77.9155 14.215 77.7239 14.0591V14.0591ZM72.6636 3.69069L72.9362 4.25063C77.1404 5.10819 80.1272 6.92282 81.4099 8.10368L81.4458 8.02964C79.5829 6.08156 76.325 4.41156 72.6636 3.69069V3.69069ZM74.0859 6.60655L74.3561 7.15901C77.0209 7.98899 79.1952 9.25908 80.3598 10.2639L80.3935 10.1953C79.1951 8.96392 77.0258 7.55368 74.0859 6.60655V6.60655ZM73.3535 5.10496L73.6286 5.66981C76.8635 6.5047 79.4534 7.9279 80.8854 9.18292L80.92 9.11211C79.6468 7.75224 77.0323 6.06113 73.3535 5.10496V5.10496ZM72.0042 2.34131L72.2724 2.88908C77.0022 3.63362 80.3713 5.59075 81.9334 7.02701L81.9708 6.94973C80.2215 5.05135 76.7305 3.04866 72.0042 2.34131ZM76.6355 11.8294L76.8428 12.2539C77.6072 12.6801 78.2633 13.0924 78.781 13.5135L78.8104 13.4539C78.2661 12.932 77.4729 12.3292 76.6355 11.8294V11.8294Z" fill="#CAAB2E"/>
<path fill-rule="evenodd" clip-rule="evenodd" d="M80.1306 10.7385L80.0974 10.8047C79.2366 10.0335 77.1082 8.73291 74.7342 7.93543L74.469 7.39101C77.1721 8.35376 79.0672 9.66373 80.1306 10.7385ZM76.1562 10.8489L76.3827 11.3126C77.4836 11.8672 78.3762 12.4209 79.0456 12.9698L79.0744 12.9093C78.2874 12.1649 77.3295 11.4795 76.1562 10.8489V10.8489ZM75.2766 9.04638L75.5281 9.56042C76.9864 10.1521 78.7332 11.1597 79.5725 11.8861L79.6022 11.8222C78.9394 11.1253 77.2552 9.87613 75.2766 9.04638ZM73.0026 4.38681L73.2789 4.95301C77.0185 5.81336 79.7396 7.39994 81.148 8.64334L81.1826 8.57098C79.8465 7.13873 76.9552 5.27765 73.0026 4.38681V4.38681ZM72.3302 3.00806L72.6012 3.56387C76.4484 4.22946 79.9458 5.97819 81.672 7.56433L81.7089 7.49006C80.0527 5.71062 76.7882 3.79001 72.3302 3.00806V3.00806ZM73.7145 5.84574L73.9876 6.40457C76.8265 7.18843 79.3331 8.58069 80.623 9.72325L80.6576 9.65334C79.3584 8.3292 76.9601 6.76283 73.7145 5.84574V5.84574ZM77.151 12.8855L77.3305 13.2537C77.7745 13.5276 78.1803 13.7837 78.5181 14.0553L78.546 13.9979C78.3685 13.827 77.7509 13.279 77.151 12.8855Z" fill="#CAAB2E"/>
<path fill-rule="evenodd" clip-rule="evenodd" d="M71.6847 1.68579L71.95 2.23111C77.783 3.03327 81.1959 5.52186 82.1955 6.48786L82.233 6.41114C80.6541 4.6748 77.0517 2.34345 71.6847 1.68579V1.68579Z" fill="#CAAB2E"/>
<path fill-rule="evenodd" clip-rule="evenodd" d="M66.6569 15.3545C66.428 15.3487 65.1007 15.3167 64.5835 15.3167C64.3997 15.6611 64.0579 16.291 63.9035 16.6247C64.4564 16.6403 65.8039 16.592 66.0779 16.5749C66.0198 16.6861 65.9306 16.9077 65.898 17.0541C65.4828 17.0009 63.9596 17.0009 63.7193 16.9952C63.5811 17.2808 63.1378 18.2328 62.9707 18.6401C63.1248 18.6499 63.5479 18.6794 63.9788 18.6794C64.6165 18.6794 65.0522 18.654 65.2222 18.6418C65.1506 18.7784 65.0648 19.0017 65.038 19.1186C64.7564 19.1097 63.3323 19.0836 62.4874 19.0844C61.9207 19.0844 61.3083 19.1186 61.1955 19.1228C61.375 18.7825 61.9374 17.738 62.2983 16.9952C62.5945 16.3769 63.069 15.2629 63.2456 14.871C63.4923 14.8858 63.8657 14.9078 64.2558 14.9078C65.1594 14.9102 66.4196 14.8858 66.877 14.8743C66.8101 14.9782 66.7049 15.2055 66.6569 15.3545V15.3545ZM40.0675 14.9095C40.3369 14.9102 40.7504 14.8792 40.886 14.8685C40.7286 15.1524 40.3092 15.8943 39.7811 16.9943C39.2981 17.9881 38.9619 18.8004 38.8292 19.1185C38.7586 19.1119 38.4348 19.0801 38.0578 19.0801C37.6491 19.0801 37.355 19.1055 37.2479 19.1185C37.4304 18.7759 37.8562 18.0094 38.3462 16.9969C38.8112 16.0341 39.1805 15.1524 39.3036 14.8685C39.4144 14.8824 39.8002 14.9095 40.0675 14.9095V14.9095ZM53.8538 14.9095C54.123 14.9102 54.5371 14.8792 54.672 14.8685C54.5151 15.1524 54.0942 15.8943 53.5672 16.9943C53.0831 17.9881 52.7477 18.8004 52.615 19.1185C52.5445 19.1119 52.2201 19.0792 51.8439 19.0792C51.4341 19.0792 51.1409 19.1053 51.0338 19.1185C51.2162 18.7759 51.642 18.0094 52.1318 16.9969C52.5958 16.0341 52.9664 15.1524 53.0897 14.8685C53.2007 14.8824 53.5855 14.9095 53.8538 14.9095V14.9095ZM49.2828 14.9087C49.5282 14.9087 49.9854 14.8784 50.0911 14.871C49.8444 15.3348 49.3966 16.1569 48.983 16.9937C48.7766 17.4378 48.3318 18.4054 48.2391 18.6401C48.3337 18.6418 48.8044 18.6761 49.2334 18.6761C49.6913 18.6761 50.3046 18.6417 50.4131 18.6393C50.3521 18.7423 50.2557 18.9869 50.2293 19.1185C49.913 19.1064 48.8836 19.0785 48.0559 19.0792C47.3437 19.0801 46.7362 19.1062 46.444 19.1185C46.7938 18.4994 47.1916 17.724 47.5467 16.9937C47.9249 16.2157 48.3658 15.1728 48.4969 14.871C48.613 14.8815 49.0343 14.9087 49.2828 14.9087V14.9087ZM34.9448 17.5457C34.9592 17.1882 34.9457 16.3139 34.9297 15.9262C34.6555 16.1347 33.3886 17.2176 33.0829 17.5457C33.4046 17.5767 34.6412 17.5767 34.9448 17.5457ZM32.6351 17.9416C32.4222 18.1093 31.6439 18.8463 31.3775 19.1185C31.3171 19.1064 31.1168 19.0801 30.9353 19.0801C30.7519 19.0801 30.5314 19.1062 30.4462 19.1185C30.6804 18.9624 31.9914 17.8425 32.9719 16.9805C33.9538 16.1208 35.2254 14.9683 35.3324 14.8677C35.4251 14.884 35.6543 14.9062 35.7946 14.9062C35.9644 14.9062 36.1974 14.8767 36.2462 14.8677C36.2471 15.1058 36.2138 16.0226 36.2404 17.0025C36.2718 18.0576 36.3446 18.941 36.3847 19.1184C36.2923 19.1086 36.0154 19.08 35.6075 19.08C35.2991 19.08 35.0393 19.1012 34.8854 19.1184C34.9114 18.766 34.9495 18.1729 34.9351 17.9424C34.3804 17.9055 33.0857 17.9055 32.6351 17.9416V17.9416ZM71.6818 15.0534C71.567 15.1425 71.4038 15.3633 71.3281 15.518C71.1538 15.4231 70.59 15.0951 69.791 15.0951C69.1802 15.0951 68.6836 15.2979 68.6836 15.6954C68.6836 16.0569 69.0856 16.2084 69.5559 16.4782C70.0785 16.7777 70.805 17.1914 70.805 17.7952C70.805 18.7676 69.4503 19.2322 68.2497 19.2322C67.0222 19.2322 66.2755 18.9214 66.1131 18.86C66.274 18.708 66.4495 18.4748 66.536 18.2808C66.7002 18.3815 67.3 18.8468 68.3168 18.8468C68.9047 18.8468 69.4806 18.6342 69.4806 18.1753C69.4806 17.7951 68.9757 17.5594 68.5391 17.3279C67.9608 17.0204 67.3619 16.7692 67.3619 16.0756C67.3619 15.3992 68.3063 14.7563 69.7564 14.7563C70.9043 14.7565 71.5278 15.0026 71.6818 15.0534V15.0534ZM58.3987 16.3695C58.8267 17.0656 59.1943 17.7125 59.381 17.9818C59.9382 16.9045 60.5951 15.2261 60.7175 14.8712C60.7865 14.885 60.9473 14.9097 61.0836 14.9097C61.3197 14.9097 61.4517 14.8842 61.5308 14.8696C61.3206 15.2393 60.7899 16.2487 60.4612 16.9962C60.0029 17.9409 59.6952 18.7933 59.5571 19.1187C59.4823 19.1066 59.2341 19.0803 58.9495 19.0803C58.6688 19.0803 58.4777 19.1081 58.4092 19.1187C58.2973 18.9037 57.8113 18.0521 57.3855 17.3505C56.935 16.6078 56.6758 16.1611 56.5011 15.9157C56.0462 16.8302 55.3738 18.2862 55.0933 19.118C55.0144 19.1 54.9373 19.0803 54.776 19.0803C54.6224 19.0803 54.4026 19.1081 54.3365 19.118C54.5116 18.7745 55.0491 17.7243 55.4038 16.9807C55.898 15.9468 56.2008 15.1068 56.2992 14.8712C56.365 14.881 56.7489 14.9063 56.8928 14.9063C57.0781 14.9063 57.4792 14.8784 57.5493 14.8678C57.6683 15.1124 57.8992 15.5581 58.3987 16.3695ZM43.2595 16.8439C43.3238 16.8464 43.4067 16.8479 43.4688 16.8479C44.5067 16.8479 45.158 16.4284 45.158 15.7682C45.158 15.4952 44.8964 15.2726 44.5049 15.2726C44.3081 15.2726 44.1094 15.3003 44.036 15.311L43.2595 16.8439ZM43.1372 17.1015C42.763 17.8261 42.3496 18.816 42.235 19.1185C41.9771 19.0917 41.7174 19.0786 41.4576 19.0792C41.0787 19.0792 40.758 19.1087 40.6662 19.1185C40.9659 18.6263 41.435 17.7232 41.8511 16.8521C42.1921 16.1397 42.6102 15.1582 42.7209 14.8694C42.8309 14.8809 43.1362 14.9095 43.4781 14.9095C43.7274 14.9095 44.163 14.8709 44.6213 14.8709C46.0499 14.8709 46.5019 15.3257 46.5019 15.7928C46.5019 16.4061 45.9237 16.9779 44.5502 17.0721C44.8862 17.7741 45.2744 18.4571 45.7124 19.117C45.557 19.103 45.3373 19.0825 44.7767 19.0825C44.3889 19.0825 44.2392 19.1062 44.1227 19.1184C43.8919 18.5681 43.488 17.7387 43.1372 17.1015V17.1015Z" fill="black"/>
<path fill-rule="evenodd" clip-rule="evenodd" d="M76.4149 0.974854L76.5076 1.17855C81.7934 2.73431 83.936 4.52135 84.7548 5.47249L84.8363 5.32039C84.0094 4.35841 81.8288 2.54279 76.4149 0.974854Z" fill="white"/>
<path fill-rule="evenodd" clip-rule="evenodd" d="M84.3018 5.31834C84.2552 5.36803 84.1534 5.47044 83.9068 5.68129C83.7471 5.81744 83.5869 5.95328 83.4264 6.08879C83.4015 6.02134 83.3348 5.83015 83.2811 5.67961C83.2124 5.4892 83.1692 5.37105 83.1663 5.31823C83.1468 5.32236 83.0872 5.32895 82.9855 5.32895C82.8688 5.32895 82.7877 5.32236 82.7656 5.3189C82.7483 5.37105 82.6701 5.55509 82.5195 5.86421C82.3468 6.22001 82.2727 6.36229 82.2329 6.41098C82.2486 6.40707 82.2746 6.40059 82.3394 6.40059C82.3951 6.40059 82.4403 6.40796 82.4527 6.41098C82.4705 6.35011 82.5381 6.18651 82.6964 5.86499C82.7579 5.73467 82.8217 5.62735 82.8514 5.56872C82.8721 5.62902 82.9614 5.87482 83.0185 6.03921C83.0976 6.26368 83.1341 6.37759 83.1379 6.41176C83.1748 6.40048 83.2626 6.3978 83.303 6.41087C83.3471 6.35648 83.4609 6.25307 83.6097 6.12877C83.853 5.92284 84.1807 5.64365 84.2647 5.57128C84.2254 5.6642 84.1855 5.75745 84.1327 5.86488C83.9964 6.14016 83.8865 6.33604 83.8461 6.41087C83.874 6.40863 83.9705 6.40048 84.0823 6.40048C84.1985 6.40048 84.2776 6.40707 84.3079 6.41087C84.3294 6.3557 84.402 6.17512 84.5516 5.86488C84.6979 5.56391 84.8059 5.3782 84.8377 5.31812C84.8078 5.32057 84.6962 5.32884 84.556 5.32884C84.4711 5.32872 84.3863 5.32521 84.3018 5.31834V5.31834Z" fill="#CAAB2E"/>
</svg>
