<svg width="24" height="24" viewBox="0 0 24 24" fill="none" xmlns="http://www.w3.org/2000/svg">
<path d="M14.9904 2.10863V21.8914C14.9904 23.0415 14.032 24 12.8818 24H2.14697C0.996812 24 0.0383453 23.0415 0.0383453 21.8914V2.10863C0.0383453 0.958466 0.996812 0 2.14697 0H12.8818C14.032 0 14.9904 0.958466 14.9904 2.10863Z" fill="#4C5C75"/>
<path d="M2.10863 24.0001H12.8435C13.9936 24.0001 14.9521 23.0416 14.9521 21.8915V2.10872C14.9521 1.53364 14.722 1.03524 14.377 0.651855C13.8019 3.48892 10.1597 16.2173 0 22.0065C0.0766773 23.1183 0.996805 24.0001 2.10863 24.0001Z" fill="#1D2943"/>
<path d="M13.9169 4.56225V19.3993C13.9169 19.9744 13.4569 20.4728 12.8434 20.4728H2.10862C1.53354 20.4728 1.03514 20.0127 1.03514 19.3993V4.56225C1.03514 3.98717 1.4952 3.48877 2.10862 3.48877H12.8434C13.4569 3.52711 13.9169 3.98717 13.9169 4.56225Z" fill="#F3F1FC"/>
<path d="M13.9169 19.4378V4.56244C13.9169 4.25573 13.7636 3.94902 13.5335 3.75732C12.23 7.85956 8.54952 15.9107 2.33865 20.473H12.8434C13.4569 20.473 13.9169 20.0129 13.9169 19.4378Z" fill="#DEDFFB"/>
<path d="M9.66134 1.7635C9.66134 1.9552 9.50799 2.10855 9.31629 2.10855H5.67412C5.48243 2.10855 5.32907 1.9552 5.32907 1.7635C5.32907 1.57181 5.48243 1.41846 5.67412 1.41846H9.31629C9.50799 1.41846 9.66134 1.57181 9.66134 1.7635ZM10.9649 1.7635C10.9649 1.9552 10.8115 2.10855 10.6198 2.10855H10.5815C10.3898 2.10855 10.2364 1.9552 10.2364 1.7635C10.2364 1.57181 10.3898 1.41846 10.5815 1.41846H10.6198C10.8115 1.41846 10.9649 1.57181 10.9649 1.7635Z" fill="#1D2943"/>
<path d="M7.47604 23.1947C7.98421 23.1947 8.39616 22.7828 8.39616 22.2746C8.39616 21.7664 7.98421 21.3545 7.47604 21.3545C6.96786 21.3545 6.55591 21.7664 6.55591 22.2746C6.55591 22.7828 6.96786 23.1947 7.47604 23.1947Z" fill="#111D33"/>
<path d="M3.25879 23.118C2.76039 23.2713 2.10863 23.348 1.61023 23.1563C0.996808 22.888 0.728437 22.2362 0.843453 21.7378C0.996808 22.2362 1.26518 22.6579 1.72524 22.8496C2.14697 23.003 2.56869 22.9263 3.25879 23.118Z" fill="white"/>
<path d="M8.43451 6.21089V14.377C8.43451 14.8754 8.05112 15.2588 7.55272 15.2588C7.05432 15.2588 6.67093 14.8754 6.67093 14.377V6.21089C6.67093 5.71249 7.05432 5.3291 7.55272 5.3291C8.05112 5.3291 8.43451 5.71249 8.43451 6.21089Z" fill="#4C5C75"/>
<path d="M7.85943 5.36719C7.89776 5.4822 7.9361 5.59722 7.9361 5.71224V13.8784C7.9361 14.3768 7.55272 14.7602 7.05431 14.7602C6.9393 14.7602 6.86262 14.7218 6.7476 14.7218C6.86262 15.0669 7.20767 15.2969 7.59106 15.2969C8.08946 15.2969 8.47284 14.9135 8.47284 14.4151V6.21064C8.43451 5.82725 8.20447 5.4822 7.85943 5.36719Z" fill="#1D2943"/>
<path d="M16.754 7.01622C16.754 6.13443 16.0639 5.48267 15.2204 5.55935L7.55272 6.32612V14.2239L15.2204 14.9907C16.0639 15.0673 16.754 14.4156 16.754 13.5338V7.01622Z" fill="#E11226"/>
<path d="M16.4856 7.05426C16.4856 6.17248 15.7955 5.52072 14.9521 5.63573L7.55272 6.36417V14.2619L14.9521 14.9904C15.7955 15.067 16.4856 14.4153 16.4856 13.5718V7.05426Z" fill="#F34B58"/>
<path d="M16.1022 13.0349C16.1406 13.1116 16.1406 13.1883 16.1022 13.265C16.0639 13.38 15.9872 13.4567 15.9105 13.5333C15.8722 13.61 15.7572 13.6483 15.7189 13.725C15.6422 13.84 15.5272 13.8784 15.4121 13.8784C15.2971 13.8784 15.2205 13.8784 15.1054 13.84C15.0671 13.84 15.0671 13.8017 15.0671 13.7634C15.0671 13.725 15.0288 13.6867 15.0288 13.61H14.9904C14.9904 13.5717 15.0288 13.5717 15.0671 13.495C14.9904 13.5333 14.9521 13.5333 14.9137 13.5717C14.8371 13.38 14.7604 13.3416 14.5687 13.38L14.2236 13.495C14.1086 13.5333 13.9936 13.5333 13.8786 13.5717C13.8403 13.5717 13.8019 13.5333 13.8019 13.495C13.8019 13.4183 13.8403 13.3033 13.8403 13.2266V12.8816C13.8786 12.6899 14.0703 12.6515 14.2236 12.6132C14.3387 12.5749 14.377 12.5365 14.4153 12.4598C14.4537 12.3832 14.5687 12.3065 14.6837 12.2298L14.7604 12.2682C14.7987 12.2682 14.8371 12.3065 14.8371 12.2682C14.8754 12.1915 14.9137 12.1148 15.0288 12.1148H15.2971C15.1821 12.3065 15.2205 12.3832 15.4888 12.4982C15.5272 12.3448 15.6038 12.2298 15.6422 12.0765C15.6805 12.1531 15.7572 12.2682 15.7955 12.3448C15.8339 12.6132 16.0256 12.8049 16.1022 13.0349ZM16.4856 6.97742C16.4473 6.97742 16.3706 6.93908 16.3323 6.93908C16.2556 6.93908 16.1406 7.01576 16.0639 6.97742C15.7572 6.97742 15.4505 6.97742 15.1821 6.93908C15.1438 6.93908 15.1054 6.90075 15.0671 6.90075C14.9137 6.90075 14.7987 6.86241 14.6454 6.86241C14.607 6.86241 14.5687 6.90075 14.5687 6.90075C14.5304 6.93908 14.2236 6.97742 14.147 6.93908C14.0703 6.90074 13.9936 6.90075 13.9553 6.90075H13.3802C13.3419 6.90075 13.3035 6.90074 13.2652 6.93908C13.2652 6.90074 13.3035 6.86241 13.3035 6.86241L13.2652 6.82407C13.0735 6.82407 12.8818 6.70905 12.6901 6.82407C12.5367 6.90074 12.3451 6.93908 12.1917 7.01576H12.1534C12.115 7.13078 12.0383 7.09244 11.9233 7.09244C11.9617 7.16912 12 7.20745 12.0383 7.24579C12.0767 7.28413 12.0767 7.32247 12.0767 7.36081C12.0767 7.39915 12.0383 7.39915 12 7.43749C12 7.36081 12.0383 7.32247 12.0383 7.28413C12 7.24579 11.9617 7.16912 11.9233 7.13078C11.8083 7.01576 11.8083 7.01576 11.7316 7.16912L11.8466 7.28413C11.77 7.24579 11.6933 7.24579 11.6166 7.24579C11.5399 7.24579 11.4633 7.28413 11.4249 7.28413C11.3099 7.32247 11.1566 7.28413 11.0799 7.39915C11.0799 7.39915 11.0415 7.36081 11.0032 7.36081C11.0032 7.36081 10.9649 7.32247 10.9265 7.32247C10.9265 7.36081 10.9649 7.39915 10.9649 7.43749C10.9265 7.47582 10.8498 7.51416 10.8115 7.51416C10.6581 7.59084 10.6582 7.59084 10.6198 7.47582C10.6965 7.47582 10.7732 7.43749 10.8498 7.43749V7.36081C10.7732 7.32247 10.6965 7.32247 10.6198 7.28413C10.5815 7.28413 10.5048 7.28413 10.4665 7.24579C10.2748 7.16912 10.1214 7.24579 9.96805 7.32247C9.8147 7.43749 9.73802 7.62918 9.54633 7.70586C9.46965 7.74419 9.50799 7.82087 9.54633 7.89755C9.58467 7.97423 9.62301 7.93589 9.66135 7.89755C9.66135 7.89755 9.69968 7.85921 9.73802 7.85921L9.85304 8.08924C9.92972 7.97423 9.96805 7.89755 10.0447 7.82087C9.96805 7.70586 9.96805 7.70586 10.0831 7.59084C10.1214 7.59084 10.1214 7.5525 10.1214 7.5525C10.1597 7.47582 10.1981 7.47582 10.2748 7.51416L10.1981 7.59084C10.1597 7.62918 10.1597 7.66752 10.1597 7.70586C10.1597 7.82087 10.2364 7.78253 10.3131 7.78253C10.3514 7.78253 10.4281 7.7442 10.4665 7.7442V7.78253C10.4281 7.78253 10.3514 7.78253 10.3131 7.82087V7.93589C10.2364 7.89755 10.1981 7.93589 10.1981 8.01257C10.1981 8.0509 10.1597 8.08924 10.1214 8.08924C10.0447 8.08924 9.96805 8.12758 9.85304 8.12758C9.73802 8.08924 9.73802 8.12758 9.73802 8.01257V7.97423C9.66134 8.01257 9.66135 8.01257 9.66135 8.16592C9.46965 8.2426 9.35464 8.51097 9.08627 8.51097C9.1246 8.54931 9.16294 8.54931 9.16294 8.54931C9.20128 8.62598 9.20128 8.66432 9.20128 8.741C9.20128 8.81768 9.1246 8.81768 9.08627 8.81768H8.93291C8.89457 8.81768 8.85623 8.85602 8.85623 8.85602C8.85623 8.97103 8.81789 9.08605 8.81789 9.16273C8.85623 9.20106 8.89457 9.20106 8.93291 9.20106C9.00959 9.2394 9.16294 9.16273 9.20128 9.08605C9.23962 9.00937 9.27796 8.97103 9.3163 8.93269C9.3163 8.89435 9.35464 8.89435 9.35464 8.85602C9.35464 8.81768 9.62301 8.741 9.62301 8.741L9.66135 8.77934C9.73802 8.81768 9.77636 8.89435 9.85304 8.93269L9.96805 9.04771C9.96805 9.00937 10.0064 8.97103 10.0064 8.93269C9.92972 8.85602 9.85304 8.81768 9.8147 8.741V8.66432H9.85304C9.92972 8.741 10.0831 8.77934 10.1214 8.93269C10.1597 9.04771 10.1981 9.08605 10.3131 9.04771C10.2748 8.89435 10.2748 8.89435 10.4281 8.89435C10.4665 8.89435 10.5048 8.89435 10.5431 8.85602C10.4281 8.741 10.5431 8.66432 10.5815 8.58765C10.6198 8.51097 10.6582 8.51097 10.7348 8.58765C10.7348 8.58765 10.7732 8.62598 10.7732 8.66432C10.8115 8.66432 10.8498 8.62598 10.8498 8.62598L10.8115 8.58765C10.8498 8.54931 10.8882 8.54931 10.9649 8.51097V8.62598C11.0032 8.66432 11.0799 8.70266 11.1182 8.741C11.1566 8.77934 11.1566 8.81768 11.1949 8.81768C11.1566 8.81768 11.1182 8.85602 11.0799 8.85602H11.0032C10.9265 8.81768 10.8115 8.81768 10.7348 8.85602C10.6582 8.89435 10.5815 8.93269 10.5048 8.93269C10.5048 9.04771 10.5431 9.12439 10.6582 9.16273H10.9649C10.9265 9.27774 10.9265 9.39276 10.8882 9.50777C10.7732 9.50777 10.6965 9.54611 10.6198 9.50777C10.5431 9.50777 10.4281 9.46943 10.3514 9.4311C10.2748 9.39276 10.2364 9.39276 10.1981 9.50777L10.1597 9.54611C10.0831 9.50777 10.0447 9.50777 10.0064 9.46943C9.92972 9.39276 9.69968 9.4311 9.77636 9.20106H9.66135C9.54633 9.20106 9.43131 9.20106 9.35464 9.2394C9.23962 9.31608 9.16294 9.31608 9.08627 9.27774C9.04793 9.31608 9.04793 9.35442 9.00959 9.35442C8.93291 9.39276 8.89457 9.46943 8.89457 9.54611C8.89457 9.58445 8.81789 9.62279 8.77956 9.66113C8.77956 9.66113 8.74122 9.66113 8.74122 9.69947C8.70288 9.77614 8.6262 9.89116 8.58786 9.96784V10.0829C8.58786 10.1595 8.58786 10.2745 8.54952 10.3512C8.54952 10.4279 8.54952 10.5046 8.58786 10.5813C8.6262 10.6196 8.66454 10.6963 8.70288 10.7346C8.74122 10.8113 8.81789 10.8496 8.85623 10.9263C8.89457 10.9646 8.93291 11.003 8.97125 11.003C9.1246 10.9646 9.27796 11.003 9.43131 10.9263C9.46965 10.9263 9.54633 10.9263 9.54633 10.9646C9.58467 11.0413 9.62301 11.003 9.66135 11.0413C9.69968 11.0797 9.77636 11.118 9.77636 11.1563C9.73802 11.348 9.77636 11.5014 9.89138 11.6547C9.92972 11.6931 9.92972 11.7314 9.92972 11.7698C9.92972 11.8848 10.0064 11.9998 9.92972 12.1148C9.85304 12.2298 9.85304 12.3832 9.92972 12.5365C9.96805 12.6132 9.96805 12.6899 10.0064 12.8049C10.0447 12.8816 10.0447 12.9583 10.0447 12.9966C10.0831 13.1116 10.1214 13.2266 10.1597 13.3033C10.1981 13.38 10.1981 13.4183 10.2748 13.38H10.4665C10.5048 13.38 10.5815 13.38 10.6198 13.3416C10.7348 13.2266 10.8882 13.1499 10.8882 12.9199C10.8882 12.8816 10.9265 12.8816 10.9265 12.8816C11.0415 12.8432 11.0415 12.7666 11.0032 12.6899C10.9649 12.5365 11.0415 12.4982 11.1182 12.4598C11.2716 12.3448 11.3482 12.1915 11.2716 11.9614C11.2332 11.8848 11.1949 11.7314 11.2332 11.6931C11.3099 11.5397 11.4249 11.3864 11.5399 11.2714C11.6933 11.118 11.8083 10.9263 11.8083 10.6963C11.6933 10.7346 11.6166 10.7346 11.5399 10.7729C11.4633 10.8113 11.4249 10.7729 11.4249 10.6963C11.3866 10.6196 11.3482 10.5813 11.3099 10.5429C11.1949 10.5046 11.1949 10.3512 11.1182 10.2745C11.0415 10.1979 11.0415 10.0829 11.0032 10.0062L10.8882 9.77614C10.9265 9.73781 10.9649 9.73781 10.9649 9.69947C11.0415 9.81448 11.1566 9.89116 11.1949 10.0062C11.2716 10.2362 11.4633 10.3512 11.4633 10.5813C11.4633 10.6196 11.5016 10.6579 11.5399 10.6579C11.655 10.6196 11.8083 10.5813 11.885 10.5046C12 10.3896 12.1917 10.3512 12.2684 10.1979C12.3067 10.1212 12.3067 10.0829 12.23 10.0062C12.1917 9.96784 12.115 9.9295 12.0767 9.89116C11.9617 10.0062 12 9.96784 11.8466 9.89116C11.77 9.85282 11.7316 9.77614 11.6933 9.69947V9.58445C11.7316 9.58445 11.77 9.58445 11.77 9.62279C11.8083 9.62279 11.8083 9.66113 11.8083 9.69947C11.8466 9.73781 11.885 9.77614 11.9233 9.77614C12.0383 9.81448 12.115 9.77614 12.23 9.85282C12.3067 9.89116 12.4217 9.89116 12.5367 9.89116C12.6134 9.89116 12.7668 10.0062 12.8051 10.0829C12.8435 10.1595 12.9201 10.1979 12.9585 10.1595C13.0735 10.4279 13.1885 10.7346 13.3035 11.003C13.4569 10.888 13.4569 10.888 13.4569 10.7729C13.4569 10.6196 13.4952 10.4662 13.6486 10.3512L13.6869 10.3129C13.8019 10.1979 13.8786 10.0829 14.1086 10.0829C14.147 10.1979 14.2236 10.3129 14.3003 10.4662C14.3003 10.5046 14.377 10.5046 14.377 10.5046C14.4153 10.5046 14.4153 10.4662 14.492 10.4279C14.5304 10.5813 14.5687 10.7346 14.5687 10.888C14.607 11.0797 14.722 11.233 14.8371 11.4247C14.8371 11.463 14.9137 11.463 14.9137 11.5014C14.9137 11.5014 14.9521 11.5014 14.9521 11.463C14.9137 11.348 14.8754 11.233 14.7987 11.1563C14.6454 11.003 14.5687 10.888 14.6837 10.6579C14.7987 10.7729 14.9137 10.8496 14.9904 10.9646C15.0288 10.9263 15.0288 10.888 15.1054 10.8496C15.2588 10.8113 15.2205 10.6963 15.1821 10.5813C15.1438 10.5046 15.0671 10.4279 14.9904 10.3129C14.9137 10.2362 14.9521 10.1595 15.0288 10.0829C15.1054 10.0062 15.1438 10.0829 15.1821 10.1212C15.2205 10.0829 15.2588 10.0829 15.2971 10.0445C15.3738 10.0062 15.4888 9.96784 15.5655 9.9295C15.7955 9.81448 15.8722 9.46943 15.6422 9.27774C15.6038 9.2394 15.5655 9.16273 15.4888 9.12439C15.5272 9.08605 15.5655 9.04771 15.6422 9.00937C15.5272 9.00937 15.3738 9.00937 15.2971 8.93269L15.4505 8.77934C15.4888 8.81768 15.5272 8.85602 15.5272 8.89435C15.6038 8.85602 15.7189 8.81768 15.7572 8.93269L15.7955 8.97103C15.8339 9.00937 15.8722 9.00937 15.8722 9.04771C15.9105 9.08605 15.9105 9.12439 15.9489 9.16273C15.9872 9.16273 16.0256 9.12439 16.1022 9.08605C16.0256 9.00937 15.9489 8.93269 15.9105 8.85602C15.8722 8.81768 15.8722 8.77934 15.8722 8.77934C15.9105 8.70266 15.8722 8.54931 16.0639 8.58765L16.1022 8.54931C16.2173 8.39595 16.1406 7.97423 15.9872 7.89755C15.9489 7.89755 15.9489 7.85921 15.9105 7.85921C15.8339 7.85921 15.7189 7.85921 15.6422 7.82087C15.6422 7.5525 15.7572 7.43749 16.0256 7.47582C16.1022 7.47582 16.1406 7.51416 16.2173 7.51416H16.3323V7.36081H16.4856C16.6006 7.39915 16.6006 7.36081 16.639 7.28413C16.639 7.32247 16.6773 7.39915 16.639 7.43749C16.639 7.51416 16.6006 7.62918 16.639 7.66752L16.6773 7.70586V6.93908C16.4856 7.01576 16.4856 6.97742 16.4856 6.97742ZM8.08946 11.5781C8.05112 11.5014 7.93611 11.4247 7.85943 11.3864C7.74441 11.348 7.66774 11.3097 7.55272 11.2714V12.8049C7.55272 12.7666 7.59106 12.7282 7.55272 12.6899C7.55272 12.6515 7.55272 12.6132 7.59106 12.5749C7.6294 12.5365 7.70607 12.5365 7.74441 12.4982C7.78275 12.4982 7.82109 12.4598 7.82109 12.4598C7.85943 12.3448 7.89777 12.2298 7.89777 12.1148C7.89777 11.9998 7.93611 11.9231 7.97444 11.8464C8.08946 11.7698 8.1278 11.6547 8.08946 11.5781Z" fill="#E11226"/>
<path d="M15.3355 12.3068C15.3355 12.0767 15.1821 11.9234 14.9521 11.9234L7.51437 11.6934V13.4953L14.9904 14.032C15.1821 14.032 15.3738 13.8787 15.3738 13.687L15.3355 12.3068Z" fill="#E9E7FC"/>
<path d="M9.1246 12.0386H8.51118C8.31949 12.0386 8.08946 12.0769 7.89777 12.1153C8.1278 12.1536 8.31949 12.1536 8.51118 12.1919C8.70288 12.1919 8.93291 12.2303 9.1246 12.2303C9.54633 12.2303 9.96805 12.2303 10.3898 12.1919C9.96805 12.0769 9.54633 12.0386 9.1246 12.0386Z" fill="white"/>
<path d="M15.3355 12.3067C15.3355 12.0767 15.1821 11.9233 14.9521 11.9233C14.9521 11.9233 13.5719 13.3035 7.51437 13.4569L14.9904 14.032C15.1821 14.032 15.3738 13.8786 15.3738 13.6869L15.3355 12.3067Z" fill="#DEDFFB"/>
<path d="M14.4153 6.97752L13.6869 7.01586C13.1885 7.0542 12.8051 7.51426 12.8051 8.01267C12.8051 8.54941 13.1885 8.93279 13.6869 8.93279L14.377 8.89446C14.8754 8.89446 15.2971 8.43439 15.2971 7.85931C15.3355 7.36091 14.9137 6.93918 14.4153 6.97752Z" fill="#FFD06C"/>
<path d="M13.6869 8.93305L14.377 8.89471C14.8754 8.89471 15.2971 8.43464 15.2971 7.85956C15.2971 7.47618 15.1054 7.16947 14.7987 7.01611C14.7221 7.51452 14.3387 8.588 12.9968 8.588C13.1885 8.81803 13.4185 8.93305 13.6869 8.93305Z" fill="#FEBC1F"/>
<path d="M9.96805 17.1372H5.02236C4.71565 17.1372 4.44728 17.4056 4.44728 17.7123V19.0158C4.44728 19.3225 4.71565 19.5909 5.02236 19.5909H9.92971C10.2364 19.5909 10.5048 19.3225 10.5048 19.0158V17.7123C10.5431 17.4056 10.2748 17.1372 9.96805 17.1372Z" fill="#F34B58"/>
<path d="M5.02236 19.5911H9.92971C10.2364 19.5911 10.5048 19.3227 10.5048 19.016V17.7125C10.5048 17.4442 10.3514 17.2525 10.0831 17.1758C9.69968 17.8275 7.36102 19.0927 4.52396 19.3611C4.67731 19.5144 4.83067 19.5911 5.02236 19.5911Z" fill="#E11226"/>
<path d="M6.51757 18.3261C6.59424 18.2494 6.63258 18.1727 6.63258 18.096C6.63258 17.9043 6.51757 17.7893 6.2492 17.7893H5.86581C5.78913 17.7893 5.75079 17.8277 5.75079 17.9043V18.9011C5.75079 18.9778 5.78913 19.0162 5.86581 19.0162H6.2492C6.55591 19.0162 6.70926 18.8628 6.70926 18.6711C6.70926 18.4794 6.63258 18.4027 6.51757 18.3261ZM6.51757 18.5944C6.51757 18.7094 6.40255 18.7478 6.2492 18.7478H5.98083V18.4411H6.2492C6.51757 18.4411 6.51757 18.5561 6.51757 18.5944ZM5.98083 18.2494V17.981H6.2492C6.36421 17.981 6.44089 18.0193 6.44089 18.096C6.44089 18.211 6.32587 18.2494 6.21086 18.2494H5.98083ZM7.7444 17.866V18.5178C7.7444 18.8628 7.16932 18.8628 7.16932 18.5178V17.866C7.16932 17.7126 6.93929 17.7126 6.93929 17.866V18.5178C6.93929 18.8245 7.16932 18.9778 7.43769 18.9778C7.70606 18.9778 7.9361 18.7861 7.9361 18.5178V17.866C7.97444 17.7126 7.7444 17.7126 7.7444 17.866ZM9.20127 17.7893C9.16293 17.751 9.08626 17.751 9.04792 17.8277L8.74121 18.2877L8.4345 17.8277C8.39616 17.751 8.31948 17.751 8.28114 17.7893C8.24281 17.8277 8.24281 17.866 8.28114 17.9427L8.66453 18.4794V18.8628C8.66453 18.9395 8.70287 18.9778 8.77955 18.9778C8.85622 18.9778 8.89456 18.9395 8.89456 18.8628V18.4794L9.27795 17.9427C9.23961 17.866 9.23961 17.8277 9.20127 17.7893Z" fill="white"/>
<path d="M12.9201 19.898C12.9201 20.4731 13.0735 21.0481 13.3418 21.5465C13.4185 21.6999 13.5335 21.8916 13.6486 22.0449C13.6869 22.0833 13.7252 22.16 13.8019 22.1983C13.8786 22.275 13.9553 22.39 14.0703 22.4667C14.1853 22.5817 14.3003 22.6584 14.4537 22.7734C14.492 22.8117 14.5303 22.8501 14.607 22.8501C15.1054 23.1568 15.7188 23.3101 16.3323 23.3101C16.524 23.3101 16.7156 23.3101 16.869 23.2718C17.0607 23.2334 17.2524 23.1951 17.4057 23.1184C18.1342 22.8884 18.7093 22.39 19.131 21.7766C19.476 21.2398 19.6677 20.5881 19.6677 19.898C19.6677 19.3229 19.5144 18.7478 19.246 18.2494C19.1693 18.0961 19.0543 17.9044 18.9393 17.7894C18.4409 17.1759 17.7508 16.7542 16.9457 16.5625C16.9073 16.5625 16.8307 16.5242 16.7923 16.5242C16.639 16.4858 16.4856 16.4858 16.3323 16.4858H16.2939C16.1789 16.4858 16.0639 16.4858 15.9489 16.5242C15.8722 16.5242 15.7955 16.5242 15.7572 16.5625C15.5655 16.6009 15.3738 16.6392 15.1821 16.7159C14.7987 16.8309 14.4537 17.0609 14.147 17.291C13.3802 17.866 12.9201 18.8245 12.9201 19.898Z" fill="#FFD06C"/>
<path d="M18.6709 19.8975C18.6709 21.201 17.5974 22.2745 16.2939 22.2745C14.9904 22.2745 13.9169 21.201 13.9169 19.8975C13.9169 18.594 14.9904 17.5205 16.2939 17.5205C17.5974 17.4822 18.6709 18.5557 18.6709 19.8975Z" fill="#F9A83D"/>
<path d="M16.1406 22.275H16.2939C17.5974 22.275 18.6709 21.2015 18.6709 19.898C18.6709 18.5945 17.5974 17.521 16.2939 17.521H16.1406C17.3674 17.5977 18.3642 18.6328 18.3642 19.898C18.3642 21.1248 17.3674 22.16 16.1406 22.275Z" fill="#EA9734"/>
<path d="M18.5559 18.671C18.2875 18.9011 18.1342 19.1311 18.0575 19.3995C18.0575 19.4378 17.9808 19.4378 17.9808 19.3995C17.9042 19.1694 17.7891 18.9011 17.4824 18.671C17.4441 18.6327 17.4441 18.5944 17.4824 18.556C17.7508 18.326 17.9042 18.096 17.9808 17.8276C17.9808 17.7892 18.0575 17.7892 18.0575 17.8276C18.1342 18.0576 18.2492 18.326 18.5559 18.556C18.5942 18.5944 18.5942 18.671 18.5559 18.671Z" fill="white"/>
<path d="M20.9713 16.1787C21.6997 16.1787 22.3514 15.7953 22.7348 15.2202C22.9649 14.8752 23.0799 14.4918 23.0799 14.0701C23.0799 12.9199 22.1214 11.9614 20.9713 11.9614H20.5495V16.1787H20.9713Z" fill="#F9A83D"/>
<path d="M18.4026 14.032C18.4026 15.1821 19.361 16.1406 20.5112 16.1406C20.6262 16.1406 20.7412 16.1406 20.8562 16.1023C20.9712 16.0639 21.0863 16.0639 21.2013 16.0256C21.6613 15.8722 22.0064 15.5655 22.2748 15.1821C22.5048 14.8371 22.6198 14.4537 22.6198 14.032C22.6198 12.8818 21.6997 11.9233 20.5112 11.9233H20.1661C20.0511 11.9617 19.9361 11.9617 19.8211 12C19.016 12.3451 18.4026 13.1118 18.4026 14.032Z" fill="#FFD06C"/>
<path d="M22.0447 14.0318C22.0447 14.8369 21.393 15.527 20.5495 15.527C19.7444 15.527 19.0543 14.8753 19.0543 14.0318C19.0543 13.1884 19.7061 12.5366 20.5495 12.5366C21.3546 12.575 22.0447 13.2267 22.0447 14.0318Z" fill="#F9A83D"/>
<path d="M20.4345 15.527H20.5495C21.3546 15.527 22.0447 14.8753 22.0447 14.0318C22.0447 13.1884 21.393 12.5366 20.5495 12.5366H20.4345C21.2013 12.575 21.8147 13.2267 21.8147 14.0318C21.8147 14.8369 21.2013 15.4887 20.4345 15.527Z" fill="#EA9734"/>
<path d="M19.6294 13.3035C19.476 13.4185 19.3994 13.5335 19.3994 13.6869C19.3994 13.7252 19.361 13.7252 19.361 13.6869C19.3227 13.5719 19.246 13.4185 19.0927 13.3035V13.2652C19.246 13.1502 19.3227 13.0351 19.3227 12.8818C19.3227 12.8434 19.361 12.8434 19.361 12.8818C19.3994 12.9968 19.476 13.1502 19.6294 13.2652C19.6677 13.2652 19.6677 13.3035 19.6294 13.3035Z" fill="white"/>
</svg>
