<svg width="86" height="12" viewBox="0 0 86 12" fill="none" xmlns="http://www.w3.org/2000/svg">
<path d="M15.4234 0.0140032L11.4361 6.06339V11.5526C11.4361 11.5713 11.458 11.59 11.4799 11.59H15.4015C15.4234 11.59 15.4453 11.5713 15.4453 11.5526L15.4234 0.0140032C15.4453 -0.00466774 15.4453 -0.00466774 15.4234 0.0140032M22.2588 11.6087H23.6171C23.7266 11.6087 23.8143 11.534 23.8143 11.4406V5.16719L27.1881 11.478C27.2319 11.6087 27.4072 11.646 27.5606 11.646C27.7139 11.646 27.8673 11.59 27.9111 11.478L31.5698 4.6444V11.4406C31.5698 11.534 31.6793 11.6087 31.7889 11.6087H33.6511C33.7606 11.6087 33.8482 11.534 33.8482 11.4406V2.03047C33.8482 1.89977 33.7606 1.80641 33.5853 1.80641H31.5479C31.4602 1.80641 31.3726 1.82509 31.3507 1.89977L27.8673 8.41593L24.3401 1.89977C24.2962 1.82509 24.2305 1.80641 24.1429 1.80641H22.1931C22.0835 1.80641 21.9959 1.8811 21.9959 1.97445V11.4406C22.0397 11.534 22.1492 11.6087 22.2588 11.6087M64.235 11.6087H65.9876C66.0972 11.6087 66.1848 11.534 66.1848 11.4406V5.93269C66.1848 5.44725 66.5353 5.29788 67.105 5.29788C67.8498 5.29788 68.1565 5.55928 68.7481 5.95136C68.8138 5.98871 68.9014 6.00738 68.9672 6.00738C69.0329 6.00738 69.0767 5.97004 69.1205 5.91402L69.8216 5.05516C69.8654 4.98048 69.9092 4.92446 69.9092 4.86845C69.9092 4.81244 69.8873 4.77509 69.7997 4.71908C69.23 4.34566 68.2223 4.23364 67.105 4.23364C65.0456 4.23364 63.994 4.58839 63.994 5.93269V11.422C64.0159 11.534 64.1035 11.6087 64.235 11.6087M49.1183 4.25231C46.2264 4.25231 45.4815 4.86845 45.4815 6.64219V11.4406C45.4815 11.534 45.5911 11.6087 45.7006 11.6087H47.4533C47.5628 11.6087 47.6504 11.534 47.6504 11.4406V6.64219C47.6504 5.6713 48.001 5.31655 49.1183 5.31655C50.0384 5.31655 50.6738 5.68997 50.6738 6.64219V11.4406C50.6738 11.534 50.7833 11.6087 50.8929 11.6087H52.6455C52.7551 11.6087 52.8427 11.534 52.8427 11.4406V6.64219C52.8427 4.60706 51.0243 4.25231 49.1183 4.25231M74.2032 11.8514C75.1891 11.8514 76.3721 11.4593 77.0075 10.7125C77.0951 10.6191 77.2047 10.4884 77.2047 10.3764C77.2047 10.3204 77.1827 10.283 77.1389 10.2457L76.6569 9.7229C76.6569 9.68555 76.5912 9.66688 76.5474 9.66688C76.5036 9.66688 76.4817 9.68555 76.4379 9.7229C75.9997 10.0776 75.452 10.4884 74.5757 10.4884C73.2612 10.4884 72.2096 9.36815 72.2096 7.8558C72.2096 6.56751 72.6477 5.29788 74.2251 5.29788C75.0357 5.29788 75.452 5.6713 75.8902 5.95136C75.9559 5.98871 76.0435 6.00738 76.0873 6.00738C76.175 6.00738 76.1969 5.97004 76.2626 5.91402L76.9637 5.05516C77.0294 4.98048 77.0513 4.92446 77.0513 4.86845C77.0513 4.81244 77.0075 4.77509 76.9418 4.71908C76.394 4.36433 75.1891 4.23364 74.2251 4.23364C71.6619 4.23364 69.953 5.89535 69.953 8.04251C69.9311 10.1897 71.64 11.8514 74.2032 11.8514M0 0.0140032V11.5526C0 11.5713 0.0219083 11.59 0.0438166 11.59H3.96539C3.9873 11.59 4.00921 11.5713 4.00921 11.5526V6.06339L0.0438166 0.0140032C0.0219083 -0.00466774 0 -0.00466774 0 0.0140032ZM62.1756 11.4406V6.39947C62.1756 4.88712 60.883 4.25231 58.736 4.25231C56.3699 4.25231 54.2886 5.42858 54.2886 8.06118C54.2886 10.8432 56.0632 11.8514 57.772 11.8514C58.8017 11.8514 59.5466 11.4033 59.9848 11.0485V11.4406C59.9848 11.534 60.0943 11.6087 60.2039 11.6087H61.9784C62.0661 11.6087 62.1756 11.534 62.1756 11.4406ZM59.9848 9.96562C59.5247 10.3017 58.9113 10.6191 58.3855 10.6191C57.3558 10.6191 56.5671 9.96562 56.5671 7.83713C56.5671 5.70864 57.6406 5.31655 58.736 5.31655C59.459 5.31655 59.9848 5.63396 59.9848 6.39947V9.96562ZM83.2732 6.54883V11.422C83.2732 11.5153 83.3609 11.59 83.4704 11.59H85.245C85.3545 11.59 85.4422 11.5153 85.4422 11.422V6.54883C85.4422 5.01782 83.9962 4.23364 82.4845 4.23364C81.6958 4.23364 81.0386 4.32699 80.2499 4.86845V1.22761C80.2499 1.11559 80.1623 1.04091 80.0527 1.04091H78.2782C78.1686 1.04091 78.081 1.11559 78.081 1.22761V11.4406C78.081 11.534 78.1686 11.6087 78.2782 11.6087H80.0527C80.1623 11.6087 80.2499 11.534 80.2499 11.4406V5.93269C80.8852 5.46592 81.3672 5.31655 82.0464 5.31655C82.7474 5.31655 83.2732 5.76465 83.2732 6.54883" fill="#731472"/>
</svg>
