<svg width="20" height="22" viewBox="0 0 20 22" fill="none" xmlns="http://www.w3.org/2000/svg">
<path d="M9.75 0C10.233 0 10.7766 0.0826419 11.2217 0.374023C11.7155 0.697278 12 1.22084 12 1.875C12 2.42351 11.8007 2.99302 11.4932 3.45215C14.7126 4.20835 17.1597 7.0127 17.3408 10.4512C17.3499 10.6236 17.3568 10.7892 17.3633 10.9482C17.3854 11.4897 17.4048 11.9613 17.5029 12.4131C17.6202 12.9529 17.8372 13.3771 18.2783 13.708C19.0475 14.285 19.4999 15.1908 19.5 16.1523C19.5 17.5336 18.4129 18.7499 16.9502 18.75H13.6787C13.3276 20.6005 11.7027 22 9.75 22C7.79728 22 6.17242 20.6005 5.82129 18.75H2.5498C1.08709 18.7499 0 17.5336 0 16.1523C0.000100113 15.1908 0.452477 14.285 1.22168 13.708C1.66284 13.3771 1.87982 12.9529 1.99707 12.4131C2.09517 11.9613 2.11456 11.4897 2.13672 10.9482C2.14323 10.7892 2.1501 10.6236 2.15918 10.4512C2.34032 7.01303 4.78686 4.20867 8.00586 3.45215C7.69847 2.99309 7.5 2.42333 7.5 1.875C7.5 1.22084 7.78454 0.697278 8.27832 0.374023C8.72343 0.0826419 9.26698 0 9.75 0ZM7.89648 18.75C8.19327 19.4828 8.9108 20 9.75 20C10.5892 20 11.3067 19.4828 11.6035 18.75H7.89648Z" fill="#F4F5F8"/>
</svg>
