<svg width="23" height="27" viewBox="0 0 23 27" fill="none" xmlns="http://www.w3.org/2000/svg">
<path d="M19.9867 2.95667L12.6533 0.21C11.8933 -0.07 10.6533 -0.07 9.89333 0.21L2.56 2.95667C1.14667 3.49 0 5.14333 0 6.65V17.45C0 18.53 0.706667 19.9567 1.57333 20.5967L8.90667 26.0767C10.2 27.05 12.32 27.05 13.6133 26.0767L20.9467 20.5967C21.8133 19.9433 22.52 18.53 22.52 17.45V6.65C22.5333 5.14333 21.3867 3.49 19.9867 2.95667ZM15.9067 10.4233L10.1733 16.1567C9.97333 16.3567 9.72 16.45 9.46667 16.45C9.21333 16.45 8.96 16.3567 8.76 16.1567L6.62667 13.9967C6.24 13.61 6.24 12.97 6.62667 12.5833C7.01333 12.1967 7.65333 12.1967 8.04 12.5833L9.48 14.0233L14.5067 8.99667C14.8933 8.61 15.5333 8.61 15.92 8.99667C16.3067 9.38333 16.3067 10.0367 15.9067 10.4233Z" fill="white"/>
</svg>
