<svg width="37" height="27" viewBox="0 0 37 27" fill="none" xmlns="http://www.w3.org/2000/svg">
<path d="M4.34082 0.542969H32.5537C34.6512 0.543 36.3516 2.2433 36.3516 4.34082V21.7021C36.3516 23.7997 34.6512 25.5 32.5537 25.5H4.34082C2.24328 25.5 0.542969 23.7997 0.542969 21.7021V4.34082C0.542969 2.24328 2.24328 0.542969 4.34082 0.542969Z" fill="white"/>
<path d="M4.34082 0.542969H32.5537C34.6512 0.543 36.3516 2.2433 36.3516 4.34082V21.7021C36.3516 23.7997 34.6512 25.5 32.5537 25.5H4.34082C2.24328 25.5 0.542969 23.7997 0.542969 21.7021V4.34082C0.542969 2.24328 2.24328 0.542969 4.34082 0.542969Z" stroke="#E5E7EB" stroke-width="1.08512"/>
<path fill-rule="evenodd" clip-rule="evenodd" d="M10.2534 9.05321C9.94376 9.43506 9.44828 9.73624 8.9528 9.69321C8.89086 9.17691 9.13344 8.62833 9.41731 8.28951C9.72699 7.8969 10.2689 7.61723 10.7076 7.59572C10.7592 8.13354 10.5579 8.6606 10.2534 9.05321ZM10.7025 9.79536C10.266 9.76918 9.86775 9.93215 9.54603 10.0638C9.339 10.1485 9.16369 10.2202 9.03031 10.2202C8.88063 10.2202 8.69808 10.1447 8.49311 10.0598C8.22454 9.94863 7.91748 9.82153 7.59549 9.82763C6.85743 9.83838 6.17098 10.274 5.79421 10.9678C5.02003 12.3554 5.59293 14.4098 6.34131 15.5393C6.70775 16.0986 7.14646 16.7117 7.72452 16.6902C7.97883 16.6802 8.16176 16.5993 8.35109 16.5156C8.56905 16.4192 8.79547 16.3191 9.14902 16.3191C9.49031 16.3191 9.70683 16.4166 9.91468 16.5102C10.1123 16.5992 10.3021 16.6847 10.5838 16.6794C11.1825 16.6687 11.5593 16.1201 11.9258 15.5608C12.3212 14.9605 12.495 14.3746 12.5214 14.2857L12.5245 14.2754C12.5238 14.2747 12.5189 14.2724 12.5103 14.2683C12.3781 14.2052 11.3677 13.7232 11.358 12.4307C11.3483 11.3458 12.1595 10.7961 12.2872 10.7096C12.2949 10.7043 12.3002 10.7007 12.3025 10.6989C11.7864 9.90292 10.9813 9.81687 10.7025 9.79536ZM14.8469 16.6203V8.2357H17.8662C19.4249 8.2357 20.5139 9.35437 20.5139 10.9893C20.5139 12.6243 19.4042 13.7537 17.8249 13.7537H16.0959V16.6203H14.8469ZM16.0959 9.33283H17.5359C18.6197 9.33283 19.2391 9.93519 19.2391 10.9947C19.2391 12.0542 18.6197 12.6619 17.5307 12.6619H16.0959V9.33283ZM24.6378 15.6146C24.3075 16.2707 23.5798 16.6849 22.7953 16.6849C21.634 16.6849 20.8237 15.9642 20.8237 14.8778C20.8237 13.8022 21.6082 13.1837 23.0585 13.0922L24.6172 12.9954V12.5329C24.6172 11.8499 24.1888 11.4788 23.4249 11.4788C22.7953 11.4788 22.3359 11.8176 22.243 12.3339H21.1179C21.154 11.2475 22.1346 10.4569 23.4611 10.4569C24.8907 10.4569 25.8197 11.2368 25.8197 12.4469V16.6203H24.6636V15.6146H24.6378ZM23.1306 15.6899C22.4648 15.6899 22.0416 15.3564 22.0416 14.8455C22.0416 14.3184 22.4494 14.0119 23.2287 13.9635L24.6171 13.872V14.3453C24.6171 15.1305 23.9771 15.6899 23.1306 15.6899ZM29.6545 16.9484C29.1538 18.4166 28.5809 18.9007 27.3629 18.9007C27.27 18.9007 26.9603 18.8899 26.888 18.8684V17.8627C26.9655 17.8734 27.1564 17.8842 27.2545 17.8842C27.8067 17.8842 28.1164 17.6422 28.3074 17.0129L28.4209 16.6418L26.3048 10.5376H27.6106L29.0816 15.4909H29.1074L30.5783 10.5376H31.848L29.6545 16.9484Z" fill="black"/>
</svg>
