<svg width="22" height="20" viewBox="0 0 22 20" fill="none" xmlns="http://www.w3.org/2000/svg">
<path d="M20.5255 12.0342C20.9206 11.9102 21.3418 12.1303 21.4659 12.5254C21.59 12.9206 21.3699 13.3417 20.9747 13.4658C19.5815 13.9034 18.201 15.2427 17.1192 16.5996C16.5923 17.2605 16.1622 17.8932 15.8633 18.3604C15.7142 18.5935 15.5982 18.7846 15.5206 18.916C15.482 18.9813 15.4528 19.0318 15.4337 19.0654L15.4122 19.1035L15.4073 19.1113L15.4063 19.1133L15.3458 19.2061C15.1902 19.4095 14.9388 19.5219 14.6788 19.4971C14.4191 19.4722 14.1935 19.3146 14.0792 19.0859L14.0372 18.9834L14.0342 18.9736C14.0309 18.9641 14.0247 18.9483 14.0167 18.9268C14.0004 18.8833 13.9752 18.8177 13.9405 18.7383C13.87 18.5771 13.7658 18.3677 13.6309 18.1641C13.3327 17.7139 13.0285 17.5 12.7501 17.5C12.3359 17.5 12.0001 17.1642 12.0001 16.75C12.0002 16.3359 12.3359 16 12.7501 16C13.7546 16 14.4292 16.6903 14.8096 17.2295C15.1087 16.7788 15.4935 16.233 15.9464 15.665C17.053 14.2769 18.6728 12.616 20.5255 12.0342ZM15.7501 0C16.8699 0 17.9411 0.122919 18.918 0.34668C18.9373 0.3511 18.9566 0.355024 18.9756 0.359375C19.5224 0.484275 19.9681 0.586569 20.4561 0.972656C20.7482 1.20374 21.0734 1.61101 21.2335 1.94727C21.5016 2.51074 21.5007 3.0686 21.5001 3.75879V9.25C21.5001 9.66421 21.1643 10 20.7501 10C20.3359 9.99993 20.0001 9.66417 20.0001 9.25V3.86426C20.0001 3.02178 19.9855 2.81557 19.879 2.5918C19.8175 2.46282 19.6374 2.23801 19.5255 2.14941C19.3225 1.98882 19.1914 1.94793 18.5831 1.80859C17.7206 1.61106 16.7621 1.5 15.7501 1.5C13.9245 1.50002 12.2853 1.8609 11.0674 2.42969C9.62026 3.10556 7.75848 3.5 5.75006 3.5C4.63036 3.49999 3.5599 3.37704 2.58307 3.15332C1.98957 3.01738 1.50006 3.46179 1.50006 3.86426V14.6357C1.50006 15.4782 1.51465 15.6844 1.62115 15.9082C1.68251 16.0371 1.86267 16.2619 1.97467 16.3506C2.17767 16.5112 2.30944 16.552 2.91803 16.6914C3.78034 16.8889 4.73824 17 5.75006 17C7.14601 17 8.43699 16.7889 9.51471 16.4326C9.90793 16.3026 10.3319 16.516 10.462 16.9092C10.592 17.3025 10.3787 17.7264 9.98541 17.8564C8.74282 18.2673 7.29173 18.5 5.75006 18.5C4.63036 18.5 3.5599 18.377 2.58307 18.1533C2.56353 18.1488 2.54375 18.145 2.52448 18.1406C1.97763 18.0157 1.53213 17.9135 1.04401 17.5273C0.751961 17.2963 0.426709 16.889 0.266663 16.5527C-0.00147545 15.9893 -0.000609891 15.4314 6.10352e-05 14.7412V3.86426C6.10352e-05 2.29707 1.59159 1.38759 2.91803 1.69141C3.78034 1.88889 4.73824 1.99999 5.75006 2C7.57568 2 9.21482 1.6391 10.4327 1.07031C11.8799 0.394406 13.7416 1.76092e-05 15.7501 0ZM10.7501 6C12.545 6 14.0001 7.45507 14.0001 9.25C14.0001 11.0449 12.545 12.5 10.7501 12.5C8.9552 12.4999 7.50006 11.0449 7.50006 9.25C7.50006 7.45512 8.9552 6.00007 10.7501 6ZM4.25006 9.25C4.80235 9.25 5.25006 9.69771 5.25006 10.25V10.2588C5.25006 10.8111 4.80235 11.2588 4.25006 11.2588C3.69784 11.2587 3.25006 10.811 3.25006 10.2588V10.25C3.25006 9.69776 3.69784 9.25007 4.25006 9.25ZM10.7501 7.5C9.78362 7.50007 9.00006 8.28355 9.00006 9.25C9.00006 10.2165 9.78362 10.9999 10.7501 11C11.7166 11 12.5001 10.2165 12.5001 9.25C12.5001 8.2835 11.7166 7.5 10.7501 7.5ZM17.2501 7.24219C17.8023 7.24219 18.2501 7.6899 18.2501 8.24219V8.25098C18.2501 8.80326 17.8023 9.25098 17.2501 9.25098C16.6978 9.2509 16.2501 8.80322 16.2501 8.25098V8.24219C16.2501 7.68995 16.6978 7.24226 17.2501 7.24219Z" fill="white"/>
</svg>
