<svg width="15" height="18" viewBox="0 0 15 18" fill="none" xmlns="http://www.w3.org/2000/svg">
<path d="M2.29199 11.666C3.44259 11.666 4.375 12.5994 4.375 13.75C4.37485 14.9005 3.44249 15.833 2.29199 15.833H1.45898V17.291C1.45898 17.6361 1.17901 17.9158 0.833984 17.916C0.488806 17.916 0.208984 17.6362 0.208984 17.291V12.291C0.209184 11.946 0.488929 11.666 0.833984 11.666H2.29199ZM7.08398 11.666C8.34947 11.6662 9.37498 12.6925 9.375 13.958V15.625C9.37485 16.8904 8.34939 17.9158 7.08398 17.916H5.83398C5.48881 17.916 5.20898 17.6362 5.20898 17.291V12.291C5.20918 11.946 5.48893 11.666 5.83398 11.666H7.08398ZM13.75 11.666C14.0951 11.666 14.3748 11.946 14.375 12.291C14.375 12.6362 14.0952 12.916 13.75 12.916H11.667C11.5519 12.916 11.459 13.0099 11.459 13.125V14.166H13.334C13.6789 14.1662 13.9588 14.4461 13.959 14.791C13.959 15.1361 13.679 15.4158 13.334 15.416H11.459V17.291C11.459 17.6361 11.179 17.9158 10.834 17.916C10.4888 17.916 10.209 17.6362 10.209 17.291V13.125C10.209 12.3196 10.8616 11.666 11.667 11.666H13.75ZM6.45898 16.666H7.08398C7.65904 16.6658 8.12485 16.2001 8.125 15.625V13.958C8.12498 13.3828 7.65912 12.9162 7.08398 12.916H6.45898V16.666ZM1.45898 14.583H2.29199C2.75214 14.583 3.12485 14.2101 3.125 13.75C3.125 13.2898 2.75223 12.916 2.29199 12.916H1.45898V14.583ZM6.92578 0C7.42827 -0.000417445 7.82499 -0.000473627 8.19727 0.130859C8.27421 0.158013 8.35022 0.188433 8.42383 0.223633C8.78009 0.394027 9.06084 0.675486 9.41602 1.03125C9.4362 1.05147 9.45684 1.07208 9.47754 1.09277L13.4238 5.04004C13.4478 5.06403 13.4717 5.08792 13.4951 5.11133C13.9072 5.52258 14.2337 5.8478 14.4092 6.27148C14.5847 6.69519 14.5845 7.15611 14.584 7.73828V9.79102C14.584 10.1361 14.304 10.4158 13.959 10.416C13.6138 10.416 13.334 10.1362 13.334 9.79102V7.83887C13.334 7.47396 13.3305 7.24307 13.3193 7.08301H13.0801C11.9404 7.08302 11.0213 7.08346 10.2988 6.98633C9.54887 6.8855 8.91757 6.66938 8.41602 6.16797C7.91442 5.66637 7.6985 5.03427 7.59766 4.28418C7.50058 3.56177 7.49998 2.64335 7.5 1.50391V1.26074C7.36102 1.2519 7.16007 1.25 6.83887 1.25C5.47167 1.25 4.49977 1.25081 3.75391 1.33789C3.02185 1.42341 2.58753 1.5846 2.25879 1.84961C2.1086 1.9707 1.97171 2.10764 1.85059 2.25781C1.58547 2.58663 1.42438 3.02152 1.33887 3.75391C1.25179 4.49974 1.25 5.47079 1.25 6.83789V9.79102C1.25 10.1362 0.970178 10.416 0.625 10.416C0.279972 10.4158 0 10.1361 0 9.79102V6.79785C-9.93411e-06 5.47986 0.000145398 4.43519 0.0966797 3.6084C0.19578 2.75999 0.403811 2.06051 0.876953 1.47363C1.05409 1.25393 1.25491 1.05409 1.47461 0.876953C2.06158 0.403754 2.7608 0.19576 3.60938 0.0966797C4.43607 0.000156725 5.48008 -9.93111e-06 6.79785 0H6.92578ZM8.75098 2.13477C8.75403 2.98038 8.76826 3.61481 8.83594 4.11816C8.91815 4.7296 9.06918 5.05355 9.2998 5.28418C9.53042 5.51467 9.85457 5.66489 10.4658 5.74707C10.9692 5.81471 11.6037 5.82898 12.4492 5.83203L8.75098 2.13477Z" fill="#009CE7"/>
</svg>
