<svg width="24" height="47" viewBox="0 0 24 47" fill="none" xmlns="http://www.w3.org/2000/svg">
<path d="M22.6713 46.6058H1.32869C0.594903 46.6058 0 46.0109 0 45.2771V16.7188C0 15.985 0.594903 15.3901 1.32869 15.3901H22.6713C23.4051 15.3901 24 15.985 24 16.7188V45.2771C24 46.0109 23.4052 46.6058 22.6713 46.6058Z" fill="#64CAFF"/>
<path d="M22.6713 15.3901H19.8581C20.5919 15.3901 21.1868 15.985 21.1868 16.7188V42.4639C21.1868 43.1976 20.5919 43.7925 19.8581 43.7925H0V45.2771C0 46.0109 0.594903 46.6058 1.32869 46.6058H22.6713C23.4051 46.6058 24 46.0109 24 45.2771V16.7188C24 15.9849 23.4052 15.3901 22.6713 15.3901Z" fill="#00B8FF"/>
<path d="M5.50662 0H2.20061C1.73615 0 1.4613 0.519978 1.72284 0.903702L9.64731 12.5325H14.3525L5.9844 0.252534C5.93135 0.174717 5.86009 0.111036 5.77682 0.0670255C5.69356 0.0230148 5.6008 6.27648e-06 5.50662 0Z" fill="#FFC433"/>
<path d="M18.4812 3.17592e-09H21.7871C22.2516 3.17592e-09 22.5264 0.519978 22.2649 0.903702L14.3404 12.5325L11.8556 13.4703L9.63519 12.5325L18.0034 0.252534C18.0565 0.174706 18.1277 0.111016 18.211 0.0670038C18.2942 0.0229916 18.387 -9.86811e-06 18.4812 3.17592e-09Z" fill="#FFE270"/>
<path d="M7.48759 31.0136C10.1899 31.0136 12.3806 28.8229 12.3806 26.1206C12.3806 23.4182 10.1899 21.2275 7.48759 21.2275C4.78523 21.2275 2.59454 23.4182 2.59454 26.1206C2.59454 28.8229 4.78523 31.0136 7.48759 31.0136Z" fill="#FFF8F8"/>
<path d="M7.48767 27.2101C7.30114 27.2101 7.12225 27.136 6.99036 27.0041C6.85846 26.8722 6.78436 26.6933 6.78436 26.5068V25.0153C6.78436 24.8288 6.85846 24.6499 6.99036 24.518C7.12225 24.3861 7.30114 24.312 7.48767 24.312C7.6742 24.312 7.85309 24.3861 7.98498 24.518C8.11688 24.6499 8.19098 24.8288 8.19098 25.0153V26.5068C8.19098 26.6933 8.11688 26.8722 7.98498 27.0041C7.85309 27.136 7.6742 27.2101 7.48767 27.2101Z" fill="#64CAFF"/>
<path d="M20.0885 23.5891H14.7279C14.5414 23.5891 14.3625 23.515 14.2306 23.3831C14.0987 23.2512 14.0246 23.0723 14.0246 22.8858C14.0246 22.6992 14.0987 22.5203 14.2306 22.3884C14.3625 22.2565 14.5414 22.1825 14.7279 22.1825H20.0885C20.275 22.1825 20.4539 22.2565 20.5858 22.3884C20.7177 22.5203 20.7918 22.6992 20.7918 22.8858C20.7918 23.0723 20.7177 23.2512 20.5858 23.3831C20.4539 23.515 20.275 23.5891 20.0885 23.5891ZM20.0885 26.8238H14.7279C14.5414 26.8238 14.3625 26.7497 14.2306 26.6178C14.0987 26.4859 14.0246 26.307 14.0246 26.1205C14.0246 25.934 14.0987 25.7551 14.2306 25.6232C14.3625 25.4913 14.5414 25.4172 14.7279 25.4172H20.0885C20.275 25.4172 20.4539 25.4913 20.5858 25.6232C20.7177 25.7551 20.7918 25.934 20.7918 26.1205C20.7918 26.307 20.7177 26.4859 20.5858 26.6178C20.4539 26.7497 20.275 26.8238 20.0885 26.8238ZM20.0885 30.0586H14.7279C14.5414 30.0586 14.3625 29.9845 14.2306 29.8526C14.0987 29.7207 14.0246 29.5419 14.0246 29.3553C14.0246 29.1688 14.0987 28.9899 14.2306 28.858C14.3625 28.7261 14.5414 28.652 14.7279 28.652H20.0885C20.275 28.652 20.4539 28.7261 20.5858 28.858C20.7177 28.9899 20.7918 29.1688 20.7918 29.3553C20.7918 29.5419 20.7177 29.7207 20.5858 29.8526C20.4539 29.9845 20.275 30.0586 20.0885 30.0586ZM20.0885 35.3631H3.62268C3.43615 35.3631 3.25726 35.289 3.12537 35.1571C2.99347 35.0252 2.91937 34.8463 2.91937 34.6598C2.91937 34.4732 2.99347 34.2943 3.12537 34.1624C3.25726 34.0306 3.43615 33.9565 3.62268 33.9565H20.0885C20.275 33.9565 20.4539 34.0306 20.5858 34.1624C20.7177 34.2943 20.7918 34.4732 20.7918 34.6598C20.7918 34.8463 20.7177 35.0252 20.5858 35.1571C20.4539 35.289 20.275 35.3631 20.0885 35.3631ZM20.0885 38.5941H3.62268C3.43615 38.5941 3.25726 38.5201 3.12537 38.3882C2.99347 38.2563 2.91937 38.0774 2.91937 37.8908C2.91937 37.7043 2.99347 37.5254 3.12537 37.3935C3.25726 37.2616 3.43615 37.1875 3.62268 37.1875H20.0885C20.275 37.1875 20.4539 37.2616 20.5858 37.3935C20.7177 37.5254 20.7918 37.7043 20.7918 37.8908C20.7918 38.0774 20.7177 38.2563 20.5858 38.3882C20.4539 38.5201 20.275 38.5941 20.0885 38.5941ZM20.0885 41.8252H3.62268C3.43615 41.8252 3.25726 41.7511 3.12537 41.6192C2.99347 41.4873 2.91937 41.3085 2.91937 41.1219C2.91937 40.9354 2.99347 40.7565 3.12537 40.6246C3.25726 40.4927 3.43615 40.4186 3.62268 40.4186H20.0885C20.275 40.4186 20.4539 40.4927 20.5858 40.6246C20.7177 40.7565 20.7918 40.9354 20.7918 41.1219C20.7918 41.3085 20.7177 41.4873 20.5858 41.6192C20.4539 41.7511 20.275 41.8252 20.0885 41.8252ZM12.5048 18.8039H11.4953C10.4748 18.8039 9.64748 17.9766 9.64748 16.956V12.5327H14.3527V16.956C14.3526 17.9765 13.5253 18.8039 12.5048 18.8039Z" fill="#4166D4"/>
</svg>
