<svg width="361" height="163" viewBox="0 0 361 163" fill="none" xmlns="http://www.w3.org/2000/svg">
<path d="M340.897 9.31867e-07H153.081C151.897 -0.000674499 150.743 0.365837 149.778 1.04863C148.813 1.73143 148.085 2.69662 147.696 3.81015C146.903 6.0897 145.417 8.06649 143.444 9.46558C141.471 10.8647 139.109 11.6165 136.687 11.6165C134.265 11.6165 131.904 10.8647 129.931 9.46558C127.957 8.06649 126.471 6.0897 125.678 3.81015C125.29 2.70081 124.565 1.73877 123.605 1.05644C122.645 0.374115 121.496 0.00503516 120.316 9.31867e-07H20.118C20.118 2.63145 19.5976 5.23713 18.5865 7.66823C17.5754 10.0993 16.0935 12.3082 14.2253 14.1688C12.3571 16.0293 10.1393 17.5051 7.69853 18.5117C5.25773 19.5184 2.64175 20.0363 0 20.0358V142.964C2.64175 142.964 5.25773 143.482 7.69853 144.488C10.1393 145.495 12.3571 146.971 14.2253 148.831C16.0935 150.692 17.5754 152.901 18.5865 155.332C19.5976 157.763 20.118 160.369 20.118 163H120.316C121.5 163.001 122.654 162.635 123.62 161.952C124.585 161.269 125.312 160.304 125.701 159.19C126.494 156.91 127.98 154.934 129.953 153.534C131.926 152.135 134.288 151.384 136.71 151.384C139.131 151.384 141.493 152.135 143.466 153.534C145.439 154.934 146.925 156.91 147.718 159.19C148.107 160.299 148.831 161.262 149.791 161.944C150.752 162.627 151.901 162.996 153.081 163H340.886C340.886 160.369 341.406 157.764 342.417 155.333C343.428 152.902 344.909 150.693 346.777 148.833C348.645 146.972 350.862 145.496 353.303 144.489C355.743 143.482 358.359 142.964 361 142.964V20.0358C355.667 20.0328 350.554 17.9206 346.784 14.1635C343.015 10.4064 340.897 5.3119 340.897 9.31867e-07ZM135.732 17.4263C135.724 17.2941 135.743 17.1616 135.788 17.037C135.833 16.9124 135.903 16.7983 135.994 16.7018C136.085 16.6053 136.195 16.5284 136.317 16.4758C136.439 16.4232 136.571 16.3961 136.704 16.3961C136.837 16.3961 136.969 16.4232 137.091 16.4758C137.213 16.5284 137.323 16.6053 137.414 16.7018C137.505 16.7983 137.575 16.9124 137.62 17.037C137.665 17.1616 137.684 17.2941 137.676 17.4263V28.656C137.684 28.7882 137.665 28.9207 137.62 29.0453C137.575 29.1699 137.505 29.284 137.414 29.3805C137.323 29.477 137.213 29.554 137.091 29.6065C136.969 29.6591 136.837 29.6862 136.704 29.6862C136.571 29.6862 136.439 29.6591 136.317 29.6065C136.195 29.554 136.085 29.477 135.994 29.3805C135.903 29.284 135.833 29.1699 135.788 29.0453C135.743 28.9207 135.724 28.7882 135.732 28.656V17.4263ZM135.732 36.6592C135.724 36.527 135.743 36.3945 135.788 36.2699C135.833 36.1453 135.903 36.0312 135.994 35.9347C136.085 35.8382 136.195 35.7613 136.317 35.7087C136.439 35.6561 136.571 35.629 136.704 35.629C136.837 35.629 136.969 35.6561 137.091 35.7087C137.213 35.7613 137.323 35.8382 137.414 35.9347C137.505 36.0312 137.575 36.1453 137.62 36.2699C137.665 36.3945 137.684 36.527 137.676 36.6592V47.8889C137.676 48.0802 137.62 48.2673 137.513 48.4265C137.406 48.5856 137.255 48.7097 137.077 48.7829C136.9 48.8561 136.705 48.8753 136.516 48.8379C136.328 48.8005 136.155 48.7083 136.019 48.5729C135.928 48.4838 135.855 48.3774 135.806 48.2599C135.757 48.1424 135.731 48.0163 135.732 47.8889V36.6592ZM135.732 55.8921C135.724 55.7599 135.743 55.6274 135.788 55.5028C135.833 55.3782 135.903 55.2641 135.994 55.1676C136.085 55.0711 136.195 54.9942 136.317 54.9416C136.439 54.889 136.571 54.8619 136.704 54.8619C136.837 54.8619 136.969 54.889 137.091 54.9416C137.213 54.9942 137.323 55.0711 137.414 55.1676C137.505 55.2641 137.575 55.3782 137.62 55.5028C137.665 55.6274 137.684 55.7599 137.676 55.8921V67.1218C137.676 67.3131 137.62 67.5002 137.513 67.6593C137.406 67.8185 137.255 67.9425 137.077 68.0158C136.9 68.089 136.705 68.1082 136.516 68.0708C136.328 68.0334 136.155 67.9412 136.019 67.8058C135.928 67.7167 135.855 67.6103 135.806 67.4928C135.757 67.3753 135.731 67.2492 135.732 67.1218V55.8921ZM135.732 75.125C135.732 74.8677 135.834 74.6209 136.017 74.4389C136.2 74.257 136.448 74.1548 136.706 74.1548C136.834 74.1543 136.96 74.1794 137.078 74.2285C137.196 74.2777 137.303 74.35 137.392 74.441C137.483 74.5307 137.554 74.6374 137.603 74.7548C137.652 74.8722 137.676 74.998 137.676 75.125V86.3547C137.675 86.6107 137.573 86.856 137.391 87.037C137.209 87.218 136.963 87.3202 136.706 87.3212C136.449 87.3192 136.203 87.2169 136.021 87.0362C135.838 86.8554 135.735 86.6108 135.732 86.3547V75.125ZM135.732 94.3579C135.724 94.2257 135.743 94.0932 135.788 93.9686C135.833 93.844 135.903 93.7299 135.994 93.6334C136.085 93.5368 136.195 93.4599 136.317 93.4073C136.439 93.3548 136.571 93.3276 136.704 93.3276C136.837 93.3276 136.969 93.3548 137.091 93.4073C137.213 93.4599 137.323 93.5368 137.414 93.6334C137.505 93.7299 137.575 93.844 137.62 93.9686C137.665 94.0932 137.684 94.2257 137.676 94.3579V105.588C137.676 105.779 137.62 105.966 137.513 106.125C137.406 106.284 137.255 106.408 137.077 106.482C136.9 106.555 136.705 106.574 136.516 106.537C136.328 106.499 136.155 106.407 136.019 106.272C135.928 106.182 135.855 106.076 135.806 105.959C135.757 105.841 135.731 105.715 135.732 105.588V94.3579ZM137.676 144.05C137.676 144.306 137.574 144.553 137.392 144.734C137.21 144.916 136.964 145.019 136.706 145.02C136.448 145.018 136.202 144.915 136.019 144.734C135.837 144.552 135.734 144.306 135.732 144.05V132.82C135.724 132.688 135.743 132.555 135.788 132.431C135.833 132.306 135.903 132.192 135.994 132.095C136.085 131.999 136.195 131.922 136.317 131.869C136.439 131.817 136.571 131.79 136.704 131.79C136.837 131.79 136.969 131.817 137.091 131.869C137.213 131.922 137.323 131.999 137.414 132.095C137.505 132.192 137.575 132.306 137.62 132.431C137.665 132.555 137.684 132.688 137.676 132.82V144.05ZM137.676 124.82C137.676 125.012 137.62 125.199 137.513 125.358C137.406 125.517 137.255 125.641 137.077 125.714C136.9 125.788 136.705 125.807 136.516 125.769C136.328 125.732 136.155 125.64 136.019 125.504L135.989 125.475C135.824 125.296 135.733 125.063 135.732 124.82V113.591C135.732 113.399 135.789 113.212 135.896 113.052C136.003 112.893 136.154 112.769 136.332 112.695C136.51 112.622 136.705 112.602 136.894 112.639C137.083 112.676 137.256 112.768 137.392 112.903C137.562 113.072 137.661 113.297 137.672 113.535C137.674 113.554 137.674 113.572 137.672 113.591L137.676 124.82Z" fill="url(#paint0_linear_4236_9675)"/>
<defs>
<linearGradient id="paint0_linear_4236_9675" x1="365.396" y1="28.1654" x2="-279.241" y2="215.58" gradientUnits="userSpaceOnUse">
<stop stop-color="#009CE7" stop-opacity="0.04"/>
<stop offset="1" stop-color="#009CE7"/>
</linearGradient>
</defs>
</svg>
