<svg width="102" height="102" viewBox="0 0 102 102" fill="none" xmlns="http://www.w3.org/2000/svg">
<path d="M31.875 -0.000244141H0V31.8748H31.875V-0.000244141ZM25.5 25.4998H6.375V6.37476H25.5V25.4998Z" fill="#121933"/>
<path d="M19.126 12.751H12.751V19.126H19.126V12.751Z" fill="#121933"/>
<path d="M70.1255 -0.000244141V31.8748H102V-0.000244141H70.1255ZM95.6255 25.4998H76.5005V6.37476H95.6255V25.4998Z" fill="#121933"/>
<path d="M89.2515 12.751H82.8765V19.126H89.2515V12.751Z" fill="#121933"/>
<path d="M0 101.999H31.875V70.1243H0V101.999ZM6.375 76.4993H25.5V95.6243H6.375V76.4993Z" fill="#121933"/>
<path d="M19.126 82.8755H12.751V89.2505H19.126V82.8755Z" fill="#121933"/>
<path d="M63.7515 -0.000244141H51.0015V6.37476H63.7515V-0.000244141Z" fill="#121933"/>
<path d="M51.0015 25.5012H57.3765V19.1262H63.7515V12.7512H44.6265V6.37622H38.2515V12.7512V15.9387V19.1262H51.0015V25.5012Z" fill="#121933"/>
<path d="M44.6265 25.5H38.2515V31.875H44.6265V25.5Z" fill="#121933"/>
<path d="M63.7515 31.8757H57.3765V38.2507H38.2515V44.6257H63.7515V31.8757Z" fill="#121933"/>
<path d="M6.375 57.3762H12.75V51.0012H6.375V38.2512H0V63.7512H6.375V57.3762Z" fill="#121933"/>
<path d="M19.126 38.2512H12.751V44.6262H19.126V38.2512Z" fill="#121933"/>
<path d="M38.251 63.7512H51.001V57.3762H44.626V51.0012H31.876V38.2512H25.501V51.0012H19.126V63.7512H25.501V57.3762H28.6885H31.876H38.251V63.7512Z" fill="#121933"/>
<path d="M63.7505 50.9995H57.3755V63.7495H63.7505V50.9995Z" fill="#121933"/>
<path d="M57.3765 70.1243H38.2515V76.4993H51.0015V95.6243H38.2515V101.999H57.3765V95.6243H70.1265V89.2493H57.3765V70.1243Z" fill="#121933"/>
<path d="M44.6265 82.8755H38.2515V89.2505H44.6265V82.8755Z" fill="#121933"/>
<path d="M70.1257 70.1243H63.7507V82.8743H70.1257V70.1243Z" fill="#121933"/>
<path d="M95.626 82.8755H76.501V102H82.876V89.2505H95.626V82.8755Z" fill="#121933"/>
<path d="M102 95.6255H89.25V102H102V95.6255Z" fill="#121933"/>
<path d="M102.001 70.1243H95.626V76.4993H102.001V70.1243Z" fill="#121933"/>
<path d="M76.5005 76.501H82.8755V57.376H70.1255V63.751H76.5005V76.501Z" fill="#121933"/>
<path d="M89.2505 44.6262H82.8755V38.2512H76.5005V44.6262H70.1255V51.0012H95.6255V44.6262H102V38.2512H89.2505V44.6262Z" fill="#121933"/>
<path d="M102 57.376H89.25V63.751H102V57.376Z" fill="#121933"/>
</svg>
