<svg width="40" height="29" viewBox="0 0 40 29" fill="none" xmlns="http://www.w3.org/2000/svg">
<path d="M35.2238 23.0057C35.2238 16.7584 39.2636 12.4676 39.2636 9.45595C39.2636 6.44428 37.1028 0.121948 19.82 0.121948C2.53724 0.121948 0 8.62851 0 11.9401C0 27.4474 35.2238 34.0714 35.2238 23.0057Z" fill="#EFEFEF"/>
<path d="M29.6948 0.638647L30.4917 0L32.0867 1.2782L31.2898 1.91684L29.6948 0.638647ZM34.2846 4.31967L35.0815 3.68103L36.6753 4.95922L35.8784 5.59787L34.2846 4.31967ZM34.0817 1.28181L35.6767 0.00361323L36.4736 0.64226L34.8786 1.92046L34.0817 1.28181Z" fill="#A4AFC1"/>
<path d="M30.3398 24.7012H8.92376C8.32587 24.7012 7.75248 24.5109 7.32971 24.1721C6.90694 23.8332 6.66943 23.3737 6.66943 22.8946V7.53814C6.66943 7.05899 6.90694 6.59947 7.32971 6.26066C7.75248 5.92185 8.32587 5.73151 8.92376 5.73151H30.3398C30.9377 5.73151 31.5111 5.92185 31.9339 6.26066C32.3567 6.59947 32.5942 7.05899 32.5942 7.53814V22.8946C32.5942 23.3737 32.3567 23.8332 31.9339 24.1721C31.5111 24.5109 30.9377 24.7012 30.3398 24.7012Z" fill="#F3F3F1"/>
<path d="M30.3398 5.73151H8.92376C8.32587 5.73151 7.75248 5.92185 7.32971 6.26066C6.90694 6.59947 6.66943 7.05899 6.66943 7.53814V11.1514H32.5942V7.53814C32.5942 7.05899 32.3567 6.59947 31.9339 6.26066C31.5111 5.92185 30.9377 5.73151 30.3398 5.73151ZM19.6318 14.7647C21.3564 13.659 23.0809 13.5687 24.8066 14.4937C24.9519 14.5758 25.0699 14.6851 25.1503 14.8122C25.2307 14.9393 25.271 15.0802 25.2676 15.2227V22.0518C25.2669 22.1302 25.2406 22.207 25.1912 22.2747C25.1419 22.3423 25.0712 22.3985 24.9864 22.4374C24.9015 22.4763 24.8053 22.4968 24.7075 22.4966C24.6097 22.4965 24.5137 22.4758 24.429 22.4366C22.8296 21.7166 21.2312 21.8693 19.6318 22.8946C18.0324 21.8693 16.434 21.7166 14.8346 22.4366C14.7499 22.4758 14.6539 22.4965 14.5561 22.4966C14.4583 22.4968 14.3621 22.4763 14.2772 22.4374C14.1924 22.3985 14.1217 22.3423 14.0724 22.2747C14.023 22.207 13.9967 22.1302 13.996 22.0518V15.2227C13.996 14.9345 14.1583 14.6536 14.457 14.4937C16.1816 13.5687 17.9061 13.659 19.6318 14.7647Z" fill="#65B9FF"/>
<path d="M8.92376 22.8946V7.53814C8.92376 7.05899 9.16127 6.59947 9.58404 6.26066C10.0068 5.92185 10.5802 5.73151 11.1781 5.73151H8.92376C8.32587 5.73151 7.75248 5.92185 7.32971 6.26066C6.90694 6.59947 6.66943 7.05899 6.66943 7.53814V22.8946C6.66943 23.3737 6.90694 23.8332 7.32971 24.1721C7.75248 24.5109 8.32587 24.7012 8.92376 24.7012H11.1781C10.5802 24.7012 10.0068 24.5109 9.58404 24.1721C9.16127 23.8332 8.92376 23.3737 8.92376 22.8946Z" fill="#D5DBE1"/>
<path d="M11.1781 5.73151H8.92376C8.32587 5.73151 7.75248 5.92185 7.32971 6.26066C6.90694 6.59947 6.66943 7.05899 6.66943 7.53815V11.1514H8.92376V7.53815C8.92376 7.05899 9.16127 6.59947 9.58404 6.26066C10.0068 5.92185 10.5802 5.73151 11.1781 5.73151ZM16.2503 15.2146C16.2503 14.9264 16.4126 14.6455 16.7113 14.4856C17.1171 14.2679 17.5229 14.1107 17.9287 14.0059C16.7711 13.7123 15.6146 13.8641 14.457 14.4847C14.3115 14.5668 14.1934 14.6763 14.113 14.8036C14.0326 14.9308 13.9925 15.072 13.996 15.2146V22.0436C13.996 22.3887 14.4593 22.5974 14.8346 22.4285C15.2729 22.2285 15.7524 22.0929 16.2503 22.0283V15.2146Z" fill="#65B9FF"/>
<path d="M30.3395 25.1529H8.92338C8.17629 25.1522 7.46007 24.9141 6.9318 24.4907C6.40354 24.0673 6.10636 23.4934 6.10547 22.8946V7.53821C6.10547 6.29343 7.36902 5.27991 8.92338 5.27991H30.3395C31.8938 5.27991 33.1574 6.29343 33.1574 7.53821V22.8946C33.1574 24.1394 31.8938 25.1529 30.3395 25.1529ZM8.92338 6.18323C7.99121 6.18323 7.23263 6.79116 7.23263 7.53821V22.8946C7.23263 23.6417 7.99121 24.2496 8.92338 24.2496H30.3395C31.2716 24.2496 32.0302 23.6417 32.0302 22.8946V7.53821C32.0302 6.79116 31.2716 6.18323 30.3395 6.18323H8.92338Z" fill="black"/>
<path d="M32.5938 11.6031H6.66905C6.51958 11.6031 6.37623 11.5556 6.27054 11.4709C6.16485 11.3862 6.10547 11.2713 6.10547 11.1515C6.10547 11.0317 6.16485 10.9168 6.27054 10.8321C6.37623 10.7474 6.51958 10.6998 6.66905 10.6998H32.5938C32.7433 10.6998 32.8866 10.7474 32.9923 10.8321C33.098 10.9168 33.1574 11.0317 33.1574 11.1515C33.1574 11.2713 33.098 11.3862 32.9923 11.4709C32.8866 11.5556 32.7433 11.6031 32.5938 11.6031ZM12.3049 7.98986C12.1554 7.98986 12.012 7.94228 11.9064 7.85758C11.8007 7.77287 11.7413 7.65799 11.7413 7.5382V3.92493C11.7413 3.80514 11.8007 3.69026 11.9064 3.60555C12.012 3.52085 12.1554 3.47327 12.3049 3.47327C12.4543 3.47327 12.5977 3.52085 12.7034 3.60555C12.8091 3.69026 12.8684 3.80514 12.8684 3.92493V7.5382C12.8684 7.65799 12.8091 7.77287 12.7034 7.85758C12.5977 7.94228 12.4543 7.98986 12.3049 7.98986ZM26.958 7.98986C26.8085 7.98986 26.6652 7.94228 26.5595 7.85758C26.4538 7.77287 26.3944 7.65799 26.3944 7.5382V3.92493C26.3944 3.80514 26.4538 3.69026 26.5595 3.60555C26.6652 3.52085 26.8085 3.47327 26.958 3.47327C27.1074 3.47327 27.2508 3.52085 27.3565 3.60555C27.4622 3.69026 27.5216 3.80514 27.5216 3.92493V7.5382C27.5216 7.65799 27.4622 7.77287 27.3565 7.85758C27.2508 7.94228 27.1074 7.98986 26.958 7.98986ZM19.6314 22.8946C19.4819 22.8946 19.3386 22.847 19.2329 22.7623C19.1272 22.6776 19.0678 22.5628 19.0678 22.443V14.9906C19.0678 14.8708 19.1272 14.7559 19.2329 14.6712C19.3386 14.5865 19.4819 14.5389 19.6314 14.5389C19.7809 14.5389 19.9242 14.5865 20.0299 14.6712C20.1356 14.7559 20.195 14.8708 20.195 14.9906V22.443C20.195 22.5628 20.1356 22.6776 20.0299 22.7623C19.9242 22.847 19.7809 22.8946 19.6314 22.8946Z" fill="black"/>
<path d="M19.6318 23.3463C19.5035 23.3462 19.3791 23.3111 19.279 23.2469C17.8678 22.3409 16.5028 22.2036 15.1107 22.8314C14.9388 22.9101 14.7439 22.9509 14.5459 22.9497C14.3479 22.9484 14.1539 22.9051 13.9836 22.8242C13.8148 22.7459 13.6749 22.6332 13.5781 22.4975C13.4813 22.3619 13.431 22.2081 13.4324 22.0518V15.2227C13.4324 14.7693 13.6973 14.3565 14.1425 14.118C15.9437 13.1514 17.8328 13.1831 19.6318 14.1993C21.4296 13.184 23.3187 13.1514 25.1211 14.118C25.5663 14.3565 25.8312 14.7693 25.8312 15.2227V22.0518C25.8324 22.2082 25.782 22.362 25.685 22.4977C25.588 22.6334 25.4478 22.746 25.2789 22.8242C25.1085 22.905 24.9144 22.9481 24.7164 22.9492C24.5184 22.9503 24.3235 22.9094 24.1517 22.8305C22.7631 22.2036 21.3969 22.3409 19.9835 23.2478C19.8835 23.3115 19.7595 23.3462 19.6318 23.3463ZM16.8252 21.5379C17.7663 21.5379 18.703 21.8016 19.6318 22.3292C21.3056 21.378 23.011 21.2813 24.7052 22.0428L24.704 15.2227C24.7072 15.1545 24.6897 15.0866 24.653 15.0249C24.6163 14.9632 24.5615 14.9096 24.4932 14.8686C22.9828 14.0602 21.5074 14.1406 19.9846 15.118C19.8845 15.1818 19.7603 15.2165 19.6324 15.2165C19.5044 15.2165 19.3802 15.1818 19.2801 15.118C17.7562 14.1406 16.2796 14.0611 14.7703 14.8686C14.7021 14.9096 14.6473 14.9632 14.6106 15.0249C14.5739 15.0866 14.5564 15.1545 14.5596 15.2227V22.0518C15.3136 21.7086 16.07 21.5379 16.8252 21.5379Z" fill="black"/>
</svg>
