<svg width="17" height="13" viewBox="0 0 17 13" fill="none" xmlns="http://www.w3.org/2000/svg">
<path d="M10.4992 12.0895C11.18 12.0895 11.6867 11.5512 12.2975 10.9028C12.4792 10.7095 12.6858 10.4903 12.9225 10.2528L14.5608 8.60949C15.6508 7.51532 16.25 6.91367 16.25 6.0395C16.25 5.16534 15.6508 4.5645 14.5625 3.472L14.5608 3.47033L12.9225 1.82702C12.7425 1.64619 12.5792 1.47783 12.4292 1.3245C11.5458 0.416164 10.9075 -0.23964 9.9908 0.0836933C8.98914 0.436193 8.96586 1.75199 9.0092 2.69116C8.9267 2.68949 8.84499 2.68786 8.76416 2.68619C7.79333 2.66536 6.78834 2.64369 5.80168 2.82869C3.74584 3.21535 2.20587 4.237 1.2242 5.86616C0.411702 7.21366 -4.84288e-07 8.95617 -4.84288e-07 11.0445C-4.84288e-07 11.2778 0.129964 11.492 0.338297 11.5995C0.545797 11.707 0.79582 11.6895 0.986653 11.5545L1.24585 11.3704C2.29252 10.6254 3.28082 9.92119 4.44165 9.60453C5.64915 9.27369 7.01916 9.31534 8.34416 9.35534C8.56416 9.36201 8.78749 9.36869 9.01082 9.37369C8.96666 10.3137 8.98503 11.6429 9.9917 11.997C10.1725 12.0612 10.3409 12.0903 10.4992 12.0903V12.0895ZM13.6758 4.35286L13.6775 4.35453C14.5025 5.18286 15.0008 5.68284 15.0008 6.0395C15.0008 6.39617 14.5033 6.897 13.6783 7.72533L12.0383 9.37035C11.7883 9.62119 11.5758 9.84701 11.3883 10.0462C10.73 10.7453 10.5708 10.872 10.4125 10.8195C10.3292 10.7462 10.2034 10.4337 10.2734 9.17952C10.2825 9.01618 10.29 8.87451 10.29 8.75618C10.29 8.41118 10.01 8.13118 9.66504 8.13118C9.24754 8.13118 8.82667 8.11867 8.38167 8.10534C6.96501 8.06284 5.49997 8.01867 4.11247 8.39867C3.06413 8.68451 2.15997 9.21951 1.30664 9.80118C1.61497 6.51951 3.20087 4.5895 6.03337 4.057C6.89253 3.89533 7.83086 3.91617 8.73836 3.93534C9.04253 3.942 9.35671 3.94868 9.66504 3.94868C10.01 3.94868 10.29 3.66868 10.29 3.32368C10.29 3.20618 10.2825 3.06451 10.2734 2.90034C10.2042 1.64701 10.3292 1.3345 10.4125 1.26033C10.5783 1.21283 11.0225 1.66868 11.5342 2.19535C11.6875 2.35285 11.8542 2.52451 12.0383 2.70951L13.6767 4.35286H13.6758Z" fill="#009CE7"/>
</svg>
