<svg width="64" height="64" viewBox="0 0 64 64" fill="none" xmlns="http://www.w3.org/2000/svg">
<g filter="url(#filter0_d_4244_10472)">
<rect x="12" y="6" width="40" height="40" rx="12" fill="url(#paint0_linear_4244_10472)"/>
</g>
<path d="M27.8547 14.1631C29.067 14.1632 30.2032 14.4683 31.1838 14.999C31.5128 14.9671 31.8464 14.9502 32.1838 14.9502C37.8354 14.9502 42.4172 19.532 42.4172 25.1836C42.4172 25.6882 42.3783 26.1839 42.3078 26.6689C42.8762 27.6151 43.2042 28.7222 43.2043 29.9062C43.2043 33.3842 40.3844 36.2041 36.9064 36.2041C35.7224 36.204 34.6153 35.876 33.6691 35.3076C33.1841 35.3782 32.6884 35.417 32.1838 35.417C26.5321 35.417 21.9504 30.8352 21.9504 25.1836C21.9504 24.6527 21.9906 24.1312 22.0685 23.6221C21.494 22.6928 21.1634 21.6135 21.1633 20.4609C21.1633 16.983 24.1594 14.1631 27.8547 14.1631ZM32.2375 19.6738C30.574 19.674 28.3557 20.723 28.3557 22.5596C28.3557 24.3963 29.7427 25.052 31.1291 25.708C32.2381 26.2327 33.9014 26.4955 33.9016 27.5449C33.9016 28.5943 32.7927 28.8574 31.6838 28.8574C30.5747 28.8574 28.9944 27.388 28.3566 28.5947C27.8021 29.6443 29.4484 30.6934 31.6838 30.6934C34.179 30.6932 36.1193 29.6439 36.1193 27.5449C36.1192 25.4459 33.6238 24.6586 32.2375 24.1338C30.8515 23.6091 30.5744 23.0843 30.5744 22.5596C30.5745 22.0349 31.1287 21.5099 32.2375 21.5098C33.3466 21.5098 34.8067 22.9443 35.5646 21.5098C36.119 20.4602 33.9011 19.6738 32.2375 19.6738Z" fill="white"/>
<defs>
<filter id="filter0_d_4244_10472" x="0" y="0" width="64" height="64" filterUnits="userSpaceOnUse" color-interpolation-filters="sRGB">
<feFlood flood-opacity="0" result="BackgroundImageFix"/>
<feColorMatrix in="SourceAlpha" type="matrix" values="0 0 0 0 0 0 0 0 0 0 0 0 0 0 0 0 0 0 127 0" result="hardAlpha"/>
<feOffset dy="6"/>
<feGaussianBlur stdDeviation="6"/>
<feColorMatrix type="matrix" values="0 0 0 0 0.113725 0 0 0 0 0.498039 0 0 0 0 0.847059 0 0 0 0.2 0"/>
<feBlend mode="normal" in2="BackgroundImageFix" result="effect1_dropShadow_4244_10472"/>
<feBlend mode="normal" in="SourceGraphic" in2="effect1_dropShadow_4244_10472" result="shape"/>
</filter>
<linearGradient id="paint0_linear_4244_10472" x1="16.4444" y1="13.7778" x2="46.4444" y2="38.7778" gradientUnits="userSpaceOnUse">
<stop stop-color="#58D3EE"/>
<stop offset="1" stop-color="#0B66D1"/>
</linearGradient>
</defs>
</svg>
