<svg width="12" height="13" viewBox="0 0 12 13" fill="none" xmlns="http://www.w3.org/2000/svg">
<path d="M10.6248 9.99998H8.5348C8.43534 9.99998 8.33996 9.96048 8.26964 9.89015C8.19931 9.81982 8.1598 9.72444 8.1598 9.62499C8.1598 9.52553 8.19931 9.43015 8.26964 9.35982C8.33996 9.2895 8.43534 9.24999 8.5348 9.24999H10.3618L11.0893 7.25H0.909808L1.63731 9.24999H3.46481C3.56426 9.24999 3.65964 9.2895 3.72997 9.35982C3.8003 9.43015 3.83981 9.52553 3.83981 9.62499C3.83981 9.72444 3.8003 9.81982 3.72997 9.89015C3.65964 9.96048 3.56426 9.99998 3.46481 9.99998H1.37481C1.2978 9.99999 1.22266 9.97628 1.15959 9.93209C1.09653 9.8879 1.04859 9.82537 1.02231 9.75299L0.0223091 7.003C0.0018602 6.94635 -0.00466399 6.88562 0.00328702 6.82592C0.011238 6.76623 0.033431 6.70932 0.0679933 6.66C0.102556 6.61068 0.148474 6.5704 0.201873 6.54255C0.255272 6.51471 0.314585 6.50011 0.374809 6.5H11.6248C11.6851 6.49997 11.7446 6.51449 11.7981 6.54233C11.8516 6.57017 11.8976 6.61051 11.9322 6.65993C11.9668 6.70935 11.989 6.76638 11.9968 6.82619C12.0047 6.886 11.998 6.94683 11.9773 7.0035L10.9773 9.75348C10.9509 9.82577 10.903 9.8882 10.8399 9.9323C10.7768 9.97639 10.7017 10 10.6248 9.99998Z" fill="#7A7A90"/>
<path d="M8.12535 12.0001C8.07131 12 8.01793 11.9883 7.96884 11.9656C7.91976 11.943 7.87612 11.9101 7.84091 11.8691C7.8057 11.8281 7.77974 11.78 7.76481 11.7281C7.74987 11.6761 7.7463 11.6216 7.75435 11.5681L8.18785 8.75016H3.81186L4.24536 11.5681C4.25433 11.6174 4.25333 11.668 4.24242 11.717C4.23151 11.7659 4.21091 11.8121 4.18183 11.8529C4.15276 11.8937 4.1158 11.9283 4.07313 11.9546C4.03047 11.9809 3.98297 11.9983 3.93344 12.0059C3.88391 12.0136 3.83336 12.0112 3.78477 11.9989C3.73618 11.9867 3.69053 11.9648 3.65053 11.9346C3.61053 11.9045 3.57699 11.8666 3.55188 11.8232C3.52678 11.7798 3.51062 11.7319 3.50436 11.6821L3.00436 8.43216C2.99614 8.37873 2.99957 8.32416 3.01441 8.27219C3.02926 8.22021 3.05516 8.17206 3.09035 8.13103C3.12554 8.09 3.16918 8.05706 3.21829 8.03447C3.26739 8.01189 3.3208 8.00018 3.37486 8.00016H8.62485C8.67895 8.00017 8.73241 8.01188 8.78156 8.0345C8.83071 8.05712 8.87438 8.09011 8.90958 8.13119C8.94477 8.17228 8.97066 8.2205 8.98547 8.27253C9.00028 8.32457 9.00365 8.3792 8.99535 8.43266L8.49535 11.6826C8.48174 11.771 8.43696 11.8516 8.36909 11.9098C8.30123 11.9681 8.21477 12.0001 8.12535 12.0001ZM11.2498 7.12516C11.1504 7.12516 11.055 7.08565 10.9847 7.01533C10.9144 6.945 10.8748 6.84962 10.8748 6.75017C10.8722 6.25883 10.7439 5.77633 10.5023 5.3485C10.2607 4.92067 9.91372 4.5617 9.49435 4.30568C9.40942 4.25389 9.34853 4.17049 9.32509 4.07382C9.30165 3.97714 9.31757 3.87511 9.36935 3.79018C9.42113 3.70524 9.50454 3.64436 9.60121 3.62092C9.69789 3.59747 9.79992 3.6134 9.88485 3.66518C10.9578 4.31918 11.6243 5.50117 11.6243 6.75017C11.6244 6.79939 11.6148 6.84814 11.596 6.89363C11.5772 6.93913 11.5496 6.98047 11.5148 7.0153C11.4801 7.05013 11.4387 7.07776 11.3933 7.09661C11.3478 7.11546 11.2991 7.12516 11.2498 7.12516Z" fill="#7A7A90"/>
<path d="M9.24976 4.49999C9.66397 4.49999 9.99975 4.16421 9.99975 3.75C9.99975 3.33578 9.66397 3 9.24976 3C8.83554 3 8.49976 3.33578 8.49976 3.75C8.49976 4.16421 8.83554 4.49999 9.24976 4.49999Z" fill="#7A7A90"/>
<path d="M5.99975 3.99998C4.89675 3.99998 3.99975 3.10299 3.99975 1.99999C3.99975 0.896996 4.89675 0 5.99975 0C7.10275 0 7.99975 0.896996 7.99975 1.99999C7.99975 3.10299 7.10275 3.99998 5.99975 3.99998ZM5.99975 0.749997C5.31025 0.749997 4.74975 1.31099 4.74975 1.99999C4.74975 2.68899 5.31025 3.24998 5.99975 3.24998C6.68925 3.24998 7.24975 2.68899 7.24975 1.99999C7.24975 1.31099 6.68925 0.749997 5.99975 0.749997ZM9.74975 7.24997C9.65029 7.24997 9.55491 7.21046 9.48458 7.14013C9.41426 7.06981 9.37475 6.97442 9.37475 6.87497C9.37422 6.44416 9.20284 6.03114 8.89821 5.72651C8.59358 5.42188 8.18056 5.2505 7.74975 5.24998H4.24975C3.81894 5.2505 3.40592 5.42188 3.10129 5.72651C2.79666 6.03114 2.62528 6.44416 2.62476 6.87497C2.62476 6.97442 2.58525 7.06981 2.51492 7.14013C2.44459 7.21046 2.34921 7.24997 2.24976 7.24997C2.1503 7.24997 2.05492 7.21046 1.98459 7.14013C1.91426 7.06981 1.87476 6.97442 1.87476 6.87497C1.87555 6.24533 2.12603 5.6417 2.57125 5.19647C3.01648 4.75125 3.62011 4.50077 4.24975 4.49998H7.74975C8.37939 4.50077 8.98302 4.75125 9.42825 5.19647C9.87348 5.6417 10.124 6.24533 10.1247 6.87497C10.1247 6.97442 10.0852 7.06981 10.0149 7.14013C9.94459 7.21046 9.8492 7.24997 9.74975 7.24997Z" fill="#7A7A90"/>
</svg>
