<svg width="175" height="175" viewBox="0 0 175 175" fill="none" xmlns="http://www.w3.org/2000/svg">
<g filter="url(#filter0_d_4155_37910)">
<path d="M80.0975 22.4337C83.8925 19.1888 90.1075 19.1888 93.9575 22.4337L102.647 29.9137C104.298 31.3437 107.378 32.4987 109.577 32.4987H118.927C124.757 32.4987 129.543 37.2837 129.543 43.1137V52.4637C129.543 54.6087 130.698 57.7437 132.128 59.3937L139.608 68.0837C142.853 71.8787 142.853 78.0938 139.608 81.9437L132.128 90.6338C130.698 92.2837 129.543 95.3637 129.543 97.5638V106.914C129.543 112.744 124.757 117.529 118.927 117.529H109.577C107.433 117.529 104.298 118.684 102.647 120.114L93.9575 127.594C90.1625 130.839 83.9475 130.839 80.0975 127.594L71.4075 120.114C69.7575 118.684 66.6775 117.529 64.4775 117.529H54.9625C49.1325 117.529 44.3475 112.744 44.3475 106.914V97.5087C44.3475 95.3637 43.1925 92.2837 41.8175 90.6338L34.3925 81.8887C31.2025 78.0937 31.2025 71.9338 34.3925 68.1387L41.8175 59.3937C43.1925 57.7437 44.3475 54.6637 44.3475 52.5187V43.0587C44.3475 37.2287 49.1325 32.4437 54.9625 32.4437H64.4775C66.6225 32.4437 69.7575 31.2887 71.4075 29.8587L80.0975 22.4337Z" fill="#25306C"/>
<path d="M80.3177 92.3942C79.2177 92.3942 78.1727 91.9542 77.4027 91.1842L64.0927 77.8742C62.4977 76.2792 62.4977 73.6392 64.0927 72.0442C65.6877 70.4492 68.3277 70.4492 69.9227 72.0442L80.3177 82.4392L103.968 58.7892C105.563 57.1942 108.203 57.1942 109.798 58.7892C111.393 60.3842 111.393 63.0242 109.798 64.6192L83.2327 91.1842C82.4627 91.9542 81.4177 92.3942 80.3177 92.3942Z" fill="white"/>
</g>
<defs>
<filter id="filter0_d_4155_37910" x="0" y="0" width="174.041" height="174.027" filterUnits="userSpaceOnUse" color-interpolation-filters="sRGB">
<feFlood flood-opacity="0" result="BackgroundImageFix"/>
<feColorMatrix in="SourceAlpha" type="matrix" values="0 0 0 0 0 0 0 0 0 0 0 0 0 0 0 0 0 0 127 0" result="hardAlpha"/>
<feOffset dy="12"/>
<feGaussianBlur stdDeviation="16"/>
<feComposite in2="hardAlpha" operator="out"/>
<feColorMatrix type="matrix" values="0 0 0 0 0.251908 0 0 0 0 0.0276215 0 0 0 0 0.330712 0 0 0 0.15 0"/>
<feBlend mode="normal" in2="BackgroundImageFix" result="effect1_dropShadow_4155_37910"/>
<feBlend mode="normal" in="SourceGraphic" in2="effect1_dropShadow_4155_37910" result="shape"/>
</filter>
</defs>
</svg>
