<svg width="361" height="69" viewBox="0 0 361 69" fill="none" xmlns="http://www.w3.org/2000/svg">
<path d="M5.70715 2.04072e-06H285.51V2.48043C285.523 2.57774 285.61 2.66894 285.755 2.73557C285.899 2.8022 286.09 2.83928 286.287 2.83928C286.485 2.83928 286.676 2.8022 286.82 2.73557C286.964 2.66894 287.052 2.57774 287.065 2.48043V2.04072e-06H355.317C356.763 -0.000625579 358.156 0.270342 359.211 0.757822C360.267 1.2453 360.907 1.9127 361 2.62435C358.938 2.62435 356.961 3.02821 355.503 3.74708C354.045 4.46595 353.226 5.44095 353.226 6.45759C353.226 7.47423 354.045 8.44923 355.503 9.1681C356.961 9.88697 358.938 10.2908 361 10.2908V13.8464C358.938 13.8464 356.961 14.2503 355.503 14.9691C354.045 15.688 353.226 16.663 353.226 17.6796C353.226 18.6963 354.045 19.6713 355.503 20.3901C356.961 21.109 358.938 21.5129 361 21.5129V25.0583C358.966 25.0794 357.03 25.4926 355.606 26.2093C354.183 26.926 353.386 27.8892 353.386 28.8924C353.386 29.8955 354.183 30.8587 355.606 31.5754C357.03 32.2922 358.966 32.7054 361 32.7265V36.2719C358.938 36.2719 356.961 36.6757 355.503 37.3946C354.045 38.1135 353.226 39.0885 353.226 40.1051C353.226 41.1217 354.045 42.0967 355.503 42.8156C356.961 43.5345 358.938 43.9383 361 43.9383V47.4753C358.938 47.4753 356.961 47.8791 355.503 48.598C354.045 49.3169 353.226 50.2919 353.226 51.3085C353.226 52.3252 354.045 53.3002 355.503 54.019C356.961 54.7379 358.938 55.1418 361 55.1418V58.6872C358.966 58.7082 357.03 59.1214 355.606 59.8382C354.183 60.5549 353.386 61.5181 353.386 62.5212C353.386 63.5244 354.183 64.4876 355.606 65.2043C357.03 65.921 358.966 66.3343 361 66.3553C360.915 67.0709 360.278 67.7434 359.221 68.235C358.163 68.7267 356.764 69.0004 355.31 69H287.058V66.1217C287.045 66.0244 286.958 65.9332 286.813 65.8665C286.669 65.7999 286.478 65.7628 286.281 65.7628C286.083 65.7628 285.892 65.7999 285.748 65.8665C285.604 65.9332 285.516 66.0244 285.503 66.1217V69H5.70026C4.95187 69.0002 4.21069 68.9277 3.51913 68.7867C2.82758 68.6456 2.1991 68.4387 1.66974 68.1779C1.14038 67.917 0.72052 67.6073 0.434021 67.2664C0.147522 66.9255 0 66.5601 0 66.1911V2.8089C0.000457764 2.43966 0.148438 2.07409 0.435516 1.73307C0.722626 1.39205 1.14319 1.08226 1.67319 0.821407C2.20319 0.560555 2.83228 0.353751 3.52441 0.212811C4.21658 0.0718703 4.95828 -0.000442887 5.70715 2.04072e-06ZM285.51 64.5759C285.503 64.6284 285.517 64.681 285.553 64.7306C285.589 64.7801 285.645 64.8255 285.718 64.864C285.791 64.9024 285.879 64.933 285.977 64.9539C286.075 64.9749 286.181 64.9857 286.287 64.9857C286.394 64.9857 286.5 64.9749 286.598 64.9539C286.696 64.933 286.784 64.9024 286.857 64.864C286.93 64.8255 286.986 64.7801 287.022 64.7306C287.057 64.681 287.072 64.6284 287.065 64.5759V60.9407C287.052 60.8434 286.964 60.7522 286.82 60.6856C286.676 60.6189 286.485 60.5819 286.287 60.5819C286.09 60.5819 285.899 60.6189 285.755 60.6856C285.61 60.7522 285.523 60.8434 285.51 60.9407V64.5759ZM285.51 59.4017C285.523 59.499 285.61 59.5902 285.755 59.6568C285.899 59.7234 286.09 59.7605 286.287 59.7605C286.485 59.7605 286.676 59.7234 286.82 59.6568C286.964 59.5902 287.052 59.499 287.065 59.4017V55.7716C287.072 55.7191 287.057 55.6664 287.022 55.6169C286.986 55.5673 286.93 55.5219 286.857 55.4835C286.784 55.4451 286.696 55.4144 286.598 55.3935C286.5 55.3726 286.394 55.3618 286.287 55.3618C286.181 55.3618 286.075 55.3726 285.977 55.3935C285.879 55.4144 285.791 55.4451 285.718 55.4835C285.645 55.5219 285.589 55.5673 285.553 55.6169C285.517 55.6664 285.503 55.7191 285.51 55.7716V59.4017ZM285.51 54.2258C285.503 54.2783 285.517 54.3309 285.553 54.3805C285.589 54.43 285.645 54.4754 285.718 54.5139C285.791 54.5523 285.879 54.5829 285.977 54.6039C286.075 54.6248 286.181 54.6356 286.287 54.6356C286.394 54.6356 286.5 54.6248 286.598 54.6039C286.696 54.5829 286.784 54.5523 286.857 54.5139C286.93 54.4754 286.986 54.43 287.022 54.3805C287.057 54.3309 287.072 54.2783 287.065 54.2258V50.5906C287.052 50.4933 286.964 50.4021 286.82 50.3355C286.676 50.2689 286.485 50.2318 286.287 50.2318C286.09 50.2318 285.899 50.2689 285.755 50.3355C285.61 50.4021 285.523 50.4933 285.51 50.5906V54.2258ZM285.51 49.0516C285.523 49.1489 285.61 49.2401 285.755 49.3067C285.899 49.3733 286.09 49.4104 286.287 49.4104C286.485 49.4104 286.676 49.3733 286.82 49.3067C286.964 49.2401 287.052 49.1489 287.065 49.0516V45.4164C287.072 45.3639 287.057 45.3113 287.022 45.2617C286.986 45.2122 286.93 45.1668 286.857 45.1283C286.784 45.0899 286.696 45.0593 286.598 45.0383C286.5 45.0174 286.394 45.0066 286.287 45.0066C286.181 45.0066 286.075 45.0174 285.977 45.0383C285.879 45.0593 285.791 45.0899 285.718 45.1283C285.645 45.1668 285.589 45.2122 285.553 45.2617C285.517 45.3113 285.503 45.3639 285.51 45.4164V49.0516ZM285.51 43.8757C285.523 43.973 285.61 44.0642 285.755 44.1308C285.899 44.1975 286.09 44.2345 286.287 44.2345C286.485 44.2345 286.676 44.1975 286.82 44.1308C286.964 44.0642 287.052 43.973 287.065 43.8757V40.2405C287.052 40.1432 286.964 40.052 286.82 39.9854C286.676 39.9188 286.485 39.8817 286.287 39.8817C286.09 39.8817 285.899 39.9188 285.755 39.9854C285.61 40.052 285.523 40.1432 285.51 40.2405V43.8757ZM285.51 38.6998C285.503 38.7523 285.517 38.805 285.553 38.8545C285.589 38.9041 285.645 38.9495 285.718 38.9879C285.791 39.0263 285.879 39.0569 285.977 39.0779C286.075 39.0988 286.181 39.1096 286.287 39.1096C286.394 39.1096 286.5 39.0988 286.598 39.0779C286.696 39.0569 286.784 39.0263 286.857 38.9879C286.93 38.9495 286.986 38.9041 287.022 38.8545C287.057 38.805 287.072 38.7523 287.065 38.6998V35.0647C287.052 34.9674 286.964 34.8761 286.82 34.8095C286.676 34.7429 286.485 34.7058 286.287 34.7058C286.09 34.7058 285.899 34.7429 285.755 34.8095C285.61 34.8761 285.523 34.9674 285.51 35.0647V38.6998ZM285.51 33.5256C285.523 33.6229 285.61 33.7141 285.755 33.7808C285.899 33.8474 286.09 33.8845 286.287 33.8845C286.485 33.8845 286.676 33.8474 286.82 33.7808C286.964 33.7141 287.052 33.6229 287.065 33.5256V29.8905C287.072 29.838 287.057 29.7853 287.022 29.7357C286.986 29.6862 286.93 29.6408 286.857 29.6024C286.784 29.5639 286.696 29.5333 286.598 29.5124C286.5 29.4914 286.394 29.4806 286.287 29.4806C286.181 29.4806 286.075 29.4914 285.977 29.5124C285.879 29.5333 285.791 29.5639 285.718 29.6024C285.645 29.6408 285.589 29.6862 285.553 29.7357C285.517 29.7853 285.503 29.838 285.51 29.8905V33.5256ZM285.51 28.3497C285.503 28.4022 285.517 28.4549 285.553 28.5044C285.589 28.554 285.645 28.5994 285.718 28.6378C285.791 28.6762 285.879 28.7069 285.977 28.7278C286.075 28.7487 286.181 28.7596 286.287 28.7596C286.394 28.7596 286.5 28.7487 286.598 28.7278C286.696 28.7069 286.784 28.6762 286.857 28.6378C286.93 28.5994 286.986 28.554 287.022 28.5044C287.057 28.4549 287.072 28.4022 287.065 28.3497V24.7146C287.052 24.6173 286.964 24.5261 286.82 24.4594C286.676 24.3928 286.485 24.3557 286.287 24.3557C286.09 24.3557 285.899 24.3928 285.755 24.4594C285.61 24.5261 285.523 24.6173 285.51 24.7146V28.3497ZM285.51 23.1755C285.523 23.2728 285.61 23.364 285.755 23.4307C285.899 23.4973 286.09 23.5344 286.287 23.5344C286.485 23.5344 286.676 23.4973 286.82 23.4307C286.964 23.364 287.052 23.2728 287.065 23.1755V19.5387C287.072 19.4862 287.057 19.4335 287.022 19.384C286.986 19.3344 286.93 19.289 286.857 19.2506C286.784 19.2122 286.696 19.1815 286.598 19.1606C286.5 19.1397 286.394 19.1289 286.287 19.1289C286.181 19.1289 286.075 19.1397 285.977 19.1606C285.879 19.1815 285.791 19.2122 285.718 19.2506C285.645 19.289 285.589 19.3344 285.553 19.384C285.517 19.4335 285.503 19.4862 285.51 19.5387V23.1755ZM285.51 17.9996C285.523 18.0969 285.61 18.1881 285.755 18.2548C285.899 18.3214 286.09 18.3585 286.287 18.3585C286.485 18.3585 286.676 18.3214 286.82 18.2548C286.964 18.1881 287.052 18.0969 287.065 17.9996V14.3645C287.052 14.2672 286.964 14.176 286.82 14.1093C286.676 14.0427 286.485 14.0056 286.287 14.0056C286.09 14.0056 285.899 14.0427 285.755 14.1093C285.61 14.176 285.523 14.2672 285.51 14.3645V17.9996ZM285.51 12.8237C285.503 12.8762 285.517 12.9289 285.553 12.9785C285.589 13.028 285.645 13.0734 285.718 13.1118C285.791 13.1503 285.879 13.1809 285.977 13.2018C286.075 13.2228 286.181 13.2336 286.287 13.2336C286.394 13.2336 286.5 13.2228 286.598 13.2018C286.696 13.1809 286.784 13.1503 286.857 13.1118C286.93 13.0734 286.986 13.028 287.022 12.9785C287.057 12.9289 287.072 12.8762 287.065 12.8237V9.1886C287.052 9.09129 286.964 9.00009 286.82 8.93346C286.676 8.86683 286.485 8.82976 286.287 8.82976C286.09 8.82976 285.899 8.86683 285.755 8.93346C285.61 9.00009 285.523 9.09129 285.51 9.1886V12.8237ZM285.51 7.64955C285.523 7.74685 285.61 7.83806 285.755 7.90469C285.899 7.97132 286.09 8.00839 286.287 8.00839C286.485 8.00839 286.676 7.97132 286.82 7.90469C286.964 7.83806 287.052 7.74685 287.065 7.64955V4.0144C287.072 3.9619 287.057 3.90924 287.022 3.85968C286.986 3.81013 286.93 3.76473 286.857 3.72631C286.784 3.68789 286.696 3.65726 286.598 3.63632C286.5 3.61538 286.394 3.60457 286.287 3.60457C286.181 3.60457 286.075 3.61538 285.977 3.63632C285.879 3.65726 285.791 3.68789 285.718 3.72631C285.645 3.76473 285.589 3.81013 285.553 3.85968C285.517 3.90924 285.503 3.9619 285.51 4.0144V7.64955Z" fill="#D0F6DF"/>
</svg>
