<svg width="22" height="22" viewBox="0 0 22 22" fill="none" xmlns="http://www.w3.org/2000/svg">
<path fill-rule="evenodd" clip-rule="evenodd" d="M0 10.75C0 4.81294 4.81294 0 10.75 0C11.4853 0 12.2042 0.0739374 12.8992 0.215032C13.3051 0.297437 13.5674 0.693315 13.485 1.09925C13.4026 1.50518 13.0067 1.76745 12.6008 1.68505C12.0034 1.56378 11.3845 1.5 10.75 1.5C5.64136 1.5 1.5 5.64136 1.5 10.75C1.5 15.8586 5.64137 20 10.75 20C15.8586 20 20 15.8586 20 10.75C20 10.1155 19.9362 9.49657 19.815 8.89912C19.7326 8.49318 19.9949 8.09733 20.4009 8.01497C20.8068 7.93262 21.2027 8.19494 21.285 8.60088C21.426 9.29583 21.5 10.0147 21.5 10.75C21.5 16.687 16.687 21.5 10.75 21.5C4.81293 21.5 0 16.687 0 10.75ZM10.75 6.5C8.40279 6.5 6.5 8.40279 6.5 10.75C6.5 13.0972 8.4028 15 10.75 15C13.0972 15 15 13.0972 15 10.75C15 10.3358 15.3358 10 15.75 10C16.1642 10 16.5 10.3358 16.5 10.75C16.5 13.9256 13.9256 16.5 10.75 16.5C7.57436 16.5 5 13.9256 5 10.75C5 7.57437 7.57437 5 10.75 5C11.1642 5 11.5 5.33579 11.5 5.75C11.5 6.16421 11.1642 6.5 10.75 6.5ZM18.6533 0.884371C18.4035 0.0824929 17.4047 -0.288988 16.7014 0.28579C15.9772 0.877588 15.1097 1.65514 14.6211 2.6701C14.1721 3.6027 14.0675 4.68071 14.5348 5.89726L10.2499 10.1821C9.95705 10.475 9.95705 10.9499 10.2499 11.2428C10.5428 11.5357 11.0177 11.5357 11.3106 11.2428L15.575 6.97837C16.8712 7.46277 17.9813 7.33434 18.9226 6.85267C19.9076 6.34863 20.6449 5.48504 21.201 4.81361C21.7872 4.10576 21.4129 3.07943 20.583 2.83949C20.5736 2.83676 20.5641 2.83422 20.5545 2.83186L19.0955 2.47146L18.6598 0.906278C18.6577 0.898944 18.6556 0.89164 18.6533 0.884371ZM18.2393 5.51734C17.6711 5.80807 16.9717 5.92404 16.0087 5.538C15.5985 4.60969 15.6906 3.90658 15.9726 3.32077C16.2545 2.7351 16.751 2.21567 17.3285 1.71724L17.7679 3.29567C17.8404 3.55638 18.0478 3.75777 18.3105 3.82266L19.7708 4.18335C19.2918 4.73995 18.8057 5.2275 18.2393 5.51734Z" fill="white"/>
</svg>
