<svg width="123" height="153" viewBox="0 0 123 153" fill="none" xmlns="http://www.w3.org/2000/svg">
<path fill-rule="evenodd" clip-rule="evenodd" d="M90.5192 36.2357C95.0977 40.7393 98.5481 46.2604 100.583 52.3321C105.619 67.1434 101.856 83.5283 90.869 94.6514C86.7986 98.7907 81.8965 102.008 76.4949 104.097L65.7206 125.96C64.1367 129.175 59.5631 129.201 57.9421 126.005L46.9156 104.268C41.4903 102.242 36.5519 99.0821 32.44 94.9962C21.3186 83.9942 17.3661 67.6539 22.2241 52.8029C24.1954 46.6887 27.5831 41.1265 32.1033 36.5775L33.8048 34.8656C49.377 20.7586 73.0676 20.6216 88.9769 34.7111L90.5192 36.2357Z" fill="white" stroke="#25306C" stroke-width="2.5"/>
<path d="M61 51.083C67.4485 51.083 71.6097 53.8077 73.7051 55.6855L73.7412 55.7168C74.322 56.237 74.7859 56.6534 75.1846 57.5459C75.5844 58.441 75.5847 59.2219 75.584 60.1807L75.583 72.4248C75.583 74.7041 75.5839 76.5414 75.3896 77.9863C75.188 79.4865 74.7561 80.7497 73.7529 81.7529C72.8857 82.6201 71.8239 83.0584 70.583 83.292V85.667C70.5828 86.3572 70.0233 86.917 69.333 86.917C68.6429 86.9168 68.0832 86.3571 68.083 85.667V83.5391C67.0177 83.5819 65.8019 83.583 64.4248 83.583H57.5752C56.198 83.583 54.9823 83.5819 53.917 83.5391V85.667C53.9168 86.3571 53.3571 86.9168 52.667 86.917C51.9767 86.917 51.4172 86.3572 51.417 85.667V83.292C50.1762 83.0583 49.1142 82.6201 48.2471 81.7529C47.2439 80.7498 46.813 79.4864 46.6113 77.9863C46.4171 76.5414 46.417 74.7041 46.417 72.4248V60.1807C46.4163 59.2219 46.4156 58.441 46.8154 57.5459C47.2141 56.6534 47.6781 56.237 48.2588 55.7168C48.2706 55.7063 48.2831 55.6962 48.2949 55.6855C50.3903 53.8077 54.5516 51.083 61 51.083ZM73.0801 73.9316C72.4465 74.0726 71.6405 74.2384 70.6924 74.4033C68.2454 74.8289 64.8382 75.2549 60.999 75.2549C57.1598 75.2549 53.7526 74.8289 51.3057 74.4033C50.358 74.2385 49.5524 74.0726 48.9189 73.9316C48.9251 75.1227 48.9481 76.0976 49.0137 76.917H51C51.6904 76.917 52.25 77.4766 52.25 78.167C52.2498 78.8572 51.6902 79.417 51 79.417H49.5918C49.7146 79.6396 49.8538 79.8245 50.0146 79.9854C50.4759 80.4466 51.1239 80.7467 52.3467 80.9111C53.6056 81.0804 55.2746 81.083 57.667 81.083H64.333C66.7254 81.083 68.3944 81.0804 69.6533 80.9111C70.8762 80.7467 71.5241 80.4466 71.9854 79.9854C72.1462 79.8245 72.2854 79.6396 72.4082 79.417H71C70.3098 79.417 69.7502 78.8572 69.75 78.167C69.75 77.4766 70.3096 76.917 71 76.917H72.9873C73.0529 76.0976 73.0739 75.1227 73.0801 73.9316ZM62.667 76.917C63.3572 76.9172 63.917 77.4767 63.917 78.167C63.9168 78.8571 63.3571 79.4168 62.667 79.417H59.333C58.6429 79.4168 58.0832 78.8571 58.083 78.167C58.083 77.4767 58.6428 76.9172 59.333 76.917H62.667ZM48.917 71.3652C48.9379 71.3702 48.9589 71.3767 48.9805 71.3818C49.6235 71.5331 50.5633 71.7368 51.7344 71.9404C54.079 72.3482 57.3385 72.7549 60.999 72.7549C64.6595 72.7549 67.919 72.3482 70.2637 71.9404C71.4347 71.7368 72.3746 71.5331 73.0176 71.3818C73.0398 71.3766 73.0615 71.3703 73.083 71.3652V60.25H48.917V71.3652ZM44.333 62.75C45.0234 62.75 45.583 63.3096 45.583 64V65.667C45.5828 66.3572 45.0233 66.917 44.333 66.917C43.6429 66.9168 43.0832 66.3571 43.083 65.667V64C43.083 63.3098 43.6428 62.7502 44.333 62.75ZM77.667 62.75C78.3572 62.7502 78.917 63.3098 78.917 64V65.667C78.9168 66.3571 78.3571 66.9168 77.667 66.917C76.9767 66.917 76.4172 66.3572 76.417 65.667V64C76.417 63.3096 76.9766 62.75 77.667 62.75ZM61 53.583C55.3162 53.583 51.7242 55.9685 49.9629 57.5469C49.8791 57.622 49.8061 57.6898 49.7402 57.75H72.2598C72.1939 57.6898 72.1209 57.622 72.0371 57.5469C70.2758 55.9685 66.6839 53.583 61 53.583Z" fill="#25306C"/>
<path d="M13.7728 25.4199C13.7728 29.2713 10.8521 32.3936 7.24912 32.3936C3.64617 32.3936 0.725403 29.2713 0.725403 25.4199C0.725403 21.5685 3.64617 18.4463 7.24912 18.4463C10.8521 18.4463 13.7728 21.5685 13.7728 25.4199Z" fill="#072776"/>
<path d="M109.604 22.2705C109.604 24.3826 107.892 26.0948 105.78 26.0948C103.668 26.0948 101.956 24.3826 101.956 22.2705C101.956 20.1585 103.668 18.4463 105.78 18.4463C107.892 18.4463 109.604 20.1585 109.604 22.2705Z" fill="#072776"/>
<path d="M120.852 75.8102C120.852 77.4253 119.543 78.7346 117.927 78.7346C116.312 78.7346 115.003 77.4253 115.003 75.8102C115.003 74.1951 116.312 72.8857 117.927 72.8857C119.543 72.8857 120.852 74.1951 120.852 75.8102Z" fill="#072776"/>
<path d="M60.5636 150.046C60.5636 151.661 59.2543 152.97 57.6392 152.97C56.0241 152.97 54.7148 151.661 54.7148 150.046C54.7148 148.43 56.0241 147.121 57.6392 147.121C59.2543 147.121 60.5636 148.43 60.5636 150.046Z" fill="#072776"/>
<path d="M21.4213 126.2C21.4213 128.312 19.7092 130.024 17.5971 130.024C15.485 130.024 13.7728 128.312 13.7728 126.2C13.7728 124.088 15.485 122.376 17.5971 122.376C19.7092 122.376 21.4213 124.088 21.4213 126.2Z" fill="#072776"/>
<path d="M59.2139 0L60.6281 4.9741H65.2044L61.5021 8.04826L62.9162 13.0224L59.2139 9.9482L55.5116 13.0224L56.9257 8.04826L53.2234 4.9741H57.7997L59.2139 0Z" fill="#072776"/>
<path d="M7.02414 80.5342L8.03426 83.9539L11.3031 83.9539L8.65854 86.0674L9.66866 89.4871L7.02414 87.3736L4.37963 89.4871L5.38974 86.0674L2.74523 83.9539L6.01403 83.9539L7.02414 80.5342Z" fill="#072776"/>
<path d="M96.5566 111.128L98.6778 118.745L105.542 118.745L99.9888 123.452L102.11 131.068L96.5566 126.361L91.0031 131.068L93.1243 123.452L87.5709 118.745L94.4353 118.745L96.5566 111.128Z" fill="#072776"/>
</svg>
