<svg width="64" height="64" viewBox="0 0 64 64" fill="none" xmlns="http://www.w3.org/2000/svg">
<g filter="url(#filter0_d_4244_10448)">
<rect x="12" y="6" width="40" height="40" rx="12" fill="url(#paint0_linear_4244_10448)"/>
</g>
<path d="M28.5392 34.5C26.1322 34.5 23.8885 33.7841 22 32.5488C23.6034 32.6549 26.4331 32.4008 28.1931 30.6841C25.5454 30.5598 24.3514 28.4833 24.1956 27.5958C24.4206 27.6846 25.4935 27.7911 26.0992 27.5426C23.0535 26.7617 22.5863 24.0284 22.6901 23.1942C23.2612 23.6024 24.2302 23.7444 24.611 23.7089C21.7729 21.6324 22.7939 18.5086 23.2958 17.8342C25.3325 20.7196 28.3848 22.3402 32.161 22.4304C32.0898 22.111 32.0522 21.7786 32.0522 21.4371C32.0522 18.9866 33.9891 17 36.3785 17C37.6269 17 38.7518 17.5423 39.5414 18.4098C40.3757 18.2099 41.6312 17.7419 42.245 17.3372C41.9356 18.4731 40.9724 19.4207 40.3898 19.7719C40.3851 19.7599 40.3946 19.7839 40.3898 19.7719C40.9016 19.6927 42.2863 19.4206 42.8333 19.0411C42.5628 19.6792 41.5417 20.7402 40.7037 21.3342C40.8596 28.3659 35.5986 34.5 28.5392 34.5Z" fill="white"/>
<defs>
<filter id="filter0_d_4244_10448" x="0" y="0" width="64" height="64" filterUnits="userSpaceOnUse" color-interpolation-filters="sRGB">
<feFlood flood-opacity="0" result="BackgroundImageFix"/>
<feColorMatrix in="SourceAlpha" type="matrix" values="0 0 0 0 0 0 0 0 0 0 0 0 0 0 0 0 0 0 127 0" result="hardAlpha"/>
<feOffset dy="6"/>
<feGaussianBlur stdDeviation="6"/>
<feColorMatrix type="matrix" values="0 0 0 0 0.0627451 0 0 0 0 0.631373 0 0 0 0 1 0 0 0 0.2 0"/>
<feBlend mode="normal" in2="BackgroundImageFix" result="effect1_dropShadow_4244_10448"/>
<feBlend mode="normal" in="SourceGraphic" in2="effect1_dropShadow_4244_10448" result="shape"/>
</filter>
<linearGradient id="paint0_linear_4244_10448" x1="16.4444" y1="13.7778" x2="46.4444" y2="38.7778" gradientUnits="userSpaceOnUse">
<stop stop-color="#3A6EFF"/>
<stop offset="1" stop-color="#06ADFF"/>
</linearGradient>
</defs>
</svg>
