<svg width="18" height="13" viewBox="0 0 18 13" fill="none" xmlns="http://www.w3.org/2000/svg">
<path d="M8.95801 0C11.0999 6.12114e-08 12.9361 0.942246 14.3574 2.05176C15.7798 3.16222 16.8317 4.47399 17.4199 5.29883C17.4345 5.31926 17.4499 5.34051 17.4648 5.36133C17.6758 5.65466 17.916 5.98966 17.916 6.45801C17.916 6.92636 17.6758 7.26136 17.4648 7.55469C17.4499 7.5755 17.4345 7.59676 17.4199 7.61719C16.8317 8.44203 15.7798 9.7538 14.3574 10.8643C12.9361 11.9738 11.0999 12.916 8.95801 12.916C6.81608 12.916 4.97991 11.9738 3.55859 10.8643C2.13618 9.7538 1.08436 8.44203 0.496094 7.61719C0.481526 7.59676 0.466138 7.5755 0.451172 7.55469C0.240259 7.26136 0 6.92636 0 6.45801C1.12349e-07 5.98966 0.240259 5.65466 0.451172 5.36133C0.466137 5.34051 0.481526 5.31926 0.496094 5.29883C1.08436 4.47399 2.13618 3.16222 3.55859 2.05176C4.97991 0.942246 6.81608 0 8.95801 0ZM8.95801 1.25C7.19246 1.25 5.62091 2.02708 4.32715 3.03711C3.03468 4.04613 2.06384 5.25393 1.51367 6.02539C1.37796 6.21569 1.31305 6.30873 1.27441 6.38281C1.24987 6.42997 1.24993 6.4434 1.25 6.45605V6.45996C1.24993 6.47262 1.24987 6.48605 1.27441 6.5332C1.31305 6.60728 1.37796 6.70033 1.51367 6.89062C2.06384 7.66209 3.03468 8.86988 4.32715 9.87891C5.62091 10.8889 7.19246 11.666 8.95801 11.666C10.7236 11.666 12.2951 10.8889 13.5889 9.87891C14.8813 8.86988 15.8522 7.66209 16.4023 6.89062C16.5381 6.70033 16.603 6.60728 16.6416 6.5332C16.6661 6.48605 16.6661 6.47262 16.666 6.45996V6.45605C16.6661 6.4434 16.6661 6.42997 16.6416 6.38281C16.603 6.30873 16.5381 6.21569 16.4023 6.02539C15.8522 5.25393 14.8813 4.04613 13.5889 3.03711C12.2951 2.02708 10.7236 1.25 8.95801 1.25ZM8.95801 3.33301C10.6839 3.33301 12.083 4.73212 12.083 6.45801C12.083 8.1839 10.6839 9.58301 8.95801 9.58301C7.23212 9.58301 5.83301 8.1839 5.83301 6.45801C5.83301 4.73212 7.23212 3.33301 8.95801 3.33301ZM8.95801 4.58301C7.92247 4.58301 7.08301 5.42247 7.08301 6.45801C7.08301 7.49354 7.92247 8.33301 8.95801 8.33301C9.99354 8.33301 10.833 7.49354 10.833 6.45801C10.833 5.42247 9.99354 4.58301 8.95801 4.58301Z" fill="#009CE7"/>
</svg>
