<svg width="61" height="22" viewBox="0 0 61 22" fill="none" xmlns="http://www.w3.org/2000/svg">
<path d="M8 3C12.4183 3 16 6.58172 16 11C16 15.4183 12.4183 19 8 19C3.58172 19 0 15.4183 0 11C0 6.58172 3.58172 3 8 3ZM8 4.75391C4.55064 4.75391 1.75391 7.55064 1.75391 11C1.75391 14.4494 4.55065 17.2451 8 17.2451C11.4494 17.2451 14.2461 14.4494 14.2461 11C14.2461 7.55064 11.4494 4.75391 8 4.75391Z" fill="white"/>
<path d="M8.55753 9.61011C8.19483 9.61011 7.92064 9.68999 7.73497 9.84975C7.54931 10.0052 7.45647 10.2405 7.45647 10.5557V10.8342H9.32179V11.6762H7.45647V13.3278H6.40723V10.5622C6.40723 9.97929 6.58858 9.52591 6.95128 9.20207C7.3183 8.87823 7.82997 8.71631 8.48628 8.71631C8.74536 8.71631 8.98932 8.74437 9.21817 8.80051C9.44701 8.85232 9.64563 8.93004 9.81403 9.03367L9.49019 9.86271C9.23112 9.69431 8.92023 9.61011 8.55753 9.61011Z" fill="white"/>
<path fill-rule="evenodd" clip-rule="evenodd" d="M8.70688 4.75419V7.35254H7.29315V4.75419H8.70688Z" fill="white"/>
<path fill-rule="evenodd" clip-rule="evenodd" d="M8.70688 14.6473V17.2456H7.29315V14.6473H8.70688Z" fill="white"/>
<path d="M20.658 16V9.154C20.658 8.594 20.7933 8.09467 21.064 7.656C21.3347 7.208 21.7033 6.85333 22.17 6.592C22.646 6.33067 23.178 6.2 23.766 6.2H27.532V8.37H24.158C23.9247 8.37 23.7287 8.44933 23.57 8.608C23.4113 8.76667 23.332 8.958 23.332 9.182V10.428H27.084V12.556H23.332V16H20.658ZM31.2832 16.182C30.6579 16.182 30.1026 16.0233 29.6172 15.706C29.1319 15.3887 28.7492 14.9547 28.4692 14.404C28.1986 13.844 28.0632 13.2093 28.0632 12.5C28.0632 11.7533 28.2266 11.086 28.5532 10.498C28.8892 9.91 29.3559 9.45267 29.9532 9.126C30.5506 8.79 31.2552 8.622 32.0672 8.622C32.8606 8.622 33.5419 8.78533 34.1112 9.112C34.6899 9.43867 35.1379 9.88667 35.4552 10.456C35.7726 11.0253 35.9312 11.6787 35.9312 12.416V16H33.5932V14.88H33.5372C33.4066 15.132 33.2386 15.356 33.0332 15.552C32.8279 15.748 32.5806 15.902 32.2912 16.014C32.0112 16.126 31.6752 16.182 31.2832 16.182ZM32.0112 14.068C32.3099 14.068 32.5666 13.998 32.7812 13.858C32.9959 13.7087 33.1639 13.508 33.2852 13.256C33.4066 13.004 33.4672 12.7193 33.4672 12.402C33.4672 12.0847 33.4066 11.8093 33.2852 11.576C33.1639 11.3333 32.9959 11.142 32.7812 11.002C32.5666 10.8527 32.3099 10.778 32.0112 10.778C31.7219 10.778 31.4652 10.8527 31.2412 11.002C31.0266 11.142 30.8586 11.3333 30.7372 11.576C30.6159 11.8093 30.5552 12.0847 30.5552 12.402C30.5552 12.7193 30.6159 13.004 30.7372 13.256C30.8586 13.508 31.0266 13.7087 31.2412 13.858C31.4652 13.998 31.7219 14.068 32.0112 14.068ZM37.3387 16V11.856C37.3387 11.24 37.488 10.6893 37.7867 10.204C38.0947 9.70933 38.524 9.322 39.0747 9.042C39.6347 8.762 40.288 8.622 41.0347 8.622C41.7813 8.622 42.4253 8.762 42.9667 9.042C43.508 9.322 43.9233 9.70933 44.2127 10.204C44.502 10.6893 44.6467 11.24 44.6467 11.856V16H42.2107V11.968C42.2107 11.7533 42.1593 11.5573 42.0567 11.38C41.954 11.1933 41.8093 11.044 41.6227 10.932C41.4453 10.82 41.2353 10.764 40.9927 10.764C40.7593 10.764 40.5447 10.82 40.3487 10.932C40.162 11.044 40.0173 11.1933 39.9147 11.38C39.812 11.5573 39.7607 11.7533 39.7607 11.968V16H37.3387ZM49.674 16C48.9273 16 48.26 15.846 47.672 15.538C47.084 15.23 46.622 14.8053 46.286 14.264C45.95 13.7227 45.782 13.102 45.782 12.402C45.782 11.702 45.95 11.0813 46.286 10.54C46.622 9.98933 47.084 9.56 47.672 9.252C48.26 8.944 48.9273 8.79 49.674 8.79H50.92V10.806H49.828C49.5013 10.806 49.2167 10.876 48.974 11.016C48.7313 11.156 48.5447 11.3473 48.414 11.59C48.2833 11.8327 48.218 12.1033 48.218 12.402C48.218 12.7007 48.2833 12.976 48.414 13.228C48.5447 13.4707 48.7313 13.662 48.974 13.802C49.2167 13.942 49.5013 14.012 49.828 14.012H50.92V16H49.674ZM54.4446 18.842V16C53.9406 15.8693 53.5066 15.6547 53.1426 15.356C52.7786 15.0573 52.4986 14.7027 52.3026 14.292C52.1066 13.872 52.0086 13.4193 52.0086 12.934V8.79H54.4306V12.808C54.4306 13.0227 54.4819 13.2233 54.5846 13.41C54.6873 13.5873 54.8319 13.7367 55.0186 13.858C55.2053 13.97 55.4199 14.026 55.6626 14.026C55.9053 14.026 56.1153 13.97 56.2926 13.858C56.4793 13.7367 56.6193 13.5873 56.7126 13.41C56.8153 13.2233 56.8666 13.0227 56.8666 12.808V8.79H59.3026V12.934C59.3026 13.4193 59.2046 13.872 59.0086 14.292C58.8219 14.712 58.5466 15.0713 58.1826 15.37C57.8279 15.6687 57.3939 15.8833 56.8806 16.014V18.842H54.4446Z" fill="white"/>
</svg>
