<svg width="64" height="64" viewBox="0 0 64 64" fill="none" xmlns="http://www.w3.org/2000/svg">
<g filter="url(#filter0_d_4244_10469)">
<rect x="12" y="6" width="40" height="40" rx="12" fill="url(#paint0_linear_4244_10469)"/>
</g>
<path d="M20.9254 37.6667L22.7147 31.4559C21.3294 29.1716 20.7763 26.517 21.141 23.9037C21.5057 21.2904 22.7679 18.8643 24.7319 17.0017C26.6959 15.1391 29.252 13.9439 32.0038 13.6015C34.7557 13.2591 37.5497 13.7885 39.9525 15.1078C42.3554 16.427 44.2329 18.4624 45.294 20.8983C46.3551 23.3342 46.5405 26.0345 45.8215 28.5807C45.1024 31.1269 43.5191 33.3766 41.317 34.9811C39.1149 36.5856 36.417 37.4552 33.6416 37.4552H33.6372C31.5319 37.4536 29.4604 36.9525 27.6109 35.9973L20.9254 37.6667ZM27.9201 33.8328L28.3027 34.0485C30.5098 35.2894 33.1193 35.7187 35.6372 35.2552C38.1552 34.7917 40.4069 33.4676 41.9662 31.5334C43.5254 29.5992 44.2841 27.1891 44.0986 24.7594C43.913 22.3297 42.7962 20.0488 40.9594 18.3486C39.1226 16.6484 36.6933 15.6467 34.1313 15.5331C31.5693 15.4196 29.0523 16.2021 27.0569 17.7325C25.0614 19.263 23.7258 21.4351 23.3029 23.8379C22.88 26.2407 23.3991 28.7073 24.762 30.771L25.0121 31.147L23.9518 34.8215L27.9184 33.8328H27.9201ZM36.919 31.231C36.5053 31.2331 36.0938 31.1736 35.6995 31.0547C35.0894 30.8749 34.4898 30.6645 33.9031 30.4244C31.7462 29.4154 29.9085 27.8825 28.5767 25.9812L28.5245 25.9081C27.7794 25.0208 27.3302 23.9425 27.2344 22.8112C27.2231 22.3594 27.3095 21.9103 27.4884 21.4916C27.6673 21.0729 27.9349 20.6936 28.2745 20.3772L28.3363 20.3134C28.4413 20.1989 28.5702 20.1065 28.7149 20.042C28.8596 19.9776 29.0169 19.9425 29.1766 19.9391C29.379 19.9391 29.5928 19.9391 29.7802 19.95H29.88C30.0744 19.95 30.2812 19.9894 30.4897 20.4628C30.5781 20.655 30.6956 20.937 30.8255 21.2366V21.245C31.0968 21.8728 31.4043 22.5837 31.4573 22.6853C31.5076 22.7636 31.5365 22.8527 31.5411 22.9443C31.5457 23.036 31.526 23.1273 31.4838 23.2098L31.4405 23.2937C31.3721 23.4454 31.2807 23.5868 31.1692 23.7134C31.1162 23.7721 31.0614 23.8351 31.0066 23.8989C30.9006 24.0223 30.791 24.1507 30.6965 24.2346C30.5445 24.379 30.3722 24.5426 30.5577 24.8456C31.0305 25.6155 31.6213 26.3142 32.3109 26.9187C32.9981 27.5057 33.785 27.9779 34.6383 28.3152C34.7267 28.3513 34.7938 28.379 34.8451 28.4034C34.9499 28.4603 35.0673 28.4934 35.1879 28.4999C35.2541 28.4979 35.319 28.4817 35.3777 28.4527C35.4364 28.4236 35.4875 28.3824 35.5272 28.332C35.6722 28.1742 36.3057 27.4709 36.5249 27.157C36.5599 27.0913 36.6128 27.0357 36.6781 26.9959C36.7433 26.9561 36.8185 26.9335 36.896 26.9304C37.0125 26.938 37.1269 26.9641 37.2344 27.0076C37.518 27.1067 39.0273 27.81 39.3869 27.9812L39.5636 28.0651C39.729 28.118 39.8772 28.2105 39.994 28.3337C40.0811 28.8161 40.0172 29.3123 39.8102 29.7605C39.579 30.1254 39.2705 30.4407 38.9042 30.6864C38.5379 30.932 38.1218 31.1026 37.6824 31.1873C37.4295 31.2207 37.1743 31.2361 36.919 31.2335V31.231Z" fill="#FDFDFD"/>
<defs>
<filter id="filter0_d_4244_10469" x="0" y="0" width="64" height="64" filterUnits="userSpaceOnUse" color-interpolation-filters="sRGB">
<feFlood flood-opacity="0" result="BackgroundImageFix"/>
<feColorMatrix in="SourceAlpha" type="matrix" values="0 0 0 0 0 0 0 0 0 0 0 0 0 0 0 0 0 0 127 0" result="hardAlpha"/>
<feOffset dy="6"/>
<feGaussianBlur stdDeviation="6"/>
<feColorMatrix type="matrix" values="0 0 0 0 0.239216 0 0 0 0 0.752941 0 0 0 0 0.309804 0 0 0 0.2 0"/>
<feBlend mode="normal" in2="BackgroundImageFix" result="effect1_dropShadow_4244_10469"/>
<feBlend mode="normal" in="SourceGraphic" in2="effect1_dropShadow_4244_10469" result="shape"/>
</filter>
<linearGradient id="paint0_linear_4244_10469" x1="49.5" y1="11" x2="12" y2="46" gradientUnits="userSpaceOnUse">
<stop stop-color="#5BD066"/>
<stop offset="1" stop-color="#27B43E"/>
</linearGradient>
</defs>
</svg>
